<svg width="1442" height="157" viewBox="0 0 1442 157" fill="none" xmlns="http://www.w3.org/2000/svg">
<path d="M72.1509 52.4252C86.6277 52.4252 98.3634 40.6894 98.3634 26.2127C98.3634 11.736 86.6277 0.000244141 72.1509 0.000244141C57.6742 0.000244141 45.9385 11.736 45.9385 26.2127C45.9385 40.6894 57.6742 52.4252 72.1509 52.4252Z" fill="#FBFBFB"/>
<path d="M177.001 52.4252C191.477 52.4252 203.213 40.6894 203.213 26.2127C203.213 11.736 191.477 0.000244141 177.001 0.000244141C162.524 0.000244141 150.788 11.736 150.788 26.2127C150.788 40.6894 162.524 52.4252 177.001 52.4252Z" fill="#FBFBFB"/>
<path d="M124.576 52.4252C139.052 52.4252 150.788 40.6894 150.788 26.2127C150.788 11.736 139.052 0.000244141 124.576 0.000244141C110.099 0.000244141 98.3633 11.736 98.3633 26.2127C98.3633 40.6894 110.099 52.4252 124.576 52.4252Z" fill="#FBFBFB"/>
<path d="M72.1507 104.575C86.6274 104.575 98.3632 92.8396 98.3632 78.3628C98.3632 63.8861 86.6274 52.1504 72.1507 52.1504C57.674 52.1504 45.9382 63.8861 45.9382 78.3628C45.9382 92.8396 57.674 104.575 72.1507 104.575Z" fill="#FBFBFB"/>
<path d="M177.001 104.575C191.477 104.575 203.213 92.8396 203.213 78.3628C203.213 63.8861 191.477 52.1504 177.001 52.1504C162.524 52.1504 150.788 63.8861 150.788 78.3628C150.788 92.8396 162.524 104.575 177.001 104.575Z" fill="#FBFBFB"/>
<path d="M124.576 104.575C139.052 104.575 150.788 92.8396 150.788 78.3628C150.788 63.8861 139.052 52.1504 124.576 52.1504C110.099 52.1504 98.3633 63.8861 98.3633 78.3628C98.3633 92.8396 110.099 104.575 124.576 104.575Z" fill="#FBFBFB"/>
<path d="M72.1507 157C86.6274 157 98.3632 145.265 98.3632 130.788C98.3632 116.311 86.6274 104.575 72.1507 104.575C57.674 104.575 45.9382 116.311 45.9382 130.788C45.9382 145.265 57.674 157 72.1507 157Z" fill="#FBFBFB"/>
<path d="M177 157C191.477 157 203.213 145.265 203.213 130.788C203.213 116.311 191.477 104.575 177 104.575C162.524 104.575 150.788 116.311 150.788 130.788C150.788 145.265 162.524 157 177 157Z" fill="#FBFBFB"/>
<path d="M124.575 157C139.052 157 150.788 145.265 150.788 130.788C150.788 116.311 139.052 104.575 124.575 104.575C110.099 104.575 98.363 116.311 98.363 130.788C98.363 145.265 110.099 157 124.575 157Z" fill="#FBFBFB"/>
<path d="M281.713 78.5002C324.19 78.5002 358.788 112.238 360.17 154.379C360.218 155.823 359.042 157 357.597 157H205.83C204.385 157 203.209 155.823 203.256 154.379C204.639 112.238 239.237 78.5002 281.713 78.5002Z" fill="#FBFBFB"/>
<path d="M281.713 78.5002C324.19 78.5002 358.788 44.7621 360.17 2.62188C360.218 1.17751 359.042 0.000244141 357.597 0.000244141H205.83C204.385 0.000244141 203.209 1.1775 203.256 2.62187C204.639 44.7621 239.237 78.5002 281.713 78.5002Z" fill="#FBFBFB"/>
<path d="M438.415 78.5811H514.22C515.663 78.5811 516.834 79.7514 516.834 81.195V154.386C516.834 155.83 515.658 157.005 514.215 156.957C472.118 155.576 438.415 121.014 438.415 78.5811Z" fill="#FBFBFB"/>
<path d="M438.632 77.9836V153.789C438.632 155.232 437.462 156.403 436.018 156.403H362.827C361.383 156.403 360.209 155.227 360.256 153.784C361.637 111.687 396.2 77.9836 438.632 77.9836Z" fill="#FBFBFB"/>
<path d="M514.22 0.161865C515.663 0.161865 516.838 1.33791 516.791 2.78079C515.409 44.8776 480.847 78.581 438.415 78.581V2.77584C438.415 1.33218 439.585 0.161865 441.029 0.161865H514.22Z" fill="#FBFBFB"/>
<path d="M360.213 2.61422C360.213 1.17056 361.389 -0.00419506 362.832 0.0431537C404.929 1.42458 438.633 35.9867 438.633 78.4194H362.827C361.384 78.4194 360.213 77.2491 360.213 75.8054V2.61422Z" fill="#FBFBFB"/>
<path d="M595.334 157V128.067H516.834V104.966L591.969 0.000244141H622.024V102.723H642.882V128.067H622.024V157H595.334ZM596.455 115.732V19.0645L603.632 21.0831L539.935 113.713L535.001 102.723H607.894L596.455 115.732Z" fill="#132A4C"/>
<path d="M595.334 157V128.067H516.834V104.966L591.969 0.000244141H622.024V102.723H642.882V128.067H622.024V157H595.334ZM596.455 115.732V19.0645L603.632 21.0831L539.935 113.713L535.001 102.723H607.894L596.455 115.732Z" fill="black" fill-opacity="0.2"/>
<path d="M721.382 0.000244141H798.382C799.211 0.000244141 799.882 0.671817 799.882 1.50024V78.5002C756.529 78.5002 721.382 43.3541 721.382 0.000244141Z" fill="#132A4C"/>
<path d="M721.382 0.000244141H798.382C799.211 0.000244141 799.882 0.671817 799.882 1.50024V78.5002C756.529 78.5002 721.382 43.3541 721.382 0.000244141Z" fill="black" fill-opacity="0.2"/>
<path d="M799.882 78.5002V155.5C799.882 156.329 799.211 157 798.382 157H721.382C721.382 113.646 756.529 78.5002 799.882 78.5002Z" fill="#132A4C"/>
<path d="M799.882 78.5002V155.5C799.882 156.329 799.211 157 798.382 157H721.382C721.382 113.646 756.529 78.5002 799.882 78.5002Z" fill="black" fill-opacity="0.2"/>
<path d="M721.382 0.000244141C721.382 43.3541 686.236 78.5002 642.882 78.5002V1.50025C642.882 0.671818 643.554 0.000244141 644.382 0.000244141H721.382Z" fill="#132A4C"/>
<path d="M721.382 0.000244141C721.382 43.3541 686.236 78.5002 642.882 78.5002V1.50025C642.882 0.671818 643.554 0.000244141 644.382 0.000244141H721.382Z" fill="black" fill-opacity="0.2"/>
<path d="M721.382 157C721.382 113.646 686.236 78.5002 642.882 78.5002V155.5C642.882 156.329 643.554 157 644.382 157H721.382Z" fill="#132A4C"/>
<path d="M721.382 157C721.382 113.646 686.236 78.5002 642.882 78.5002V155.5C642.882 156.329 643.554 157 644.382 157H721.382Z" fill="black" fill-opacity="0.2"/>
<path d="M878.382 157V128.067H799.882V104.966L875.018 0.000244141H905.072V102.723H925.931V128.067H905.072V157H878.382ZM879.504 115.732V19.0645L886.681 21.0831L822.984 113.713L818.049 102.723H890.942L879.504 115.732Z" fill="#132A4C"/>
<path d="M878.382 157V128.067H799.882V104.966L875.018 0.000244141H905.072V102.723H925.931V128.067H905.072V157H878.382ZM879.504 115.732V19.0645L886.681 21.0831L822.984 113.713L818.049 102.723H890.942L879.504 115.732Z" fill="black" fill-opacity="0.2"/>
<path d="M1082.05 37.297V2.79138C1082.05 1.28891 1080.84 0.0673828 1079.34 0.0673828H1029.72C1028.93 0.0673828 1028.17 0.421624 1027.65 1.03239L979.597 58.0995V2.79138C979.597 1.28646 978.383 0.0673828 976.886 0.0673828H928.643C927.145 0.0673828 925.931 1.28646 925.931 2.79138V154.209C925.931 155.714 927.145 156.933 928.643 156.933H976.888C978.386 156.933 979.6 155.714 979.6 154.209V70.2097L1026.2 134.503L1008.68 152.291C1006.98 154.011 1008.2 156.931 1010.6 156.931H1079.34C1080.83 156.931 1082.05 155.711 1082.05 154.207V85.1587C1082.05 82.7352 1079.14 81.521 1077.43 83.2263L1056.03 104.576L1004.12 63.699L1080.16 39.8915C1081.29 39.5373 1082.06 38.4867 1082.06 37.2945L1082.05 37.297Z" fill="#FBFBFB"/>
<path d="M1121.31 78.5002C1142.99 78.5002 1160.56 60.9274 1160.56 39.2502C1160.56 17.5731 1142.99 0.000244141 1121.31 0.000244141C1099.63 0.000244141 1082.06 17.5731 1082.06 39.2502C1082.06 60.9274 1099.63 78.5002 1121.31 78.5002Z" fill="#FBFBFB"/>
<path d="M1199.81 78.5002C1221.49 78.5002 1239.06 60.9274 1239.06 39.2502C1239.06 17.5731 1221.49 0.000244141 1199.81 0.000244141C1178.13 0.000244141 1160.56 17.5731 1160.56 39.2502C1160.56 60.9274 1178.13 78.5002 1199.81 78.5002Z" fill="#FBFBFB"/>
<path d="M1121.31 157C1142.99 157 1160.56 139.427 1160.56 117.75C1160.56 96.0731 1142.99 78.5002 1121.31 78.5002C1099.63 78.5002 1082.06 96.0731 1082.06 117.75C1082.06 139.427 1099.63 157 1121.31 157Z" fill="#FBFBFB"/>
<path d="M1199.81 157C1221.49 157 1239.06 139.427 1239.06 117.75C1239.06 96.0731 1221.49 78.5002 1199.81 78.5002C1178.13 78.5002 1160.56 96.0731 1160.56 117.75C1160.56 139.427 1178.13 157 1199.81 157Z" fill="#FBFBFB"/>
<path d="M1276.51 1.85207L1240.91 37.4571C1239.89 38.479 1239.89 40.1358 1240.91 41.1576L1278.36 78.6129L1317.67 39.3074L1280.21 1.85207C1279.19 0.830203 1277.54 0.830203 1276.51 1.85207Z" fill="#FBFBFB"/>
<path d="M1354.91 1.85036L1317.45 39.3057L1356.76 78.6112L1394.21 41.1559C1395.23 40.1341 1395.23 38.4773 1394.21 37.4554L1358.61 1.85036C1357.58 0.828497 1355.93 0.828497 1354.91 1.85036Z" fill="#FBFBFB"/>
<path d="M1278.37 78.389L1240.91 115.844C1239.89 116.866 1239.89 118.523 1240.91 119.545L1276.51 155.15C1277.54 156.172 1279.19 156.172 1280.22 155.15L1317.67 117.695L1278.37 78.389Z" fill="#FBFBFB"/>
<path d="M1356.75 78.3883L1317.45 117.694L1354.9 155.149C1355.92 156.171 1357.58 156.171 1358.6 155.149L1394.21 119.544C1395.23 118.522 1395.23 116.865 1394.21 115.844L1356.75 78.3883Z" fill="#FBFBFB"/>
</svg>
