<svg width="19" height="20" viewBox="0 0 19 20" fill="none" xmlns="http://www.w3.org/2000/svg">
<path d="M18.6691 0H12.6312C12.5339 0 12.4416 0.044717 12.3793 0.122753L6.53094 7.39851V0.347216C6.53094 0.155195 6.38294 0 6.20086 0H0.330081C0.147996 0 0 0.155195 0 0.347216V19.6519C0 19.8439 0.147996 19.9991 0.330081 19.9991H6.20086C6.38294 19.9991 6.53094 19.8439 6.53094 19.6519V8.94257L12.2013 17.1399L10.0695 19.4082C9.86334 19.6274 10.0105 20 10.304 20H18.6691C18.8512 20 18.9992 19.8448 18.9992 19.6528V10.8496C18.9992 10.541 18.6458 10.3858 18.4371 10.6032L15.8322 13.3257L9.51497 8.11399L18.768 5.07847C18.9061 5.03376 19 4.89961 19 4.74704V0.348093C19 0.156072 18.852 0.000876661 18.6699 0.000876661L18.6691 0Z" fill="#8FD6C1"/>
</svg>
