<svg width="24" height="24" viewBox="0 0 24 24" fill="none" xmlns="http://www.w3.org/2000/svg">
<path d="M11.9951 4.60645C12.083 4.60721 12.1609 4.62888 12.2354 4.68066L12.3096 4.74316L19.2578 11.6914C19.3178 11.7523 19.3494 11.8042 19.3662 11.8447H19.3672C19.3867 11.8916 19.3965 11.9427 19.3965 12.001C19.3965 12.0592 19.3864 12.1094 19.3672 12.1553V12.1562C19.3505 12.1963 19.3183 12.2473 19.2588 12.3076L12.3037 19.2568C12.1983 19.3609 12.0991 19.3965 11.9922 19.3965C11.8871 19.3964 11.7942 19.3614 11.6963 19.2607L11.6924 19.2568L11.6309 19.1846C11.5797 19.1117 11.5596 19.0377 11.5596 18.9551C11.5596 18.8453 11.5957 18.7511 11.6924 18.6543L17.1992 13.1465L17.9111 12.4355H4.70215C4.55951 12.4355 4.4651 12.3919 4.3877 12.3145C4.31003 12.2368 4.26758 12.1424 4.26758 12C4.26758 11.8576 4.31004 11.7632 4.3877 11.6855C4.4651 11.6081 4.55951 11.5645 4.70215 11.5645H17.9111L17.1992 10.8535L11.6982 5.35254C11.6259 5.28018 11.5862 5.20688 11.5703 5.12598L11.5615 5.04199C11.5607 4.95694 11.5806 4.8819 11.6309 4.80957L11.6924 4.7373C11.7875 4.64149 11.882 4.60555 11.9951 4.60645Z" fill="#132A4C"/>
<path d="M11.9951 4.60645C12.083 4.60721 12.1609 4.62888 12.2354 4.68066L12.3096 4.74316L19.2578 11.6914C19.3178 11.7523 19.3494 11.8042 19.3662 11.8447H19.3672C19.3867 11.8916 19.3965 11.9427 19.3965 12.001C19.3965 12.0592 19.3864 12.1094 19.3672 12.1553V12.1562C19.3505 12.1963 19.3183 12.2473 19.2588 12.3076L12.3037 19.2568C12.1983 19.3609 12.0991 19.3965 11.9922 19.3965C11.8871 19.3964 11.7942 19.3614 11.6963 19.2607L11.6924 19.2568L11.6309 19.1846C11.5797 19.1117 11.5596 19.0377 11.5596 18.9551C11.5596 18.8453 11.5957 18.7511 11.6924 18.6543L17.1992 13.1465L17.9111 12.4355H4.70215C4.55951 12.4355 4.4651 12.3919 4.3877 12.3145C4.31003 12.2368 4.26758 12.1424 4.26758 12C4.26758 11.8576 4.31004 11.7632 4.3877 11.6855C4.4651 11.6081 4.55951 11.5645 4.70215 11.5645H17.9111L17.1992 10.8535L11.6982 5.35254C11.6259 5.28018 11.5862 5.20688 11.5703 5.12598L11.5615 5.04199C11.5607 4.95694 11.5806 4.8819 11.6309 4.80957L11.6924 4.7373C11.7875 4.64149 11.882 4.60555 11.9951 4.60645Z" fill="black" fill-opacity="0.2"/>
<path d="M11.9951 4.60645C12.083 4.60721 12.1609 4.62888 12.2354 4.68066L12.3096 4.74316L19.2578 11.6914C19.3178 11.7523 19.3494 11.8042 19.3662 11.8447H19.3672C19.3867 11.8916 19.3965 11.9427 19.3965 12.001C19.3965 12.0592 19.3864 12.1094 19.3672 12.1553V12.1562C19.3505 12.1963 19.3183 12.2473 19.2588 12.3076L12.3037 19.2568C12.1983 19.3609 12.0991 19.3965 11.9922 19.3965C11.8871 19.3964 11.7942 19.3614 11.6963 19.2607L11.6924 19.2568L11.6309 19.1846C11.5797 19.1117 11.5596 19.0377 11.5596 18.9551C11.5596 18.8453 11.5957 18.7511 11.6924 18.6543L17.1992 13.1465L17.9111 12.4355H4.70215C4.55951 12.4355 4.4651 12.3919 4.3877 12.3145C4.31003 12.2368 4.26758 12.1424 4.26758 12C4.26758 11.8576 4.31004 11.7632 4.3877 11.6855C4.4651 11.6081 4.55951 11.5645 4.70215 11.5645H17.9111L17.1992 10.8535L11.6982 5.35254C11.6259 5.28018 11.5862 5.20688 11.5703 5.12598L11.5615 5.04199C11.5607 4.95694 11.5806 4.8819 11.6309 4.80957L11.6924 4.7373C11.7875 4.64149 11.882 4.60555 11.9951 4.60645Z" stroke="#132A4C" stroke-width="0.833333"/>
<path d="M11.9951 4.60645C12.083 4.60721 12.1609 4.62888 12.2354 4.68066L12.3096 4.74316L19.2578 11.6914C19.3178 11.7523 19.3494 11.8042 19.3662 11.8447H19.3672C19.3867 11.8916 19.3965 11.9427 19.3965 12.001C19.3965 12.0592 19.3864 12.1094 19.3672 12.1553V12.1562C19.3505 12.1963 19.3183 12.2473 19.2588 12.3076L12.3037 19.2568C12.1983 19.3609 12.0991 19.3965 11.9922 19.3965C11.8871 19.3964 11.7942 19.3614 11.6963 19.2607L11.6924 19.2568L11.6309 19.1846C11.5797 19.1117 11.5596 19.0377 11.5596 18.9551C11.5596 18.8453 11.5957 18.7511 11.6924 18.6543L17.1992 13.1465L17.9111 12.4355H4.70215C4.55951 12.4355 4.4651 12.3919 4.3877 12.3145C4.31003 12.2368 4.26758 12.1424 4.26758 12C4.26758 11.8576 4.31004 11.7632 4.3877 11.6855C4.4651 11.6081 4.55951 11.5645 4.70215 11.5645H17.9111L17.1992 10.8535L11.6982 5.35254C11.6259 5.28018 11.5862 5.20688 11.5703 5.12598L11.5615 5.04199C11.5607 4.95694 11.5806 4.8819 11.6309 4.80957L11.6924 4.7373C11.7875 4.64149 11.882 4.60555 11.9951 4.60645Z" stroke="black" stroke-opacity="0.2" stroke-width="0.833333"/>
</svg>
