<svg width="19" height="21" viewBox="0 0 19 21" fill="none" xmlns="http://www.w3.org/2000/svg">
<g clip-path="url(#clip0_9962_2872)">
<path d="M11.48 13.62C11.18 13.88 10.91 14.15 10.61 14.39C10.03 14.87 9.39 15.22 8.65 15.36C7.64 15.56 6.62 15.6 5.64 15.25C4.36 14.79 3.62 13.85 3.34 12.54C3.16 11.69 3.17 10.83 3.41 10C3.86 8.47 4.91 7.51 6.38 6.97C7.02 6.74 7.68 6.59 8.35 6.5C9.07 6.41 9.79 6.33 10.51 6.25C10.65 6.23 10.79 6.22 10.93 6.21C10.94 6.18 10.96 6.15 10.96 6.12C10.94 5.6 10.96 5.07 10.88 4.55C10.8 3.98 10.45 3.57 9.89 3.39C9.02 3.11 8.23 3.25 7.55 3.88C7.34 4.08 7.2 4.33 7.11 4.61C7.07 4.74 7.03 4.88 6.98 5.01C6.89 5.24 6.69 5.35 6.45 5.32C5.84 5.25 5.23 5.18 4.63 5.11C4.44 5.09 4.25 5.07 4.06 5.05C3.81 5.02 3.64 4.83 3.66 4.58C3.7 4.12 3.85 3.7 4.04 3.29C4.61 2.1 5.57 1.36 6.79 0.92C7.48 0.67 8.2 0.55 8.94 0.5C9.66 0.45 10.37 0.5 11.08 0.64C11.78 0.78 12.45 1.03 13.04 1.44C13.79 1.95 14.26 2.65 14.47 3.54C14.6 4.09 14.64 4.65 14.65 5.21C14.66 6.96 14.65 8.71 14.65 10.47C14.65 11.26 14.93 11.95 15.42 12.56C15.52 12.69 15.61 12.82 15.7 12.96C15.85 13.21 15.82 13.39 15.61 13.57C14.97 14.13 14.32 14.69 13.68 15.24C13.39 15.49 13.16 15.47 12.86 15.23C12.35 14.81 11.95 14.3 11.6 13.75C11.58 13.72 11.56 13.68 11.53 13.65C11.53 13.64 11.51 13.63 11.49 13.62H11.48ZM10.96 8.34C10.88 8.34 10.81 8.33 10.75 8.33C10.49 8.34 10.22 8.35 9.96 8.37C9.37 8.41 8.81 8.53 8.29 8.81C7.69 9.12 7.28 9.6 7.14 10.28C7.06 10.65 7.04 11.03 7.1 11.41C7.17 11.87 7.35 12.27 7.72 12.58C8.2 12.98 9.18 12.93 9.69 12.58C10.39 12.08 10.76 11.38 10.88 10.56C10.97 9.98 10.95 9.38 10.98 8.79C10.98 8.66 10.98 8.52 10.98 8.36L10.96 8.34Z" fill="#AEBBCE"/>
<path d="M0.150021 15.66C0.220021 15.69 0.290021 15.72 0.350021 15.77C1.18002 16.33 2.03002 16.85 2.93002 17.29C3.70002 17.67 4.51002 17.97 5.34002 18.19C5.94002 18.35 6.55002 18.51 7.16002 18.61C8.20002 18.78 9.25002 18.85 10.3 18.79C11.24 18.73 12.17 18.57 13.08 18.35C14.22 18.07 15.31 17.66 16.36 17.12C16.47 17.07 16.57 17 16.69 16.98C16.78 16.96 16.9 16.98 16.96 17.03C17.06 17.11 17.13 17.23 17.06 17.36C17.01 17.47 16.95 17.58 16.86 17.65C15.85 18.54 14.7 19.22 13.44 19.71C12.52 20.07 11.57 20.33 10.59 20.44C8.92002 20.62 7.28002 20.47 5.69002 19.91C4.57002 19.52 3.52002 18.99 2.55002 18.3C1.85002 17.8 1.17002 17.26 0.580021 16.63C0.400021 16.44 0.230021 16.25 0.0700214 16.04C-0.0499786 15.89 -0.0299786 15.79 0.150021 15.68V15.66Z" fill="#AEBBCE"/>
<path d="M15.1 16.3C15.1 16.3 15.14 16.19 15.18 16.16C15.26 16.09 15.34 16.03 15.43 15.98C16.15 15.57 16.92 15.45 17.73 15.53C17.96 15.55 18.18 15.6 18.4 15.66C18.62 15.72 18.66 15.82 18.66 16.04C18.67 16.64 18.51 17.2 18.28 17.75C18.11 18.15 17.88 18.5 17.57 18.8C17.51 18.86 17.44 18.92 17.36 18.96C17.28 19.01 17.2 19.01 17.14 18.92C17.14 18.9 17.14 18.86 17.15 18.84C17.31 18.41 17.48 17.98 17.62 17.54C17.69 17.31 17.73 17.05 17.75 16.81C17.78 16.49 17.65 16.33 17.34 16.31C16.98 16.28 16.61 16.28 16.25 16.29C15.93 16.29 15.62 16.34 15.3 16.36C15.24 16.36 15.18 16.36 15.12 16.35C15.11 16.34 15.09 16.32 15.08 16.31L15.1 16.3Z" fill="#AEBBCE"/>
</g>
<defs>
<clipPath id="clip0_9962_2872">
<rect width="18.67" height="20" fill="white" transform="translate(0 0.5)"/>
</clipPath>
</defs>
</svg>
