<svg width="21" height="21" viewBox="0 0 21 21" fill="none" xmlns="http://www.w3.org/2000/svg">
<g clip-path="url(#clip0_9962_2883)">
<path d="M0.276001 10.5C0.276001 4.99 4.736 0.5 10.276 0.5C15.816 0.5 20.286 4.99 20.276 10.51C20.276 16.04 15.776 20.52 10.246 20.5C4.736 20.49 0.276001 16.01 0.276001 10.5ZM10.276 17.17C13.966 17.17 16.956 14.18 16.946 10.5C16.946 6.81 13.966 3.83 10.276 3.83C6.586 3.83 3.596 6.82 3.596 10.5C3.596 14.18 6.586 17.17 10.276 17.17Z" fill="#AEBBCE"/>
<path d="M6.84601 10.5C6.84601 8.6 8.38601 7.07 10.286 7.08C12.176 7.08 13.706 8.62 13.706 10.51C13.706 12.41 12.166 13.94 10.266 13.93C8.37601 13.93 6.84601 12.39 6.84601 10.5Z" fill="#AEBBCE"/>
</g>
<defs>
<clipPath id="clip0_9962_2883">
<rect width="20.01" height="20" fill="white" transform="translate(0.276001 0.5)"/>
</clipPath>
</defs>
</svg>
