<svg width="20" height="21" viewBox="0 0 20 21" fill="none" xmlns="http://www.w3.org/2000/svg">
<g clip-path="url(#clip0_9962_2876)">
<path d="M8.30347 1.7535C8.30347 0.714 9.09097 -0.0419996 10.0255 3.69968e-07C11.0755 0.0525004 11.758 0.924 11.632 1.9425C11.527 2.7825 11.485 3.6225 11.3905 4.4625C11.317 5.1555 11.2435 5.8485 11.1385 6.5415C11.044 7.161 10.561 7.56 9.97297 7.5705C9.38497 7.5705 8.90197 7.1715 8.80747 6.552C8.69197 5.754 8.59747 4.9455 8.51347 4.1475C8.42947 3.402 8.37697 2.667 8.31397 1.9215C8.31397 1.8585 8.31397 1.7955 8.31397 1.7745L8.30347 1.7535Z" fill="#AEBBCE"/>
<path d="M9.95195 21C8.96495 21 8.20895 20.1285 8.31395 19.11C8.41895 18.102 8.50295 17.094 8.60795 16.0965C8.67095 15.519 8.73395 14.9415 8.83895 14.3745C8.99645 13.5975 9.86795 13.209 10.561 13.608C10.8655 13.776 11.086 14.0385 11.1385 14.3955C11.2225 14.973 11.3064 15.5505 11.3694 16.1385C11.4534 16.947 11.5375 17.7555 11.6005 18.5745C11.632 18.9315 11.674 19.2885 11.6215 19.635C11.4955 20.475 10.813 21.0105 9.96245 21.0105L9.95195 21Z" fill="#AEBBCE"/>
<path d="M0.669985 14.973C0.690985 14.238 0.995485 13.7235 1.60448 13.4295C2.55999 12.9675 3.53649 12.5265 4.51299 12.0855C4.97499 11.8755 5.43699 11.676 5.89899 11.4975C6.49749 11.2665 7.06449 11.4345 7.38999 11.9385C7.71549 12.4215 7.61049 13.1355 7.14849 13.482C6.36099 14.0805 5.56299 14.6685 4.76499 15.2565C4.29249 15.603 3.80948 15.9285 3.32648 16.2645C2.34998 16.9575 1.05848 16.5165 0.722485 15.372C0.680485 15.225 0.680485 15.0675 0.659485 14.973H0.669985Z" fill="#AEBBCE"/>
<path d="M19.276 14.994C19.276 15.603 18.961 16.0965 18.394 16.401C17.7955 16.7265 17.1865 16.674 16.63 16.275C15.37 15.372 14.1205 14.469 12.871 13.545C12.3565 13.167 12.22 12.5265 12.493 12.0225C12.787 11.4765 13.396 11.235 14.005 11.487C14.824 11.8125 15.6325 12.18 16.441 12.537C17.0815 12.8205 17.7115 13.104 18.331 13.4295C18.94 13.7445 19.2655 14.2485 19.2655 15.0045L19.276 14.994Z" fill="#AEBBCE"/>
<path d="M0.669985 6.153C0.690985 5.4285 0.974485 4.9245 1.56248 4.6095C2.12948 4.305 2.72798 4.3155 3.25298 4.6935C4.55498 5.6175 5.84649 6.552 7.12748 7.497C7.61049 7.854 7.72599 8.4945 7.43198 9.0195C7.15898 9.513 6.56048 9.7545 6.00398 9.534C5.27948 9.2505 4.56548 8.9355 3.84098 8.6205C3.15848 8.316 2.48648 7.9905 1.80398 7.686C1.28948 7.455 0.890485 7.098 0.722485 6.531C0.680485 6.384 0.669985 6.2265 0.659485 6.132L0.669985 6.153Z" fill="#AEBBCE"/>
<path d="M19.2759 6.00601C19.2759 6.80401 18.9189 7.32901 18.2784 7.62301C16.9344 8.25301 15.5694 8.84101 14.2149 9.45001C13.8369 9.61801 13.4589 9.702 13.0599 9.52351C12.2829 9.177 12.1044 8.14801 12.7449 7.57051C13.0389 7.30801 13.3644 7.06651 13.6794 6.83551C14.6664 6.12151 15.6429 5.41801 16.6404 4.72501C17.6169 4.05301 18.8664 4.50451 19.2024 5.64901C19.2444 5.78551 19.2444 5.93251 19.2549 6.00601H19.2759Z" fill="#AEBBCE"/>
</g>
<defs>
<clipPath id="clip0_9962_2876">
<rect width="18.606" height="21" fill="white" transform="translate(0.669983)"/>
</clipPath>
</defs>
</svg>
