<svg width="16" height="17" viewBox="0 0 16 17" fill="none" xmlns="http://www.w3.org/2000/svg">
<g clip-path="url(#clip0_10116_925)">
<path d="M12.8096 16.196C12.452 16.196 12.156 16.0728 11.9024 15.8192C11.6488 15.5656 11.5256 15.2688 11.5248 14.912C11.5248 14.556 11.648 14.26 11.9016 14.0072C12.1568 13.7536 12.4536 13.6296 12.8088 13.6288C13.1656 13.6288 13.46 13.752 13.7144 14.0064C13.9696 14.2616 14.0928 14.5568 14.0912 14.9112C14.0896 15.2664 13.9664 15.564 13.7128 15.82C13.4632 16.0728 13.1704 16.1952 12.8168 16.1952H12.8096V16.196ZM4.79284 16.196C4.43524 16.196 4.13924 16.0728 3.88564 15.8192C3.63204 15.5656 3.50884 15.2688 3.50804 14.912C3.50804 14.556 3.63124 14.26 3.88484 14.0072C4.14004 13.7536 4.43684 13.6296 4.79204 13.6288C5.14884 13.6288 5.44324 13.752 5.69764 14.0064C5.95204 14.2608 6.07604 14.5568 6.07444 14.9112C6.07284 15.2664 5.94964 15.564 5.69604 15.82C5.44644 16.0728 5.15364 16.1952 4.80004 16.1952H4.79284V16.196ZM4.79124 12.188C4.30164 12.188 3.95604 11.9872 3.70484 11.556C3.45204 11.1216 3.44084 10.7208 3.67044 10.2952L4.83044 8.19042L1.78724 1.76642H0.783236C0.641636 1.76642 0.532036 1.72322 0.439236 1.62962C0.345636 1.53602 0.301636 1.42562 0.301636 1.28402C0.301636 1.14322 0.344836 1.03442 0.438436 0.940823C0.532836 0.847223 0.642436 0.803223 0.783236 0.803223H2.08564C2.17444 0.803223 2.25844 0.828023 2.34244 0.877623C2.42084 0.924823 2.47604 0.988023 2.51604 1.07602L3.14564 2.40562H15.1728C15.3672 2.40562 15.4944 2.48162 15.5976 2.65842C15.7024 2.83682 15.7064 2.99762 15.6104 3.17922L12.768 8.30322C12.6472 8.52242 12.492 8.68642 12.2936 8.80482C12.0952 8.92322 11.8832 8.98002 11.6448 8.98002H5.48324L4.24964 11.2232H13.6088C13.7512 11.2232 13.8608 11.2664 13.9544 11.36C14.048 11.4536 14.0912 11.5624 14.0904 11.704C14.0904 11.8464 14.0464 11.9568 13.9528 12.0504C13.8608 12.1432 13.7528 12.1864 13.6136 12.1864H4.79124V12.188Z" fill="#5B6B84"/>
</g>
<defs>
<clipPath id="clip0_10116_925">
<rect width="16" height="16" fill="white" transform="translate(0 0.5)"/>
</clipPath>
</defs>
</svg>
