<svg width="49" height="49" viewBox="0 0 49 49" fill="none" xmlns="http://www.w3.org/2000/svg">
<path d="M24.8232 32.5792C44.5832 32.5775 44.6609 32.5781 44.9515 32.7264C45.3279 32.9184 45.3758 32.9971 46.9027 35.9296C47.177 36.4563 47.6901 37.4342 48.0429 38.1028C48.7353 39.4147 48.8913 39.8871 48.8294 40.4827C48.6988 41.7365 47.9513 42.6991 46.7532 43.1562C46.3944 43.293 45.8365 43.2972 25.0988 43.3158C10.9972 43.3285 3.67508 43.3098 3.40518 43.2606C2.83777 43.1569 2.14242 42.7979 1.75136 42.4067C1.34298 41.9983 0.997054 41.3104 0.888107 40.6901C0.746307 39.8822 0.852398 39.5982 2.33551 36.8136C2.46501 36.5705 2.81202 35.9074 3.10666 35.3402C4.32801 32.989 4.4026 32.8688 4.74488 32.7001C4.96572 32.5912 6.70094 32.5807 24.8232 32.5792Z" fill="#132A4C"/>
<path d="M24.8232 32.5792C44.5832 32.5775 44.6609 32.5781 44.9515 32.7264C45.3279 32.9184 45.3758 32.9971 46.9027 35.9296C47.177 36.4563 47.6901 37.4342 48.0429 38.1028C48.7353 39.4147 48.8913 39.8871 48.8294 40.4827C48.6988 41.7365 47.9513 42.6991 46.7532 43.1562C46.3944 43.293 45.8365 43.2972 25.0988 43.3158C10.9972 43.3285 3.67508 43.3098 3.40518 43.2606C2.83777 43.1569 2.14242 42.7979 1.75136 42.4067C1.34298 41.9983 0.997054 41.3104 0.888107 40.6901C0.746307 39.8822 0.852398 39.5982 2.33551 36.8136C2.46501 36.5705 2.81202 35.9074 3.10666 35.3402C4.32801 32.989 4.4026 32.8688 4.74488 32.7001C4.96572 32.5912 6.70094 32.5807 24.8232 32.5792Z" fill="black" fill-opacity="0.2"/>
<path d="M8.00677 6.05865C8.25023 6.02845 15.9736 6.00872 25.1701 6.01476C41.2797 6.02544 41.9049 6.03088 42.2598 6.16298C43.1572 6.49707 43.7667 7.04245 44.1941 7.89386L44.4696 8.44255V19.3259C44.4696 30.1958 44.4694 30.2095 44.3179 30.4172C44.2346 30.5316 44.0203 30.6998 43.842 30.7909L43.5176 30.9567H6.15961L5.8352 30.7909C5.65686 30.6998 5.44264 30.5317 5.35925 30.4172C5.20825 30.2102 5.20743 30.164 5.17074 19.6244C5.14194 11.352 5.15397 8.94676 5.2255 8.61458C5.40737 7.77003 5.94295 7.00482 6.68082 6.53503C7.14901 6.23695 7.45423 6.12731 8.00677 6.05865Z" fill="#132A4C"/>
<path d="M8.00677 6.05865C8.25023 6.02845 15.9736 6.00872 25.1701 6.01476C41.2797 6.02544 41.9049 6.03088 42.2598 6.16298C43.1572 6.49707 43.7667 7.04245 44.1941 7.89386L44.4696 8.44255V19.3259C44.4696 30.1958 44.4694 30.2095 44.3179 30.4172C44.2346 30.5316 44.0203 30.6998 43.842 30.7909L43.5176 30.9567H6.15961L5.8352 30.7909C5.65686 30.6998 5.44264 30.5317 5.35925 30.4172C5.20825 30.2102 5.20743 30.164 5.17074 19.6244C5.14194 11.352 5.15397 8.94676 5.2255 8.61458C5.40737 7.77003 5.94295 7.00482 6.68082 6.53503C7.14901 6.23695 7.45423 6.12731 8.00677 6.05865Z" fill="black" fill-opacity="0.2"/>
</svg>
