<svg width="48" height="48" viewBox="0 0 48 48" fill="none" xmlns="http://www.w3.org/2000/svg">
<path fill-rule="evenodd" clip-rule="evenodd" d="M24.0446 3.62931C31.7619 3.6203 33.0029 3.63357 33.6386 3.73188C35.7417 4.057 37.4121 4.8886 38.7504 6.27693C39.7534 7.31745 40.2529 8.1902 40.9238 10.0751C41.1074 10.591 41.645 12.1004 42.1184 13.4294C42.5917 14.7585 43.0057 15.839 43.0381 15.8305C43.0708 15.8219 43.2938 15.7339 43.534 15.6349C43.8188 15.5175 44.1829 15.439 44.58 15.4092C46.0378 15.2999 47.1695 15.8143 47.6576 16.8083C47.8341 17.1677 47.8581 17.2986 47.8581 17.9019C47.8581 18.7638 47.7049 19.124 47.1924 19.4662C46.8287 19.7091 46.0723 19.9631 45.9455 19.885C45.9042 19.8595 46.0996 20.1243 46.3797 20.4734C46.9972 21.243 47.5383 22.3124 47.804 23.2882L47.9973 23.9973L47.9997 28.5419C48.0027 33.7708 47.9887 33.99 47.5954 34.8305C47.3056 35.4498 46.6459 36.0442 45.8389 36.4132L45.2264 36.6933L45.2257 38.677C45.2251 40.5652 45.2168 40.6878 45.0522 41.2212C44.5861 42.7317 43.3852 43.8822 41.8737 44.2665C41.3172 44.4079 40.3158 44.4061 39.6932 44.2624C38.3559 43.9538 37.1796 42.9525 36.6591 41.6797C36.3368 40.8916 36.2801 40.429 36.2801 38.5868V36.8736H11.7681L11.7356 38.7311C11.7067 40.3776 11.6849 40.6501 11.5435 41.1296C11.1253 42.5476 10.0851 43.6515 8.70088 44.1461C8.0277 44.3866 6.84006 44.4457 6.10927 44.2751C4.62433 43.9284 3.42439 42.7819 2.89261 41.2018C2.80951 40.9547 2.77351 40.3716 2.74213 38.762L2.70085 36.6467L2.34017 36.4934C1.16787 35.9952 0.440953 35.212 0.150384 34.134C0.00741497 33.6035 -0.0606588 25.3368 0.0687383 24.2171C0.236307 22.7672 0.810978 21.4523 1.77591 20.311L2.08706 19.9429L1.62375 19.8176C0.696411 19.5665 0.205384 18.9535 0.167855 18C0.127317 16.9701 0.588593 16.1647 1.46038 15.7435C2.33697 15.3199 3.48069 15.2783 4.46677 15.634C4.75195 15.7369 4.99893 15.8075 5.01596 15.7912C5.04759 15.7593 5.52151 14.4383 6.67875 11.1572C7.6605 8.37344 8.10471 7.49201 9.05297 6.44592C9.91512 5.49484 11.3273 4.61853 12.7642 4.14279C14.306 3.63243 14.1212 3.64078 24.0446 3.62931ZM10.1839 22.7031C9.50909 22.5393 9.28973 22.5274 8.79634 22.6281C8.13728 22.7625 7.77069 22.9062 7.31452 23.2089C6.5378 23.7245 5.99699 24.5756 5.78037 25.6232C5.66986 26.1576 5.67004 26.2379 5.7822 26.7802C6.09686 28.302 7.02439 29.3214 8.43629 29.6971C10.4153 30.2237 12.4875 28.8407 12.8386 26.7589C13.1444 24.946 11.9582 23.1338 10.1839 22.7031ZM39.5443 22.7033C38.8656 22.5386 38.6495 22.5275 38.1297 22.6306C37.3349 22.7883 36.7682 23.0958 36.1764 23.6908C35.7486 24.1207 35.6137 24.3162 35.4168 24.7908C34.8339 26.1959 35.1439 27.7604 36.2124 28.8068C36.5987 29.185 37.4133 29.6043 37.9969 29.7251C39.972 30.134 41.8064 28.8821 42.242 26.8279C42.6206 25.0427 41.3824 23.1497 39.5443 22.7033ZM33.7194 8.05729C33.1364 7.89716 32.7463 7.893 22.899 7.94162C13.6445 7.98728 14.3454 7.95187 13.3772 8.42227C12.8462 8.68033 12.0113 9.48565 11.7012 10.0391C11.4877 10.4201 11.3249 10.858 10.0252 14.5475C9.70375 15.46 9.3575 16.439 9.25571 16.7229C9.08996 17.185 9.08086 17.2606 9.16892 17.4443C9.23363 17.5793 9.36159 17.6803 9.54306 17.7398C9.76137 17.8112 12.8608 17.8263 24.3247 17.8119L38.8307 17.7937L38.8886 17.5773C38.9363 17.3991 38.754 16.7867 37.8581 14.1147C37.2596 12.3295 36.6516 10.6256 36.5069 10.328C36.0014 9.28797 34.883 8.37693 33.7194 8.05729Z" fill="#132A4C"/>
<path fill-rule="evenodd" clip-rule="evenodd" d="M24.0446 3.62931C31.7619 3.6203 33.0029 3.63357 33.6386 3.73188C35.7417 4.057 37.4121 4.8886 38.7504 6.27693C39.7534 7.31745 40.2529 8.1902 40.9238 10.0751C41.1074 10.591 41.645 12.1004 42.1184 13.4294C42.5917 14.7585 43.0057 15.839 43.0381 15.8305C43.0708 15.8219 43.2938 15.7339 43.534 15.6349C43.8188 15.5175 44.1829 15.439 44.58 15.4092C46.0378 15.2999 47.1695 15.8143 47.6576 16.8083C47.8341 17.1677 47.8581 17.2986 47.8581 17.9019C47.8581 18.7638 47.7049 19.124 47.1924 19.4662C46.8287 19.7091 46.0723 19.9631 45.9455 19.885C45.9042 19.8595 46.0996 20.1243 46.3797 20.4734C46.9972 21.243 47.5383 22.3124 47.804 23.2882L47.9973 23.9973L47.9997 28.5419C48.0027 33.7708 47.9887 33.99 47.5954 34.8305C47.3056 35.4498 46.6459 36.0442 45.8389 36.4132L45.2264 36.6933L45.2257 38.677C45.2251 40.5652 45.2168 40.6878 45.0522 41.2212C44.5861 42.7317 43.3852 43.8822 41.8737 44.2665C41.3172 44.4079 40.3158 44.4061 39.6932 44.2624C38.3559 43.9538 37.1796 42.9525 36.6591 41.6797C36.3368 40.8916 36.2801 40.429 36.2801 38.5868V36.8736H11.7681L11.7356 38.7311C11.7067 40.3776 11.6849 40.6501 11.5435 41.1296C11.1253 42.5476 10.0851 43.6515 8.70088 44.1461C8.0277 44.3866 6.84006 44.4457 6.10927 44.2751C4.62433 43.9284 3.42439 42.7819 2.89261 41.2018C2.80951 40.9547 2.77351 40.3716 2.74213 38.762L2.70085 36.6467L2.34017 36.4934C1.16787 35.9952 0.440953 35.212 0.150384 34.134C0.00741497 33.6035 -0.0606588 25.3368 0.0687383 24.2171C0.236307 22.7672 0.810978 21.4523 1.77591 20.311L2.08706 19.9429L1.62375 19.8176C0.696411 19.5665 0.205384 18.9535 0.167855 18C0.127317 16.9701 0.588593 16.1647 1.46038 15.7435C2.33697 15.3199 3.48069 15.2783 4.46677 15.634C4.75195 15.7369 4.99893 15.8075 5.01596 15.7912C5.04759 15.7593 5.52151 14.4383 6.67875 11.1572C7.6605 8.37344 8.10471 7.49201 9.05297 6.44592C9.91512 5.49484 11.3273 4.61853 12.7642 4.14279C14.306 3.63243 14.1212 3.64078 24.0446 3.62931ZM10.1839 22.7031C9.50909 22.5393 9.28973 22.5274 8.79634 22.6281C8.13728 22.7625 7.77069 22.9062 7.31452 23.2089C6.5378 23.7245 5.99699 24.5756 5.78037 25.6232C5.66986 26.1576 5.67004 26.2379 5.7822 26.7802C6.09686 28.302 7.02439 29.3214 8.43629 29.6971C10.4153 30.2237 12.4875 28.8407 12.8386 26.7589C13.1444 24.946 11.9582 23.1338 10.1839 22.7031ZM39.5443 22.7033C38.8656 22.5386 38.6495 22.5275 38.1297 22.6306C37.3349 22.7883 36.7682 23.0958 36.1764 23.6908C35.7486 24.1207 35.6137 24.3162 35.4168 24.7908C34.8339 26.1959 35.1439 27.7604 36.2124 28.8068C36.5987 29.185 37.4133 29.6043 37.9969 29.7251C39.972 30.134 41.8064 28.8821 42.242 26.8279C42.6206 25.0427 41.3824 23.1497 39.5443 22.7033ZM33.7194 8.05729C33.1364 7.89716 32.7463 7.893 22.899 7.94162C13.6445 7.98728 14.3454 7.95187 13.3772 8.42227C12.8462 8.68033 12.0113 9.48565 11.7012 10.0391C11.4877 10.4201 11.3249 10.858 10.0252 14.5475C9.70375 15.46 9.3575 16.439 9.25571 16.7229C9.08996 17.185 9.08086 17.2606 9.16892 17.4443C9.23363 17.5793 9.36159 17.6803 9.54306 17.7398C9.76137 17.8112 12.8608 17.8263 24.3247 17.8119L38.8307 17.7937L38.8886 17.5773C38.9363 17.3991 38.754 16.7867 37.8581 14.1147C37.2596 12.3295 36.6516 10.6256 36.5069 10.328C36.0014 9.28797 34.883 8.37693 33.7194 8.05729Z" fill="black" fill-opacity="0.2"/>
</svg>
