<svg width="48" height="48" viewBox="0 0 48 48" fill="none" xmlns="http://www.w3.org/2000/svg">
<path fill-rule="evenodd" clip-rule="evenodd" d="M41.9498 21.1601V32.3182C41.9433 41.3187 41.9303 43.5802 41.8588 43.9701C41.8133 44.2365 41.6964 44.6459 41.5989 44.8799C41.5079 45.1138 41.3325 45.4583 41.2155 45.6532C41.105 45.8417 40.8191 46.2056 40.5851 46.4526C40.3512 46.706 39.9613 47.0374 39.7078 47.1934C39.4609 47.3428 38.9735 47.5703 38.0182 47.9017H11.1791L10.6918 47.7523C10.4253 47.6678 10.0159 47.4988 9.78195 47.3754C9.54801 47.2584 9.21011 47.0309 9.02814 46.8814C8.84618 46.7255 8.5472 46.4265 8.35874 46.2121C8.17679 45.9976 7.8909 45.5622 7.72843 45.2373C7.57247 44.9124 7.39047 44.4445 7.33198 44.1975C7.22801 43.7816 7.22149 42.7614 7.189 21.1537L7.37749 20.9652L7.55943 20.7702H41.5599L41.9498 21.1601ZM32.6244 23.948C32.4814 23.948 32.2865 24 32.189 24.065C32.0915 24.1235 31.9615 24.247 31.8965 24.338C31.7926 24.4809 31.7731 24.715 31.7406 26.45C31.7081 28.2956 31.6951 28.4321 31.5261 29.0494C31.4351 29.4068 31.2142 29.9917 31.0387 30.3491C30.8698 30.7066 30.5513 31.2329 30.3369 31.5189C30.1224 31.8048 29.7326 32.2402 29.4661 32.4871C29.1997 32.7406 28.7837 33.072 28.5303 33.2345C28.2769 33.3969 27.8415 33.6374 27.5555 33.7673C27.2696 33.9038 26.8017 34.0728 26.5157 34.1443C26.2298 34.2222 25.7489 34.3132 25.4435 34.3522C25.1251 34.3977 24.5597 34.4107 24.1113 34.3912C23.6109 34.3652 23.1105 34.2937 22.7141 34.1962C22.3762 34.1117 21.8498 33.9298 21.5443 33.7998C21.2389 33.6634 20.7905 33.4229 20.5371 33.2539C20.2836 33.085 19.8352 32.7146 19.5363 32.4287C19.2438 32.1427 18.854 31.7203 18.685 31.4864C18.5095 31.2524 18.2561 30.843 18.1066 30.5766C17.9636 30.3101 17.7622 29.8292 17.6517 29.5043C17.5477 29.1794 17.4113 28.5945 17.3528 28.2046C17.2748 27.6652 17.2488 27.1323 17.2683 26.0276C17.2878 24.7149 17.2748 24.5394 17.1773 24.3834C17.1123 24.2859 16.9628 24.1495 16.8524 24.078C16.7354 24.0065 16.534 23.9481 16.404 23.948C16.274 23.948 16.0791 24.013 15.9491 24.0975C15.8256 24.1755 15.6762 24.3445 15.6112 24.4679C15.5007 24.6759 15.4942 24.8579 15.5202 26.58C15.5462 28.341 15.5592 28.51 15.7151 29.1469C15.8061 29.5238 15.9556 30.0242 16.0466 30.2711C16.1376 30.5116 16.339 30.947 16.4819 31.2459C16.6314 31.5384 16.8914 31.9803 17.0603 32.2337C17.2293 32.4872 17.5348 32.8771 17.7362 33.111C17.9442 33.345 18.3146 33.7154 18.5745 33.9428C18.8344 34.1638 19.2309 34.4757 19.4648 34.6316C19.6988 34.7876 20.1537 35.0476 20.4721 35.21C20.7905 35.366 21.3364 35.587 21.6743 35.6974C22.0122 35.8079 22.5711 35.9509 22.909 36.0094C23.247 36.0678 23.8773 36.1198 24.3062 36.1263C24.7351 36.1328 25.3265 36.1133 25.6254 36.0873C25.9179 36.0549 26.3858 35.9769 26.6652 35.9119C26.9381 35.8404 27.3996 35.6974 27.6855 35.5934C27.9714 35.4894 28.3938 35.3075 28.6278 35.1906C28.8617 35.0736 29.2971 34.8136 29.6026 34.6122C29.908 34.4107 30.4279 33.9883 30.7658 33.6634C31.0972 33.3385 31.5261 32.8771 31.7211 32.6236C31.9095 32.3702 32.202 31.9348 32.3645 31.6488C32.5269 31.3629 32.7609 30.869 32.8843 30.5441C33.0078 30.2192 33.1833 29.6798 33.2678 29.3419C33.3588 29.0039 33.4627 28.3411 33.5017 27.8797C33.5407 27.4183 33.5667 26.4955 33.5537 25.8326C33.5407 24.8384 33.5147 24.5914 33.4237 24.4224C33.3587 24.3055 33.2093 24.1495 33.0988 24.078C32.9753 24.0065 32.7739 23.948 32.6244 23.948Z" fill="#132A4C"/>
<path fill-rule="evenodd" clip-rule="evenodd" d="M41.9498 21.1601V32.3182C41.9433 41.3187 41.9303 43.5802 41.8588 43.9701C41.8133 44.2365 41.6964 44.6459 41.5989 44.8799C41.5079 45.1138 41.3325 45.4583 41.2155 45.6532C41.105 45.8417 40.8191 46.2056 40.5851 46.4526C40.3512 46.706 39.9613 47.0374 39.7078 47.1934C39.4609 47.3428 38.9735 47.5703 38.0182 47.9017H11.1791L10.6918 47.7523C10.4253 47.6678 10.0159 47.4988 9.78195 47.3754C9.54801 47.2584 9.21011 47.0309 9.02814 46.8814C8.84618 46.7255 8.5472 46.4265 8.35874 46.2121C8.17679 45.9976 7.8909 45.5622 7.72843 45.2373C7.57247 44.9124 7.39047 44.4445 7.33198 44.1975C7.22801 43.7816 7.22149 42.7614 7.189 21.1537L7.37749 20.9652L7.55943 20.7702H41.5599L41.9498 21.1601ZM32.6244 23.948C32.4814 23.948 32.2865 24 32.189 24.065C32.0915 24.1235 31.9615 24.247 31.8965 24.338C31.7926 24.4809 31.7731 24.715 31.7406 26.45C31.7081 28.2956 31.6951 28.4321 31.5261 29.0494C31.4351 29.4068 31.2142 29.9917 31.0387 30.3491C30.8698 30.7066 30.5513 31.2329 30.3369 31.5189C30.1224 31.8048 29.7326 32.2402 29.4661 32.4871C29.1997 32.7406 28.7837 33.072 28.5303 33.2345C28.2769 33.3969 27.8415 33.6374 27.5555 33.7673C27.2696 33.9038 26.8017 34.0728 26.5157 34.1443C26.2298 34.2222 25.7489 34.3132 25.4435 34.3522C25.1251 34.3977 24.5597 34.4107 24.1113 34.3912C23.6109 34.3652 23.1105 34.2937 22.7141 34.1962C22.3762 34.1117 21.8498 33.9298 21.5443 33.7998C21.2389 33.6634 20.7905 33.4229 20.5371 33.2539C20.2836 33.085 19.8352 32.7146 19.5363 32.4287C19.2438 32.1427 18.854 31.7203 18.685 31.4864C18.5095 31.2524 18.2561 30.843 18.1066 30.5766C17.9636 30.3101 17.7622 29.8292 17.6517 29.5043C17.5477 29.1794 17.4113 28.5945 17.3528 28.2046C17.2748 27.6652 17.2488 27.1323 17.2683 26.0276C17.2878 24.7149 17.2748 24.5394 17.1773 24.3834C17.1123 24.2859 16.9628 24.1495 16.8524 24.078C16.7354 24.0065 16.534 23.9481 16.404 23.948C16.274 23.948 16.0791 24.013 15.9491 24.0975C15.8256 24.1755 15.6762 24.3445 15.6112 24.4679C15.5007 24.6759 15.4942 24.8579 15.5202 26.58C15.5462 28.341 15.5592 28.51 15.7151 29.1469C15.8061 29.5238 15.9556 30.0242 16.0466 30.2711C16.1376 30.5116 16.339 30.947 16.4819 31.2459C16.6314 31.5384 16.8914 31.9803 17.0603 32.2337C17.2293 32.4872 17.5348 32.8771 17.7362 33.111C17.9442 33.345 18.3146 33.7154 18.5745 33.9428C18.8344 34.1638 19.2309 34.4757 19.4648 34.6316C19.6988 34.7876 20.1537 35.0476 20.4721 35.21C20.7905 35.366 21.3364 35.587 21.6743 35.6974C22.0122 35.8079 22.5711 35.9509 22.909 36.0094C23.247 36.0678 23.8773 36.1198 24.3062 36.1263C24.7351 36.1328 25.3265 36.1133 25.6254 36.0873C25.9179 36.0549 26.3858 35.9769 26.6652 35.9119C26.9381 35.8404 27.3996 35.6974 27.6855 35.5934C27.9714 35.4894 28.3938 35.3075 28.6278 35.1906C28.8617 35.0736 29.2971 34.8136 29.6026 34.6122C29.908 34.4107 30.4279 33.9883 30.7658 33.6634C31.0972 33.3385 31.5261 32.8771 31.7211 32.6236C31.9095 32.3702 32.202 31.9348 32.3645 31.6488C32.5269 31.3629 32.7609 30.869 32.8843 30.5441C33.0078 30.2192 33.1833 29.6798 33.2678 29.3419C33.3588 29.0039 33.4627 28.3411 33.5017 27.8797C33.5407 27.4183 33.5667 26.4955 33.5537 25.8326C33.5407 24.8384 33.5147 24.5914 33.4237 24.4224C33.3587 24.3055 33.2093 24.1495 33.0988 24.078C32.9753 24.0065 32.7739 23.948 32.6244 23.948Z" fill="black" fill-opacity="0.2"/>
<path fill-rule="evenodd" clip-rule="evenodd" d="M8.1443 2.18434C8.46923 2.18434 8.96962 2.22981 9.24906 2.28829C9.522 2.34678 9.89893 2.4508 10.0744 2.52228C10.2563 2.59377 10.5618 2.73025 10.7567 2.82773C10.9517 2.9317 11.2896 3.13316 11.5041 3.28262C11.7185 3.4321 12.1344 3.76349 12.4334 4.02342C12.7323 4.28337 13.1742 4.71228 13.4147 4.97872C13.6551 5.24517 14.0385 5.70007 14.266 5.986C14.4869 6.27194 14.9418 6.9153 15.2732 7.41568C15.6112 7.91607 16.1051 8.7219 16.378 9.20279C16.6574 9.68368 17.0668 10.444 17.2878 10.8924C17.5087 11.3408 17.8467 12.0557 18.0351 12.4846C18.2171 12.9135 18.4835 13.5633 18.6265 13.9273C18.7629 14.2977 18.9774 14.928 19.1009 15.3244C19.2244 15.7274 19.4258 16.4552 19.5558 16.9361C19.6858 17.417 19.8482 18.0928 19.9197 18.4307C19.9912 18.7687 20.0497 19.0676 20.0497 19.0936C20.0486 19.1261 17.2729 19.1456 7.70241 19.1456L7.436 18.5737C7.28653 18.2618 6.97456 17.5274 6.74711 16.9361C6.51316 16.3447 6.14924 15.3504 5.93479 14.7266C5.72684 14.1027 5.45391 13.2059 5.33044 12.7445C5.20697 12.2831 5.0575 11.6657 5.00551 11.3798C4.95352 11.0939 4.84307 10.4635 4.77159 9.98262C4.7001 9.50172 4.62208 8.59192 4.60259 7.96806C4.57659 7.22073 4.58963 6.61636 4.64162 6.21345C4.68711 5.87553 4.77157 5.43362 4.82356 5.23867C4.87555 5.04371 4.99902 4.70578 5.08351 4.49133C5.17448 4.27688 5.34992 3.93896 5.47989 3.744C5.60337 3.54904 5.84385 3.24358 6.00631 3.06812C6.16877 2.89917 6.4222 2.68476 6.56516 2.60028C6.70813 2.51579 6.98757 2.39227 7.18253 2.32079C7.44247 2.22331 7.70891 2.19084 8.1443 2.18434ZM13.5511 12.7315C13.3822 12.7055 13.2717 12.7315 13.1027 12.8485C12.9792 12.9329 12.6738 13.2319 12.4269 13.5179C12.1734 13.8038 11.7965 14.2717 11.5821 14.5576C11.3676 14.8436 11.0817 15.3115 10.9452 15.5974C10.8152 15.8833 10.6397 16.2992 10.5683 16.5267C10.4903 16.7476 10.4318 17.0466 10.4318 17.1895C10.4318 17.378 10.4773 17.495 10.5943 17.612C10.7177 17.7354 10.8217 17.7744 11.0362 17.7744C11.2831 17.7744 11.3416 17.7354 11.7055 17.365C11.92 17.144 12.4594 16.4227 12.8948 15.7599C13.3367 15.097 13.772 14.4147 13.863 14.2327C13.9605 14.0378 14.0385 13.7518 14.058 13.5179C14.084 13.1734 14.071 13.1084 13.9346 12.9459C13.8371 12.8355 13.6876 12.751 13.5511 12.7315ZM11.2961 7.76663C11.1531 7.76664 10.9257 7.83809 10.7567 7.93557C10.5943 8.02655 10.2628 8.26701 10.0159 8.46846C9.76893 8.67642 9.45051 8.98837 9.31404 9.16382C9.17107 9.34579 8.94363 9.67722 8.80717 9.91116C8.6707 10.1451 8.46272 10.561 8.35874 10.8404C8.20928 11.2043 8.15731 11.4513 8.15731 11.7502C8.15082 12.0427 8.18332 12.1986 8.2678 12.3091C8.36528 12.4391 8.42375 12.4585 8.61221 12.426C8.73568 12.4001 8.96312 12.2961 9.11909 12.1857C9.26855 12.0817 9.53501 11.8087 9.71697 11.5878C9.89243 11.3603 10.3603 10.743 10.7567 10.2036C11.1466 9.67073 11.556 9.06637 11.6665 8.87139C11.7705 8.67644 11.855 8.41649 11.8615 8.306C11.8615 8.16304 11.8073 8.0374 11.699 7.9291C11.5821 7.81212 11.4651 7.76663 11.2961 7.76663Z" fill="#132A4C"/>
<path fill-rule="evenodd" clip-rule="evenodd" d="M8.1443 2.18434C8.46923 2.18434 8.96962 2.22981 9.24906 2.28829C9.522 2.34678 9.89893 2.4508 10.0744 2.52228C10.2563 2.59377 10.5618 2.73025 10.7567 2.82773C10.9517 2.9317 11.2896 3.13316 11.5041 3.28262C11.7185 3.4321 12.1344 3.76349 12.4334 4.02342C12.7323 4.28337 13.1742 4.71228 13.4147 4.97872C13.6551 5.24517 14.0385 5.70007 14.266 5.986C14.4869 6.27194 14.9418 6.9153 15.2732 7.41568C15.6112 7.91607 16.1051 8.7219 16.378 9.20279C16.6574 9.68368 17.0668 10.444 17.2878 10.8924C17.5087 11.3408 17.8467 12.0557 18.0351 12.4846C18.2171 12.9135 18.4835 13.5633 18.6265 13.9273C18.7629 14.2977 18.9774 14.928 19.1009 15.3244C19.2244 15.7274 19.4258 16.4552 19.5558 16.9361C19.6858 17.417 19.8482 18.0928 19.9197 18.4307C19.9912 18.7687 20.0497 19.0676 20.0497 19.0936C20.0486 19.1261 17.2729 19.1456 7.70241 19.1456L7.436 18.5737C7.28653 18.2618 6.97456 17.5274 6.74711 16.9361C6.51316 16.3447 6.14924 15.3504 5.93479 14.7266C5.72684 14.1027 5.45391 13.2059 5.33044 12.7445C5.20697 12.2831 5.0575 11.6657 5.00551 11.3798C4.95352 11.0939 4.84307 10.4635 4.77159 9.98262C4.7001 9.50172 4.62208 8.59192 4.60259 7.96806C4.57659 7.22073 4.58963 6.61636 4.64162 6.21345C4.68711 5.87553 4.77157 5.43362 4.82356 5.23867C4.87555 5.04371 4.99902 4.70578 5.08351 4.49133C5.17448 4.27688 5.34992 3.93896 5.47989 3.744C5.60337 3.54904 5.84385 3.24358 6.00631 3.06812C6.16877 2.89917 6.4222 2.68476 6.56516 2.60028C6.70813 2.51579 6.98757 2.39227 7.18253 2.32079C7.44247 2.22331 7.70891 2.19084 8.1443 2.18434ZM13.5511 12.7315C13.3822 12.7055 13.2717 12.7315 13.1027 12.8485C12.9792 12.9329 12.6738 13.2319 12.4269 13.5179C12.1734 13.8038 11.7965 14.2717 11.5821 14.5576C11.3676 14.8436 11.0817 15.3115 10.9452 15.5974C10.8152 15.8833 10.6397 16.2992 10.5683 16.5267C10.4903 16.7476 10.4318 17.0466 10.4318 17.1895C10.4318 17.378 10.4773 17.495 10.5943 17.612C10.7177 17.7354 10.8217 17.7744 11.0362 17.7744C11.2831 17.7744 11.3416 17.7354 11.7055 17.365C11.92 17.144 12.4594 16.4227 12.8948 15.7599C13.3367 15.097 13.772 14.4147 13.863 14.2327C13.9605 14.0378 14.0385 13.7518 14.058 13.5179C14.084 13.1734 14.071 13.1084 13.9346 12.9459C13.8371 12.8355 13.6876 12.751 13.5511 12.7315ZM11.2961 7.76663C11.1531 7.76664 10.9257 7.83809 10.7567 7.93557C10.5943 8.02655 10.2628 8.26701 10.0159 8.46846C9.76893 8.67642 9.45051 8.98837 9.31404 9.16382C9.17107 9.34579 8.94363 9.67722 8.80717 9.91116C8.6707 10.1451 8.46272 10.561 8.35874 10.8404C8.20928 11.2043 8.15731 11.4513 8.15731 11.7502C8.15082 12.0427 8.18332 12.1986 8.2678 12.3091C8.36528 12.4391 8.42375 12.4585 8.61221 12.426C8.73568 12.4001 8.96312 12.2961 9.11909 12.1857C9.26855 12.0817 9.53501 11.8087 9.71697 11.5878C9.89243 11.3603 10.3603 10.743 10.7567 10.2036C11.1466 9.67073 11.556 9.06637 11.6665 8.87139C11.7705 8.67644 11.855 8.41649 11.8615 8.306C11.8615 8.16304 11.8073 8.0374 11.699 7.9291C11.5821 7.81212 11.4651 7.76663 11.2961 7.76663Z" fill="black" fill-opacity="0.2"/>
<path d="M34.8274 6.01849C34.8671 6.01868 36.2445 6.389 37.8882 6.83729C39.5321 7.2856 40.8965 7.66899 40.9165 7.69511C40.9425 7.7211 40.8776 8.03305 40.7736 8.39047C40.6696 8.74789 40.5851 9.16381 40.5851 9.31328C40.5851 9.46924 40.6371 9.72919 40.7021 9.89815C40.7671 10.0736 41.0465 10.548 41.3325 10.9574C41.6119 11.3668 41.8914 11.8347 41.9628 11.9972C42.0278 12.1596 42.1318 12.5236 42.1903 12.8095C42.2553 13.1539 42.2747 13.4723 42.2487 13.7518C42.2227 13.9857 41.9304 15.1425 41.5859 16.3187C41.248 17.495 40.9296 18.6192 40.7801 19.1456H34.2815C29.9927 19.1456 27.7832 19.1261 27.783 19.0806C27.783 19.0416 28.2703 17.326 28.8617 15.2595C29.4531 13.1994 30.012 11.2888 30.103 11.0224C30.1939 10.7559 30.3434 10.3855 30.4344 10.2101C30.5253 10.0281 30.7593 9.71619 30.9608 9.50823C31.1622 9.30028 31.4871 9.02733 31.6821 8.91035C31.8771 8.79338 32.332 8.5919 32.6894 8.46193C33.0468 8.33196 33.4757 8.14352 33.6512 8.03305C33.8201 7.92907 34.0541 7.70163 34.1776 7.52617C34.3205 7.33772 34.47 6.99328 34.5804 6.61637C34.6779 6.29145 34.7884 6.01849 34.8274 6.01849Z" fill="#132A4C"/>
<path d="M34.8274 6.01849C34.8671 6.01868 36.2445 6.389 37.8882 6.83729C39.5321 7.2856 40.8965 7.66899 40.9165 7.69511C40.9425 7.7211 40.8776 8.03305 40.7736 8.39047C40.6696 8.74789 40.5851 9.16381 40.5851 9.31328C40.5851 9.46924 40.6371 9.72919 40.7021 9.89815C40.7671 10.0736 41.0465 10.548 41.3325 10.9574C41.6119 11.3668 41.8914 11.8347 41.9628 11.9972C42.0278 12.1596 42.1318 12.5236 42.1903 12.8095C42.2553 13.1539 42.2747 13.4723 42.2487 13.7518C42.2227 13.9857 41.9304 15.1425 41.5859 16.3187C41.248 17.495 40.9296 18.6192 40.7801 19.1456H34.2815C29.9927 19.1456 27.7832 19.1261 27.783 19.0806C27.783 19.0416 28.2703 17.326 28.8617 15.2595C29.4531 13.1994 30.012 11.2888 30.103 11.0224C30.1939 10.7559 30.3434 10.3855 30.4344 10.2101C30.5253 10.0281 30.7593 9.71619 30.9608 9.50823C31.1622 9.30028 31.4871 9.02733 31.6821 8.91035C31.8771 8.79338 32.332 8.5919 32.6894 8.46193C33.0468 8.33196 33.4757 8.14352 33.6512 8.03305C33.8201 7.92907 34.0541 7.70163 34.1776 7.52617C34.3205 7.33772 34.47 6.99328 34.5804 6.61637C34.6779 6.29145 34.7884 6.01849 34.8274 6.01849Z" fill="black" fill-opacity="0.2"/>
<path d="M24.9236 0.0982666C25.1316 0.0982672 25.2291 0.14377 25.4045 0.306233C25.567 0.468695 25.6384 0.61172 25.7034 0.91065C25.7554 1.17709 25.7749 1.57353 25.7489 2.14538C25.7229 2.64576 25.6449 3.29563 25.5474 3.73752L25.5353 3.79616C25.4563 4.17899 25.3919 4.49115 25.398 4.49781C25.4045 4.5108 25.528 4.36137 25.6709 4.17941C25.8139 3.99746 26.1518 3.64653 26.4183 3.39959C26.7432 3.09416 27.0161 2.90567 27.2501 2.82119C27.432 2.7562 27.7115 2.69776 27.8674 2.69775C28.0494 2.69775 28.2184 2.74323 28.3678 2.84721C28.5108 2.93819 28.6278 3.08767 28.6863 3.25013C28.7708 3.47755 28.7708 3.54258 28.6733 3.80251C28.6083 3.97798 28.3483 4.34838 27.9974 4.75127C27.6855 5.11519 27.1331 5.71955 26.7757 6.10296C26.4183 6.47988 26.1388 6.80481 26.1583 6.8178C26.1778 6.8308 26.3793 6.93479 26.6132 7.05826C26.8472 7.18173 27.1916 7.42866 27.38 7.61711C27.5685 7.81207 27.8025 8.137 27.9129 8.36445C28.0169 8.5919 28.1404 8.97536 28.1794 9.22881C28.2183 9.48224 28.2378 9.83962 28.2118 10.0216C28.1924 10.21 27.9649 11.2368 27.718 12.2961L27.6697 12.4992C27.4346 13.4878 27.2207 14.3873 27.1721 14.5576C27.1201 14.7655 27.0551 14.876 26.9967 14.8695C26.9447 14.863 26.3598 14.8111 25.6904 14.7526C24.5402 14.6616 24.4557 14.6616 24.2348 14.7655C24.0983 14.837 23.9683 14.967 23.9099 15.0905C23.8319 15.2789 23.8318 15.331 23.9163 15.5324C23.9683 15.6559 24.0788 15.8054 24.1633 15.8573C24.2478 15.9158 24.7547 16.0068 25.476 16.0913C26.1193 16.1692 26.6652 16.2537 26.6912 16.2732C26.7172 16.2928 26.5807 16.9428 26.0414 19.1066L23.7603 19.1196C21.6353 19.1391 21.4793 19.1326 21.4533 19.0221C21.4338 18.9635 21.3169 18.3982 21.1869 17.7744C21.057 17.1506 20.8555 16.1238 20.732 15.4999C20.6151 14.8761 20.4071 13.8233 20.2836 13.1604C20.1536 12.4977 20.0497 11.8868 20.0497 11.7957C20.0497 11.6398 20.0562 11.6332 20.3551 11.6787C20.5306 11.7047 21.109 11.7502 21.6418 11.7762C22.4996 11.8152 22.6361 11.8087 22.7986 11.7112C22.896 11.6527 23.0195 11.4968 23.0715 11.3733C23.1365 11.2174 23.1495 11.1003 23.1105 10.9964C23.078 10.9184 22.987 10.7884 22.9026 10.7105C22.7596 10.574 22.6036 10.548 21.3169 10.418C20.5242 10.3401 19.8614 10.2491 19.8352 10.2101C19.8027 10.1711 19.7963 9.87215 19.8158 9.55374C19.8353 9.23532 19.9067 8.78041 19.9782 8.54646C20.0497 8.30602 20.2251 7.96159 20.3941 7.73414C20.5501 7.51969 20.7775 7.26621 20.901 7.17522C21.0244 7.07775 21.3104 6.9088 21.5443 6.79832C21.7783 6.68785 22.0902 6.5839 22.2462 6.5644C22.3956 6.54491 22.519 6.51891 22.5191 6.49941C22.5191 6.47992 22.2917 6.07696 22.0187 5.60256C21.7458 5.13468 21.3624 4.47837 21.1674 4.15993C20.979 3.84151 20.6995 3.32812 20.5566 3.02268C20.3811 2.66528 20.2771 2.35333 20.2576 2.14538C20.2382 1.88544 20.2642 1.77495 20.3876 1.593C20.4721 1.46953 20.6151 1.32655 20.6995 1.28755C20.7905 1.24206 20.9855 1.20309 21.1414 1.20309C21.2909 1.20309 21.5248 1.26154 21.6613 1.32652C21.7913 1.39151 22.0512 1.60597 22.2267 1.79443C22.4087 1.98939 22.6621 2.32084 22.7921 2.53529C22.9286 2.74975 23.1235 3.15919 23.4225 3.96497L23.4289 3.54257C23.4289 3.30863 23.4744 2.82772 23.5264 2.4703C23.5784 2.1129 23.6759 1.645 23.7539 1.43054C23.8253 1.21609 23.9553 0.923651 24.0398 0.780679C24.1243 0.637711 24.2998 0.423245 24.4297 0.31277V0.306233C24.6117 0.143788 24.7287 0.0982666 24.9236 0.0982666Z" fill="#132A4C"/>
<path d="M24.9236 0.0982666C25.1316 0.0982672 25.2291 0.14377 25.4045 0.306233C25.567 0.468695 25.6384 0.61172 25.7034 0.91065C25.7554 1.17709 25.7749 1.57353 25.7489 2.14538C25.7229 2.64576 25.6449 3.29563 25.5474 3.73752L25.5353 3.79616C25.4563 4.17899 25.3919 4.49115 25.398 4.49781C25.4045 4.5108 25.528 4.36137 25.6709 4.17941C25.8139 3.99746 26.1518 3.64653 26.4183 3.39959C26.7432 3.09416 27.0161 2.90567 27.2501 2.82119C27.432 2.7562 27.7115 2.69776 27.8674 2.69775C28.0494 2.69775 28.2184 2.74323 28.3678 2.84721C28.5108 2.93819 28.6278 3.08767 28.6863 3.25013C28.7708 3.47755 28.7708 3.54258 28.6733 3.80251C28.6083 3.97798 28.3483 4.34838 27.9974 4.75127C27.6855 5.11519 27.1331 5.71955 26.7757 6.10296C26.4183 6.47988 26.1388 6.80481 26.1583 6.8178C26.1778 6.8308 26.3793 6.93479 26.6132 7.05826C26.8472 7.18173 27.1916 7.42866 27.38 7.61711C27.5685 7.81207 27.8025 8.137 27.9129 8.36445C28.0169 8.5919 28.1404 8.97536 28.1794 9.22881C28.2183 9.48224 28.2378 9.83962 28.2118 10.0216C28.1924 10.21 27.9649 11.2368 27.718 12.2961L27.6697 12.4992C27.4346 13.4878 27.2207 14.3873 27.1721 14.5576C27.1201 14.7655 27.0551 14.876 26.9967 14.8695C26.9447 14.863 26.3598 14.8111 25.6904 14.7526C24.5402 14.6616 24.4557 14.6616 24.2348 14.7655C24.0983 14.837 23.9683 14.967 23.9099 15.0905C23.8319 15.2789 23.8318 15.331 23.9163 15.5324C23.9683 15.6559 24.0788 15.8054 24.1633 15.8573C24.2478 15.9158 24.7547 16.0068 25.476 16.0913C26.1193 16.1692 26.6652 16.2537 26.6912 16.2732C26.7172 16.2928 26.5807 16.9428 26.0414 19.1066L23.7603 19.1196C21.6353 19.1391 21.4793 19.1326 21.4533 19.0221C21.4338 18.9635 21.3169 18.3982 21.1869 17.7744C21.057 17.1506 20.8555 16.1238 20.732 15.4999C20.6151 14.8761 20.4071 13.8233 20.2836 13.1604C20.1536 12.4977 20.0497 11.8868 20.0497 11.7957C20.0497 11.6398 20.0562 11.6332 20.3551 11.6787C20.5306 11.7047 21.109 11.7502 21.6418 11.7762C22.4996 11.8152 22.6361 11.8087 22.7986 11.7112C22.896 11.6527 23.0195 11.4968 23.0715 11.3733C23.1365 11.2174 23.1495 11.1003 23.1105 10.9964C23.078 10.9184 22.987 10.7884 22.9026 10.7105C22.7596 10.574 22.6036 10.548 21.3169 10.418C20.5242 10.3401 19.8614 10.2491 19.8352 10.2101C19.8027 10.1711 19.7963 9.87215 19.8158 9.55374C19.8353 9.23532 19.9067 8.78041 19.9782 8.54646C20.0497 8.30602 20.2251 7.96159 20.3941 7.73414C20.5501 7.51969 20.7775 7.26621 20.901 7.17522C21.0244 7.07775 21.3104 6.9088 21.5443 6.79832C21.7783 6.68785 22.0902 6.5839 22.2462 6.5644C22.3956 6.54491 22.519 6.51891 22.5191 6.49941C22.5191 6.47992 22.2917 6.07696 22.0187 5.60256C21.7458 5.13468 21.3624 4.47837 21.1674 4.15993C20.979 3.84151 20.6995 3.32812 20.5566 3.02268C20.3811 2.66528 20.2771 2.35333 20.2576 2.14538C20.2382 1.88544 20.2642 1.77495 20.3876 1.593C20.4721 1.46953 20.6151 1.32655 20.6995 1.28755C20.7905 1.24206 20.9855 1.20309 21.1414 1.20309C21.2909 1.20309 21.5248 1.26154 21.6613 1.32652C21.7913 1.39151 22.0512 1.60597 22.2267 1.79443C22.4087 1.98939 22.6621 2.32084 22.7921 2.53529C22.9286 2.74975 23.1235 3.15919 23.4225 3.96497L23.4289 3.54257C23.4289 3.30863 23.4744 2.82772 23.5264 2.4703C23.5784 2.1129 23.6759 1.645 23.7539 1.43054C23.8253 1.21609 23.9553 0.923651 24.0398 0.780679C24.1243 0.637711 24.2998 0.423245 24.4297 0.31277V0.306233C24.6117 0.143788 24.7287 0.0982666 24.9236 0.0982666Z" fill="black" fill-opacity="0.2"/>
<path d="M35.4513 1.40452C35.5553 1.40452 36.0036 1.49547 36.4455 1.60595C36.8432 1.7009 38.1785 2.04519 39.5209 2.39129L39.9028 2.48979C41.3648 2.86667 42.619 3.19805 42.6842 3.23059C42.7426 3.26308 42.8401 3.37358 42.8921 3.48406C42.9441 3.58803 42.9896 3.7505 42.9896 3.84148C42.9896 3.93247 42.8856 4.37438 42.7557 4.82927C42.6257 5.29066 42.4762 5.77807 42.4177 5.91454C42.3398 6.08999 42.2292 6.20693 42.0668 6.28491C41.9303 6.35639 41.7809 6.40841 41.7419 6.40841C41.6962 6.40835 40.0911 5.97949 38.1807 5.45964C35.0224 4.60185 34.6844 4.49785 34.5285 4.32239C34.4245 4.21843 34.3271 4.05594 34.3075 3.95196C34.2751 3.83499 34.353 3.44506 34.535 2.80171C34.7754 1.93741 34.8274 1.80094 35.0289 1.61248C35.1783 1.47601 35.3213 1.40452 35.4513 1.40452Z" fill="#132A4C"/>
<path d="M35.4513 1.40452C35.5553 1.40452 36.0036 1.49547 36.4455 1.60595C36.8432 1.7009 38.1785 2.04519 39.5209 2.39129L39.9028 2.48979C41.3648 2.86667 42.619 3.19805 42.6842 3.23059C42.7426 3.26308 42.8401 3.37358 42.8921 3.48406C42.9441 3.58803 42.9896 3.7505 42.9896 3.84148C42.9896 3.93247 42.8856 4.37438 42.7557 4.82927C42.6257 5.29066 42.4762 5.77807 42.4177 5.91454C42.3398 6.08999 42.2292 6.20693 42.0668 6.28491C41.9303 6.35639 41.7809 6.40841 41.7419 6.40841C41.6962 6.40835 40.0911 5.97949 38.1807 5.45964C35.0224 4.60185 34.6844 4.49785 34.5285 4.32239C34.4245 4.21843 34.3271 4.05594 34.3075 3.95196C34.2751 3.83499 34.353 3.44506 34.535 2.80171C34.7754 1.93741 34.8274 1.80094 35.0289 1.61248C35.1783 1.47601 35.3213 1.40452 35.4513 1.40452Z" fill="black" fill-opacity="0.2"/>
</svg>
