<svg width="50" height="50" viewBox="0 0 50 50" fill="none" xmlns="http://www.w3.org/2000/svg">
<path d="M4.04754 1.57768C4.04754 1.57768 -0.869131 2.23807 1.64829 12.278C1.64829 12.278 3.67912 17.9236 4.98599 20.8879C6.4031 24.1014 8.14792 29.8563 9.00295 33.2635L9.61269 35.6905C9.87585 36.7313 10.9325 37.3648 11.9762 37.1027L13.8273 36.6399C14.871 36.3777 15.5075 35.3241 15.2444 34.2833L14.6346 31.8563C13.7796 28.4501 12.6038 22.5552 12.3367 19.0527C12.0914 15.8252 11.2185 9.88766 11.2185 9.88766C8.70106 -0.1443 4.04754 1.57768 4.04754 1.57768Z" fill="#132A4C"/>
<path d="M4.04754 1.57768C4.04754 1.57768 -0.869131 2.23807 1.64829 12.278C1.64829 12.278 3.67912 17.9236 4.98599 20.8879C6.4031 24.1014 8.14792 29.8563 9.00295 33.2635L9.61269 35.6905C9.87585 36.7313 10.9325 37.3648 11.9762 37.1027L13.8273 36.6399C14.871 36.3777 15.5075 35.3241 15.2444 34.2833L14.6346 31.8563C13.7796 28.4501 12.6038 22.5552 12.3367 19.0527C12.0914 15.8252 11.2185 9.88766 11.2185 9.88766C8.70106 -0.1443 4.04754 1.57768 4.04754 1.57768Z" fill="black" fill-opacity="0.2"/>
<path d="M17.5443 45.1457L12.5233 46.398C11.9404 46.543 11.5859 47.1319 11.7318 47.7128C11.8778 48.2938 12.4677 48.6473 13.0506 48.5023L18.0716 47.251C18.6545 47.1051 19.009 46.5172 18.8631 45.9362C18.7171 45.3553 18.1272 45.0017 17.5443 45.1477V45.1457Z" fill="#132A4C"/>
<path d="M17.5443 45.1457L12.5233 46.398C11.9404 46.543 11.5859 47.1319 11.7318 47.7128C11.8778 48.2938 12.4677 48.6473 13.0506 48.5023L18.0716 47.251C18.6545 47.1051 19.009 46.5172 18.8631 45.9362C18.7171 45.3553 18.1272 45.0017 17.5443 45.1477V45.1457Z" fill="black" fill-opacity="0.2"/>
<path d="M21.9068 16.3992C24.9883 16.3992 27.4868 13.7974 27.4868 10.5868C27.4868 7.37624 24.9883 4.7744 21.9068 4.7744C18.8253 4.7744 16.3267 7.37624 16.3267 10.5868C16.3267 13.7974 18.8253 16.3992 21.9068 16.3992Z" fill="#132A4C"/>
<path d="M21.9068 16.3992C24.9883 16.3992 27.4868 13.7974 27.4868 10.5868C27.4868 7.37624 24.9883 4.7744 21.9068 4.7744C18.8253 4.7744 16.3267 7.37624 16.3267 10.5868C16.3267 13.7974 18.8253 16.3992 21.9068 16.3992Z" fill="black" fill-opacity="0.2"/>
<path d="M33.9957 15.7022C31.6709 16.6317 30.0026 17.9068 27.8406 20.303C25.4632 22.9396 23.9419 26.036 23.2269 29.2625C25.9419 29.8613 28.5427 31.1424 30.7613 33.1235C32.6868 34.8465 34.1119 36.9151 35.0334 39.1495C37.9679 38.074 40.687 36.2894 42.9194 33.8107C44.9323 31.5763 46.3355 29.0093 47.1518 26.3111C44.6652 25.6596 42.2878 24.4312 40.244 22.599C37.8974 20.4957 36.2877 17.881 35.4326 15.0736L33.9957 15.7022Z" fill="#132A4C"/>
<path d="M33.9957 15.7022C31.6709 16.6317 30.0026 17.9068 27.8406 20.303C25.4632 22.9396 23.9419 26.036 23.2269 29.2625C25.9419 29.8613 28.5427 31.1424 30.7613 33.1235C32.6868 34.8465 34.1119 36.9151 35.0334 39.1495C37.9679 38.074 40.687 36.2894 42.9194 33.8107C44.9323 31.5763 46.3355 29.0093 47.1518 26.3111C44.6652 25.6596 42.2878 24.4312 40.244 22.599C37.8974 20.4957 36.2877 17.881 35.4326 15.0736L33.9957 15.7022Z" fill="black" fill-opacity="0.2"/>
<path d="M22.2275 33.5089C21.7756 35.5506 21.7717 37.6629 22.2185 39.7006C22.4291 40.6719 23.2493 41.4057 24.2404 41.511C26.455 41.7513 28.7142 41.4763 30.8195 40.7017C30.1482 39.075 29.1094 37.5705 27.7102 36.3203C26.0965 34.8773 24.2057 33.9458 22.2275 33.5089Z" fill="#132A4C"/>
<path d="M22.2275 33.5089C21.7756 35.5506 21.7717 37.6629 22.2185 39.7006C22.4291 40.6719 23.2493 41.4057 24.2404 41.511C26.455 41.7513 28.7142 41.4763 30.8195 40.7017C30.1482 39.075 29.1094 37.5705 27.7102 36.3203C26.0965 34.8773 24.2057 33.9458 22.2275 33.5089Z" fill="black" fill-opacity="0.2"/>
<path d="M48.5816 14.5958C48.3582 13.573 47.4942 12.7984 46.4505 12.6891C44.0383 12.427 41.5825 12.7457 39.3014 13.6246C39.9548 15.7756 41.1872 17.7786 42.9857 19.3923C44.5517 20.7955 46.371 21.7409 48.2797 22.2345C49.0334 19.7459 49.1308 17.1093 48.5826 14.5948L48.5816 14.5958Z" fill="#132A4C"/>
<path d="M48.5816 14.5958C48.3582 13.573 47.4942 12.7984 46.4505 12.6891C44.0383 12.427 41.5825 12.7457 39.3014 13.6246C39.9548 15.7756 41.1872 17.7786 42.9857 19.3923C44.5517 20.7955 46.371 21.7409 48.2797 22.2345C49.0334 19.7459 49.1308 17.1093 48.5826 14.5948L48.5816 14.5958Z" fill="black" fill-opacity="0.2"/>
<path d="M10.552 40.6928L16.4598 39.219M11.2811 43.6312L17.1928 42.1575M32.2754 30.5049L37.5645 24.6369M31.1821 28.0163L35.0114 31.4404M33.0728 25.9167L36.902 29.3448M35.0907 23.6785L38.92 27.1066M4.04754 1.57768C4.04754 1.57768 -0.869131 2.23807 1.64829 12.278C1.64829 12.278 3.67912 17.9236 4.98599 20.8879C6.4031 24.1014 8.14792 29.8563 9.00295 33.2635L9.61269 35.6905C9.87585 36.7313 10.9325 37.3648 11.9762 37.1027L13.8273 36.6399C14.871 36.3777 15.5075 35.3241 15.2444 34.2833L14.6346 31.8563C13.7796 28.4501 12.6038 22.5552 12.3367 19.0527C12.0914 15.8252 11.2185 9.88766 11.2185 9.88766C8.70106 -0.1443 4.04754 1.57768 4.04754 1.57768ZM17.5443 45.1457L12.5233 46.398C11.9404 46.543 11.5859 47.1319 11.7318 47.7128C11.8778 48.2938 12.4677 48.6473 13.0506 48.5023L18.0716 47.251C18.6545 47.1051 19.009 46.5172 18.8631 45.9362C18.7171 45.3553 18.1272 45.0017 17.5443 45.1477V45.1457ZM21.9068 16.3992C24.9883 16.3992 27.4868 13.7974 27.4868 10.5868C27.4868 7.37624 24.9883 4.7744 21.9068 4.7744C18.8253 4.7744 16.3267 7.37624 16.3267 10.5868C16.3267 13.7974 18.8253 16.3992 21.9068 16.3992ZM33.9957 15.7022C31.6709 16.6317 30.0026 17.9068 27.8406 20.303C25.4632 22.9396 23.9419 26.036 23.2269 29.2625C25.9419 29.8613 28.5427 31.1424 30.7613 33.1235C32.6868 34.8465 34.1119 36.9151 35.0334 39.1495C37.9679 38.074 40.687 36.2894 42.9194 33.8107C44.9323 31.5763 46.3355 29.0093 47.1518 26.3111C44.6652 25.6596 42.2878 24.4312 40.2441 22.599C37.8974 20.4957 36.2877 17.881 35.4326 15.0736L33.9957 15.7022ZM22.2275 33.5089C21.7756 35.5506 21.7717 37.6629 22.2185 39.7007C22.4291 40.6719 23.2493 41.4057 24.2404 41.511C26.455 41.7513 28.7142 41.4763 30.8195 40.7017C30.1482 39.075 29.1094 37.5705 27.7102 36.3203C26.0965 34.8773 24.2057 33.9458 22.2275 33.5089ZM48.5816 14.5958C48.3582 13.573 47.4942 12.7984 46.4505 12.6891C44.0383 12.427 41.5825 12.7457 39.3014 13.6246C39.9548 15.7756 41.1872 17.7786 42.9857 19.3923C44.5517 20.7955 46.371 21.7409 48.2797 22.2345C49.0334 19.7459 49.1308 17.1093 48.5826 14.5948L48.5816 14.5958Z" stroke="#132A4C" stroke-width="1.23" stroke-linecap="round"/>
<path d="M10.552 40.6928L16.4598 39.219M11.2811 43.6312L17.1928 42.1575M32.2754 30.5049L37.5645 24.6369M31.1821 28.0163L35.0114 31.4404M33.0728 25.9167L36.902 29.3448M35.0907 23.6785L38.92 27.1066M4.04754 1.57768C4.04754 1.57768 -0.869131 2.23807 1.64829 12.278C1.64829 12.278 3.67912 17.9236 4.98599 20.8879C6.4031 24.1014 8.14792 29.8563 9.00295 33.2635L9.61269 35.6905C9.87585 36.7313 10.9325 37.3648 11.9762 37.1027L13.8273 36.6399C14.871 36.3777 15.5075 35.3241 15.2444 34.2833L14.6346 31.8563C13.7796 28.4501 12.6038 22.5552 12.3367 19.0527C12.0914 15.8252 11.2185 9.88766 11.2185 9.88766C8.70106 -0.1443 4.04754 1.57768 4.04754 1.57768ZM17.5443 45.1457L12.5233 46.398C11.9404 46.543 11.5859 47.1319 11.7318 47.7128C11.8778 48.2938 12.4677 48.6473 13.0506 48.5023L18.0716 47.251C18.6545 47.1051 19.009 46.5172 18.8631 45.9362C18.7171 45.3553 18.1272 45.0017 17.5443 45.1477V45.1457ZM21.9068 16.3992C24.9883 16.3992 27.4868 13.7974 27.4868 10.5868C27.4868 7.37624 24.9883 4.7744 21.9068 4.7744C18.8253 4.7744 16.3267 7.37624 16.3267 10.5868C16.3267 13.7974 18.8253 16.3992 21.9068 16.3992ZM33.9957 15.7022C31.6709 16.6317 30.0026 17.9068 27.8406 20.303C25.4632 22.9396 23.9419 26.036 23.2269 29.2625C25.9419 29.8613 28.5427 31.1424 30.7613 33.1235C32.6868 34.8465 34.1119 36.9151 35.0334 39.1495C37.9679 38.074 40.687 36.2894 42.9194 33.8107C44.9323 31.5763 46.3355 29.0093 47.1518 26.3111C44.6652 25.6596 42.2878 24.4312 40.2441 22.599C37.8974 20.4957 36.2877 17.881 35.4326 15.0736L33.9957 15.7022ZM22.2275 33.5089C21.7756 35.5506 21.7717 37.6629 22.2185 39.7007C22.4291 40.6719 23.2493 41.4057 24.2404 41.511C26.455 41.7513 28.7142 41.4763 30.8195 40.7017C30.1482 39.075 29.1094 37.5705 27.7102 36.3203C26.0965 34.8773 24.2057 33.9458 22.2275 33.5089ZM48.5816 14.5958C48.3582 13.573 47.4942 12.7984 46.4505 12.6891C44.0383 12.427 41.5825 12.7457 39.3014 13.6246C39.9548 15.7756 41.1872 17.7786 42.9857 19.3923C44.5517 20.7955 46.371 21.7409 48.2797 22.2345C49.0334 19.7459 49.1308 17.1093 48.5826 14.5948L48.5816 14.5958Z" stroke="black" stroke-opacity="0.2" stroke-width="1.23" stroke-linecap="round"/>
</svg>
