<svg width="48" height="48" viewBox="0 0 48 48" fill="none" xmlns="http://www.w3.org/2000/svg">
<path d="M23.1904 20.5617C30.3657 20.1461 36.4975 25.8802 40.1723 31.4557C42.397 34.8306 44.1372 38.8882 42.7209 42.9588C41.7681 45.7057 39.1138 47.7699 36.1157 47.3682C33.1904 46.9765 32.078 43.5917 28.6932 45.2791C26.8942 46.1781 25.429 47.9961 23.1714 47.4161C21.7641 47.0533 20.6906 45.9559 19.4288 45.313C15.9712 43.5429 14.9127 46.9715 11.9385 47.3682C8.96434 47.7649 6.30511 45.7246 5.34827 43.0066C3.67978 38.2822 6.25727 33.5389 9.00819 29.8451C12.2575 25.4785 17.4892 20.8807 23.1904 20.5517V20.5617ZM20.2501 28.5155C19.2295 28.6311 18.3643 29.5311 17.9915 30.4451C16.7437 33.5199 19.9501 36.8131 22.107 38.6022C23.2582 39.555 24.0316 40.0484 25.4051 39.0327C27.8859 37.1908 32.0252 32.9309 29.6212 29.6716C28.3304 27.9264 26.4107 28.361 24.8918 29.5311C24.5728 29.7773 24.3167 30.0723 24.0117 30.3384C23.0787 29.3278 21.6953 28.356 20.2501 28.5204V28.5155Z" fill="#132A4C"/>
<path d="M23.1904 20.5617C30.3657 20.1461 36.4975 25.8802 40.1723 31.4557C42.397 34.8306 44.1372 38.8882 42.7209 42.9588C41.7681 45.7057 39.1138 47.7699 36.1157 47.3682C33.1904 46.9765 32.078 43.5917 28.6932 45.2791C26.8942 46.1781 25.429 47.9961 23.1714 47.4161C21.7641 47.0533 20.6906 45.9559 19.4288 45.313C15.9712 43.5429 14.9127 46.9715 11.9385 47.3682C8.96434 47.7649 6.30511 45.7246 5.34827 43.0066C3.67978 38.2822 6.25727 33.5389 9.00819 29.8451C12.2575 25.4785 17.4892 20.8807 23.1904 20.5517V20.5617ZM20.2501 28.5155C19.2295 28.6311 18.3643 29.5311 17.9915 30.4451C16.7437 33.5199 19.9501 36.8131 22.107 38.6022C23.2582 39.555 24.0316 40.0484 25.4051 39.0327C27.8859 37.1908 32.0252 32.9309 29.6212 29.6716C28.3304 27.9264 26.4107 28.361 24.8918 29.5311C24.5728 29.7773 24.3167 30.0723 24.0117 30.3384C23.0787 29.3278 21.6953 28.356 20.2501 28.5204V28.5155Z" fill="black" fill-opacity="0.2"/>
<path d="M16.343 0.479884C19.6501 0.286522 21.6325 5.4116 21.778 8.09076C21.9664 11.5384 19.8006 16.2139 15.6852 15.4265C12.412 14.8026 11.0574 10.9154 11.2319 7.95122C11.3864 5.33486 13.2721 0.654308 16.343 0.475897V0.480881V0.479884Z" fill="#132A4C"/>
<path d="M16.343 0.479884C19.6501 0.286522 21.6325 5.4116 21.778 8.09076C21.9664 11.5384 19.8006 16.2139 15.6852 15.4265C12.412 14.8026 11.0574 10.9154 11.2319 7.95122C11.3864 5.33486 13.2721 0.654308 16.343 0.475897V0.480881V0.479884Z" fill="black" fill-opacity="0.2"/>
<path d="M31.3477 0.479938C34.4474 0.257672 36.401 4.78373 36.7438 7.30242C37.1645 10.4072 35.8737 14.7678 32.3633 15.4306C28.2579 16.204 26.092 11.5723 26.2704 8.12869C26.406 5.47844 28.2339 0.706191 31.3477 0.483925V0.478941V0.479938Z" fill="#132A4C"/>
<path d="M31.3477 0.479938C34.4474 0.257672 36.401 4.78373 36.7438 7.30242C37.1645 10.4072 35.8737 14.7678 32.3633 15.4306C28.2579 16.204 26.092 11.5723 26.2704 8.12869C26.406 5.47844 28.2339 0.706191 31.3477 0.483925V0.478941V0.479938Z" fill="black" fill-opacity="0.2"/>
<path d="M3.0663 11.6113C6.38335 11.2385 9.71934 15.5373 10.0871 18.5354C10.4549 21.5335 8.66582 25.025 5.10656 24.3811C0.692137 23.5788 -1.04413 17.3453 0.624361 13.6615C1.06391 12.6847 1.944 11.7368 3.0663 11.6113Z" fill="#132A4C"/>
<path d="M3.0663 11.6113C6.38335 11.2385 9.71934 15.5373 10.0871 18.5354C10.4549 21.5335 8.66582 25.025 5.10656 24.3811C0.692137 23.5788 -1.04413 17.3453 0.624361 13.6615C1.06391 12.6847 1.944 11.7368 3.0663 11.6113Z" fill="black" fill-opacity="0.2"/>
<path d="M44.1366 11.6113C48.2181 11.2196 48.4454 17.0364 47.6081 19.7544C46.7719 22.4715 44.1605 25.0779 41.1385 24.3383C38.3048 23.6416 37.5025 20.3056 38.1015 17.7859C38.7015 15.2663 41.4235 11.8774 44.1356 11.6163V11.6113H44.1366Z" fill="#132A4C"/>
<path d="M44.1366 11.6113C48.2181 11.2196 48.4454 17.0364 47.6081 19.7544C46.7719 22.4715 44.1605 25.0779 41.1385 24.3383C38.3048 23.6416 37.5025 20.3056 38.1015 17.7859C38.7015 15.2663 41.4235 11.8774 44.1356 11.6163V11.6113H44.1366Z" fill="black" fill-opacity="0.2"/>
</svg>
