<svg width="50" height="48" viewBox="0 0 50 48" fill="none" xmlns="http://www.w3.org/2000/svg">
<path d="M48.2426 16.4729H1.75888V25.1724H48.2426V16.4729Z" fill="#132A4C"/>
<path d="M48.2426 16.4729H1.75888V25.1724H48.2426V16.4729Z" fill="black" fill-opacity="0.2"/>
<path d="M48.2426 16.4729H1.75888V25.1724H48.2426V16.4729Z" fill="#132A4C"/>
<path d="M48.2426 16.4729H1.75888V25.1724H48.2426V16.4729Z" fill="black" fill-opacity="0.2"/>
<path d="M48.2426 35.8799H1.75888V45H48.2426V35.8799Z" fill="#132A4C"/>
<path d="M48.2426 35.8799H1.75888V45H48.2426V35.8799Z" fill="black" fill-opacity="0.2"/>
<path d="M48.2426 35.8799H1.75888V45H48.2426V35.8799Z" fill="#132A4C"/>
<path d="M48.2426 35.8799H1.75888V45H48.2426V35.8799Z" fill="black" fill-opacity="0.2"/>
<path d="M48.4001 28.9976H1.6001V32.2632H48.4001V28.9976Z" fill="#132A4C"/>
<path d="M48.4001 28.9976H1.6001V32.2632H48.4001V28.9976Z" fill="black" fill-opacity="0.2"/>
<path d="M22.5699 7.10016C22.5699 7.10016 22.6667 5.99564 24.6848 6.00642C26.6981 6.0172 27.0924 6.70004 27.1175 7.32657" fill="#132A4C"/>
<path d="M22.5699 7.10016C22.5699 7.10016 22.6667 5.99564 24.6848 6.00642C26.6981 6.0172 27.0924 6.70004 27.1175 7.32657" fill="black" fill-opacity="0.2"/>
<path d="M8.43336 4.72349C10.6917 4.85167 11.1433 5.20627 12.4338 6.87982C13.7242 8.55336 14.2774 9.97175 14.2774 9.97175" fill="#132A4C"/>
<path d="M8.43336 4.72349C10.6917 4.85167 11.1433 5.20627 12.4338 6.87982C13.7242 8.55336 14.2774 9.97175 14.2774 9.97175" fill="black" fill-opacity="0.2"/>
<path d="M41.598 4.91741C39.3397 5.01444 38.8833 5.36904 37.5773 7.02821C36.2665 8.68139 35.6978 10.0938 35.6978 10.0938" fill="#132A4C"/>
<path d="M41.598 4.91741C39.3397 5.01444 38.8833 5.36904 37.5773 7.02821C36.2665 8.68139 35.6978 10.0938 35.6978 10.0938" fill="black" fill-opacity="0.2"/>
<path d="M22.5699 7.10016C22.5699 7.10016 22.6667 5.99564 24.6848 6.00642C26.6981 6.0172 27.0924 6.70004 27.1175 7.32657" fill="#132A4C"/>
<path d="M22.5699 7.10016C22.5699 7.10016 22.6667 5.99564 24.6848 6.00642C26.6981 6.0172 27.0924 6.70004 27.1175 7.32657" fill="black" fill-opacity="0.2"/>
<path d="M8.43336 4.72349C10.6917 4.85167 11.1433 5.20627 12.4338 6.87982C13.7242 8.55336 14.2774 9.97175 14.2774 9.97175" fill="#132A4C"/>
<path d="M8.43336 4.72349C10.6917 4.85167 11.1433 5.20627 12.4338 6.87982C13.7242 8.55336 14.2774 9.97175 14.2774 9.97175" fill="black" fill-opacity="0.2"/>
<path d="M41.598 4.91741C39.3397 5.01444 38.8833 5.36904 37.5773 7.02821C36.2665 8.68139 35.6978 10.0938 35.6978 10.0938" fill="#132A4C"/>
<path d="M41.598 4.91741C39.3397 5.01444 38.8833 5.36904 37.5773 7.02821C36.2665 8.68139 35.6978 10.0938 35.6978 10.0938" fill="black" fill-opacity="0.2"/>
<path d="M22.5699 7.10016C22.5699 7.10016 22.6667 5.99564 24.6848 6.00642C26.6981 6.0172 27.0924 6.70004 27.1175 7.32657M8.43336 4.72349C10.6917 4.85167 11.1433 5.20627 12.4338 6.87982C13.7242 8.55336 14.2774 9.97175 14.2774 9.97175M41.598 4.91741C39.3397 5.01444 38.8833 5.36904 37.5773 7.02821C36.2665 8.68139 35.6978 10.0938 35.6978 10.0938M21.6584 4.72821C21.6584 4.72821 22.8114 5.70933 22.5294 7.51106C22.2475 9.31279 22.2271 14.1873 15.7833 14.4904C9.33937 14.7934 9.43734 8.16874 9.38596 6.85937C9.33459 5.55001 7.81353 5.3799 7.81353 5.3799V4.40955C7.81353 4.40955 16.9769 3.45478 18.9544 3.85969C20.9319 4.26579 22.8425 5.46735 25.0446 5.48292C27.2468 5.49849 29.2912 4.03459 33.5879 3.66442C37.8858 3.29425 42.1885 4.63956 42.1885 4.63956V5.58475C42.1885 5.58475 40.5241 5.91299 40.5193 6.65332C40.5145 7.39246 40.5504 11.3517 37.9945 13.3247C35.4387 15.2918 31.3201 15.0402 29.4656 13.3295C27.6112 11.6189 27.0066 9.35472 27.1344 6.12502C27.1655 5.30323 27.5443 5.03129 27.5443 5.03129M48.2426 16.4729H1.75888V25.1724H48.2426V16.4729ZM48.2426 35.8799H1.75888V45H48.2426V35.8799ZM48.4001 28.9976H1.6001V32.2632H48.4001V28.9976Z" stroke="#132A4C" stroke-width="1.23" stroke-linecap="round" stroke-linejoin="round"/>
<path d="M22.5699 7.10016C22.5699 7.10016 22.6667 5.99564 24.6848 6.00642C26.6981 6.0172 27.0924 6.70004 27.1175 7.32657M8.43336 4.72349C10.6917 4.85167 11.1433 5.20627 12.4338 6.87982C13.7242 8.55336 14.2774 9.97175 14.2774 9.97175M41.598 4.91741C39.3397 5.01444 38.8833 5.36904 37.5773 7.02821C36.2665 8.68139 35.6978 10.0938 35.6978 10.0938M21.6584 4.72821C21.6584 4.72821 22.8114 5.70933 22.5294 7.51106C22.2475 9.31279 22.2271 14.1873 15.7833 14.4904C9.33937 14.7934 9.43734 8.16874 9.38596 6.85937C9.33459 5.55001 7.81353 5.3799 7.81353 5.3799V4.40955C7.81353 4.40955 16.9769 3.45478 18.9544 3.85969C20.9319 4.26579 22.8425 5.46735 25.0446 5.48292C27.2468 5.49849 29.2912 4.03459 33.5879 3.66442C37.8858 3.29425 42.1885 4.63956 42.1885 4.63956V5.58475C42.1885 5.58475 40.5241 5.91299 40.5193 6.65332C40.5145 7.39246 40.5504 11.3517 37.9945 13.3247C35.4387 15.2918 31.3201 15.0402 29.4656 13.3295C27.6112 11.6189 27.0066 9.35472 27.1344 6.12502C27.1655 5.30323 27.5443 5.03129 27.5443 5.03129M48.2426 16.4729H1.75888V25.1724H48.2426V16.4729ZM48.2426 35.8799H1.75888V45H48.2426V35.8799ZM48.4001 28.9976H1.6001V32.2632H48.4001V28.9976Z" stroke="black" stroke-opacity="0.2" stroke-width="1.23" stroke-linecap="round" stroke-linejoin="round"/>
</svg>
