<svg width="48" height="49" viewBox="0 0 48 49" fill="none" xmlns="http://www.w3.org/2000/svg">
<path d="M22.187 2.16326C22.5139 1.85862 22.9375 1.53911 23.1158 1.44995C23.3684 1.3162 23.569 1.27905 24 1.27905C24.4012 1.27905 24.639 1.32363 24.8545 1.42766C25.018 1.50196 25.4712 1.85862 25.8576 2.21528C26.244 2.57193 27.1505 3.41899 27.8638 4.10258C28.5771 4.78617 30.13 6.26481 33.4737 9.43014L33.5108 7.34221C33.548 5.37317 33.5554 5.23942 33.7115 4.99422C33.7932 4.85305 33.9641 4.68215 34.083 4.62271C34.2539 4.53354 34.7591 4.50382 36.9288 4.48896C38.3777 4.4741 39.7077 4.48153 39.8786 4.50382C40.0793 4.53354 40.2873 4.63014 40.4359 4.76388C40.5697 4.87534 40.7257 5.10568 40.7703 5.26172C40.8446 5.4772 40.8669 6.88153 40.8594 16.3998L41.5876 17.0685C41.9889 17.4326 43.5344 18.8741 45.0279 20.2636C47.1752 22.2698 47.7697 22.8642 47.8663 23.1094C47.9406 23.2803 48 23.5701 48 23.7558C48 23.9416 47.9554 24.1794 47.896 24.2908C47.8365 24.4097 47.7102 24.5732 47.6136 24.6623C47.5245 24.7515 47.3164 24.8778 47.1604 24.9373C46.93 25.0339 46.5065 25.0561 42.5387 25.0561L42.561 35.845C42.5759 45.8165 42.5684 46.671 42.4495 47.0128C42.3678 47.258 42.1969 47.5106 41.9517 47.7633C41.6693 48.0456 41.4687 48.1719 41.1641 48.2685C40.8 48.3726 40.1833 48.3874 30.6873 48.3874L30.6502 34.6041L30.4718 34.0097C30.3752 33.6828 30.1969 33.1998 30.078 32.9323C29.9591 32.6648 29.7214 32.2487 29.5579 32.0035C29.387 31.7583 29.0452 31.3496 28.8 31.0896C28.5474 30.8295 28.109 30.458 27.8266 30.2574C27.5368 30.0642 27.0539 29.7818 26.7492 29.6332C26.4446 29.4846 25.9245 29.2989 25.5975 29.2097C25.1368 29.0834 24.7802 29.0462 24.0372 29.0462C23.257 29.0388 22.9523 29.0685 22.4396 29.2097C22.0904 29.2989 21.5703 29.4846 21.2879 29.6184C20.9981 29.7521 20.5969 29.9676 20.3963 30.1088C20.1882 30.2425 19.8242 30.5249 19.5864 30.7329C19.3412 30.941 18.9548 31.3422 18.7319 31.632C18.5015 31.9218 18.1672 32.4345 17.9889 32.7837C17.8105 33.1329 17.5728 33.7348 17.2755 34.827L17.2384 48.3874L12.0439 48.3651C6.90275 48.3503 6.87291 48.3502 6.57585 48.1868C6.41238 48.0976 6.16718 47.9193 6.02601 47.7781C5.89226 47.6444 5.7065 47.3992 5.4613 46.9385V25.0933L0.913932 25.019L0.609288 24.8109C0.416099 24.6846 0.237771 24.4914 0.148607 24.2908C0.0668731 24.1199 0 23.845 0 23.6815C0 23.5181 0.0743034 23.2357 0.170898 23.0574C0.260062 22.8716 0.416099 22.6636 0.520124 22.5893C0.624149 22.5075 1.05511 22.1063 1.48607 21.6828C1.91703 21.2667 2.83839 20.3973 3.52941 19.7435C4.22786 19.0896 5.27554 18.1013 5.86997 17.5441C6.4644 16.9942 8.11393 15.4413 9.54799 14.0964C10.9746 12.7515 12.2155 11.5849 12.2972 11.4883C12.3789 11.3992 13.3152 10.515 14.3777 9.5193C15.4402 8.53107 16.8446 7.20846 17.4985 6.59918C18.1523 5.98246 19.3337 4.85305 20.1362 4.09515C20.9313 3.33726 21.8526 2.46791 22.187 2.16326Z" fill="#132A4C"/>
<path d="M22.187 2.16326C22.5139 1.85862 22.9375 1.53911 23.1158 1.44995C23.3684 1.3162 23.569 1.27905 24 1.27905C24.4012 1.27905 24.639 1.32363 24.8545 1.42766C25.018 1.50196 25.4712 1.85862 25.8576 2.21528C26.244 2.57193 27.1505 3.41899 27.8638 4.10258C28.5771 4.78617 30.13 6.26481 33.4737 9.43014L33.5108 7.34221C33.548 5.37317 33.5554 5.23942 33.7115 4.99422C33.7932 4.85305 33.9641 4.68215 34.083 4.62271C34.2539 4.53354 34.7591 4.50382 36.9288 4.48896C38.3777 4.4741 39.7077 4.48153 39.8786 4.50382C40.0793 4.53354 40.2873 4.63014 40.4359 4.76388C40.5697 4.87534 40.7257 5.10568 40.7703 5.26172C40.8446 5.4772 40.8669 6.88153 40.8594 16.3998L41.5876 17.0685C41.9889 17.4326 43.5344 18.8741 45.0279 20.2636C47.1752 22.2698 47.7697 22.8642 47.8663 23.1094C47.9406 23.2803 48 23.5701 48 23.7558C48 23.9416 47.9554 24.1794 47.896 24.2908C47.8365 24.4097 47.7102 24.5732 47.6136 24.6623C47.5245 24.7515 47.3164 24.8778 47.1604 24.9373C46.93 25.0339 46.5065 25.0561 42.5387 25.0561L42.561 35.845C42.5759 45.8165 42.5684 46.671 42.4495 47.0128C42.3678 47.258 42.1969 47.5106 41.9517 47.7633C41.6693 48.0456 41.4687 48.1719 41.1641 48.2685C40.8 48.3726 40.1833 48.3874 30.6873 48.3874L30.6502 34.6041L30.4718 34.0097C30.3752 33.6828 30.1969 33.1998 30.078 32.9323C29.9591 32.6648 29.7214 32.2487 29.5579 32.0035C29.387 31.7583 29.0452 31.3496 28.8 31.0896C28.5474 30.8295 28.109 30.458 27.8266 30.2574C27.5368 30.0642 27.0539 29.7818 26.7492 29.6332C26.4446 29.4846 25.9245 29.2989 25.5975 29.2097C25.1368 29.0834 24.7802 29.0462 24.0372 29.0462C23.257 29.0388 22.9523 29.0685 22.4396 29.2097C22.0904 29.2989 21.5703 29.4846 21.2879 29.6184C20.9981 29.7521 20.5969 29.9676 20.3963 30.1088C20.1882 30.2425 19.8242 30.5249 19.5864 30.7329C19.3412 30.941 18.9548 31.3422 18.7319 31.632C18.5015 31.9218 18.1672 32.4345 17.9889 32.7837C17.8105 33.1329 17.5728 33.7348 17.2755 34.827L17.2384 48.3874L12.0439 48.3651C6.90275 48.3503 6.87291 48.3502 6.57585 48.1868C6.41238 48.0976 6.16718 47.9193 6.02601 47.7781C5.89226 47.6444 5.7065 47.3992 5.4613 46.9385V25.0933L0.913932 25.019L0.609288 24.8109C0.416099 24.6846 0.237771 24.4914 0.148607 24.2908C0.0668731 24.1199 0 23.845 0 23.6815C0 23.5181 0.0743034 23.2357 0.170898 23.0574C0.260062 22.8716 0.416099 22.6636 0.520124 22.5893C0.624149 22.5075 1.05511 22.1063 1.48607 21.6828C1.91703 21.2667 2.83839 20.3973 3.52941 19.7435C4.22786 19.0896 5.27554 18.1013 5.86997 17.5441C6.4644 16.9942 8.11393 15.4413 9.54799 14.0964C10.9746 12.7515 12.2155 11.5849 12.2972 11.4883C12.3789 11.3992 13.3152 10.515 14.3777 9.5193C15.4402 8.53107 16.8446 7.20846 17.4985 6.59918C18.1523 5.98246 19.3337 4.85305 20.1362 4.09515C20.9313 3.33726 21.8526 2.46791 22.187 2.16326Z" fill="black" fill-opacity="0.2"/>
</svg>
