<svg width="48" height="48" viewBox="0 0 48 48" fill="none" xmlns="http://www.w3.org/2000/svg">
<path fill-rule="evenodd" clip-rule="evenodd" d="M18.6369 38.823C18.6369 39.7617 18.6613 40.2981 18.7039 40.2981C18.7474 40.2982 18.771 41.1921 18.771 42.8459C18.771 44.4996 18.7474 45.3935 18.7039 45.3936C18.6671 45.3936 18.6369 45.4397 18.6369 45.496C18.6369 45.664 18.0871 46.1602 17.7989 46.2523C17.5873 46.32 16.396 46.3326 12.1676 46.3121C9.21814 46.2977 6.69175 46.263 6.55312 46.2348C6.41488 46.2066 6.30167 46.1567 6.30167 46.1239C6.30167 46.091 6.25507 46.0642 6.19809 46.0642C6.08141 46.0641 5.76539 45.7725 5.76539 45.6649C5.76538 45.6263 5.73521 45.5948 5.69834 45.5948C5.66147 45.5948 5.63129 45.5344 5.63129 45.4607C5.63128 45.3869 5.60111 45.3266 5.56424 45.3266C5.52081 45.3263 5.49725 44.4659 5.49725 42.8794C5.49725 41.2929 5.52081 40.4326 5.56424 40.4322C5.60701 40.4322 5.63129 39.8735 5.63129 38.8901V37.348H18.6369V38.823Z" fill="#132A4C"/>
<path fill-rule="evenodd" clip-rule="evenodd" d="M18.6369 38.823C18.6369 39.7617 18.6613 40.2981 18.7039 40.2981C18.7474 40.2982 18.771 41.1921 18.771 42.8459C18.771 44.4996 18.7474 45.3935 18.7039 45.3936C18.6671 45.3936 18.6369 45.4397 18.6369 45.496C18.6369 45.664 18.0871 46.1602 17.7989 46.2523C17.5873 46.32 16.396 46.3326 12.1676 46.3121C9.21814 46.2977 6.69175 46.263 6.55312 46.2348C6.41488 46.2066 6.30167 46.1567 6.30167 46.1239C6.30167 46.091 6.25507 46.0642 6.19809 46.0642C6.08141 46.0641 5.76539 45.7725 5.76539 45.6649C5.76538 45.6263 5.73521 45.5948 5.69834 45.5948C5.66147 45.5948 5.63129 45.5344 5.63129 45.4607C5.63128 45.3869 5.60111 45.3266 5.56424 45.3266C5.52081 45.3263 5.49725 44.4659 5.49725 42.8794C5.49725 41.2929 5.52081 40.4326 5.56424 40.4322C5.60701 40.4322 5.63129 39.8735 5.63129 38.8901V37.348H18.6369V38.823Z" fill="black" fill-opacity="0.2"/>
<path fill-rule="evenodd" clip-rule="evenodd" d="M14.6976 41.4465C14.4988 41.3401 9.87414 41.3446 9.68948 41.4513C9.47784 41.5741 9.25143 41.8255 9.25142 41.9377C9.25142 41.9947 9.22124 42.0413 9.18437 42.0413C9.1471 42.0413 9.11732 42.2202 9.11732 42.4436V42.8459L10.5419 42.8575C11.8865 42.8684 14.2663 42.8654 14.9665 42.852L15.285 42.8459V42.4436C15.285 42.2202 15.2552 42.0413 15.2179 42.0413C15.181 42.0413 15.1509 41.9947 15.1509 41.9377C15.1509 41.8209 14.9106 41.5605 14.6976 41.4465Z" fill="#132A4C"/>
<path fill-rule="evenodd" clip-rule="evenodd" d="M14.6976 41.4465C14.4988 41.3401 9.87414 41.3446 9.68948 41.4513C9.47784 41.5741 9.25143 41.8255 9.25142 41.9377C9.25142 41.9947 9.22124 42.0413 9.18437 42.0413C9.1471 42.0413 9.11732 42.2202 9.11732 42.4436V42.8459L10.5419 42.8575C11.8865 42.8684 14.2663 42.8654 14.9665 42.852L15.285 42.8459V42.4436C15.285 42.2202 15.2552 42.0413 15.2179 42.0413C15.181 42.0413 15.1509 41.9947 15.1509 41.9377C15.1509 41.8209 14.9106 41.5605 14.6976 41.4465Z" fill="black" fill-opacity="0.2"/>
<path fill-rule="evenodd" clip-rule="evenodd" d="M35.0791 29.0342C44.9388 29.0342 45.3674 29.0392 45.6881 29.1592C46.1741 29.3408 46.3911 29.4504 46.3911 29.5143C46.3911 29.5452 46.4369 29.5706 46.4929 29.5706C46.6054 29.5706 47.4637 30.3994 47.4637 30.508C47.4637 30.5456 47.4939 30.5763 47.5308 30.5763C47.5653 30.5763 47.594 30.6161 47.5974 30.6666L47.5981 30.6871C47.6015 30.7376 47.6302 30.7774 47.6648 30.7774C47.6994 30.7774 47.7281 30.8437 47.7315 30.928L47.7322 30.9621C47.7354 31.0408 47.7606 31.1037 47.7921 31.1118L47.8057 31.1135C47.8372 31.1215 47.8624 31.1845 47.8656 31.2632L47.8663 31.2973C47.8697 31.3816 47.8984 31.4478 47.9329 31.4479C47.9771 31.4479 48 33.5599 48 37.6498C48 41.7396 47.9771 43.8516 47.9329 43.8516C47.8984 43.8516 47.8697 43.9179 47.8663 44.0021L47.8656 44.0363C47.8622 44.1205 47.8335 44.1868 47.7989 44.1868C47.7643 44.1868 47.7356 44.2399 47.7322 44.3073L47.7315 44.3346C47.7283 44.3975 47.7031 44.4478 47.6716 44.4543L47.658 44.4557C47.6266 44.4621 47.6013 44.5125 47.5981 44.5754L47.5974 44.6028C47.594 44.6701 47.5653 44.7232 47.5308 44.7232C47.4962 44.7232 47.4675 44.763 47.464 44.8135L47.4634 44.834C47.4599 44.8845 47.4312 44.9243 47.3967 44.9243C47.3598 44.9243 47.3296 44.9553 47.3296 44.9932C47.3295 45.0856 46.7493 45.6618 46.6562 45.6618C46.6157 45.6618 46.5359 45.7086 46.4788 45.7657C46.4216 45.8228 46.288 45.8869 46.1818 45.9082C46.0757 45.9294 45.9888 45.9667 45.9888 45.9909C45.9887 46.0151 45.8455 46.0791 45.6704 46.1333C45.191 46.2815 25.2003 46.2815 24.7207 46.1333C24.5456 46.0791 24.4024 46.0113 24.4023 45.9825C24.4023 45.9537 24.3419 45.93 24.2682 45.93C24.199 45.93 24.1417 45.9035 24.1348 45.8698L24.1334 45.8562C24.1269 45.8247 24.0766 45.7995 24.0137 45.7963L23.9863 45.7956C23.919 45.7924 23.8659 45.7656 23.8659 45.7334C23.8659 45.699 23.8055 45.6517 23.7316 45.6283C23.5556 45.5723 22.9274 44.959 22.9274 44.8429C22.9274 44.7933 22.867 44.7093 22.7933 44.6561C22.7196 44.603 22.6593 44.5058 22.6593 44.4402C22.6593 44.3746 22.6291 44.321 22.5922 44.3209C22.5576 44.3209 22.5289 44.2414 22.5255 44.1403L22.5248 44.0993C22.5214 43.9982 22.4927 43.9186 22.4581 43.9186C22.4235 43.9186 22.3948 43.8258 22.3914 43.7078L22.3907 43.66C22.3873 43.5421 22.3586 43.4494 22.3241 43.4493C22.2799 43.4493 22.257 41.4714 22.257 37.6498C22.257 33.8281 22.2799 31.8502 22.3241 31.8502C22.3586 31.8501 22.3873 31.7441 22.3907 31.6093L22.3914 31.5547C22.3948 31.4199 22.4235 31.3138 22.4581 31.3138C22.4927 31.3138 22.5214 31.2475 22.5248 31.1632L22.5255 31.1291C22.5289 31.0448 22.5576 30.9786 22.5922 30.9786C22.6268 30.9786 22.6555 30.9255 22.6589 30.8582L22.6596 30.8308C22.663 30.7634 22.6917 30.7104 22.7262 30.7104C22.7631 30.7104 22.7933 30.6717 22.7933 30.6246C22.7933 30.5774 22.8537 30.4953 22.9274 30.4422C23.0011 30.389 23.0614 30.3039 23.0614 30.2531C23.0614 30.1552 23.4385 29.7717 23.5348 29.7717C23.5661 29.7717 23.6671 29.6963 23.7593 29.6041C23.8514 29.5119 23.9736 29.4365 24.0305 29.4365C24.0875 29.4365 24.1341 29.4063 24.1341 29.3694C24.1341 29.3349 24.1871 29.3061 24.2545 29.3027L24.2819 29.302C24.3492 29.2986 24.4023 29.2699 24.4023 29.2353C24.4023 29.2007 24.4818 29.1721 24.5829 29.1686L24.6239 29.168C24.7249 29.1645 24.8044 29.1358 24.8045 29.1013C24.8045 29.0569 28.2741 29.0342 35.0791 29.0342ZM28.4246 34.1297V40.9015H41.9665V34.1297H28.4246Z" fill="#132A4C"/>
<path fill-rule="evenodd" clip-rule="evenodd" d="M35.0791 29.0342C44.9388 29.0342 45.3674 29.0392 45.6881 29.1592C46.1741 29.3408 46.3911 29.4504 46.3911 29.5143C46.3911 29.5452 46.4369 29.5706 46.4929 29.5706C46.6054 29.5706 47.4637 30.3994 47.4637 30.508C47.4637 30.5456 47.4939 30.5763 47.5308 30.5763C47.5653 30.5763 47.594 30.6161 47.5974 30.6666L47.5981 30.6871C47.6015 30.7376 47.6302 30.7774 47.6648 30.7774C47.6994 30.7774 47.7281 30.8437 47.7315 30.928L47.7322 30.9621C47.7354 31.0408 47.7606 31.1037 47.7921 31.1118L47.8057 31.1135C47.8372 31.1215 47.8624 31.1845 47.8656 31.2632L47.8663 31.2973C47.8697 31.3816 47.8984 31.4478 47.9329 31.4479C47.9771 31.4479 48 33.5599 48 37.6498C48 41.7396 47.9771 43.8516 47.9329 43.8516C47.8984 43.8516 47.8697 43.9179 47.8663 44.0021L47.8656 44.0363C47.8622 44.1205 47.8335 44.1868 47.7989 44.1868C47.7643 44.1868 47.7356 44.2399 47.7322 44.3073L47.7315 44.3346C47.7283 44.3975 47.7031 44.4478 47.6716 44.4543L47.658 44.4557C47.6266 44.4621 47.6013 44.5125 47.5981 44.5754L47.5974 44.6028C47.594 44.6701 47.5653 44.7232 47.5308 44.7232C47.4962 44.7232 47.4675 44.763 47.464 44.8135L47.4634 44.834C47.4599 44.8845 47.4312 44.9243 47.3967 44.9243C47.3598 44.9243 47.3296 44.9553 47.3296 44.9932C47.3295 45.0856 46.7493 45.6618 46.6562 45.6618C46.6157 45.6618 46.5359 45.7086 46.4788 45.7657C46.4216 45.8228 46.288 45.8869 46.1818 45.9082C46.0757 45.9294 45.9888 45.9667 45.9888 45.9909C45.9887 46.0151 45.8455 46.0791 45.6704 46.1333C45.191 46.2815 25.2003 46.2815 24.7207 46.1333C24.5456 46.0791 24.4024 46.0113 24.4023 45.9825C24.4023 45.9537 24.3419 45.93 24.2682 45.93C24.199 45.93 24.1417 45.9035 24.1348 45.8698L24.1334 45.8562C24.1269 45.8247 24.0766 45.7995 24.0137 45.7963L23.9863 45.7956C23.919 45.7924 23.8659 45.7656 23.8659 45.7334C23.8659 45.699 23.8055 45.6517 23.7316 45.6283C23.5556 45.5723 22.9274 44.959 22.9274 44.8429C22.9274 44.7933 22.867 44.7093 22.7933 44.6561C22.7196 44.603 22.6593 44.5058 22.6593 44.4402C22.6593 44.3746 22.6291 44.321 22.5922 44.3209C22.5576 44.3209 22.5289 44.2414 22.5255 44.1403L22.5248 44.0993C22.5214 43.9982 22.4927 43.9186 22.4581 43.9186C22.4235 43.9186 22.3948 43.8258 22.3914 43.7078L22.3907 43.66C22.3873 43.5421 22.3586 43.4494 22.3241 43.4493C22.2799 43.4493 22.257 41.4714 22.257 37.6498C22.257 33.8281 22.2799 31.8502 22.3241 31.8502C22.3586 31.8501 22.3873 31.7441 22.3907 31.6093L22.3914 31.5547C22.3948 31.4199 22.4235 31.3138 22.4581 31.3138C22.4927 31.3138 22.5214 31.2475 22.5248 31.1632L22.5255 31.1291C22.5289 31.0448 22.5576 30.9786 22.5922 30.9786C22.6268 30.9786 22.6555 30.9255 22.6589 30.8582L22.6596 30.8308C22.663 30.7634 22.6917 30.7104 22.7262 30.7104C22.7631 30.7104 22.7933 30.6717 22.7933 30.6246C22.7933 30.5774 22.8537 30.4953 22.9274 30.4422C23.0011 30.389 23.0614 30.3039 23.0614 30.2531C23.0614 30.1552 23.4385 29.7717 23.5348 29.7717C23.5661 29.7717 23.6671 29.6963 23.7593 29.6041C23.8514 29.5119 23.9736 29.4365 24.0305 29.4365C24.0875 29.4365 24.1341 29.4063 24.1341 29.3694C24.1341 29.3349 24.1871 29.3061 24.2545 29.3027L24.2819 29.302C24.3492 29.2986 24.4023 29.2699 24.4023 29.2353C24.4023 29.2007 24.4818 29.1721 24.5829 29.1686L24.6239 29.168C24.7249 29.1645 24.8044 29.1358 24.8045 29.1013C24.8045 29.0569 28.2741 29.0342 35.0791 29.0342ZM28.4246 34.1297V40.9015H41.9665V34.1297H28.4246Z" fill="black" fill-opacity="0.2"/>
<path fill-rule="evenodd" clip-rule="evenodd" d="M23.8659 6.57343C23.8659 6.68405 23.8357 6.77458 23.7989 6.77458C23.7619 6.77467 23.7354 6.9809 23.7322 7.28284L23.7316 7.40607C23.7284 7.70805 23.7018 7.91433 23.6648 7.91439C23.6279 7.91439 23.6013 8.12064 23.5981 8.42265L23.5975 8.54588C23.5943 8.84791 23.5677 9.05421 23.5307 9.05421C23.4941 9.05423 23.4672 9.25063 23.464 9.533L23.4634 9.64811C23.4601 9.93043 23.4333 10.1269 23.3967 10.127C23.3584 10.127 23.3296 10.3281 23.3296 10.5963C23.3296 10.9265 23.3048 11.0659 23.2458 11.0666C23.1891 11.0673 23.1944 11.0906 23.2626 11.1388C23.3383 11.1923 23.3424 11.2183 23.2794 11.2439C23.2229 11.2668 23.1955 11.4402 23.1955 11.7752C23.1955 12.062 23.1672 12.2724 23.1285 12.2724C23.0915 12.2725 23.0649 12.4788 23.0618 12.7807L23.0611 12.904C23.0579 13.2059 23.0314 13.4121 22.9945 13.4122C22.9575 13.4122 22.9309 13.6185 22.9277 13.9205L22.9271 14.0437C22.924 14.3357 22.8991 14.5382 22.864 14.5514L22.8567 14.5527C22.8216 14.5659 22.7967 14.7684 22.7936 15.0603L22.793 15.1835C22.7898 15.4856 22.7632 15.6919 22.7262 15.6919C22.6896 15.692 22.6628 15.8883 22.6596 16.1706L22.6589 16.2858C22.6557 16.5681 22.6288 16.7646 22.5922 16.7646C22.5553 16.7646 22.5287 16.9709 22.5255 17.2729L22.5248 17.3961C22.5217 17.6981 22.4951 17.9044 22.4581 17.9044C22.4215 17.9044 22.3946 18.1009 22.3914 18.3832L22.3907 18.4983C22.3876 18.7713 22.3624 18.9639 22.3277 18.9765L22.3205 18.9778C22.2833 18.9911 22.257 19.2103 22.257 19.5135C22.257 19.8264 22.229 20.0499 22.19 20.0499C22.1505 20.0499 22.1229 20.2845 22.1229 20.6198C22.1229 20.9445 22.097 21.1749 22.0595 21.189L22.0522 21.1904C22.0145 21.2052 21.9889 21.4467 21.9889 21.7931C21.9889 22.1506 21.9616 22.3965 21.9218 22.3966C21.8855 22.3966 21.8583 22.5832 21.8551 22.8459L21.8544 22.9529C21.8512 23.2156 21.824 23.4023 21.7877 23.4023C21.7508 23.4023 21.7242 23.6085 21.721 23.9105L21.7203 24.0338C21.7172 24.3358 21.6906 24.542 21.6536 24.542C21.6142 24.5421 21.5866 24.7768 21.5866 25.112C21.5866 25.4367 21.5607 25.6671 21.5232 25.6812L21.5159 25.6825C21.4788 25.696 21.4525 25.9152 21.4525 26.2182C21.4525 26.5214 21.4263 26.7406 21.3891 26.7539L21.3819 26.7552C21.3471 26.7677 21.3219 26.9604 21.3188 27.2334L21.3181 27.3485C21.315 27.6215 21.2898 27.8142 21.255 27.8267L21.2478 27.828C21.2107 27.8413 21.1844 28.0605 21.1844 28.3637C21.1844 28.6766 21.1564 28.9001 21.1173 28.9001C21.0779 28.9001 21.0503 29.1348 21.0503 29.47C21.0503 29.7948 21.0244 30.0252 20.9869 30.0392L20.9796 30.0406C20.9418 30.0555 20.9162 30.297 20.9162 30.6433C20.9162 31.0008 20.8889 31.2467 20.8492 31.2467C20.8101 31.2467 20.7821 31.4702 20.7821 31.7831C20.7821 32.0863 20.7559 32.3055 20.7187 32.3188L20.7115 32.3201C20.6767 32.3326 20.6515 32.5253 20.6484 32.7983L20.6477 32.9135C20.6445 33.1958 20.6177 33.3921 20.5811 33.3922C20.5442 33.3922 20.514 33.5431 20.514 33.7275C20.514 33.9062 20.4857 34.0534 20.4504 34.0623L20.4401 34.0635C20.4064 34.0713 20.3799 34.1367 20.3799 34.2155C20.3799 34.2996 20.3196 34.4118 20.2459 34.465C20.1721 34.5182 20.1118 34.6022 20.1118 34.6518C20.1117 34.7679 19.4836 35.3812 19.3075 35.4371C19.2337 35.4606 19.1733 35.5078 19.1732 35.5422C19.1732 35.5766 19.1154 35.6048 19.0447 35.6048C18.974 35.6048 18.9036 35.6425 18.8883 35.6886C18.866 35.7545 17.4598 35.7806 12.2961 35.8109C5.94681 35.848 5.22907 35.8323 5.22905 35.6556C5.22905 35.6276 5.18327 35.6048 5.12722 35.6048C4.99465 35.6048 4.15642 34.7664 4.15642 34.6339C4.15641 34.5778 4.12629 34.5321 4.08943 34.5321C4.05486 34.5321 4.02615 34.4525 4.02271 34.3514L4.02205 34.3104C4.0186 34.2093 3.98989 34.1297 3.95533 34.1297C3.91846 34.1297 3.88828 33.9789 3.88827 33.7946C3.88827 33.6102 3.85809 33.4593 3.82122 33.4593C3.78459 33.4592 3.75777 33.2628 3.75456 32.9805L3.75391 32.8654C3.7508 32.5924 3.72557 32.3997 3.69079 32.3872L3.68358 32.3859C3.6464 32.3726 3.62013 32.1534 3.62013 31.8502C3.62013 31.547 3.59387 31.3277 3.55668 31.3144L3.54948 31.3131C3.5147 31.3006 3.48947 31.108 3.48636 30.835L3.4857 30.7199C3.4826 30.4469 3.45742 30.2542 3.42265 30.2417L3.41544 30.2404C3.38065 30.2279 3.35543 30.0353 3.35232 29.7622L3.35167 29.6471C3.34856 29.3741 3.32333 29.1814 3.28854 29.169L3.28134 29.1677C3.24415 29.1543 3.21789 28.9351 3.21789 28.6319C3.21789 28.3287 3.19163 28.1095 3.15444 28.0962L3.14724 28.0949C3.11246 28.0824 3.08728 27.8897 3.08418 27.6167L3.08352 27.5016C3.08031 27.2193 3.05343 27.0229 3.0168 27.0228C2.97738 27.0228 2.94975 26.7881 2.94975 26.4529C2.94975 26.1281 2.92382 25.8977 2.88636 25.8836L2.87903 25.8823C2.84157 25.8683 2.81565 25.6379 2.81564 25.3131C2.81564 24.9779 2.78801 24.7432 2.74859 24.7432C2.71228 24.7431 2.68518 24.5565 2.68193 24.2938L2.68128 24.1869C2.67803 23.9242 2.65088 23.7375 2.61456 23.7375C2.57547 23.7375 2.5475 23.514 2.5475 23.2011C2.5475 22.8979 2.52124 22.6787 2.48405 22.6654L2.47685 22.664C2.44207 22.6516 2.41684 22.4589 2.41373 22.1859L2.41307 22.0708C2.40997 21.7978 2.38479 21.6051 2.35002 21.5926L2.34281 21.5913C2.30802 21.5788 2.2828 21.3862 2.27969 21.1132L2.27904 20.998C2.27582 20.7156 2.24895 20.5193 2.21231 20.5192C2.17535 20.5192 2.14877 20.313 2.14559 20.0109L2.14493 19.8877C2.14175 19.5857 2.11516 19.3794 2.07821 19.3794C2.04158 19.3793 2.01476 19.1829 2.01155 18.9006L2.01089 18.7855C2.00778 18.5125 1.98255 18.3198 1.94777 18.3073L1.94057 18.306C1.90338 18.2927 1.87712 18.0735 1.87712 17.7703C1.87712 17.4574 1.84915 17.2339 1.81007 17.2339C1.77374 17.2339 1.74659 17.0473 1.74334 16.7846L1.74269 16.6776C1.73944 16.415 1.71234 16.2283 1.67603 16.2282C1.63907 16.2282 1.61248 16.022 1.6093 15.7199L1.60865 15.5967C1.60547 15.2947 1.57888 15.0884 1.54193 15.0884C1.5056 15.0884 1.47845 14.9018 1.4752 14.6391L1.47455 14.5321C1.4713 14.2694 1.44415 14.0827 1.40782 14.0827C1.36841 14.0826 1.34077 13.848 1.34077 13.5128C1.34077 13.1881 1.3149 12.9578 1.27745 12.9436L1.27012 12.9423C1.23295 12.9289 1.20673 12.7096 1.20673 12.4065C1.20673 12.1033 1.18047 11.8841 1.14328 11.8708L1.13608 11.8695C1.10129 11.8571 1.07607 11.6644 1.07296 11.3913L1.0723 11.2762C1.06919 11.0032 1.04397 10.8105 1.00918 10.7981L1.00198 10.7968C0.967202 10.7842 0.942022 10.5915 0.938919 10.3186L0.938264 10.2034C0.935048 9.92109 0.908176 9.7247 0.87154 9.72466C0.835212 9.72466 0.808066 9.53799 0.804816 9.27527L0.804161 9.16827C0.80091 8.90557 0.773764 8.71895 0.737437 8.71895C0.700802 8.7189 0.673929 8.52251 0.670713 8.24016L0.670058 8.12504C0.666849 7.84271 0.640028 7.64629 0.603399 7.64619C0.563444 7.64619 0.536348 7.38921 0.536348 7.00926V6.37227H23.8659V6.57343ZM6.97206 12.8088V24.8773H17.2961V12.8088H6.97206Z" fill="#132A4C"/>
<path fill-rule="evenodd" clip-rule="evenodd" d="M23.8659 6.57343C23.8659 6.68405 23.8357 6.77458 23.7989 6.77458C23.7619 6.77467 23.7354 6.9809 23.7322 7.28284L23.7316 7.40607C23.7284 7.70805 23.7018 7.91433 23.6648 7.91439C23.6279 7.91439 23.6013 8.12064 23.5981 8.42265L23.5975 8.54588C23.5943 8.84791 23.5677 9.05421 23.5307 9.05421C23.4941 9.05423 23.4672 9.25063 23.464 9.533L23.4634 9.64811C23.4601 9.93043 23.4333 10.1269 23.3967 10.127C23.3584 10.127 23.3296 10.3281 23.3296 10.5963C23.3296 10.9265 23.3048 11.0659 23.2458 11.0666C23.1891 11.0673 23.1944 11.0906 23.2626 11.1388C23.3383 11.1923 23.3424 11.2183 23.2794 11.2439C23.2229 11.2668 23.1955 11.4402 23.1955 11.7752C23.1955 12.062 23.1672 12.2724 23.1285 12.2724C23.0915 12.2725 23.0649 12.4788 23.0618 12.7807L23.0611 12.904C23.0579 13.2059 23.0314 13.4121 22.9945 13.4122C22.9575 13.4122 22.9309 13.6185 22.9277 13.9205L22.9271 14.0437C22.924 14.3357 22.8991 14.5382 22.864 14.5514L22.8567 14.5527C22.8216 14.5659 22.7967 14.7684 22.7936 15.0603L22.793 15.1835C22.7898 15.4856 22.7632 15.6919 22.7262 15.6919C22.6896 15.692 22.6628 15.8883 22.6596 16.1706L22.6589 16.2858C22.6557 16.5681 22.6288 16.7646 22.5922 16.7646C22.5553 16.7646 22.5287 16.9709 22.5255 17.2729L22.5248 17.3961C22.5217 17.6981 22.4951 17.9044 22.4581 17.9044C22.4215 17.9044 22.3946 18.1009 22.3914 18.3832L22.3907 18.4983C22.3876 18.7713 22.3624 18.9639 22.3277 18.9765L22.3205 18.9778C22.2833 18.9911 22.257 19.2103 22.257 19.5135C22.257 19.8264 22.229 20.0499 22.19 20.0499C22.1505 20.0499 22.1229 20.2845 22.1229 20.6198C22.1229 20.9445 22.097 21.1749 22.0595 21.189L22.0522 21.1904C22.0145 21.2052 21.9889 21.4467 21.9889 21.7931C21.9889 22.1506 21.9616 22.3965 21.9218 22.3966C21.8855 22.3966 21.8583 22.5832 21.8551 22.8459L21.8544 22.9529C21.8512 23.2156 21.824 23.4023 21.7877 23.4023C21.7508 23.4023 21.7242 23.6085 21.721 23.9105L21.7203 24.0338C21.7172 24.3358 21.6906 24.542 21.6536 24.542C21.6142 24.5421 21.5866 24.7768 21.5866 25.112C21.5866 25.4367 21.5607 25.6671 21.5232 25.6812L21.5159 25.6825C21.4788 25.696 21.4525 25.9152 21.4525 26.2182C21.4525 26.5214 21.4263 26.7406 21.3891 26.7539L21.3819 26.7552C21.3471 26.7677 21.3219 26.9604 21.3188 27.2334L21.3181 27.3485C21.315 27.6215 21.2898 27.8142 21.255 27.8267L21.2478 27.828C21.2107 27.8413 21.1844 28.0605 21.1844 28.3637C21.1844 28.6766 21.1564 28.9001 21.1173 28.9001C21.0779 28.9001 21.0503 29.1348 21.0503 29.47C21.0503 29.7948 21.0244 30.0252 20.9869 30.0392L20.9796 30.0406C20.9418 30.0555 20.9162 30.297 20.9162 30.6433C20.9162 31.0008 20.8889 31.2467 20.8492 31.2467C20.8101 31.2467 20.7821 31.4702 20.7821 31.7831C20.7821 32.0863 20.7559 32.3055 20.7187 32.3188L20.7115 32.3201C20.6767 32.3326 20.6515 32.5253 20.6484 32.7983L20.6477 32.9135C20.6445 33.1958 20.6177 33.3921 20.5811 33.3922C20.5442 33.3922 20.514 33.5431 20.514 33.7275C20.514 33.9062 20.4857 34.0534 20.4504 34.0623L20.4401 34.0635C20.4064 34.0713 20.3799 34.1367 20.3799 34.2155C20.3799 34.2996 20.3196 34.4118 20.2459 34.465C20.1721 34.5182 20.1118 34.6022 20.1118 34.6518C20.1117 34.7679 19.4836 35.3812 19.3075 35.4371C19.2337 35.4606 19.1733 35.5078 19.1732 35.5422C19.1732 35.5766 19.1154 35.6048 19.0447 35.6048C18.974 35.6048 18.9036 35.6425 18.8883 35.6886C18.866 35.7545 17.4598 35.7806 12.2961 35.8109C5.94681 35.848 5.22907 35.8323 5.22905 35.6556C5.22905 35.6276 5.18327 35.6048 5.12722 35.6048C4.99465 35.6048 4.15642 34.7664 4.15642 34.6339C4.15641 34.5778 4.12629 34.5321 4.08943 34.5321C4.05486 34.5321 4.02615 34.4525 4.02271 34.3514L4.02205 34.3104C4.0186 34.2093 3.98989 34.1297 3.95533 34.1297C3.91846 34.1297 3.88828 33.9789 3.88827 33.7946C3.88827 33.6102 3.85809 33.4593 3.82122 33.4593C3.78459 33.4592 3.75777 33.2628 3.75456 32.9805L3.75391 32.8654C3.7508 32.5924 3.72557 32.3997 3.69079 32.3872L3.68358 32.3859C3.6464 32.3726 3.62013 32.1534 3.62013 31.8502C3.62013 31.547 3.59387 31.3277 3.55668 31.3144L3.54948 31.3131C3.5147 31.3006 3.48947 31.108 3.48636 30.835L3.4857 30.7199C3.4826 30.4469 3.45742 30.2542 3.42265 30.2417L3.41544 30.2404C3.38065 30.2279 3.35543 30.0353 3.35232 29.7622L3.35167 29.6471C3.34856 29.3741 3.32333 29.1814 3.28854 29.169L3.28134 29.1677C3.24415 29.1543 3.21789 28.9351 3.21789 28.6319C3.21789 28.3287 3.19163 28.1095 3.15444 28.0962L3.14724 28.0949C3.11246 28.0824 3.08728 27.8897 3.08418 27.6167L3.08352 27.5016C3.08031 27.2193 3.05343 27.0229 3.0168 27.0228C2.97738 27.0228 2.94975 26.7881 2.94975 26.4529C2.94975 26.1281 2.92382 25.8977 2.88636 25.8836L2.87903 25.8823C2.84157 25.8683 2.81565 25.6379 2.81564 25.3131C2.81564 24.9779 2.78801 24.7432 2.74859 24.7432C2.71228 24.7431 2.68518 24.5565 2.68193 24.2938L2.68128 24.1869C2.67803 23.9242 2.65088 23.7375 2.61456 23.7375C2.57547 23.7375 2.5475 23.514 2.5475 23.2011C2.5475 22.8979 2.52124 22.6787 2.48405 22.6654L2.47685 22.664C2.44207 22.6516 2.41684 22.4589 2.41373 22.1859L2.41307 22.0708C2.40997 21.7978 2.38479 21.6051 2.35002 21.5926L2.34281 21.5913C2.30802 21.5788 2.2828 21.3862 2.27969 21.1132L2.27904 20.998C2.27582 20.7156 2.24895 20.5193 2.21231 20.5192C2.17535 20.5192 2.14877 20.313 2.14559 20.0109L2.14493 19.8877C2.14175 19.5857 2.11516 19.3794 2.07821 19.3794C2.04158 19.3793 2.01476 19.1829 2.01155 18.9006L2.01089 18.7855C2.00778 18.5125 1.98255 18.3198 1.94777 18.3073L1.94057 18.306C1.90338 18.2927 1.87712 18.0735 1.87712 17.7703C1.87712 17.4574 1.84915 17.2339 1.81007 17.2339C1.77374 17.2339 1.74659 17.0473 1.74334 16.7846L1.74269 16.6776C1.73944 16.415 1.71234 16.2283 1.67603 16.2282C1.63907 16.2282 1.61248 16.022 1.6093 15.7199L1.60865 15.5967C1.60547 15.2947 1.57888 15.0884 1.54193 15.0884C1.5056 15.0884 1.47845 14.9018 1.4752 14.6391L1.47455 14.5321C1.4713 14.2694 1.44415 14.0827 1.40782 14.0827C1.36841 14.0826 1.34077 13.848 1.34077 13.5128C1.34077 13.1881 1.3149 12.9578 1.27745 12.9436L1.27012 12.9423C1.23295 12.9289 1.20673 12.7096 1.20673 12.4065C1.20673 12.1033 1.18047 11.8841 1.14328 11.8708L1.13608 11.8695C1.10129 11.8571 1.07607 11.6644 1.07296 11.3913L1.0723 11.2762C1.06919 11.0032 1.04397 10.8105 1.00918 10.7981L1.00198 10.7968C0.967202 10.7842 0.942022 10.5915 0.938919 10.3186L0.938264 10.2034C0.935048 9.92109 0.908176 9.7247 0.87154 9.72466C0.835212 9.72466 0.808066 9.53799 0.804816 9.27527L0.804161 9.16827C0.80091 8.90557 0.773764 8.71895 0.737437 8.71895C0.700802 8.7189 0.673929 8.52251 0.670713 8.24016L0.670058 8.12504C0.666849 7.84271 0.640028 7.64629 0.603399 7.64619C0.563444 7.64619 0.536348 7.38921 0.536348 7.00926V6.37227H23.8659V6.57343ZM6.97206 12.8088V24.8773H17.2961V12.8088H6.97206Z" fill="black" fill-opacity="0.2"/>
<path d="M35.1285 21.9272C42.3238 21.9272 45.9887 21.9498 45.9888 21.9943C45.9888 22.0311 46.0351 22.0613 46.0916 22.0613C46.2419 22.0613 46.6592 22.5034 46.6592 22.6625C46.6592 22.7375 46.6894 22.7988 46.7263 22.7988C46.7696 22.7989 46.7933 23.5699 46.7933 24.9779C46.7933 26.3858 46.7696 27.1568 46.7263 27.1569C46.6894 27.1569 46.6592 27.2153 46.6592 27.2869C46.6592 27.3887 46.5976 27.4256 46.3743 27.4574C46.2176 27.4797 41.0794 27.4891 34.9561 27.4782C24.6387 27.46 23.8146 27.4503 23.7103 27.346C23.6093 27.245 23.5978 26.9961 23.5978 24.9156C23.5978 23.415 23.6215 22.5977 23.6648 22.5977C23.7017 22.5976 23.7319 22.5524 23.7319 22.4971C23.7319 22.4418 23.762 22.3966 23.7989 22.3966C23.8357 22.3966 23.8659 22.355 23.8659 22.3041C23.8659 22.2533 23.9565 22.1742 24.0671 22.1284C24.1777 22.0826 24.2682 22.0185 24.2682 21.9861C24.2691 21.9525 28.9332 21.9272 35.1285 21.9272Z" fill="#132A4C"/>
<path d="M35.1285 21.9272C42.3238 21.9272 45.9887 21.9498 45.9888 21.9943C45.9888 22.0311 46.0351 22.0613 46.0916 22.0613C46.2419 22.0613 46.6592 22.5034 46.6592 22.6625C46.6592 22.7375 46.6894 22.7988 46.7263 22.7988C46.7696 22.7989 46.7933 23.5699 46.7933 24.9779C46.7933 26.3858 46.7696 27.1568 46.7263 27.1569C46.6894 27.1569 46.6592 27.2153 46.6592 27.2869C46.6592 27.3887 46.5976 27.4256 46.3743 27.4574C46.2176 27.4797 41.0794 27.4891 34.9561 27.4782C24.6387 27.46 23.8146 27.4503 23.7103 27.346C23.6093 27.245 23.5978 26.9961 23.5978 24.9156C23.5978 23.415 23.6215 22.5977 23.6648 22.5977C23.7017 22.5976 23.7319 22.5524 23.7319 22.4971C23.7319 22.4418 23.762 22.3966 23.7989 22.3966C23.8357 22.3966 23.8659 22.355 23.8659 22.3041C23.8659 22.2533 23.9565 22.1742 24.0671 22.1284C24.1777 22.0826 24.2682 22.0185 24.2682 21.9861C24.2691 21.9525 28.9332 21.9272 35.1285 21.9272Z" fill="black" fill-opacity="0.2"/>
<path d="M23.68 1.82088C24.0139 1.99124 24.1341 2.10321 24.1341 2.24414C24.1341 2.30207 24.1643 2.34949 24.2011 2.3495C24.2405 2.3495 24.2682 2.58414 24.2682 2.91938C24.2682 3.25461 24.2405 3.48925 24.2011 3.48925C24.162 3.4893 24.1341 3.71279 24.1341 4.02566C24.1341 4.3385 24.1062 4.56191 24.0671 4.56201C24.0302 4.56201 24 4.63745 24 4.72964V4.89727H0.268207V4.52848C0.268204 4.32571 0.238017 4.15982 0.201155 4.15976C0.162406 4.15976 0.134103 3.94739 0.134103 3.65688C0.134102 3.36637 0.105799 3.15406 0.0670516 3.15406C0.0301835 3.15404 0 3.06352 0 2.9529C6.42213e-07 2.84228 0.0301839 2.75176 0.0670516 2.75175C0.103923 2.75175 0.134103 2.66122 0.134103 2.55059C0.134109 2.43998 0.164287 2.3495 0.201155 2.3495C0.238018 2.34949 0.268207 2.31085 0.268207 2.26372C0.268211 2.21652 0.332196 2.13357 0.410495 2.07933C0.488729 2.02509 0.586782 1.95035 0.628413 1.91327C0.870081 1.6976 1.09056 1.6933 12.2541 1.68612L23.402 1.67899L23.68 1.82088Z" fill="#132A4C"/>
<path d="M23.68 1.82088C24.0139 1.99124 24.1341 2.10321 24.1341 2.24414C24.1341 2.30207 24.1643 2.34949 24.2011 2.3495C24.2405 2.3495 24.2682 2.58414 24.2682 2.91938C24.2682 3.25461 24.2405 3.48925 24.2011 3.48925C24.162 3.4893 24.1341 3.71279 24.1341 4.02566C24.1341 4.3385 24.1062 4.56191 24.0671 4.56201C24.0302 4.56201 24 4.63745 24 4.72964V4.89727H0.268207V4.52848C0.268204 4.32571 0.238017 4.15982 0.201155 4.15976C0.162406 4.15976 0.134103 3.94739 0.134103 3.65688C0.134102 3.36637 0.105799 3.15406 0.0670516 3.15406C0.0301835 3.15404 0 3.06352 0 2.9529C6.42213e-07 2.84228 0.0301839 2.75176 0.0670516 2.75175C0.103923 2.75175 0.134103 2.66122 0.134103 2.55059C0.134109 2.43998 0.164287 2.3495 0.201155 2.3495C0.238018 2.34949 0.268207 2.31085 0.268207 2.26372C0.268211 2.21652 0.332196 2.13357 0.410495 2.07933C0.488729 2.02509 0.586782 1.95035 0.628413 1.91327C0.870081 1.6976 1.09056 1.6933 12.2541 1.68612L23.402 1.67899L23.68 1.82088Z" fill="black" fill-opacity="0.2"/>
</svg>
