<svg width="48" height="48" viewBox="0 0 48 48" fill="none" xmlns="http://www.w3.org/2000/svg">
<path d="M30.4502 23.6066C30.444 23.9435 30.4627 24.3739 30.5063 24.5611C30.5438 24.7482 30.6811 25.1163 30.8058 25.3721C30.9805 25.7277 31.1551 25.9648 31.5669 26.3702C31.8975 26.7009 32.2406 26.9753 32.4715 27.0939C32.6773 27.2062 33.0017 27.3434 33.1889 27.4058C33.4197 27.4807 33.7129 27.5182 34.0935 27.5182C34.4241 27.5119 34.8234 27.4682 35.0604 27.4058C35.285 27.3434 35.6781 27.1875 36.4017 26.8194L36.6825 27.0003C36.8384 27.1001 37.1878 27.2561 37.4623 27.3497C37.8678 27.4807 38.0799 27.5119 38.5852 27.5057C39.0468 27.5057 39.3214 27.4745 39.6458 27.3684C39.8828 27.2935 40.2634 27.1314 40.4879 27.0066C40.7125 26.8818 41.0869 26.5886 41.7668 25.9273L43.1393 25.9959C43.8942 26.0334 44.9859 26.1207 45.5723 26.1831C46.1525 26.2517 46.7701 26.3515 46.9448 26.4014C47.1132 26.4513 47.3503 26.5512 47.4564 26.6198C47.5687 26.6884 47.7371 26.8506 47.8307 26.9754C47.9804 27.1688 48.0054 27.2624 47.9991 27.5805C47.9991 27.8488 47.943 28.0858 47.8245 28.3666C47.7309 28.5912 47.525 28.9655 47.3628 29.2088C47.2068 29.4521 46.7951 29.9324 46.4457 30.2755C46.1026 30.6249 45.5848 31.0803 45.2916 31.2987C44.9984 31.5108 44.4369 31.8788 44.0439 32.1159C43.6509 32.3467 43.0145 32.6836 42.6402 32.8583C42.2659 33.0392 41.7419 33.2701 41.4861 33.3699C41.2303 33.4759 40.7375 33.6568 40.3944 33.7754C40.0512 33.8939 39.2901 34.1122 38.71 34.262C38.1236 34.4117 37.2127 34.6051 36.6825 34.6924C36.1522 34.786 35.3225 34.8983 34.8421 34.9544C34.3617 35.0043 33.1951 35.0667 32.2531 35.0855C31.3111 35.1042 30.3129 35.0979 29.5394 35.0293L30.3816 34.6924C30.8432 34.5053 31.9225 34.0062 32.7834 33.5757C33.6381 33.1515 34.7797 32.5402 35.31 32.2282C35.8403 31.9101 36.2458 31.6418 36.2146 31.6293C36.1832 31.6169 35.8152 31.6792 35.4036 31.7728C34.9918 31.8601 34.2619 32.0598 33.7815 32.2157C33.3012 32.3717 32.4153 32.6774 31.8164 32.902C31.2175 33.1266 30.0072 33.6007 29.1339 33.95C28.2605 34.3056 27.0502 34.8047 26.4513 35.0605C25.8524 35.3163 24.9915 35.6532 24.5485 35.8154C24.0994 35.9776 23.3133 36.2333 22.8018 36.3831C22.284 36.5328 21.3731 36.7512 20.7742 36.8759C20.1754 36.9945 19.2458 37.1441 18.7155 37.2003C17.9545 37.2814 17.393 37.2939 16.0642 37.2689C14.7167 37.244 14.1739 37.2066 13.3504 37.0818C12.7827 36.9944 11.9967 36.8509 11.6036 36.7636C11.2106 36.67 10.5119 36.4891 10.0565 36.3519C9.60732 36.2146 8.97099 36.0025 8.65283 35.8778C8.3409 35.753 7.7108 35.4784 7.26787 35.2663C6.8187 35.0542 6.16364 34.6987 5.80182 34.4803C5.43998 34.262 4.82861 33.8502 4.44183 33.5632C4.06128 33.2825 3.38753 32.7023 2.95708 32.2843C2.52039 31.8601 1.99634 31.3049 1.79047 31.0491C1.58459 30.7933 1.23525 30.313 1.02314 29.9886C0.811031 29.6642 0.536524 29.1838 0.417993 28.928C0.299462 28.6723 0.155999 28.2917 0.0998528 28.0858C0.0499447 27.88 0 27.5431 0 27.3372C3.1115e-07 27.069 0.0374314 26.9067 0.12477 26.7633C0.193392 26.651 0.343131 26.5013 0.449185 26.4326C0.561472 26.364 0.754858 26.2829 0.873392 26.2455C0.991921 26.2143 1.41615 26.1457 1.80917 26.0895C2.20219 26.0396 3.3688 25.8836 4.39815 25.7464C5.42749 25.6091 6.71886 25.4532 7.26787 25.4033C7.81685 25.3534 8.93979 25.2785 9.76327 25.2473C10.5868 25.2099 11.6348 25.1662 12.9137 25.1225V23.251L13.1134 23.2198C13.2257 23.2073 13.9244 23.1636 14.6605 23.1262C15.3966 23.0888 16.3511 23.0514 16.7816 23.0451C17.2121 23.0327 20.4686 23.0202 30.4751 23.0014L30.4502 23.6066Z" fill="#132A4C"/>
<path d="M30.4502 23.6066C30.444 23.9435 30.4627 24.3739 30.5063 24.5611C30.5438 24.7482 30.6811 25.1163 30.8058 25.3721C30.9805 25.7277 31.1551 25.9648 31.5669 26.3702C31.8975 26.7009 32.2406 26.9753 32.4715 27.0939C32.6773 27.2062 33.0017 27.3434 33.1889 27.4058C33.4197 27.4807 33.7129 27.5182 34.0935 27.5182C34.4241 27.5119 34.8234 27.4682 35.0604 27.4058C35.285 27.3434 35.6781 27.1875 36.4017 26.8194L36.6825 27.0003C36.8384 27.1001 37.1878 27.2561 37.4623 27.3497C37.8678 27.4807 38.0799 27.5119 38.5852 27.5057C39.0468 27.5057 39.3214 27.4745 39.6458 27.3684C39.8828 27.2935 40.2634 27.1314 40.4879 27.0066C40.7125 26.8818 41.0869 26.5886 41.7668 25.9273L43.1393 25.9959C43.8942 26.0334 44.9859 26.1207 45.5723 26.1831C46.1525 26.2517 46.7701 26.3515 46.9448 26.4014C47.1132 26.4513 47.3503 26.5512 47.4564 26.6198C47.5687 26.6884 47.7371 26.8506 47.8307 26.9754C47.9804 27.1688 48.0054 27.2624 47.9991 27.5805C47.9991 27.8488 47.943 28.0858 47.8245 28.3666C47.7309 28.5912 47.525 28.9655 47.3628 29.2088C47.2068 29.4521 46.7951 29.9324 46.4457 30.2755C46.1026 30.6249 45.5848 31.0803 45.2916 31.2987C44.9984 31.5108 44.4369 31.8788 44.0439 32.1159C43.6509 32.3467 43.0145 32.6836 42.6402 32.8583C42.2659 33.0392 41.7419 33.2701 41.4861 33.3699C41.2303 33.4759 40.7375 33.6568 40.3944 33.7754C40.0512 33.8939 39.2901 34.1122 38.71 34.262C38.1236 34.4117 37.2127 34.6051 36.6825 34.6924C36.1522 34.786 35.3225 34.8983 34.8421 34.9544C34.3617 35.0043 33.1951 35.0667 32.2531 35.0855C31.3111 35.1042 30.3129 35.0979 29.5394 35.0293L30.3816 34.6924C30.8432 34.5053 31.9225 34.0062 32.7834 33.5757C33.6381 33.1515 34.7797 32.5402 35.31 32.2282C35.8403 31.9101 36.2458 31.6418 36.2146 31.6293C36.1832 31.6169 35.8152 31.6792 35.4036 31.7728C34.9918 31.8601 34.2619 32.0598 33.7815 32.2157C33.3012 32.3717 32.4153 32.6774 31.8164 32.902C31.2175 33.1266 30.0072 33.6007 29.1339 33.95C28.2605 34.3056 27.0502 34.8047 26.4513 35.0605C25.8524 35.3163 24.9915 35.6532 24.5485 35.8154C24.0994 35.9776 23.3133 36.2333 22.8018 36.3831C22.284 36.5328 21.3731 36.7512 20.7742 36.8759C20.1754 36.9945 19.2458 37.1441 18.7155 37.2003C17.9545 37.2814 17.393 37.2939 16.0642 37.2689C14.7167 37.244 14.1739 37.2066 13.3504 37.0818C12.7827 36.9944 11.9967 36.8509 11.6036 36.7636C11.2106 36.67 10.5119 36.4891 10.0565 36.3519C9.60732 36.2146 8.97099 36.0025 8.65283 35.8778C8.3409 35.753 7.7108 35.4784 7.26787 35.2663C6.8187 35.0542 6.16364 34.6987 5.80182 34.4803C5.43998 34.262 4.82861 33.8502 4.44183 33.5632C4.06128 33.2825 3.38753 32.7023 2.95708 32.2843C2.52039 31.8601 1.99634 31.3049 1.79047 31.0491C1.58459 30.7933 1.23525 30.313 1.02314 29.9886C0.811031 29.6642 0.536524 29.1838 0.417993 28.928C0.299462 28.6723 0.155999 28.2917 0.0998528 28.0858C0.0499447 27.88 0 27.5431 0 27.3372C3.1115e-07 27.069 0.0374314 26.9067 0.12477 26.7633C0.193392 26.651 0.343131 26.5013 0.449185 26.4326C0.561472 26.364 0.754858 26.2829 0.873392 26.2455C0.991921 26.2143 1.41615 26.1457 1.80917 26.0895C2.20219 26.0396 3.3688 25.8836 4.39815 25.7464C5.42749 25.6091 6.71886 25.4532 7.26787 25.4033C7.81685 25.3534 8.93979 25.2785 9.76327 25.2473C10.5868 25.2099 11.6348 25.1662 12.9137 25.1225V23.251L13.1134 23.2198C13.2257 23.2073 13.9244 23.1636 14.6605 23.1262C15.3966 23.0888 16.3511 23.0514 16.7816 23.0451C17.2121 23.0327 20.4686 23.0202 30.4751 23.0014L30.4502 23.6066Z" fill="black" fill-opacity="0.2"/>
<path fill-rule="evenodd" clip-rule="evenodd" d="M36.2395 14.4609C36.4641 14.4609 36.7636 14.4859 36.9071 14.5171C37.0568 14.5545 37.3064 14.6418 37.4685 14.7229C37.6307 14.7978 37.9177 15.0037 38.0986 15.1721C38.317 15.3717 38.5041 15.6275 38.6289 15.8895C38.7661 16.1827 38.8348 16.4198 38.8597 16.738C38.8909 17.1559 38.8972 17.1809 39.0157 17.1372C39.0843 17.1123 39.2964 17.0748 39.4836 17.0499C39.6707 17.0249 39.9951 17.0374 40.201 17.0749C40.4069 17.1185 40.7438 17.2246 40.9496 17.3244C41.1742 17.4305 41.4487 17.6363 41.6421 17.836C41.8167 18.0169 42.0289 18.3101 42.1225 18.4785C42.2098 18.6532 42.3096 18.9714 42.3533 19.196C42.4032 19.4892 42.4032 19.7138 42.3595 20.007C42.3221 20.2315 42.216 20.5684 42.1225 20.7556C42.0289 20.9427 41.8355 21.2172 41.6858 21.3669C41.536 21.5104 41.2304 21.7163 40.9933 21.8286C40.7625 21.9347 40.5691 22.0345 40.5566 22.047C40.5504 22.0532 40.6127 22.1592 40.7001 22.2715C40.7812 22.3776 40.9122 22.6209 40.9808 22.8018C41.0494 22.9765 41.1243 23.2884 41.143 23.488C41.1679 23.6877 41.1493 24.0058 41.1056 24.218C41.0619 24.4238 40.9434 24.7545 40.8311 24.9604C40.725 25.16 40.5067 25.4469 40.3383 25.5966C40.1761 25.7464 39.8829 25.946 39.6832 26.0396C39.4337 26.1581 39.1904 26.2143 38.8597 26.233C38.5291 26.2517 38.2795 26.2268 38.0175 26.1519C37.8117 26.0958 37.5122 25.9772 37.3438 25.8961C37.1816 25.815 36.8884 25.5967 36.3331 25.0789L36.0212 25.4033C35.8465 25.5842 35.5596 25.8025 35.3786 25.8899C35.204 25.9834 34.8796 26.102 34.6612 26.1581C34.4117 26.2267 34.1309 26.2517 33.8689 26.233C33.6069 26.2143 33.3261 26.1394 33.0641 26.0209C32.7959 25.8961 32.5588 25.7277 32.3467 25.4969C32.1408 25.2785 31.9724 25.0165 31.8788 24.7794C31.8039 24.5736 31.7229 24.2242 31.7041 23.9996C31.6792 23.7251 31.7042 23.4631 31.7728 23.1886C31.8289 22.964 31.9475 22.6708 32.0285 22.5336C32.1096 22.3963 32.2344 22.2216 32.4341 22.0033L32.1221 21.9409C31.9475 21.9035 31.6979 21.8224 31.5607 21.7537C31.4234 21.6851 31.1801 21.5104 31.0242 21.3669C30.8682 21.2172 30.6748 20.9864 30.5937 20.8492C30.5126 20.7119 30.4003 20.4312 30.3442 20.2253C30.2631 19.9571 30.2443 19.72 30.2631 19.3831C30.288 19.0338 30.3441 18.8092 30.4876 18.4972C30.5999 18.2602 30.8121 17.942 30.9618 17.7798C31.1115 17.6114 31.3984 17.393 31.5981 17.2807C31.8039 17.1684 32.1596 17.0499 32.4029 17.0063C32.7335 16.9439 32.9394 16.9439 33.2451 16.9938C33.4696 17.0312 33.6942 17.0811 33.7441 17.0998C33.819 17.131 33.8377 17.0686 33.8439 16.7504C33.8439 16.5321 33.8751 16.2451 33.9188 16.1079C33.9562 15.9706 34.081 15.7211 34.1933 15.5464C34.3056 15.378 34.5489 15.116 34.7236 14.9725C34.9295 14.804 35.2039 14.6605 35.4472 14.5857H35.441C35.6594 14.517 36.015 14.4609 36.2395 14.4609ZM36.2832 18.5783C36.0025 18.5783 35.7217 18.622 35.5221 18.6969C35.3474 18.7593 35.0729 18.9339 34.9045 19.0837C34.7173 19.2521 34.5302 19.5016 34.4054 19.7574C34.237 20.113 34.212 20.2253 34.212 20.6932C34.212 21.1424 34.237 21.2796 34.3805 21.5666C34.4741 21.7725 34.6799 22.0282 34.8796 22.2091C35.0667 22.3838 35.3537 22.5648 35.5533 22.6396C35.8216 22.7394 36.0025 22.7581 36.3955 22.7394C36.7698 22.7207 36.9819 22.677 37.2377 22.5523C37.4249 22.4587 37.7056 22.2528 37.8553 22.0844C38.0113 21.9222 38.1922 21.6602 38.2608 21.5042C38.3544 21.2921 38.3856 21.0862 38.3918 20.662C38.3918 20.1816 38.3669 20.0506 38.2234 19.7574C38.1298 19.5516 37.9239 19.2958 37.7243 19.1149C37.5434 18.9464 37.2502 18.7593 37.063 18.6907C36.8509 18.6158 36.5889 18.5721 36.2832 18.5783Z" fill="#132A4C"/>
<path fill-rule="evenodd" clip-rule="evenodd" d="M36.2395 14.4609C36.4641 14.4609 36.7636 14.4859 36.9071 14.5171C37.0568 14.5545 37.3064 14.6418 37.4685 14.7229C37.6307 14.7978 37.9177 15.0037 38.0986 15.1721C38.317 15.3717 38.5041 15.6275 38.6289 15.8895C38.7661 16.1827 38.8348 16.4198 38.8597 16.738C38.8909 17.1559 38.8972 17.1809 39.0157 17.1372C39.0843 17.1123 39.2964 17.0748 39.4836 17.0499C39.6707 17.0249 39.9951 17.0374 40.201 17.0749C40.4069 17.1185 40.7438 17.2246 40.9496 17.3244C41.1742 17.4305 41.4487 17.6363 41.6421 17.836C41.8167 18.0169 42.0289 18.3101 42.1225 18.4785C42.2098 18.6532 42.3096 18.9714 42.3533 19.196C42.4032 19.4892 42.4032 19.7138 42.3595 20.007C42.3221 20.2315 42.216 20.5684 42.1225 20.7556C42.0289 20.9427 41.8355 21.2172 41.6858 21.3669C41.536 21.5104 41.2304 21.7163 40.9933 21.8286C40.7625 21.9347 40.5691 22.0345 40.5566 22.047C40.5504 22.0532 40.6127 22.1592 40.7001 22.2715C40.7812 22.3776 40.9122 22.6209 40.9808 22.8018C41.0494 22.9765 41.1243 23.2884 41.143 23.488C41.1679 23.6877 41.1493 24.0058 41.1056 24.218C41.0619 24.4238 40.9434 24.7545 40.8311 24.9604C40.725 25.16 40.5067 25.4469 40.3383 25.5966C40.1761 25.7464 39.8829 25.946 39.6832 26.0396C39.4337 26.1581 39.1904 26.2143 38.8597 26.233C38.5291 26.2517 38.2795 26.2268 38.0175 26.1519C37.8117 26.0958 37.5122 25.9772 37.3438 25.8961C37.1816 25.815 36.8884 25.5967 36.3331 25.0789L36.0212 25.4033C35.8465 25.5842 35.5596 25.8025 35.3786 25.8899C35.204 25.9834 34.8796 26.102 34.6612 26.1581C34.4117 26.2267 34.1309 26.2517 33.8689 26.233C33.6069 26.2143 33.3261 26.1394 33.0641 26.0209C32.7959 25.8961 32.5588 25.7277 32.3467 25.4969C32.1408 25.2785 31.9724 25.0165 31.8788 24.7794C31.8039 24.5736 31.7229 24.2242 31.7041 23.9996C31.6792 23.7251 31.7042 23.4631 31.7728 23.1886C31.8289 22.964 31.9475 22.6708 32.0285 22.5336C32.1096 22.3963 32.2344 22.2216 32.4341 22.0033L32.1221 21.9409C31.9475 21.9035 31.6979 21.8224 31.5607 21.7537C31.4234 21.6851 31.1801 21.5104 31.0242 21.3669C30.8682 21.2172 30.6748 20.9864 30.5937 20.8492C30.5126 20.7119 30.4003 20.4312 30.3442 20.2253C30.2631 19.9571 30.2443 19.72 30.2631 19.3831C30.288 19.0338 30.3441 18.8092 30.4876 18.4972C30.5999 18.2602 30.8121 17.942 30.9618 17.7798C31.1115 17.6114 31.3984 17.393 31.5981 17.2807C31.8039 17.1684 32.1596 17.0499 32.4029 17.0063C32.7335 16.9439 32.9394 16.9439 33.2451 16.9938C33.4696 17.0312 33.6942 17.0811 33.7441 17.0998C33.819 17.131 33.8377 17.0686 33.8439 16.7504C33.8439 16.5321 33.8751 16.2451 33.9188 16.1079C33.9562 15.9706 34.081 15.7211 34.1933 15.5464C34.3056 15.378 34.5489 15.116 34.7236 14.9725C34.9295 14.804 35.2039 14.6605 35.4472 14.5857H35.441C35.6594 14.517 36.015 14.4609 36.2395 14.4609ZM36.2832 18.5783C36.0025 18.5783 35.7217 18.622 35.5221 18.6969C35.3474 18.7593 35.0729 18.9339 34.9045 19.0837C34.7173 19.2521 34.5302 19.5016 34.4054 19.7574C34.237 20.113 34.212 20.2253 34.212 20.6932C34.212 21.1424 34.237 21.2796 34.3805 21.5666C34.4741 21.7725 34.6799 22.0282 34.8796 22.2091C35.0667 22.3838 35.3537 22.5648 35.5533 22.6396C35.8216 22.7394 36.0025 22.7581 36.3955 22.7394C36.7698 22.7207 36.9819 22.677 37.2377 22.5523C37.4249 22.4587 37.7056 22.2528 37.8553 22.0844C38.0113 21.9222 38.1922 21.6602 38.2608 21.5042C38.3544 21.2921 38.3856 21.0862 38.3918 20.662C38.3918 20.1816 38.3669 20.0506 38.2234 19.7574C38.1298 19.5516 37.9239 19.2958 37.7243 19.1149C37.5434 18.9464 37.2502 18.7593 37.063 18.6907C36.8509 18.6158 36.5889 18.5721 36.2832 18.5783Z" fill="black" fill-opacity="0.2"/>
<path d="M23.7001 11.7222C24.5299 11.7097 24.9666 11.7409 25.5405 11.8345C25.9522 11.9031 26.5387 12.0279 26.8506 12.109C27.1625 12.1901 27.6803 12.3648 28.0047 12.4896C28.3291 12.6206 28.7845 12.8202 29.0154 12.9325C29.2524 13.051 29.6267 13.2631 29.8576 13.4004C30.0946 13.5438 30.5064 13.8371 30.7808 14.0492C31.0553 14.2613 31.5482 14.7167 32.4652 15.665L31.9974 15.7648C31.7416 15.8209 31.386 15.927 31.2175 16.0081C31.0429 16.083 30.7372 16.2701 30.5313 16.4136C30.3254 16.5571 30.0197 16.844 29.8513 17.0499C29.6891 17.2495 29.4583 17.5989 29.346 17.8235C29.2337 18.0481 29.0964 18.3974 29.0403 18.6033C28.9841 18.8092 28.9405 19.2271 28.9405 19.5391C28.9405 19.851 28.9841 20.269 29.0403 20.4748C29.0964 20.6807 29.2088 20.9926 29.2961 21.1611C29.3834 21.3358 29.5019 21.5416 29.6766 21.7849L22.2715 21.7912C18.204 21.7912 14.4547 21.8223 13.9494 21.8535C13.4378 21.8847 13.0136 21.8972 13.0011 21.8785C12.9886 21.8598 13.0073 21.6102 13.0385 21.317C13.0697 21.0238 13.157 20.506 13.2256 20.1629C13.2943 19.8198 13.4253 19.327 13.5127 19.0712C13.6 18.8154 13.7996 18.3226 13.9618 17.9794C14.124 17.6363 14.4048 17.1185 14.5857 16.8253C14.7728 16.5321 15.0473 16.1266 15.2033 15.9207C15.3655 15.7149 15.7585 15.2719 16.0891 14.9288C16.4136 14.5919 16.9064 14.1365 17.1809 13.9244C17.4554 13.7123 17.8359 13.4378 18.0231 13.313C18.2102 13.1945 18.6469 12.9575 18.9901 12.7828C19.3332 12.6143 19.8946 12.371 20.2378 12.2525C20.5809 12.134 21.1548 11.978 21.5167 11.9031C21.8785 11.8345 22.2715 11.7659 22.39 11.7534C22.5086 11.7409 23.1012 11.7222 23.7001 11.7222Z" fill="#132A4C"/>
<path d="M23.7001 11.7222C24.5299 11.7097 24.9666 11.7409 25.5405 11.8345C25.9522 11.9031 26.5387 12.0279 26.8506 12.109C27.1625 12.1901 27.6803 12.3648 28.0047 12.4896C28.3291 12.6206 28.7845 12.8202 29.0154 12.9325C29.2524 13.051 29.6267 13.2631 29.8576 13.4004C30.0946 13.5438 30.5064 13.8371 30.7808 14.0492C31.0553 14.2613 31.5482 14.7167 32.4652 15.665L31.9974 15.7648C31.7416 15.8209 31.386 15.927 31.2175 16.0081C31.0429 16.083 30.7372 16.2701 30.5313 16.4136C30.3254 16.5571 30.0197 16.844 29.8513 17.0499C29.6891 17.2495 29.4583 17.5989 29.346 17.8235C29.2337 18.0481 29.0964 18.3974 29.0403 18.6033C28.9841 18.8092 28.9405 19.2271 28.9405 19.5391C28.9405 19.851 28.9841 20.269 29.0403 20.4748C29.0964 20.6807 29.2088 20.9926 29.2961 21.1611C29.3834 21.3358 29.5019 21.5416 29.6766 21.7849L22.2715 21.7912C18.204 21.7912 14.4547 21.8223 13.9494 21.8535C13.4378 21.8847 13.0136 21.8972 13.0011 21.8785C12.9886 21.8598 13.0073 21.6102 13.0385 21.317C13.0697 21.0238 13.157 20.506 13.2256 20.1629C13.2943 19.8198 13.4253 19.327 13.5127 19.0712C13.6 18.8154 13.7996 18.3226 13.9618 17.9794C14.124 17.6363 14.4048 17.1185 14.5857 16.8253C14.7728 16.5321 15.0473 16.1266 15.2033 15.9207C15.3655 15.7149 15.7585 15.2719 16.0891 14.9288C16.4136 14.5919 16.9064 14.1365 17.1809 13.9244C17.4554 13.7123 17.8359 13.4378 18.0231 13.313C18.2102 13.1945 18.6469 12.9575 18.9901 12.7828C19.3332 12.6143 19.8946 12.371 20.2378 12.2525C20.5809 12.134 21.1548 11.978 21.5167 11.9031C21.8785 11.8345 22.2715 11.7659 22.39 11.7534C22.5086 11.7409 23.1012 11.7222 23.7001 11.7222Z" fill="black" fill-opacity="0.2"/>
</svg>
