<svg width="48" height="48" viewBox="0 0 48 48" fill="none" xmlns="http://www.w3.org/2000/svg">
<path d="M28.7333 2.81648C28.9186 2.49771 29.1632 2.15671 29.2819 2.06775V2.06034C29.4153 1.95655 29.5932 1.89725 29.7785 1.89725C29.9342 1.89725 30.1492 1.94173 30.2678 2.00103C30.379 2.05292 30.6459 2.29756 30.8683 2.53478C31.1203 2.81648 31.3946 3.23902 31.6244 3.71346C31.8246 4.13601 32.0544 4.74389 32.1359 5.12196C32.2249 5.4852 32.3212 6.08566 32.3954 7.10126L33.1737 7.41261C33.6037 7.58312 34.219 7.86481 34.5452 8.04273C34.8713 8.22064 35.3903 8.53941 35.6942 8.73956C35.9981 8.94713 36.5319 9.34003 36.8803 9.61431C37.2287 9.8886 37.8811 10.4891 38.3333 10.9561C38.7855 11.4157 39.3711 12.0755 39.638 12.4239C39.9049 12.7723 40.3052 13.3357 40.5276 13.6841C40.75 14.0325 41.091 14.5959 41.2763 14.9444C41.4616 15.2928 41.773 15.9748 41.9657 16.464C42.151 16.9533 42.4179 17.8058 42.5588 18.3544C42.6922 18.903 42.8701 19.7184 42.9517 20.1706C43.0332 20.6154 43.137 21.3345 43.1815 21.7644C43.2259 22.1944 43.2556 22.743 43.2556 22.9876C43.2556 23.2322 43.2778 23.5881 43.3668 24.1366H43.6633C43.8264 24.1366 44.16 24.1885 44.4046 24.2478C44.6493 24.3145 45.0644 24.4702 45.3313 24.5888C45.613 24.7223 45.991 24.9891 46.2431 25.2412C46.4877 25.471 46.8213 25.8713 46.9992 26.1382C47.1771 26.405 47.4144 26.8202 47.5181 27.0648C47.6293 27.3094 47.7776 27.7765 47.8591 28.1027C47.9481 28.4881 48 28.97 48 29.4741C48 30.0152 47.9555 30.4304 47.8517 30.8455C47.7702 31.1717 47.5923 31.6684 47.4588 31.9575C47.3254 32.2466 47.0659 32.6914 46.888 32.9583C46.7027 33.2251 46.3691 33.6403 46.1393 33.8849C45.9095 34.1295 45.5611 34.4335 45.3609 34.5669C45.1608 34.7003 44.7975 34.8783 44.5529 34.9598C44.286 35.0562 43.819 35.1377 42.6551 35.2193L42.2993 36.0347C42.0991 36.4795 41.7656 37.1689 41.5506 37.5544C41.3356 37.9399 40.9798 38.5403 40.75 38.8888C40.5202 39.2372 40.0754 39.8376 39.764 40.2231C39.4527 40.6086 38.8522 41.261 38.4297 41.6687C38.0071 42.0764 37.377 42.6324 37.0286 42.9067C36.6802 43.1735 36.1168 43.5738 35.7683 43.8037C35.4199 44.0261 34.7898 44.3967 34.3598 44.6191C33.9299 44.8489 33.2998 45.1528 32.9514 45.3011C32.6029 45.4494 31.9876 45.6866 31.5799 45.8274C31.1722 45.9683 30.5569 46.1684 30.2085 46.2648C29.8601 46.3612 29.2522 46.5094 28.8593 46.591C28.459 46.68 27.8066 46.7986 27.4137 46.8579C27.0134 46.9172 26.1535 46.9987 25.5012 47.0506C24.8191 47.1025 23.848 47.1173 23.2031 47.0877C22.5952 47.0654 21.6537 46.9913 21.1274 46.932C20.6011 46.8653 19.8301 46.7467 19.4224 46.6651C19.0147 46.5836 18.3623 46.4353 17.9768 46.3315C17.5914 46.2203 16.8871 46.0054 16.4201 45.8423C15.953 45.6792 14.9671 45.2492 14.2332 44.8934C13.4993 44.5301 12.5578 44.0038 12.1427 43.7295C11.7276 43.4552 11.1123 43.0104 10.7787 42.7436C10.4377 42.4767 9.77791 41.8762 9.30347 41.4092C8.83645 40.9422 8.19151 40.2083 7.86533 39.7783C7.54656 39.3484 7.0573 38.6145 6.7756 38.1474C6.50131 37.6804 6.13066 36.9762 5.94533 36.5907C5.76741 36.2052 5.55985 35.7233 5.33745 35.1748L4.81853 35.1822C4.53683 35.1822 4.09946 35.1303 3.85483 35.071C3.61019 35.0043 3.23954 34.8783 3.03938 34.7819C2.83181 34.6855 2.49081 34.4705 2.28324 34.3074C2.06826 34.1369 1.67537 33.7218 1.40849 33.3808C1.14162 33.0472 0.778378 32.4912 0.600463 32.1428C0.422548 31.7944 0.214981 31.3125 0.140849 31.0679C0.0296525 30.7195 0 30.3785 0 29.4741C0 28.4807 0.0222394 28.2509 0.170502 27.7691C0.266873 27.4651 0.481853 26.961 0.644942 26.6571C0.808031 26.3532 1.11197 25.8861 1.32695 25.6193C1.54193 25.3524 1.91259 25.004 2.15722 24.8409C2.39444 24.6778 2.83181 24.4628 3.11351 24.3738C3.39521 24.2775 3.86965 24.1811 4.67027 24.0996L4.72216 22.8023C4.7444 22.0906 4.82595 21.1417 4.89266 20.6895C4.95938 20.2373 5.10023 19.4738 5.20402 18.9845C5.30039 18.4952 5.52278 17.6946 5.67846 17.2054C5.84154 16.7161 6.16772 15.9155 6.40494 15.4262C6.63475 14.9369 7.02765 14.2179 7.26486 13.8324C7.5095 13.4469 7.95429 12.7945 8.26564 12.3868C8.56958 11.9791 9.15521 11.2971 9.56293 10.8745C9.97066 10.452 10.5859 9.88119 10.9344 9.6069C11.2828 9.33261 11.8981 8.88783 12.3058 8.62095C12.7135 8.35408 13.4103 7.95377 13.8625 7.73138C14.3147 7.50898 15.019 7.18281 15.4415 7.01972C15.8567 6.84922 16.4868 6.63424 16.8426 6.53045C17.2059 6.42667 17.7767 6.27099 18.1251 6.19686C18.4735 6.12273 19.1555 6.00412 19.6448 5.94481C20.1341 5.8781 21.1497 5.79655 21.9058 5.75207C22.6619 5.70759 23.5812 5.62605 23.9444 5.55933C24.3151 5.50003 24.8636 5.38883 25.1676 5.3147C25.4715 5.23315 25.9756 5.07748 26.2795 4.95887C26.5835 4.84026 27.0357 4.61045 27.2729 4.45478C27.5175 4.29169 27.8659 3.98775 28.0513 3.78018C28.2366 3.58003 28.548 3.14265 28.7333 2.81648Z" fill="#132A4C"/>
<path d="M28.7333 2.81648C28.9186 2.49771 29.1632 2.15671 29.2819 2.06775V2.06034C29.4153 1.95655 29.5932 1.89725 29.7785 1.89725C29.9342 1.89725 30.1492 1.94173 30.2678 2.00103C30.379 2.05292 30.6459 2.29756 30.8683 2.53478C31.1203 2.81648 31.3946 3.23902 31.6244 3.71346C31.8246 4.13601 32.0544 4.74389 32.1359 5.12196C32.2249 5.4852 32.3212 6.08566 32.3954 7.10126L33.1737 7.41261C33.6037 7.58312 34.219 7.86481 34.5452 8.04273C34.8713 8.22064 35.3903 8.53941 35.6942 8.73956C35.9981 8.94713 36.5319 9.34003 36.8803 9.61431C37.2287 9.8886 37.8811 10.4891 38.3333 10.9561C38.7855 11.4157 39.3711 12.0755 39.638 12.4239C39.9049 12.7723 40.3052 13.3357 40.5276 13.6841C40.75 14.0325 41.091 14.5959 41.2763 14.9444C41.4616 15.2928 41.773 15.9748 41.9657 16.464C42.151 16.9533 42.4179 17.8058 42.5588 18.3544C42.6922 18.903 42.8701 19.7184 42.9517 20.1706C43.0332 20.6154 43.137 21.3345 43.1815 21.7644C43.2259 22.1944 43.2556 22.743 43.2556 22.9876C43.2556 23.2322 43.2778 23.5881 43.3668 24.1366H43.6633C43.8264 24.1366 44.16 24.1885 44.4046 24.2478C44.6493 24.3145 45.0644 24.4702 45.3313 24.5888C45.613 24.7223 45.991 24.9891 46.2431 25.2412C46.4877 25.471 46.8213 25.8713 46.9992 26.1382C47.1771 26.405 47.4144 26.8202 47.5181 27.0648C47.6293 27.3094 47.7776 27.7765 47.8591 28.1027C47.9481 28.4881 48 28.97 48 29.4741C48 30.0152 47.9555 30.4304 47.8517 30.8455C47.7702 31.1717 47.5923 31.6684 47.4588 31.9575C47.3254 32.2466 47.0659 32.6914 46.888 32.9583C46.7027 33.2251 46.3691 33.6403 46.1393 33.8849C45.9095 34.1295 45.5611 34.4335 45.3609 34.5669C45.1608 34.7003 44.7975 34.8783 44.5529 34.9598C44.286 35.0562 43.819 35.1377 42.6551 35.2193L42.2993 36.0347C42.0991 36.4795 41.7656 37.1689 41.5506 37.5544C41.3356 37.9399 40.9798 38.5403 40.75 38.8888C40.5202 39.2372 40.0754 39.8376 39.764 40.2231C39.4527 40.6086 38.8522 41.261 38.4297 41.6687C38.0071 42.0764 37.377 42.6324 37.0286 42.9067C36.6802 43.1735 36.1168 43.5738 35.7683 43.8037C35.4199 44.0261 34.7898 44.3967 34.3598 44.6191C33.9299 44.8489 33.2998 45.1528 32.9514 45.3011C32.6029 45.4494 31.9876 45.6866 31.5799 45.8274C31.1722 45.9683 30.5569 46.1684 30.2085 46.2648C29.8601 46.3612 29.2522 46.5094 28.8593 46.591C28.459 46.68 27.8066 46.7986 27.4137 46.8579C27.0134 46.9172 26.1535 46.9987 25.5012 47.0506C24.8191 47.1025 23.848 47.1173 23.2031 47.0877C22.5952 47.0654 21.6537 46.9913 21.1274 46.932C20.6011 46.8653 19.8301 46.7467 19.4224 46.6651C19.0147 46.5836 18.3623 46.4353 17.9768 46.3315C17.5914 46.2203 16.8871 46.0054 16.4201 45.8423C15.953 45.6792 14.9671 45.2492 14.2332 44.8934C13.4993 44.5301 12.5578 44.0038 12.1427 43.7295C11.7276 43.4552 11.1123 43.0104 10.7787 42.7436C10.4377 42.4767 9.77791 41.8762 9.30347 41.4092C8.83645 40.9422 8.19151 40.2083 7.86533 39.7783C7.54656 39.3484 7.0573 38.6145 6.7756 38.1474C6.50131 37.6804 6.13066 36.9762 5.94533 36.5907C5.76741 36.2052 5.55985 35.7233 5.33745 35.1748L4.81853 35.1822C4.53683 35.1822 4.09946 35.1303 3.85483 35.071C3.61019 35.0043 3.23954 34.8783 3.03938 34.7819C2.83181 34.6855 2.49081 34.4705 2.28324 34.3074C2.06826 34.1369 1.67537 33.7218 1.40849 33.3808C1.14162 33.0472 0.778378 32.4912 0.600463 32.1428C0.422548 31.7944 0.214981 31.3125 0.140849 31.0679C0.0296525 30.7195 0 30.3785 0 29.4741C0 28.4807 0.0222394 28.2509 0.170502 27.7691C0.266873 27.4651 0.481853 26.961 0.644942 26.6571C0.808031 26.3532 1.11197 25.8861 1.32695 25.6193C1.54193 25.3524 1.91259 25.004 2.15722 24.8409C2.39444 24.6778 2.83181 24.4628 3.11351 24.3738C3.39521 24.2775 3.86965 24.1811 4.67027 24.0996L4.72216 22.8023C4.7444 22.0906 4.82595 21.1417 4.89266 20.6895C4.95938 20.2373 5.10023 19.4738 5.20402 18.9845C5.30039 18.4952 5.52278 17.6946 5.67846 17.2054C5.84154 16.7161 6.16772 15.9155 6.40494 15.4262C6.63475 14.9369 7.02765 14.2179 7.26486 13.8324C7.5095 13.4469 7.95429 12.7945 8.26564 12.3868C8.56958 11.9791 9.15521 11.2971 9.56293 10.8745C9.97066 10.452 10.5859 9.88119 10.9344 9.6069C11.2828 9.33261 11.8981 8.88783 12.3058 8.62095C12.7135 8.35408 13.4103 7.95377 13.8625 7.73138C14.3147 7.50898 15.019 7.18281 15.4415 7.01972C15.8567 6.84922 16.4868 6.63424 16.8426 6.53045C17.2059 6.42667 17.7767 6.27099 18.1251 6.19686C18.4735 6.12273 19.1555 6.00412 19.6448 5.94481C20.1341 5.8781 21.1497 5.79655 21.9058 5.75207C22.6619 5.70759 23.5812 5.62605 23.9444 5.55933C24.3151 5.50003 24.8636 5.38883 25.1676 5.3147C25.4715 5.23315 25.9756 5.07748 26.2795 4.95887C26.5835 4.84026 27.0357 4.61045 27.2729 4.45478C27.5175 4.29169 27.8659 3.98775 28.0513 3.78018C28.2366 3.58003 28.548 3.14265 28.7333 2.81648Z" fill="black" fill-opacity="0.2"/>
<path d="M31.8394 14.1289C31.9358 13.825 32.0247 13.521 32.0395 13.4617C32.0618 13.4024 32.1433 13.6026 32.2249 13.9065C32.299 14.2105 32.5066 14.7664 32.6845 15.1297C32.855 15.4929 33.1737 16.0637 33.3961 16.3825C33.6185 16.7087 34.0707 17.2572 34.4043 17.6057C34.7379 17.9615 35.2346 18.4285 35.5163 18.6583C35.798 18.8881 36.2798 19.244 36.5838 19.4441C36.8877 19.6517 37.3547 19.926 37.6216 20.0594C37.8885 20.2003 38.3629 20.4078 39.2673 20.7637L39.4527 21.2455C39.549 21.5124 39.7418 22.0906 39.8826 22.5428C40.0161 22.995 40.2681 23.9735 40.4312 24.7297C40.6017 25.4858 40.787 26.242 40.8463 26.4125C40.9279 26.6349 41.0317 26.7683 41.1947 26.8572C41.3356 26.9314 41.5951 26.9759 41.81 26.9759C42.0102 26.9684 42.3141 26.9091 42.4772 26.8424C42.6403 26.7683 42.9665 26.709 43.2185 26.709C43.5076 26.709 43.7523 26.7535 43.9228 26.8424C44.0636 26.9166 44.2786 27.05 44.4046 27.1389C44.5232 27.2353 44.7234 27.4503 44.842 27.6282C44.9606 27.8061 45.1237 28.1397 45.1978 28.3621C45.272 28.5845 45.3535 28.9848 45.3758 29.2517C45.4054 29.5334 45.3832 29.9189 45.3313 30.1783C45.2794 30.423 45.1237 30.8455 44.9903 31.1198C44.8494 31.4015 44.6122 31.7647 44.4491 31.9352C44.2934 32.1132 44.0043 32.343 43.8042 32.4542C43.604 32.5579 43.2927 32.6914 43.1073 32.7359C42.8182 32.8174 42.707 32.8026 42.2178 32.6617C41.8249 32.5431 41.5506 32.5061 41.2911 32.5357C41.0687 32.5579 40.8686 32.6321 40.7944 32.7136C40.7203 32.7878 40.5276 33.2474 40.3645 33.7366C40.194 34.2259 39.8604 35.0413 39.6158 35.5528C39.3711 36.0644 39.0153 36.7315 38.83 37.0355C38.6446 37.3394 38.2888 37.8583 38.0442 38.1845C37.7921 38.5107 37.2361 39.1334 36.8062 39.5633C36.3762 40.0007 35.672 40.616 35.2346 40.9348C34.8046 41.261 34.0559 41.7428 33.5666 42.0171C33.0848 42.2914 32.4102 42.6324 32.0618 42.7806C31.7134 42.9289 31.15 43.1513 30.8015 43.2699C30.4531 43.3959 29.823 43.5887 29.393 43.7073C28.9631 43.8185 28.3478 43.9667 28.0216 44.0335C27.6954 44.1002 27.0431 44.204 26.5761 44.2633C26.109 44.3226 25.2417 44.3893 24.6486 44.4189C24.0185 44.4486 23.129 44.4338 22.4988 44.3819C21.9058 44.3374 21.0088 44.2262 20.4973 44.1447C19.9858 44.0631 19.1333 43.8778 18.6069 43.7444C18.0732 43.6109 17.3097 43.3737 16.9019 43.2254C16.4942 43.0772 15.79 42.7732 15.3452 42.5583C14.893 42.3433 14.2925 42.0245 14.0108 41.8466C13.7217 41.6761 13.1731 41.298 12.7876 41.0089C12.4022 40.7198 11.7869 40.2009 11.4236 39.8525C11.0604 39.504 10.5637 38.9703 10.3191 38.6664C10.0744 38.3624 9.67413 37.8139 9.4295 37.4432C9.18486 37.0725 8.74749 36.2719 8.45096 35.664C8.14703 35.0488 7.81344 34.2852 7.70965 33.959C7.59846 33.6328 7.46502 33.2251 7.40571 33.0472C7.33158 32.8322 7.23521 32.6988 7.07954 32.6247C6.95351 32.5654 6.71629 32.5135 6.53838 32.5135C6.36788 32.5135 6.07876 32.5654 5.89344 32.6247C5.70811 32.6914 5.37452 32.7433 5.15212 32.7433C4.83336 32.7507 4.64062 32.6914 4.26996 32.4986C4.0105 32.3652 3.66208 32.0983 3.49158 31.913C3.32108 31.7277 3.09869 31.4089 2.98749 31.2088C2.87629 31.0086 2.73544 30.6454 2.67614 30.4007C2.60942 30.1561 2.55753 29.741 2.55753 29.4741C2.55753 29.1998 2.61683 28.7847 2.69838 28.5104C2.77992 28.2435 2.94301 27.8803 3.06162 27.6949C3.17282 27.5096 3.38039 27.2724 3.52124 27.1686C3.66208 27.0574 3.8993 26.9091 4.04015 26.8424C4.19583 26.7609 4.4627 26.709 4.70734 26.709C4.95197 26.709 5.29297 26.7757 5.55985 26.8721C5.89344 26.9981 6.09359 27.0352 6.37529 27.0055C6.62734 26.9759 6.79784 26.9091 6.90903 26.7905C7.02023 26.6793 7.12402 26.3976 7.22039 25.9899C7.29452 25.6415 7.45019 24.9595 7.56139 24.4702C7.67259 23.981 7.89498 23.1284 8.05807 22.5799C8.22116 22.0313 8.44355 21.3493 8.77714 20.5413L9.28123 20.482C9.56293 20.4449 10.2672 20.3337 10.8602 20.2373C11.4533 20.141 12.417 19.9408 13.01 19.7925C13.6031 19.6443 14.5668 19.37 15.1598 19.1772C15.7529 18.9771 16.6499 18.6435 17.1614 18.4285C17.6729 18.2135 18.4068 17.8799 18.7923 17.6872C19.1778 17.4945 19.7115 17.2128 19.9784 17.0645C20.2453 16.9162 20.4676 16.805 20.4825 16.8125C20.4973 16.8273 20.4528 17.0497 20.3861 17.3166C20.3194 17.5834 20.1785 17.9615 20.0673 18.1616C19.9561 18.3618 19.6448 18.7695 19.3631 19.0661C19.0888 19.37 18.7997 19.7258 18.7181 19.8593C18.6366 19.9853 18.5699 20.2225 18.5699 20.3708C18.5699 20.5635 18.6292 20.7266 18.7552 20.8749C18.859 21.0009 19.0666 21.1269 19.2148 21.1714C19.3705 21.2084 19.7931 21.2455 20.1637 21.2455C20.5269 21.2455 21.2608 21.1788 21.7946 21.1047C22.3209 21.0231 23.0919 20.8749 23.4996 20.7711C23.9073 20.6673 24.4411 20.519 24.6857 20.4375C24.9303 20.3633 25.39 20.2003 25.7013 20.0668C26.0201 19.9408 26.5019 19.7258 26.7762 19.585C27.0579 19.4515 27.6436 19.0883 28.0958 18.7918C28.5405 18.4878 29.2077 17.9615 29.571 17.6131C29.9268 17.2647 30.4161 16.7309 30.6385 16.427C30.8683 16.123 31.1944 15.6041 31.3649 15.2779C31.5354 14.9518 31.7504 14.4328 31.8394 14.1289Z" fill="#FBFBFB"/>
<path d="M15.0116 26.4495C15.1969 26.3383 15.4786 26.2123 15.6417 26.1604C15.8048 26.1085 16.1828 26.0714 16.4942 26.0863C16.939 26.1011 17.1465 26.153 17.532 26.3383C17.8137 26.4718 18.1325 26.7016 18.303 26.8943C18.4661 27.0648 18.6811 27.3984 18.7848 27.6208C18.8886 27.8654 18.9776 28.2213 18.9998 28.5104C19.0221 28.8217 18.9924 29.1405 18.9183 29.3999C18.8516 29.6223 18.6885 29.9708 18.5476 30.1783C18.4142 30.3785 18.1177 30.675 17.8953 30.8233C17.6655 30.9864 17.2948 31.1494 17.0131 31.2236C16.6869 31.3051 16.3978 31.3274 16.1235 31.2977C15.9011 31.2755 15.5156 31.1569 15.271 31.0382C14.9893 30.9048 14.7002 30.6824 14.4704 30.4304C14.2702 30.208 14.0404 29.8447 13.9515 29.6223C13.8403 29.3258 13.7958 29.0515 13.7958 28.6216C13.7958 28.1397 13.8329 27.947 13.9811 27.6208C14.0849 27.3984 14.2851 27.087 14.4259 26.924C14.5668 26.7683 14.8262 26.5533 15.0116 26.4495Z" fill="#132A4C"/>
<path d="M15.0116 26.4495C15.1969 26.3383 15.4786 26.2123 15.6417 26.1604C15.8048 26.1085 16.1828 26.0714 16.4942 26.0863C16.939 26.1011 17.1465 26.153 17.532 26.3383C17.8137 26.4718 18.1325 26.7016 18.303 26.8943C18.4661 27.0648 18.6811 27.3984 18.7848 27.6208C18.8886 27.8654 18.9776 28.2213 18.9998 28.5104C19.0221 28.8217 18.9924 29.1405 18.9183 29.3999C18.8516 29.6223 18.6885 29.9708 18.5476 30.1783C18.4142 30.3785 18.1177 30.675 17.8953 30.8233C17.6655 30.9864 17.2948 31.1494 17.0131 31.2236C16.6869 31.3051 16.3978 31.3274 16.1235 31.2977C15.9011 31.2755 15.5156 31.1569 15.271 31.0382C14.9893 30.9048 14.7002 30.6824 14.4704 30.4304C14.2702 30.208 14.0404 29.8447 13.9515 29.6223C13.8403 29.3258 13.7958 29.0515 13.7958 28.6216C13.7958 28.1397 13.8329 27.947 13.9811 27.6208C14.0849 27.3984 14.2851 27.087 14.4259 26.924C14.5668 26.7683 14.8262 26.5533 15.0116 26.4495Z" fill="black" fill-opacity="0.2"/>
<path d="M30.1417 26.5459C30.3122 26.4273 30.631 26.2642 30.8312 26.1901C31.1055 26.1011 31.3649 26.064 31.7652 26.0863C32.1581 26.1011 32.4398 26.1678 32.7289 26.2938C32.9513 26.3976 33.2849 26.6274 33.4628 26.8053C33.6407 26.9907 33.878 27.3243 33.9817 27.5467C34.13 27.858 34.1745 28.1026 34.1967 28.5845C34.219 29.0812 34.1893 29.3036 34.0707 29.6223C33.9892 29.8447 33.7816 30.1931 33.6037 30.3933C33.4258 30.5935 33.1589 30.8381 33.0032 30.9345C32.8549 31.0234 32.5214 31.1569 32.2619 31.2236C31.9506 31.3051 31.6688 31.3274 31.3946 31.2977C31.1722 31.268 30.8015 31.1643 30.5791 31.0605C30.3567 30.9567 30.0454 30.7491 29.8823 30.6009C29.7266 30.4526 29.5265 30.208 29.4301 30.0671C29.3411 29.9263 29.2077 29.6075 29.1336 29.3629C29.0446 29.0515 29.015 28.7847 29.0446 28.4733C29.0668 28.2287 29.141 27.8951 29.2151 27.732C29.2818 27.5689 29.4449 27.2872 29.5783 27.1019C29.7118 26.9165 29.9638 26.6645 30.1417 26.5459Z" fill="#132A4C"/>
<path d="M30.1417 26.5459C30.3122 26.4273 30.631 26.2642 30.8312 26.1901C31.1055 26.1011 31.3649 26.064 31.7652 26.0863C32.1581 26.1011 32.4398 26.1678 32.7289 26.2938C32.9513 26.3976 33.2849 26.6274 33.4628 26.8053C33.6407 26.9907 33.878 27.3243 33.9817 27.5467C34.13 27.858 34.1745 28.1026 34.1967 28.5845C34.219 29.0812 34.1893 29.3036 34.0707 29.6223C33.9892 29.8447 33.7816 30.1931 33.6037 30.3933C33.4258 30.5935 33.1589 30.8381 33.0032 30.9345C32.8549 31.0234 32.5214 31.1569 32.2619 31.2236C31.9506 31.3051 31.6688 31.3274 31.3946 31.2977C31.1722 31.268 30.8015 31.1643 30.5791 31.0605C30.3567 30.9567 30.0454 30.7491 29.8823 30.6009C29.7266 30.4526 29.5265 30.208 29.4301 30.0671C29.3411 29.9263 29.2077 29.6075 29.1336 29.3629C29.0446 29.0515 29.015 28.7847 29.0446 28.4733C29.0668 28.2287 29.141 27.8951 29.2151 27.732C29.2818 27.5689 29.4449 27.2872 29.5783 27.1019C29.7118 26.9165 29.9638 26.6645 30.1417 26.5459Z" fill="black" fill-opacity="0.2"/>
<path d="M17.3467 34.5891C17.4282 34.5298 17.6061 34.4335 17.7544 34.3816C17.8953 34.3371 18.1399 34.3074 18.2956 34.3297C18.4438 34.3519 18.6588 34.4112 18.7774 34.4705C18.8886 34.5298 19.2593 34.8782 19.6077 35.2563C19.9561 35.6344 20.438 36.0792 20.6826 36.2423C20.9272 36.4128 21.3572 36.65 21.6463 36.7834C21.9354 36.9169 22.4469 37.0725 22.7953 37.1392C23.1438 37.206 23.6701 37.2579 23.9666 37.2579C24.2557 37.2579 24.745 37.2134 25.0341 37.1541C25.3306 37.0948 25.7754 36.9762 26.02 36.8872C26.2647 36.8057 26.6798 36.6129 26.9467 36.4572C27.2136 36.309 27.6287 35.9976 27.8733 35.7678C28.118 35.538 28.4219 35.2118 28.5405 35.0339C28.6591 34.8634 28.8963 34.641 29.0594 34.5521C29.2225 34.4557 29.4597 34.3593 29.5783 34.3297C29.697 34.3074 29.9342 34.3148 30.0973 34.3593C30.2604 34.4038 30.4976 34.5447 30.631 34.6781C30.757 34.8115 30.9053 35.0117 30.9424 35.1229C30.9868 35.2415 31.0239 35.4416 31.0239 35.5677C31.0239 35.7011 30.9275 36.0125 30.8089 36.2571C30.6903 36.5017 30.4383 36.8872 30.2529 37.1096C30.0676 37.332 29.7044 37.6952 29.4449 37.9102C29.1929 38.1326 28.7333 38.4588 28.4293 38.6367C28.1254 38.8146 27.6213 39.0667 27.3173 39.1927C27.0134 39.3261 26.4426 39.5114 26.0571 39.6078C25.5678 39.7338 25.0563 39.8006 24.3892 39.8302C23.7887 39.8599 23.1882 39.8376 22.7953 39.7783C22.4469 39.7338 21.8835 39.6078 21.5351 39.504C21.1867 39.4077 20.6381 39.2001 20.3119 39.0444C19.9858 38.8962 19.452 38.5922 19.1333 38.3698C18.8145 38.1474 18.2956 37.6952 17.9842 37.3691C17.6432 37.0058 17.3244 36.5907 17.1762 36.2941C17.0353 36.0125 16.939 35.7011 16.939 35.5528C16.939 35.412 17.0057 35.1599 17.0798 34.9969C17.1539 34.8338 17.2726 34.6484 17.3467 34.5891Z" fill="#132A4C"/>
<path d="M17.3467 34.5891C17.4282 34.5298 17.6061 34.4335 17.7544 34.3816C17.8953 34.3371 18.1399 34.3074 18.2956 34.3297C18.4438 34.3519 18.6588 34.4112 18.7774 34.4705C18.8886 34.5298 19.2593 34.8782 19.6077 35.2563C19.9561 35.6344 20.438 36.0792 20.6826 36.2423C20.9272 36.4128 21.3572 36.65 21.6463 36.7834C21.9354 36.9169 22.4469 37.0725 22.7953 37.1392C23.1438 37.206 23.6701 37.2579 23.9666 37.2579C24.2557 37.2579 24.745 37.2134 25.0341 37.1541C25.3306 37.0948 25.7754 36.9762 26.02 36.8872C26.2647 36.8057 26.6798 36.6129 26.9467 36.4572C27.2136 36.309 27.6287 35.9976 27.8733 35.7678C28.118 35.538 28.4219 35.2118 28.5405 35.0339C28.6591 34.8634 28.8963 34.641 29.0594 34.5521C29.2225 34.4557 29.4597 34.3593 29.5783 34.3297C29.697 34.3074 29.9342 34.3148 30.0973 34.3593C30.2604 34.4038 30.4976 34.5447 30.631 34.6781C30.757 34.8115 30.9053 35.0117 30.9424 35.1229C30.9868 35.2415 31.0239 35.4416 31.0239 35.5677C31.0239 35.7011 30.9275 36.0125 30.8089 36.2571C30.6903 36.5017 30.4383 36.8872 30.2529 37.1096C30.0676 37.332 29.7044 37.6952 29.4449 37.9102C29.1929 38.1326 28.7333 38.4588 28.4293 38.6367C28.1254 38.8146 27.6213 39.0667 27.3173 39.1927C27.0134 39.3261 26.4426 39.5114 26.0571 39.6078C25.5678 39.7338 25.0563 39.8006 24.3892 39.8302C23.7887 39.8599 23.1882 39.8376 22.7953 39.7783C22.4469 39.7338 21.8835 39.6078 21.5351 39.504C21.1867 39.4077 20.6381 39.2001 20.3119 39.0444C19.9858 38.8962 19.452 38.5922 19.1333 38.3698C18.8145 38.1474 18.2956 37.6952 17.9842 37.3691C17.6432 37.0058 17.3244 36.5907 17.1762 36.2941C17.0353 36.0125 16.939 35.7011 16.939 35.5528C16.939 35.412 17.0057 35.1599 17.0798 34.9969C17.1539 34.8338 17.2726 34.6484 17.3467 34.5891Z" fill="black" fill-opacity="0.2"/>
</svg>
