<svg width="48" height="48" viewBox="0 0 48 48" fill="none" xmlns="http://www.w3.org/2000/svg">
<path d="M34.9969 0.499541C35.1039 0.425956 35.3648 0.292164 35.5655 0.211889C35.8665 0.0914762 36.0405 0.0647178 36.5021 0.0847866C36.9569 0.0981658 37.1509 0.138303 37.472 0.285474C37.6928 0.385818 38.0407 0.633333 38.2413 0.827331C38.4688 1.0414 38.6762 1.32905 38.7899 1.56988C38.8902 1.79063 38.9906 2.14518 39.0173 2.36594C39.0508 2.65359 39.024 2.88773 38.9438 3.20214C38.8769 3.44296 38.7899 3.77075 38.7431 3.93799C38.6895 4.1253 38.6829 4.30592 38.7163 4.41964C38.7498 4.52668 38.8367 4.63371 38.9103 4.67385C38.9906 4.71398 40.1679 4.74074 42.021 4.74074C43.9944 4.74074 45.0513 4.7675 45.145 4.81433C45.232 4.85447 45.3591 4.9615 45.4327 5.06184C45.5662 5.24216 45.5664 5.36247 45.5997 23.1807L45.5999 23.2709L39.8803 23.2642L40.0074 22.8829C40.0743 22.6755 40.1479 22.214 40.1679 21.8661C40.188 21.4781 40.1679 21.0567 40.1211 20.7958C40.0743 20.5549 39.9338 20.1402 39.8067 19.8726C39.6662 19.5716 39.4321 19.2304 39.1846 18.9695C38.9705 18.7421 38.6293 18.4544 38.4353 18.3407C38.2347 18.2203 37.8467 18.0397 37.5724 17.946C37.1108 17.7921 36.9971 17.7788 35.3314 17.8256L34.6959 18.1333C34.2008 18.3741 33.96 18.5481 33.6055 18.9026C33.291 19.217 33.0703 19.5181 32.883 19.8927C32.7358 20.187 32.5753 20.6352 32.5217 20.8961C32.4682 21.157 32.4214 21.4781 32.4214 21.6119C32.4214 21.7524 32.4548 22.0267 32.495 22.214C32.5418 22.408 32.6422 22.7291 32.8897 23.2709L27.0363 23.2375L27.0028 20.0265C26.9828 17.839 26.9426 16.7753 26.8958 16.6817C26.8557 16.6081 26.7286 16.4676 26.6081 16.3606C26.4944 16.2602 26.2737 16.1465 26.1131 16.1064C25.9191 16.0528 25.7653 16.0528 25.598 16.1064C25.4709 16.1398 25.1833 16.2803 24.9625 16.4141C24.7417 16.5412 24.4407 16.6884 24.2935 16.7285C24.1464 16.7686 23.8453 16.8021 23.6246 16.8021C23.3838 16.7954 23.1028 16.7486 22.9222 16.6683C22.7549 16.5947 22.4874 16.4208 22.3335 16.2736C22.1729 16.1331 21.9656 15.8789 21.8719 15.7117C21.7783 15.5444 21.6578 15.2166 21.611 14.9758C21.5441 14.628 21.5441 14.4607 21.611 14.1396C21.6512 13.9189 21.7849 13.571 21.8987 13.3703C22.0057 13.1696 22.2532 12.8753 22.4472 12.7147C22.6345 12.5609 22.9155 12.4003 23.0693 12.3602C23.2299 12.3201 23.5376 12.2866 23.7584 12.2866C24.026 12.2866 24.2802 12.3468 24.5277 12.4538C24.7284 12.5408 25.0227 12.6947 25.1766 12.7883C25.3371 12.8887 25.6047 12.989 25.7786 13.0158C26.0529 13.0492 26.1466 13.0291 26.4141 12.882C26.655 12.7482 26.7687 12.6278 26.869 12.4003C26.9961 12.1127 27.0028 11.9521 27.0028 4.74074H30.468C33.4382 4.74074 33.9466 4.72736 34.0804 4.6404C34.1607 4.58688 34.241 4.4464 34.2677 4.3193C34.2878 4.17213 34.2477 3.95806 34.1206 3.63696C33.9667 3.25565 33.9332 3.06166 33.9332 2.56663C33.9332 2.05822 33.9533 1.90436 34.1005 1.59663C34.1941 1.39595 34.3881 1.09492 34.5353 0.934365C34.6758 0.773815 34.8899 0.579816 34.9969 0.499541Z" fill="#132A4C"/>
<path d="M34.9969 0.499541C35.1039 0.425956 35.3648 0.292164 35.5655 0.211889C35.8665 0.0914762 36.0405 0.0647178 36.5021 0.0847866C36.9569 0.0981658 37.1509 0.138303 37.472 0.285474C37.6928 0.385818 38.0407 0.633333 38.2413 0.827331C38.4688 1.0414 38.6762 1.32905 38.7899 1.56988C38.8902 1.79063 38.9906 2.14518 39.0173 2.36594C39.0508 2.65359 39.024 2.88773 38.9438 3.20214C38.8769 3.44296 38.7899 3.77075 38.7431 3.93799C38.6895 4.1253 38.6829 4.30592 38.7163 4.41964C38.7498 4.52668 38.8367 4.63371 38.9103 4.67385C38.9906 4.71398 40.1679 4.74074 42.021 4.74074C43.9944 4.74074 45.0513 4.7675 45.145 4.81433C45.232 4.85447 45.3591 4.9615 45.4327 5.06184C45.5662 5.24216 45.5664 5.36247 45.5997 23.1807L45.5999 23.2709L39.8803 23.2642L40.0074 22.8829C40.0743 22.6755 40.1479 22.214 40.1679 21.8661C40.188 21.4781 40.1679 21.0567 40.1211 20.7958C40.0743 20.5549 39.9338 20.1402 39.8067 19.8726C39.6662 19.5716 39.4321 19.2304 39.1846 18.9695C38.9705 18.7421 38.6293 18.4544 38.4353 18.3407C38.2347 18.2203 37.8467 18.0397 37.5724 17.946C37.1108 17.7921 36.9971 17.7788 35.3314 17.8256L34.6959 18.1333C34.2008 18.3741 33.96 18.5481 33.6055 18.9026C33.291 19.217 33.0703 19.5181 32.883 19.8927C32.7358 20.187 32.5753 20.6352 32.5217 20.8961C32.4682 21.157 32.4214 21.4781 32.4214 21.6119C32.4214 21.7524 32.4548 22.0267 32.495 22.214C32.5418 22.408 32.6422 22.7291 32.8897 23.2709L27.0363 23.2375L27.0028 20.0265C26.9828 17.839 26.9426 16.7753 26.8958 16.6817C26.8557 16.6081 26.7286 16.4676 26.6081 16.3606C26.4944 16.2602 26.2737 16.1465 26.1131 16.1064C25.9191 16.0528 25.7653 16.0528 25.598 16.1064C25.4709 16.1398 25.1833 16.2803 24.9625 16.4141C24.7417 16.5412 24.4407 16.6884 24.2935 16.7285C24.1464 16.7686 23.8453 16.8021 23.6246 16.8021C23.3838 16.7954 23.1028 16.7486 22.9222 16.6683C22.7549 16.5947 22.4874 16.4208 22.3335 16.2736C22.1729 16.1331 21.9656 15.8789 21.8719 15.7117C21.7783 15.5444 21.6578 15.2166 21.611 14.9758C21.5441 14.628 21.5441 14.4607 21.611 14.1396C21.6512 13.9189 21.7849 13.571 21.8987 13.3703C22.0057 13.1696 22.2532 12.8753 22.4472 12.7147C22.6345 12.5609 22.9155 12.4003 23.0693 12.3602C23.2299 12.3201 23.5376 12.2866 23.7584 12.2866C24.026 12.2866 24.2802 12.3468 24.5277 12.4538C24.7284 12.5408 25.0227 12.6947 25.1766 12.7883C25.3371 12.8887 25.6047 12.989 25.7786 13.0158C26.0529 13.0492 26.1466 13.0291 26.4141 12.882C26.655 12.7482 26.7687 12.6278 26.869 12.4003C26.9961 12.1127 27.0028 11.9521 27.0028 4.74074H30.468C33.4382 4.74074 33.9466 4.72736 34.0804 4.6404C34.1607 4.58688 34.241 4.4464 34.2677 4.3193C34.2878 4.17213 34.2477 3.95806 34.1206 3.63696C33.9667 3.25565 33.9332 3.06166 33.9332 2.56663C33.9332 2.05822 33.9533 1.90436 34.1005 1.59663C34.1941 1.39595 34.3881 1.09492 34.5353 0.934365C34.6758 0.773815 34.8899 0.579816 34.9969 0.499541Z" fill="black" fill-opacity="0.2"/>
<path d="M7.15481 5.25584C7.20833 5.14212 7.32874 4.97488 7.43577 4.88791L7.62308 4.74074H25.6649V8.05209C25.6649 11.1761 25.6582 11.3634 25.5445 11.3166C25.4843 11.2966 25.2237 11.203 24.963 11.1094L24.9625 11.1092C24.6882 11.0156 24.2735 10.9286 23.9591 10.9085C23.5911 10.8885 23.27 10.9085 22.9222 10.9888C22.6479 11.049 22.2532 11.1761 22.0525 11.2698C21.8318 11.3768 21.5107 11.6176 21.2431 11.8852C20.9889 12.1394 20.7146 12.5074 20.5942 12.7348C20.4872 12.9556 20.34 13.3168 20.2798 13.5376C20.1861 13.852 20.1661 14.1062 20.1928 14.7417C20.2196 15.3705 20.2597 15.6314 20.3801 15.9458C20.4671 16.1666 20.6745 16.5278 20.8417 16.7486C21.009 16.9626 21.2966 17.2637 21.4839 17.4041C21.6645 17.5446 21.9856 17.7453 22.1863 17.8457C22.387 17.946 22.7014 18.0731 22.8887 18.1199C23.1095 18.1801 23.4507 18.1935 23.8922 18.1734C24.434 18.1467 24.6548 18.0999 25.0762 17.9259C25.4575 17.7721 25.6047 17.7386 25.6315 17.7988C25.6515 17.8457 25.6582 19.0899 25.6315 23.2375H22.2867C19.0757 23.2375 18.9352 23.2442 18.7144 23.3713C18.5873 23.4448 18.4268 23.592 18.3465 23.6924C18.2395 23.8395 18.206 23.98 18.206 24.2944C18.206 24.6356 18.2528 24.8095 18.4736 25.2778C18.7077 25.7862 18.7345 25.8999 18.7412 26.3883C18.7412 26.8699 18.7211 26.9703 18.507 27.3783C18.3599 27.666 18.1324 27.967 17.905 28.1811C17.6106 28.4554 17.43 28.5557 17.0353 28.6828C16.6206 28.8166 16.46 28.8367 16.0988 28.7965C15.858 28.7765 15.5302 28.6895 15.3629 28.6159C15.1957 28.5423 14.9281 28.3684 14.7676 28.2346C14.607 28.0941 14.4063 27.8667 14.3194 27.7195C14.2324 27.5723 14.0986 27.2713 14.025 27.0505C13.9314 26.7763 13.8912 26.5154 13.8979 26.2143C13.9113 25.9534 13.9715 25.6323 14.0652 25.4116C14.1454 25.2109 14.2592 24.9232 14.3261 24.7761C14.4063 24.5821 14.4331 24.3948 14.4063 24.1071C14.3796 23.7459 14.3528 23.6857 13.8912 23.2709H7.06784V14.3738C7.06784 7.149 7.08122 5.43646 7.15481 5.25584Z" fill="#132A4C"/>
<path d="M7.15481 5.25584C7.20833 5.14212 7.32874 4.97488 7.43577 4.88791L7.62308 4.74074H25.6649V8.05209C25.6649 11.1761 25.6582 11.3634 25.5445 11.3166C25.4843 11.2966 25.2237 11.203 24.963 11.1094L24.9625 11.1092C24.6882 11.0156 24.2735 10.9286 23.9591 10.9085C23.5911 10.8885 23.27 10.9085 22.9222 10.9888C22.6479 11.049 22.2532 11.1761 22.0525 11.2698C21.8318 11.3768 21.5107 11.6176 21.2431 11.8852C20.9889 12.1394 20.7146 12.5074 20.5942 12.7348C20.4872 12.9556 20.34 13.3168 20.2798 13.5376C20.1861 13.852 20.1661 14.1062 20.1928 14.7417C20.2196 15.3705 20.2597 15.6314 20.3801 15.9458C20.4671 16.1666 20.6745 16.5278 20.8417 16.7486C21.009 16.9626 21.2966 17.2637 21.4839 17.4041C21.6645 17.5446 21.9856 17.7453 22.1863 17.8457C22.387 17.946 22.7014 18.0731 22.8887 18.1199C23.1095 18.1801 23.4507 18.1935 23.8922 18.1734C24.434 18.1467 24.6548 18.0999 25.0762 17.9259C25.4575 17.7721 25.6047 17.7386 25.6315 17.7988C25.6515 17.8457 25.6582 19.0899 25.6315 23.2375H22.2867C19.0757 23.2375 18.9352 23.2442 18.7144 23.3713C18.5873 23.4448 18.4268 23.592 18.3465 23.6924C18.2395 23.8395 18.206 23.98 18.206 24.2944C18.206 24.6356 18.2528 24.8095 18.4736 25.2778C18.7077 25.7862 18.7345 25.8999 18.7412 26.3883C18.7412 26.8699 18.7211 26.9703 18.507 27.3783C18.3599 27.666 18.1324 27.967 17.905 28.1811C17.6106 28.4554 17.43 28.5557 17.0353 28.6828C16.6206 28.8166 16.46 28.8367 16.0988 28.7965C15.858 28.7765 15.5302 28.6895 15.3629 28.6159C15.1957 28.5423 14.9281 28.3684 14.7676 28.2346C14.607 28.0941 14.4063 27.8667 14.3194 27.7195C14.2324 27.5723 14.0986 27.2713 14.025 27.0505C13.9314 26.7763 13.8912 26.5154 13.8979 26.2143C13.9113 25.9534 13.9715 25.6323 14.0652 25.4116C14.1454 25.2109 14.2592 24.9232 14.3261 24.7761C14.4063 24.5821 14.4331 24.3948 14.4063 24.1071C14.3796 23.7459 14.3528 23.6857 13.8912 23.2709H7.06784V14.3738C7.06784 7.149 7.08122 5.43646 7.15481 5.25584Z" fill="black" fill-opacity="0.2"/>
<path d="M35.1976 19.4445C35.4183 19.3374 35.7394 19.2237 35.9 19.1903C36.0672 19.1568 36.3683 19.1434 36.5689 19.1635C36.7763 19.1836 37.1041 19.2705 37.3048 19.3642C37.5122 19.4578 37.7798 19.6184 37.9069 19.7187C38.0407 19.8191 38.2413 20.0532 38.3551 20.2272C38.4688 20.4078 38.616 20.7222 38.6762 20.9229C38.7297 21.1302 38.7765 21.4848 38.7765 21.7122C38.7765 22.0333 38.723 22.2742 38.5357 22.7491C38.3751 23.1505 38.2882 23.4917 38.2815 23.7124C38.2815 23.9733 38.3149 24.1071 38.4153 24.2476C38.4955 24.3546 38.6628 24.4951 38.7832 24.5687C39.004 24.6958 39.1511 24.6958 45.5999 24.669L45.5864 33.7073C45.5664 42.5174 45.5662 42.6376 45.4327 42.8112C45.3591 42.9116 45.232 43.0253 45.1517 43.0654C45.0447 43.1123 42.2484 43.1323 27.0028 43.1323V40.0886C27.0028 38.4162 27.0296 37.0448 27.0563 37.0448C27.0831 37.0448 27.2437 37.105 27.4042 37.1719C27.5714 37.2455 27.9461 37.3525 28.2404 37.4194C28.595 37.493 28.9161 37.5131 29.1769 37.4863C29.3977 37.4595 29.7389 37.3993 29.9329 37.3458C30.1269 37.2923 30.4881 37.1384 30.7356 36.998C30.9831 36.8642 31.3511 36.5832 31.5518 36.3825C31.7591 36.1751 32.0334 35.8005 32.1672 35.5396C32.301 35.2854 32.4816 34.8172 32.5619 34.5027C32.6756 34.0612 32.6957 33.8204 32.6689 33.399C32.6488 33.1046 32.5686 32.6698 32.4883 32.429C32.408 32.1948 32.2542 31.8336 32.1337 31.6262C32.02 31.4255 31.8193 31.1446 31.6922 30.9974C31.5584 30.8569 31.2909 30.6161 31.0835 30.4689C30.8694 30.3151 30.4814 30.1211 30.1469 30.0073C29.692 29.8535 29.4646 29.8133 28.9763 29.8133C28.6485 29.8133 28.227 29.8535 28.0397 29.9003C27.8591 29.9404 27.5781 30.0341 27.4243 30.101C27.2637 30.1679 27.1099 30.2214 27.0697 30.2214C27.0296 30.2214 27.0095 29.2715 27.0363 24.7025H30.3945C33.6924 24.7025 33.7526 24.7025 33.9399 24.5687C34.047 24.4884 34.2008 24.3212 34.2878 24.2008C34.4149 24.0068 34.435 23.9131 34.4015 23.6322C34.3815 23.4515 34.2543 23.0301 34.1206 22.6956C33.9065 22.1872 33.873 22.02 33.873 21.5918C33.873 21.1771 33.9065 21.0165 34.067 20.6553C34.1808 20.4212 34.3881 20.0934 34.5353 19.9328C34.6825 19.7723 34.9768 19.5582 35.1976 19.4445Z" fill="#132A4C"/>
<path d="M35.1976 19.4445C35.4183 19.3374 35.7394 19.2237 35.9 19.1903C36.0672 19.1568 36.3683 19.1434 36.5689 19.1635C36.7763 19.1836 37.1041 19.2705 37.3048 19.3642C37.5122 19.4578 37.7798 19.6184 37.9069 19.7187C38.0407 19.8191 38.2413 20.0532 38.3551 20.2272C38.4688 20.4078 38.616 20.7222 38.6762 20.9229C38.7297 21.1302 38.7765 21.4848 38.7765 21.7122C38.7765 22.0333 38.723 22.2742 38.5357 22.7491C38.3751 23.1505 38.2882 23.4917 38.2815 23.7124C38.2815 23.9733 38.3149 24.1071 38.4153 24.2476C38.4955 24.3546 38.6628 24.4951 38.7832 24.5687C39.004 24.6958 39.1511 24.6958 45.5999 24.669L45.5864 33.7073C45.5664 42.5174 45.5662 42.6376 45.4327 42.8112C45.3591 42.9116 45.232 43.0253 45.1517 43.0654C45.0447 43.1123 42.2484 43.1323 27.0028 43.1323V40.0886C27.0028 38.4162 27.0296 37.0448 27.0563 37.0448C27.0831 37.0448 27.2437 37.105 27.4042 37.1719C27.5714 37.2455 27.9461 37.3525 28.2404 37.4194C28.595 37.493 28.9161 37.5131 29.1769 37.4863C29.3977 37.4595 29.7389 37.3993 29.9329 37.3458C30.1269 37.2923 30.4881 37.1384 30.7356 36.998C30.9831 36.8642 31.3511 36.5832 31.5518 36.3825C31.7591 36.1751 32.0334 35.8005 32.1672 35.5396C32.301 35.2854 32.4816 34.8172 32.5619 34.5027C32.6756 34.0612 32.6957 33.8204 32.6689 33.399C32.6488 33.1046 32.5686 32.6698 32.4883 32.429C32.408 32.1948 32.2542 31.8336 32.1337 31.6262C32.02 31.4255 31.8193 31.1446 31.6922 30.9974C31.5584 30.8569 31.2909 30.6161 31.0835 30.4689C30.8694 30.3151 30.4814 30.1211 30.1469 30.0073C29.692 29.8535 29.4646 29.8133 28.9763 29.8133C28.6485 29.8133 28.227 29.8535 28.0397 29.9003C27.8591 29.9404 27.5781 30.0341 27.4243 30.101C27.2637 30.1679 27.1099 30.2214 27.0697 30.2214C27.0296 30.2214 27.0095 29.2715 27.0363 24.7025H30.3945C33.6924 24.7025 33.7526 24.7025 33.9399 24.5687C34.047 24.4884 34.2008 24.3212 34.2878 24.2008C34.4149 24.0068 34.435 23.9131 34.4015 23.6322C34.3815 23.4515 34.2543 23.0301 34.1206 22.6956C33.9065 22.1872 33.873 22.02 33.873 21.5918C33.873 21.1771 33.9065 21.0165 34.067 20.6553C34.1808 20.4212 34.3881 20.0934 34.5353 19.9328C34.6825 19.7723 34.9768 19.5582 35.1976 19.4445Z" fill="black" fill-opacity="0.2"/>
<path d="M19.952 25.2577C19.8583 24.9701 19.7781 24.7159 19.7781 24.6891C19.7781 24.6624 21.0692 24.6356 22.6412 24.6356C24.2133 24.6356 25.5378 24.6624 25.5846 24.6891C25.6515 24.7292 25.6649 25.4383 25.6649 27.88C25.6649 30.4488 25.685 31.0643 25.7586 31.2115C25.8121 31.3118 25.9258 31.459 26.0128 31.5393C26.0997 31.6195 26.2737 31.7333 26.4008 31.8001C26.568 31.8804 26.7219 31.9005 26.9359 31.8737C27.1099 31.8537 27.3975 31.7399 27.6049 31.6061C27.8123 31.479 28.1267 31.3319 28.3073 31.2784C28.4946 31.2248 28.809 31.1914 29.0097 31.2048C29.2171 31.2115 29.5583 31.2851 29.779 31.372C30.0533 31.4724 30.2807 31.6195 30.4814 31.8269C30.6487 31.9941 30.8828 32.3286 31.0032 32.5695C31.137 32.8437 31.2307 33.1514 31.2574 33.399C31.2842 33.6732 31.2641 33.9341 31.1905 34.2017C31.1303 34.4225 31.0099 34.7369 30.9162 34.8907C30.8293 35.0446 30.6219 35.2988 30.468 35.446C30.3075 35.5931 30.0198 35.7938 29.8125 35.8875C29.5248 36.028 29.3442 36.0614 28.9428 36.0681C28.5347 36.0681 28.3742 36.0347 28.0732 35.8942C27.8725 35.7938 27.5714 35.64 27.4042 35.5396C27.1701 35.4058 27.0363 35.3724 26.7687 35.3858C26.5212 35.4058 26.3606 35.4594 26.18 35.5931C26.0462 35.6935 25.8656 35.9076 25.6315 36.3424L25.6649 43.1323L22.2398 43.139C19.6175 43.139 18.7679 43.1591 18.6408 43.2193C18.5405 43.2728 18.4535 43.3932 18.4134 43.5404C18.3666 43.7277 18.3866 43.8749 18.5673 44.3565C18.7211 44.778 18.7746 45.0589 18.7746 45.36C18.7746 45.5874 18.7278 45.9286 18.6676 46.1092C18.6141 46.2965 18.4535 46.6109 18.313 46.8116C18.1659 47.039 17.905 47.2932 17.6708 47.4538C17.3966 47.6411 17.1223 47.7615 16.7878 47.8418C16.5069 47.902 16.1924 47.9354 16.052 47.9154C15.9115 47.8886 15.6372 47.815 15.4298 47.7415C15.2291 47.6746 14.9482 47.5341 14.801 47.4337C14.6605 47.3334 14.4532 47.1461 14.3394 47.0123C14.2324 46.8852 14.0518 46.5975 13.9514 46.3768C13.8511 46.156 13.7507 45.8015 13.724 45.574C13.6972 45.2529 13.724 45.0589 13.8645 44.5706C13.9648 44.2428 14.0585 43.8816 14.0785 43.7678C14.0919 43.6608 14.0652 43.5002 14.0183 43.42C13.9648 43.333 13.8243 43.2327 13.6905 43.1992C13.5634 43.1658 12.1519 43.139 7.53612 43.1323L7.3555 42.9517C7.25515 42.8447 7.14812 42.6574 7.12136 42.5303C7.08791 42.4032 7.06784 40.9983 7.06784 36.5096L6.88723 36.3758C6.78688 36.3022 6.65978 36.242 6.59957 36.242C6.54606 36.242 6.23164 36.3357 5.89717 36.4494C5.39545 36.63 5.22152 36.6568 4.82683 36.6367C4.47897 36.6167 4.25153 36.5564 3.92374 36.3959C3.65615 36.2688 3.3685 36.0614 3.1745 35.8474C3.00057 35.66 2.76644 35.3189 2.65271 35.0914C2.52561 34.8238 2.43865 34.5161 2.41189 34.2352C2.38513 33.9743 2.4052 33.6599 2.45202 33.4324C2.49885 33.2317 2.63264 32.8906 2.74637 32.6765C2.86009 32.4557 3.09423 32.148 3.25478 31.9875C3.42202 31.8269 3.72305 31.6128 3.92374 31.5192C4.1378 31.4188 4.47897 31.3252 4.72649 31.3051C5.00076 31.2784 5.28841 31.2917 5.49579 31.3453C5.6831 31.3921 5.97075 31.479 6.1313 31.5326C6.31861 31.5995 6.5193 31.6195 6.6464 31.5928C6.76012 31.5727 6.90729 31.4857 6.9675 31.4055C7.06115 31.2784 7.06784 30.877 7.06784 24.669H9.94437C11.5298 24.669 12.8209 24.6824 12.8209 24.6891C12.8209 24.6958 12.7607 24.9032 12.6871 25.1373C12.6001 25.4116 12.5399 25.8197 12.5199 26.2411C12.5065 26.609 12.5266 27.0639 12.5667 27.2445C12.6001 27.4318 12.7473 27.8065 12.8811 28.0807C13.0483 28.4286 13.2624 28.7229 13.5567 29.024C13.831 29.2982 14.1655 29.5524 14.4598 29.6996C14.7207 29.8334 15.0954 29.994 15.296 30.0609C15.5502 30.1411 15.8713 30.1813 16.2995 30.1813C16.6942 30.1813 17.1022 30.1344 17.3698 30.0609C17.6106 30.0006 18.0053 29.8401 18.2395 29.7063C18.4803 29.5725 18.8549 29.2782 19.069 29.0574C19.3299 28.7898 19.5506 28.4687 19.7179 28.1142C19.865 27.8198 20.0323 27.385 20.0858 27.1442C20.1594 26.8565 20.1861 26.5622 20.1661 26.2411C20.146 25.9869 20.0523 25.5454 19.952 25.2577Z" fill="#132A4C"/>
<path d="M19.952 25.2577C19.8583 24.9701 19.7781 24.7159 19.7781 24.6891C19.7781 24.6624 21.0692 24.6356 22.6412 24.6356C24.2133 24.6356 25.5378 24.6624 25.5846 24.6891C25.6515 24.7292 25.6649 25.4383 25.6649 27.88C25.6649 30.4488 25.685 31.0643 25.7586 31.2115C25.8121 31.3118 25.9258 31.459 26.0128 31.5393C26.0997 31.6195 26.2737 31.7333 26.4008 31.8001C26.568 31.8804 26.7219 31.9005 26.9359 31.8737C27.1099 31.8537 27.3975 31.7399 27.6049 31.6061C27.8123 31.479 28.1267 31.3319 28.3073 31.2784C28.4946 31.2248 28.809 31.1914 29.0097 31.2048C29.2171 31.2115 29.5583 31.2851 29.779 31.372C30.0533 31.4724 30.2807 31.6195 30.4814 31.8269C30.6487 31.9941 30.8828 32.3286 31.0032 32.5695C31.137 32.8437 31.2307 33.1514 31.2574 33.399C31.2842 33.6732 31.2641 33.9341 31.1905 34.2017C31.1303 34.4225 31.0099 34.7369 30.9162 34.8907C30.8293 35.0446 30.6219 35.2988 30.468 35.446C30.3075 35.5931 30.0198 35.7938 29.8125 35.8875C29.5248 36.028 29.3442 36.0614 28.9428 36.0681C28.5347 36.0681 28.3742 36.0347 28.0732 35.8942C27.8725 35.7938 27.5714 35.64 27.4042 35.5396C27.1701 35.4058 27.0363 35.3724 26.7687 35.3858C26.5212 35.4058 26.3606 35.4594 26.18 35.5931C26.0462 35.6935 25.8656 35.9076 25.6315 36.3424L25.6649 43.1323L22.2398 43.139C19.6175 43.139 18.7679 43.1591 18.6408 43.2193C18.5405 43.2728 18.4535 43.3932 18.4134 43.5404C18.3666 43.7277 18.3866 43.8749 18.5673 44.3565C18.7211 44.778 18.7746 45.0589 18.7746 45.36C18.7746 45.5874 18.7278 45.9286 18.6676 46.1092C18.6141 46.2965 18.4535 46.6109 18.313 46.8116C18.1659 47.039 17.905 47.2932 17.6708 47.4538C17.3966 47.6411 17.1223 47.7615 16.7878 47.8418C16.5069 47.902 16.1924 47.9354 16.052 47.9154C15.9115 47.8886 15.6372 47.815 15.4298 47.7415C15.2291 47.6746 14.9482 47.5341 14.801 47.4337C14.6605 47.3334 14.4532 47.1461 14.3394 47.0123C14.2324 46.8852 14.0518 46.5975 13.9514 46.3768C13.8511 46.156 13.7507 45.8015 13.724 45.574C13.6972 45.2529 13.724 45.0589 13.8645 44.5706C13.9648 44.2428 14.0585 43.8816 14.0785 43.7678C14.0919 43.6608 14.0652 43.5002 14.0183 43.42C13.9648 43.333 13.8243 43.2327 13.6905 43.1992C13.5634 43.1658 12.1519 43.139 7.53612 43.1323L7.3555 42.9517C7.25515 42.8447 7.14812 42.6574 7.12136 42.5303C7.08791 42.4032 7.06784 40.9983 7.06784 36.5096L6.88723 36.3758C6.78688 36.3022 6.65978 36.242 6.59957 36.242C6.54606 36.242 6.23164 36.3357 5.89717 36.4494C5.39545 36.63 5.22152 36.6568 4.82683 36.6367C4.47897 36.6167 4.25153 36.5564 3.92374 36.3959C3.65615 36.2688 3.3685 36.0614 3.1745 35.8474C3.00057 35.66 2.76644 35.3189 2.65271 35.0914C2.52561 34.8238 2.43865 34.5161 2.41189 34.2352C2.38513 33.9743 2.4052 33.6599 2.45202 33.4324C2.49885 33.2317 2.63264 32.8906 2.74637 32.6765C2.86009 32.4557 3.09423 32.148 3.25478 31.9875C3.42202 31.8269 3.72305 31.6128 3.92374 31.5192C4.1378 31.4188 4.47897 31.3252 4.72649 31.3051C5.00076 31.2784 5.28841 31.2917 5.49579 31.3453C5.6831 31.3921 5.97075 31.479 6.1313 31.5326C6.31861 31.5995 6.5193 31.6195 6.6464 31.5928C6.76012 31.5727 6.90729 31.4857 6.9675 31.4055C7.06115 31.2784 7.06784 30.877 7.06784 24.669H9.94437C11.5298 24.669 12.8209 24.6824 12.8209 24.6891C12.8209 24.6958 12.7607 24.9032 12.6871 25.1373C12.6001 25.4116 12.5399 25.8197 12.5199 26.2411C12.5065 26.609 12.5266 27.0639 12.5667 27.2445C12.6001 27.4318 12.7473 27.8065 12.8811 28.0807C13.0483 28.4286 13.2624 28.7229 13.5567 29.024C13.831 29.2982 14.1655 29.5524 14.4598 29.6996C14.7207 29.8334 15.0954 29.994 15.296 30.0609C15.5502 30.1411 15.8713 30.1813 16.2995 30.1813C16.6942 30.1813 17.1022 30.1344 17.3698 30.0609C17.6106 30.0006 18.0053 29.8401 18.2395 29.7063C18.4803 29.5725 18.8549 29.2782 19.069 29.0574C19.3299 28.7898 19.5506 28.4687 19.7179 28.1142C19.865 27.8198 20.0323 27.385 20.0858 27.1442C20.1594 26.8565 20.1861 26.5622 20.1661 26.2411C20.146 25.9869 20.0523 25.5454 19.952 25.2577Z" fill="black" fill-opacity="0.2"/>
</svg>
