<svg width="48" height="48" viewBox="0 0 48 48" fill="none" xmlns="http://www.w3.org/2000/svg">
<rect x="0.5" y="0.5" width="47" height="47" rx="23.5" stroke="#D6DCE5"/>
<path fill-rule="evenodd" clip-rule="evenodd" d="M23.6167 12.087C23.3499 12.1097 23.1132 12.1682 22.898 12.2647C22.8274 12.2963 22.7482 12.3145 22.722 12.3052C22.6957 12.2958 22.6837 12.2986 22.6952 12.3114C22.7067 12.3242 22.6125 12.4023 22.4858 12.485C22.2525 12.6371 21.9241 12.9498 21.8301 13.1091C21.8018 13.157 21.7606 13.1961 21.7385 13.1961C21.7164 13.1961 21.7054 13.2076 21.714 13.2215C21.7313 13.2496 21.5266 13.6543 21.487 13.6704C21.4733 13.6759 21.468 13.6898 21.4751 13.7014C21.4822 13.7129 21.4637 13.8099 21.4341 13.9169C21.4044 14.024 21.3701 14.1987 21.3579 14.3052C21.3457 14.4117 21.3204 14.5088 21.3019 14.5209C21.2777 14.5366 21.2788 14.543 21.3054 14.5434C21.3282 14.5436 21.3428 14.585 21.3428 14.6486C21.3428 14.7063 21.3284 14.7535 21.3108 14.7535C21.2931 14.7535 21.2999 14.7746 21.3258 14.8005C21.3516 14.8264 21.373 14.8837 21.3732 14.9278C21.3735 14.9719 21.3947 15.0889 21.4203 15.1877C21.446 15.2865 21.4689 15.391 21.4712 15.4198C21.4735 15.4486 21.4838 15.4722 21.4941 15.4722C21.5043 15.4722 21.5283 15.5064 21.5473 15.5481C21.5765 15.6124 21.5738 15.6268 21.5297 15.6426C21.501 15.6529 21.3765 15.7015 21.2531 15.7506C21.0567 15.8289 20.9915 15.848 20.8848 15.8591C20.8715 15.8604 20.8674 15.8726 20.8757 15.886C20.884 15.8995 20.8074 15.9499 20.7054 15.998C20.5257 16.0829 20.5045 16.0903 20.4211 16.0977C20.3995 16.0996 20.3902 16.1146 20.4004 16.1311C20.4187 16.1607 20.3785 16.1733 20.3002 16.1626C20.2779 16.1595 20.2683 16.1708 20.2787 16.1877C20.3012 16.2242 20.1206 16.3268 20.0563 16.314C20.0316 16.3091 20.0216 16.3154 20.034 16.328C20.0684 16.363 19.7872 16.5503 19.6995 16.5508C19.6528 16.5511 19.6366 16.5602 19.6583 16.574C19.6935 16.5964 19.3429 16.895 19.1547 17.0029C19.1084 17.0294 19.0773 17.0579 19.0856 17.0661C19.0939 17.0744 18.9867 17.1828 18.8476 17.3071C18.7085 17.4313 18.6007 17.5391 18.6082 17.5466C18.6157 17.5541 18.5642 17.6123 18.4938 17.6759C18.4235 17.7395 18.3677 17.7987 18.3699 17.8074C18.3721 17.8161 18.3236 17.8838 18.2622 17.9579C18.2008 18.032 18.0603 18.2275 17.95 18.3922C17.8397 18.5569 17.7266 18.7008 17.6987 18.712C17.6707 18.7232 17.6643 18.7333 17.6845 18.7345C17.7364 18.7374 17.3898 19.4208 17.3337 19.426C17.3073 19.4284 17.3029 19.4359 17.323 19.4442C17.3728 19.4646 17.3354 19.5747 17.2778 19.5775C17.251 19.5788 17.2434 19.5859 17.261 19.5932C17.2812 19.6016 17.2457 19.7484 17.1648 19.9906C17.0943 20.2019 17.0015 20.5484 16.9586 20.7607C16.9157 20.9729 16.8665 21.1552 16.8494 21.1658C16.8283 21.1789 16.8289 21.1887 16.8512 21.1962C16.8745 21.2041 16.8762 21.2774 16.8571 21.4469C16.8423 21.5787 16.8205 21.8987 16.8086 22.1582C16.7968 22.4176 16.7788 22.6299 16.7687 22.6299C16.7585 22.6299 16.7503 22.7478 16.7503 22.8919C16.7503 23.4586 16.6226 24.5723 16.4799 25.2503C16.4383 25.448 16.3963 25.6535 16.3864 25.7071C16.375 25.7691 16.3509 25.8046 16.32 25.8048C16.2821 25.8052 16.2802 25.8108 16.3115 25.8306C16.344 25.8513 16.3396 25.8966 16.2871 26.0773C16.1109 26.6843 15.8174 27.4206 15.7504 27.424C15.7218 27.4254 15.7173 27.4321 15.739 27.4409C15.7901 27.4617 15.6918 27.661 15.6302 27.6616C15.5891 27.6621 15.5889 27.6656 15.6283 27.6911C15.6668 27.7161 15.6659 27.7202 15.6217 27.7206C15.5928 27.7209 15.5766 27.7376 15.5848 27.7588C15.6023 27.8044 15.3369 28.259 15.2801 28.2809C15.2579 28.2894 15.2463 28.307 15.2543 28.3201C15.2915 28.3802 14.623 29.2474 14.5368 29.2508C14.5036 29.2521 14.4935 29.2601 14.5144 29.2685C14.5619 29.2876 14.2661 29.6378 14.2024 29.6378C14.1784 29.6378 14.1671 29.6513 14.1773 29.6679C14.1876 29.6845 14.175 29.7062 14.1494 29.716C14.1237 29.7259 14.1102 29.746 14.1193 29.7607C14.1284 29.7755 14.1141 29.7875 14.0875 29.7875C14.0608 29.7875 14.0462 29.7992 14.055 29.8134C14.0638 29.8277 14.0393 29.9051 14.0006 29.9856C13.9618 30.0661 13.9141 30.2094 13.8945 30.3041C13.8748 30.3989 13.8463 30.4763 13.831 30.4763C13.8157 30.4763 13.8032 30.4965 13.8032 30.5213C13.8032 30.546 13.8201 30.5664 13.8406 30.5666C13.868 30.567 13.8671 30.574 13.8372 30.593C13.8028 30.6148 13.8028 30.6213 13.8372 30.6351C13.8697 30.648 13.87 30.6518 13.8385 30.6537C13.8085 30.6555 13.8103 30.6674 13.846 30.7031C13.8993 30.7565 13.9075 30.8058 13.8631 30.8058C13.8466 30.8058 13.8331 30.8327 13.8331 30.8657C13.8331 30.8989 13.8531 30.9256 13.878 30.9256C13.9506 30.9256 13.9293 30.9852 13.8556 30.9884C13.7928 30.9912 13.7923 30.9927 13.8481 31.0109C13.881 31.0216 13.9093 31.0472 13.9109 31.0678C13.9176 31.1516 13.9245 31.1651 13.9604 31.1651C13.9809 31.1651 14.0292 31.2243 14.0675 31.2966C14.1543 31.4604 14.2489 31.5516 14.4699 31.6844C14.5704 31.7448 14.6269 31.7951 14.6046 31.8043C14.5835 31.813 14.5931 31.8189 14.626 31.8174C14.6589 31.8158 14.7128 31.8169 14.7457 31.8197C14.7965 31.8242 14.7988 31.8298 14.7606 31.8573C14.7238 31.8838 14.726 31.8862 14.7728 31.8709C14.8505 31.8455 15.3303 31.9475 15.3074 31.9846C15.2969 32.0017 15.3103 32.0059 15.3395 31.9946C15.406 31.969 15.87 32.0356 15.8501 32.0678C15.8416 32.0816 15.8554 32.0849 15.8807 32.0752C15.9061 32.0654 16.0919 32.0786 16.2937 32.1044C17.2661 32.2289 18.0694 32.2974 19.6674 32.3922C20.6136 32.4484 21.8532 32.4679 24.3348 32.4657C26.3687 32.4638 27.0415 32.4527 27.955 32.4058C28.5721 32.374 29.2183 32.3491 29.3911 32.3503C29.5725 32.3515 29.6673 32.3435 29.6155 32.3313C29.5366 32.3128 29.5425 32.3098 29.6648 32.3067C29.845 32.3021 31.1538 32.1646 31.4158 32.1227C31.5268 32.1049 31.672 32.0974 31.7385 32.1059C31.8126 32.1154 31.8317 32.1129 31.7879 32.0994C31.7348 32.0831 31.7847 32.0674 31.9824 32.0382C32.1287 32.0165 32.398 31.966 32.5809 31.9258C32.7639 31.8856 32.9322 31.8575 32.9549 31.8634C32.9777 31.8693 32.9867 31.8686 32.975 31.8619C32.9632 31.8552 33.0462 31.802 33.1593 31.7437C33.482 31.5776 33.7025 31.3267 33.7906 31.0254C33.8178 30.9324 33.8394 30.9045 33.8755 30.9159C33.905 30.9252 33.9115 30.9213 33.8924 30.9059C33.8741 30.8913 33.8608 30.7546 33.8607 30.5812C33.8606 30.3827 33.8447 30.2387 33.8134 30.1544C33.7812 30.0672 33.777 30.027 33.8002 30.0267C33.825 30.0263 33.8249 30.0203 33.7997 30.0042C33.7808 29.9921 33.7011 29.8946 33.6227 29.7875C33.5443 29.6805 33.454 29.5743 33.4222 29.5516C33.3758 29.5186 33.3723 29.5052 33.4047 29.4847C33.4365 29.4645 33.4345 29.4589 33.3953 29.4585C33.332 29.458 32.9997 29.0819 33.0255 29.0401C33.0361 29.0229 33.0254 29.0089 33.0017 29.0089C32.9397 29.0089 32.7919 28.8083 32.8396 28.789C32.862 28.7799 32.8567 28.7731 32.826 28.7716C32.7691 28.769 32.6763 28.6533 32.7002 28.6147C32.7087 28.6009 32.6971 28.5896 32.6745 28.5896C32.6277 28.5896 32.485 28.3545 32.4972 28.2976C32.5017 28.277 32.4873 28.2602 32.4654 28.2602C32.4182 28.2602 32.1972 27.89 32.0109 27.4988C31.812 27.0812 31.7241 26.8526 31.7625 26.8526C31.781 26.8526 31.7745 26.8357 31.7481 26.8151C31.6894 26.7693 31.5046 26.235 31.5271 26.1762C31.5361 26.1529 31.527 26.1336 31.5069 26.1334C31.4839 26.1331 31.487 26.1222 31.5153 26.1039C31.5549 26.0783 31.5548 26.0748 31.5141 26.0744C31.4492 26.0737 31.3767 25.805 31.4318 25.7699C31.4613 25.7513 31.4591 25.7453 31.4228 25.7449C31.3872 25.7446 31.3617 25.6805 31.3223 25.4924C31.2932 25.3538 31.2784 25.2257 31.2894 25.2079C31.3004 25.1901 31.2969 25.1755 31.2815 25.1755C31.2351 25.1755 31.2104 24.988 31.2532 24.9608C31.2802 24.9436 31.2809 24.9367 31.2556 24.9363C31.2051 24.9357 31.1946 24.887 31.1293 24.3519C31.0335 23.5669 30.9878 22.8098 31.0344 22.781C31.0654 22.7618 31.0656 22.7543 31.0355 22.7443C31.0129 22.7368 30.9937 22.6658 30.9878 22.5685C30.9186 21.4195 30.8666 20.9945 30.7293 20.4511C30.6861 20.28 30.6714 20.1737 30.6909 20.1732C30.7083 20.1727 30.6989 20.1586 30.6701 20.1418C30.6413 20.125 30.6178 20.096 30.6178 20.0775C30.6178 20.0177 30.4341 19.5385 30.3024 19.2547C30.218 19.0729 30.1863 18.9745 30.2092 18.9651C30.2296 18.9568 30.2254 18.9499 30.1989 18.9483C30.1456 18.9453 30.0088 18.7181 30.0348 18.676C30.0447 18.6599 30.039 18.6467 30.0221 18.6467C30.0051 18.6467 29.9213 18.5423 29.8357 18.4146C29.7501 18.287 29.5946 18.0725 29.4902 17.9381C29.3631 17.7744 29.313 17.6882 29.3383 17.6769C29.3634 17.6658 29.3611 17.6619 29.3313 17.6654C29.2842 17.6709 28.6533 17.061 28.6658 17.022C28.6698 17.0097 28.6538 16.9996 28.6303 16.9996C28.6068 16.9996 28.5376 16.9524 28.4765 16.8948C28.4154 16.8371 28.3601 16.7899 28.3535 16.7899C28.315 16.7899 28.1696 16.656 28.1836 16.6334C28.1928 16.6185 28.1754 16.6105 28.145 16.6157C28.113 16.6212 28.0928 16.6094 28.0971 16.5878C28.1012 16.5672 28.081 16.5499 28.0522 16.5494C27.9875 16.5482 27.889 16.4766 27.9155 16.4501C27.9262 16.4393 27.9119 16.4306 27.8837 16.4306C27.8555 16.4306 27.7556 16.3811 27.6618 16.3208C27.568 16.2604 27.3388 16.1338 27.1526 16.0394C26.9664 15.9451 26.825 15.8619 26.8384 15.8547C26.8519 15.8474 26.8467 15.8453 26.8269 15.85C26.8071 15.8547 26.6726 15.8121 26.5279 15.7553C26.3833 15.6984 26.2447 15.6517 26.2199 15.6515C26.1798 15.651 26.1798 15.6477 26.2197 15.622C26.247 15.6043 26.2505 15.5928 26.2287 15.5925C26.2015 15.5921 26.2008 15.5685 26.2256 15.4947C26.2435 15.4412 26.2679 15.3839 26.2797 15.3674C26.2914 15.3509 26.3249 15.2127 26.3539 15.0602C26.4269 14.6769 26.4058 14.1971 26.3021 13.8788C26.2503 13.7199 26.2374 13.6436 26.2607 13.634C26.2792 13.6264 26.2737 13.6191 26.2483 13.6178C26.223 13.6165 26.1675 13.5446 26.1251 13.4582C26.0828 13.3717 25.9988 13.2363 25.9385 13.1573C25.8783 13.0783 25.8369 13.0008 25.8465 12.9851C25.8562 12.9694 25.8458 12.9566 25.8234 12.9566C25.7705 12.9566 25.584 12.7643 25.6108 12.7374C25.622 12.7262 25.6119 12.717 25.5882 12.717C25.5645 12.717 25.4954 12.6759 25.4346 12.6258C25.3738 12.5756 25.2353 12.4826 25.1269 12.4192C25.0184 12.3558 24.9405 12.2979 24.9538 12.2907C24.9671 12.2835 24.9615 12.2815 24.9414 12.2864C24.9212 12.2913 24.8582 12.2758 24.8014 12.252C24.4606 12.1095 24.0404 12.051 23.6167 12.087ZM24.2582 13.5788C24.3486 13.6144 24.389 13.6433 24.3626 13.6537C24.3378 13.6635 24.3518 13.6716 24.3959 13.6729C24.4445 13.6745 24.5195 13.7239 24.604 13.8101C24.6767 13.8842 24.7233 13.9453 24.7075 13.9457C24.6917 13.9463 24.7024 13.9604 24.7312 13.9772C24.7997 14.0171 24.8821 14.1783 24.8615 14.2321C24.8525 14.2553 24.8599 14.2743 24.8777 14.2743C24.8956 14.2743 24.9033 14.3006 24.8949 14.3327C24.8865 14.3649 24.8951 14.3975 24.9139 14.4052C24.9327 14.413 24.9144 14.4213 24.8733 14.4237L24.7985 14.4281L24.8658 14.4606C24.9381 14.4955 24.9614 14.6319 24.8957 14.636C24.8658 14.6379 24.8658 14.6414 24.8957 14.6535C24.9505 14.6756 24.9426 14.8415 24.8857 14.8634C24.851 14.8767 24.848 14.8876 24.8746 14.904C24.9015 14.9207 24.8928 14.9626 24.8404 15.0675C24.7386 15.2715 24.646 15.363 24.5652 15.3394C24.4442 15.304 23.5745 15.2857 23.3692 15.3142C23.1531 15.3442 23.0333 15.3148 23.0333 15.2317C23.0333 15.2075 23.0108 15.1708 22.9833 15.1502C22.8604 15.0581 22.7658 14.4577 22.8646 14.3966C22.8991 14.3753 22.8991 14.3688 22.8646 14.3547C22.8325 14.3415 22.8354 14.3286 22.8778 14.2942C22.9147 14.2642 22.9202 14.2465 22.8952 14.2382C22.8464 14.2219 23.0121 13.9149 23.0697 13.9149C23.0928 13.9149 23.104 13.9026 23.0948 13.8876C23.074 13.854 23.3256 13.6281 23.4077 13.6066C23.4404 13.5981 23.4597 13.6033 23.4504 13.6182C23.4412 13.6331 23.4109 13.6464 23.3831 13.6477C23.3552 13.649 23.347 13.6561 23.3649 13.6635C23.3827 13.6709 23.4365 13.6564 23.4845 13.6314C23.5328 13.6062 23.5518 13.5844 23.5269 13.5825C23.5023 13.5807 23.5359 13.5605 23.6017 13.5378C23.7571 13.4841 24.0664 13.5034 24.2582 13.5788ZM21.4868 15.6125C21.5084 15.6211 21.5342 15.62 21.5442 15.6101C21.5541 15.6002 21.5364 15.5931 21.5049 15.5944C21.4701 15.5958 21.463 15.6029 21.4868 15.6125ZM15.5311 32.0535C15.5516 32.0618 15.5853 32.0618 15.6059 32.0535C15.6264 32.0452 15.6096 32.0384 15.5685 32.0384C15.5273 32.0384 15.5105 32.0452 15.5311 32.0535ZM17.4459 32.2931C17.4665 32.3014 17.5001 32.3014 17.5207 32.2931C17.5413 32.2848 17.5244 32.278 17.4833 32.278C17.4421 32.278 17.4253 32.2848 17.4459 32.2931ZM17.8666 32.3236C17.8882 32.3323 17.914 32.3312 17.924 32.3213C17.9339 32.3113 17.9162 32.3043 17.8847 32.3055C17.8498 32.307 17.8428 32.3141 17.8666 32.3236ZM17.9645 32.3139C17.9713 32.3199 18.0173 32.3338 18.0667 32.3448C18.1323 32.3595 18.1443 32.3567 18.1116 32.3345C18.0712 32.3071 17.9345 32.288 17.9645 32.3139ZM30.0138 32.3236C30.0354 32.3323 30.0612 32.3312 30.0711 32.3213C30.0811 32.3113 30.0634 32.3043 30.0319 32.3055C29.997 32.307 29.9899 32.3141 30.0138 32.3236ZM18.2241 32.3543C18.2614 32.3615 18.3152 32.3612 18.3438 32.3537C18.3724 32.3462 18.342 32.3403 18.2761 32.3407C18.2103 32.341 18.1869 32.3471 18.2241 32.3543ZM29.7582 32.3539C29.7873 32.3615 29.8277 32.361 29.8479 32.3528C29.8682 32.3446 29.8444 32.3384 29.795 32.339C29.7456 32.3396 29.7291 32.3463 29.7582 32.3539ZM21.1877 32.5033C21.2092 32.512 21.235 32.5109 21.245 32.501C21.2549 32.491 21.2373 32.4839 21.2057 32.4852C21.1709 32.4867 21.1638 32.4938 21.1877 32.5033ZM22.9529 32.5333C22.9745 32.5419 23.0003 32.5409 23.0102 32.5309C23.0201 32.521 23.0025 32.5139 22.971 32.5152C22.9361 32.5166 22.929 32.5237 22.9529 32.5333ZM23.9103 32.5333C23.9319 32.5419 23.9577 32.5409 23.9676 32.5309C23.9776 32.521 23.9599 32.5139 23.9284 32.5152C23.8935 32.5166 23.8864 32.5237 23.9103 32.5333ZM24.6284 32.5333C24.6499 32.5419 24.6757 32.5409 24.6857 32.5309C24.6956 32.521 24.678 32.5139 24.6464 32.5152C24.6116 32.5166 24.6045 32.5237 24.6284 32.5333ZM21.0654 33.2105C20.9742 33.2443 20.9707 33.2527 21.0251 33.3072C21.083 33.3651 21.0878 33.4111 21.0362 33.4117C21.0112 33.4121 21.0137 33.4219 21.0437 33.4412C21.0768 33.4627 21.0782 33.4704 21.049 33.4707C21.0201 33.471 21.0226 33.4844 21.0587 33.5204C21.0984 33.5602 21.1003 33.5745 21.0683 33.5949C21.0357 33.6155 21.0357 33.6201 21.0681 33.6205C21.0943 33.6208 21.1009 33.6417 21.0878 33.683C21.0755 33.7219 21.0847 33.7583 21.1123 33.7803C21.1367 33.7997 21.1849 33.8933 21.2196 33.9884C21.2543 34.0835 21.3169 34.2289 21.3587 34.3115C21.4005 34.3941 21.4267 34.4747 21.417 34.4905C21.4072 34.5064 21.4216 34.5194 21.449 34.5194C21.481 34.5194 21.4927 34.5354 21.4816 34.5643C21.4704 34.5934 21.4825 34.6094 21.5158 34.6097C21.56 34.61 21.561 34.6143 21.5224 34.6396C21.4845 34.6645 21.4872 34.6718 21.5396 34.6862C21.598 34.7023 21.715 34.8589 21.7163 34.9228C21.7166 34.9388 21.7468 34.9668 21.7833 34.985C21.8198 35.0033 21.9226 35.0872 22.0117 35.1715C22.1008 35.2558 22.2562 35.3782 22.3571 35.4435C22.458 35.5088 22.5236 35.5685 22.5027 35.5761C22.4819 35.5837 22.4985 35.5899 22.5396 35.5899C22.5807 35.5898 22.7134 35.632 22.8344 35.6835C22.9554 35.735 23.0732 35.7772 23.0962 35.7772C23.1348 35.7772 23.1516 35.8152 23.1406 35.8773C23.1381 35.8912 23.1534 35.8963 23.1745 35.8886C23.1955 35.8808 23.2091 35.8584 23.2046 35.8386C23.1996 35.8168 23.2172 35.809 23.2494 35.8188C23.2786 35.8276 23.4237 35.8498 23.5718 35.8681C23.9657 35.9166 24.4359 35.8656 24.8084 35.734C24.8776 35.7096 24.9508 35.6936 24.9711 35.6985C24.9913 35.7035 24.9979 35.7018 24.9856 35.695C24.9734 35.6881 25.0431 35.6425 25.1405 35.5938C25.238 35.545 25.4093 35.4383 25.5212 35.3567C25.6332 35.275 25.7418 35.2082 25.7628 35.2082C25.7837 35.2082 25.7974 35.1968 25.7933 35.1829C25.7892 35.1691 25.8546 35.0828 25.9386 34.9913C26.0227 34.8997 26.155 34.7291 26.2326 34.6122C26.3103 34.4953 26.3871 34.3996 26.4032 34.3996C26.4194 34.3996 26.4251 34.3874 26.416 34.3726C26.4068 34.3578 26.4408 34.248 26.4916 34.1287C26.5732 33.9366 26.7273 33.352 26.728 33.2316C26.7283 33.192 26.3974 33.1867 23.9291 33.1867C22.3895 33.1867 21.1009 33.1974 21.0654 33.2105ZM24.3871 35.8869C24.4077 35.8952 24.4414 35.8952 24.4619 35.8869C24.4825 35.8786 24.4657 35.8718 24.4245 35.8718C24.3834 35.8718 24.3666 35.8786 24.3871 35.8869ZM23.4914 35.9174C23.513 35.9261 23.5388 35.925 23.5488 35.9151C23.5587 35.9051 23.541 35.8981 23.5095 35.8993C23.4746 35.9008 23.4675 35.9079 23.4914 35.9174ZM24.2231 35.9177C24.2522 35.9253 24.2926 35.9248 24.3129 35.9166C24.3331 35.9084 24.3093 35.9022 24.26 35.9028C24.2106 35.9034 24.194 35.9101 24.2231 35.9177Z" fill="#5B6B84"/>
</svg>
