<svg width="49" height="48" viewBox="0 0 49 48" fill="none" xmlns="http://www.w3.org/2000/svg">
<rect x="0.833344" y="0.5" width="47" height="47" rx="23.5" stroke="#D6DCE5"/>
<path d="M29.5008 34.1495C28.6737 34.1495 27.969 33.8589 27.3868 33.2777C26.8048 32.6967 26.5138 31.9935 26.5138 31.168C26.5138 31.0346 26.5535 30.7656 26.6328 30.3607L19.3133 26.0745C19.03 26.3635 18.7078 26.5889 18.3468 26.7507C17.9857 26.9126 17.5938 26.9935 17.1713 26.9935C16.3415 26.9935 15.6362 26.7025 15.0553 26.1205C14.4743 25.5383 14.1838 24.8315 14.1838 24C14.1838 23.1685 14.4743 22.4616 15.0553 21.8795C15.6362 21.2975 16.3415 21.0065 17.1713 21.0065C17.5793 21.0065 17.9622 21.084 18.3198 21.239C18.6775 21.3938 18.9959 21.608 19.2751 21.8815L26.6268 17.6582C26.5975 17.5289 26.5713 17.3953 26.5483 17.2575C26.5253 17.1198 26.5138 16.98 26.5138 16.838C26.5138 16.0108 26.805 15.3051 27.3873 14.721C27.9695 14.1366 28.6743 13.8445 29.5016 13.8445C30.3289 13.8445 31.0336 14.1366 31.6156 14.721C32.1978 15.3053 32.4888 16.0111 32.4888 16.8385C32.4888 17.6656 32.1981 18.3703 31.6166 18.9525C31.0351 19.5345 30.329 19.8255 29.4983 19.8255C29.099 19.8255 28.724 19.7485 28.3733 19.5945C28.0228 19.4405 27.7083 19.2365 27.4296 18.9825L20.0208 23.088C20.0708 23.2248 20.1083 23.374 20.1333 23.5355C20.1583 23.697 20.1708 23.8491 20.1708 23.9917C20.1708 24.1346 20.1625 24.2715 20.1458 24.4025C20.1292 24.5335 20.1022 24.6656 20.0648 24.799L27.4486 29.0042C27.7273 28.7461 28.0404 28.5432 28.3881 28.3957C28.7356 28.2482 29.108 28.1745 29.5053 28.1745C30.3422 28.1745 31.0486 28.4651 31.6246 29.0462C32.2008 29.6276 32.4888 30.3334 32.4888 31.1637C32.4888 31.9941 32.1977 32.6992 31.6153 33.2792C31.033 33.8594 30.3282 34.1495 29.5008 34.1495ZM29.4986 32.488C29.8758 32.488 30.1915 32.361 30.4458 32.107C30.7002 31.8528 30.8273 31.5379 30.8273 31.1622C30.8273 30.7867 30.7002 30.4718 30.4458 30.2175C30.1915 29.963 29.8743 29.8357 29.4943 29.8357C29.1178 29.8357 28.8038 29.9632 28.5523 30.2182C28.3008 30.4732 28.1751 30.7881 28.1751 31.1627C28.1751 31.5376 28.3013 31.8521 28.5538 32.1065C28.8063 32.3608 29.1213 32.488 29.4986 32.488ZM17.1711 25.332C17.5466 25.332 17.8635 25.205 18.1218 24.951C18.3802 24.6968 18.5093 24.38 18.5093 24.0005C18.5093 23.6208 18.3801 23.3038 18.1216 23.0495C17.8631 22.7951 17.5454 22.668 17.1686 22.668C16.7918 22.668 16.477 22.795 16.2243 23.049C15.9717 23.3031 15.8453 23.62 15.8453 23.9995C15.8453 24.3791 15.9723 24.6961 16.2263 24.9505C16.4805 25.2048 16.7954 25.332 17.1711 25.332ZM29.5021 18.1642C29.8769 18.1642 30.1915 18.0368 30.4458 17.782C30.7002 17.5271 30.8273 17.2114 30.8273 16.8347C30.8273 16.4599 30.6999 16.1447 30.4451 15.8892C30.1901 15.6337 29.8742 15.506 29.4973 15.506C29.1207 15.506 28.8052 15.634 28.5508 15.89C28.2963 16.1461 28.1691 16.4635 28.1691 16.842C28.1691 17.217 28.2976 17.5311 28.5546 17.7842C28.8116 18.0376 29.1274 18.1642 29.5021 18.1642Z" fill="#5B6B84"/>
</svg>
