<svg width="49" height="48" viewBox="0 0 49 48" fill="none" xmlns="http://www.w3.org/2000/svg">
<rect x="1.16667" y="0.5" width="47" height="47" rx="23.5" stroke="#D6DCE5"/>
<path d="M24.6667 32.7265C22.7157 31.3685 20.5057 29.7215 18.6467 27.7335C16.2707 25.1935 15.0667 22.6955 15.0667 20.3095C15.0667 18.9405 15.5977 17.6545 16.5607 16.6865C17.5237 15.7195 18.8047 15.1865 20.1667 15.1865C20.9827 15.1865 21.7957 15.3865 22.5187 15.7645C23.2417 16.1425 23.8717 16.6975 24.3387 17.3685L24.6667 17.8395L24.9947 17.3685C25.4627 16.6975 26.0917 16.1425 26.8147 15.7645C27.5377 15.3865 28.3507 15.1865 29.1657 15.1865C29.8397 15.1865 30.4957 15.3175 31.1177 15.5765C31.7397 15.8355 32.2967 16.2085 32.7727 16.6865C33.2487 17.1645 33.6207 17.7245 33.8787 18.3485C34.1367 18.9735 34.2667 19.6335 34.2667 20.3095C34.2667 22.6955 33.0627 25.1935 30.6867 27.7335C28.8277 29.7215 26.6177 31.3685 24.6667 32.7265Z" fill="#5B6B84"/>
<path d="M29.1667 15.5865C29.7867 15.5865 30.3917 15.7075 30.9647 15.9455C31.5377 16.1835 32.0507 16.5285 32.4897 16.9685C32.9287 17.4095 33.2717 17.9245 33.5097 18.5005C33.7477 19.0765 33.8677 19.6855 33.8677 20.3095C33.8677 22.5915 32.6997 24.9975 30.3957 27.4605C28.6337 29.3445 26.5437 30.9245 24.6677 32.2385C22.7917 30.9235 20.7017 29.3445 18.9397 27.4605C16.6347 24.9965 15.4667 22.5905 15.4667 20.3095C15.4667 19.0475 15.9557 17.8605 16.8447 16.9685C17.7327 16.0775 18.9117 15.5865 20.1677 15.5865C20.9187 15.5865 21.6677 15.7705 22.3327 16.1185C22.9987 16.4675 23.5787 16.9785 24.0097 17.5975L24.6667 18.5405L25.3237 17.5975C25.7547 16.9785 26.3347 16.4675 27.0007 16.1185C27.6667 15.7705 28.4167 15.5865 29.1667 15.5865ZM29.1657 14.7865C28.2827 14.7865 27.4127 15.0005 26.6297 15.4105C25.8467 15.8205 25.1727 16.4135 24.6667 17.1405C24.1607 16.4135 23.4867 15.8205 22.7037 15.4105C21.9207 15.0005 21.0507 14.7865 20.1677 14.7865C18.7087 14.7865 17.3097 15.3685 16.2787 16.4045C15.2457 17.4395 14.6667 18.8445 14.6667 20.3095C14.6667 26.0525 21.1667 30.7905 24.6667 33.2135C28.1667 30.7915 34.6667 26.0525 34.6667 20.3095C34.6667 19.5845 34.5247 18.8655 34.2477 18.1955C33.9717 17.5255 33.5657 16.9165 33.0557 16.4035C32.5457 15.8905 31.9387 15.4835 31.2717 15.2065C30.6047 14.9285 29.8887 14.7865 29.1657 14.7865Z" fill="#5B6B84"/>
</svg>
