<svg width="33" height="33" viewBox="0 0 33 33" fill="none" xmlns="http://www.w3.org/2000/svg">
<path d="M9.48546 24.6995C9.48546 23.9315 8.95749 23.2835 8.24552 23.1011C8.93029 22.9268 9.44706 22.3252 9.48546 21.5892V18.303C9.48546 17.535 8.95749 16.8871 8.24552 16.7047C8.93029 16.5303 9.44706 15.9271 9.48546 15.1895V11.9033C9.48546 11.1321 8.95428 10.4826 8.23752 10.3034C8.92389 10.1306 9.44226 9.52743 9.48226 8.78986V7.91151H30.1628C31.2956 7.91151 32.2171 8.83306 32.2171 9.96581V10.6058H32.2203V23.4403C32.2203 24.5731 31.2988 25.4946 30.166 25.4946H9.48546V24.6995ZM20.5329 19.8245C20.5329 20.4853 20.6753 21.0708 20.9553 21.5652L20.9633 21.5796C21.2577 22.0676 21.6481 22.4516 22.1248 22.7172L22.1408 22.7268C22.6224 22.9796 23.1632 23.1075 23.7455 23.1075C24.3279 23.1075 24.8655 22.978 25.3407 22.7236C25.843 22.4484 26.2382 22.0612 26.5198 21.5668C26.8094 21.0756 26.9582 20.4869 26.9582 19.8229C26.9582 19.1589 26.8158 18.5782 26.5326 18.0918C26.2494 17.591 25.8526 17.2006 25.3583 16.9399C24.8815 16.6743 24.3391 16.5399 23.7455 16.5399C23.152 16.5399 22.624 16.6711 22.1296 16.9415C22.1216 16.9447 22.1152 16.9495 22.1072 16.9527L25.2303 11.3625H21.7632L20.0593 14.412C20.0497 13.7704 19.9073 13.2072 19.6353 12.7385C19.3506 12.2361 18.9554 11.8473 18.461 11.5865C17.9842 11.3209 17.4467 11.1865 16.8627 11.1865C16.2787 11.1865 15.7347 11.3209 15.2468 11.5881C14.762 11.8425 14.3588 12.2297 14.0612 12.7353C13.7764 13.2264 13.6341 13.8136 13.6341 14.4856C13.6341 15.1575 13.7716 15.7255 14.0564 16.2263L14.066 16.2423C14.3604 16.7303 14.7508 17.1126 15.226 17.3798L15.242 17.3894C15.7235 17.6422 16.2643 17.7702 16.8467 17.7702C17.3987 17.7702 17.9234 17.6534 18.3746 17.4294L15.2996 22.9332H18.7666L20.5329 19.7717C20.5329 19.7893 20.5329 19.8053 20.5329 19.8229V19.8245ZM3.55456 25.4914C2.42181 25.4914 1.50026 24.5699 1.50026 23.4371V9.96261C1.50026 9.41383 1.71145 8.89866 2.09863 8.51148C2.48581 8.1227 3.00258 7.90991 3.55136 7.90991H6.18322V8.78826C6.22322 9.52743 6.7432 10.1306 7.43116 10.3018C6.716 10.4826 6.18642 11.1305 6.18642 11.9017V15.1879C6.22642 15.9255 6.7432 16.5287 7.42636 16.7031C6.7144 16.8855 6.18642 17.5334 6.18642 18.3014V21.5876C6.22642 22.3236 6.7416 22.9252 7.42636 23.0995C6.7144 23.2819 6.18642 23.9299 6.18642 24.6979V25.4898H3.55456V25.4914ZM23.7311 20.4325C23.6495 20.4325 23.6016 20.4181 23.5248 20.3301C23.4592 20.2501 23.4176 20.0661 23.4176 19.8245C23.4176 19.5189 23.488 19.3605 23.5312 19.3141C23.6159 19.2165 23.6735 19.2005 23.7471 19.2005C23.8543 19.2005 23.9055 19.2437 23.9391 19.2869L23.9503 19.3013L23.9631 19.3141C23.9967 19.3509 24.0767 19.4757 24.0767 19.8245C24.0767 20.1509 24.0063 20.2693 23.9535 20.3301C23.8879 20.4053 23.8271 20.4325 23.7311 20.4325ZM16.8515 15.0951C16.7779 15.0951 16.7203 15.0775 16.6451 14.9928C16.5923 14.932 16.5219 14.8136 16.5219 14.4872C16.5219 14.236 16.5667 14.0392 16.6451 13.9496C16.7219 13.8616 16.7715 13.8472 16.8515 13.8472C16.9427 13.8472 16.9923 13.8696 17.0483 13.9384C17.1363 14.0424 17.1811 14.2344 17.1811 14.4872C17.1811 14.7224 17.1379 14.9016 17.0579 14.9928L17.0435 15.0088C17.0083 15.052 16.9587 15.0951 16.8499 15.0951H16.8515Z" fill="#8FD6C1"/>
<path d="M30.1613 8.54837C30.9404 8.54837 31.5756 9.18194 31.5756 9.9627L31.5788 11.2426V23.4372C31.5788 24.2164 30.9452 24.8515 30.1645 24.8515H10.1255V24.6996C10.1255 24.0788 9.8775 23.5156 9.47432 23.1028C9.85031 22.7173 10.0919 22.2005 10.1223 21.6229V21.5893L10.1239 21.5557V18.3031C10.1239 17.6823 9.87591 17.1191 9.47272 16.7048C9.84871 16.3192 10.0919 15.8008 10.1223 15.2216V15.188L10.1239 15.1544V11.9018C10.1239 11.2794 9.8743 10.7147 9.46953 10.3019C9.84551 9.9163 10.0871 9.39953 10.1175 8.82195V8.78836L10.1191 8.75476V8.54997H30.1597M14.9524 11.0218C14.3541 11.3386 13.8693 11.8058 13.5125 12.4106V12.4154L13.5077 12.4202C13.1685 13.0057 12.9973 13.7017 12.9973 14.4873C12.9973 15.2728 13.1621 15.9432 13.5013 16.5432L13.5093 16.5592L13.5189 16.5752C13.8709 17.1591 14.3413 17.6183 14.9141 17.9415L14.9301 17.9511L14.946 17.9591C15.5204 18.2599 16.1604 18.4135 16.8484 18.4135C16.9316 18.4135 17.0163 18.4119 17.0995 18.4071L14.2117 23.578H19.1442L20.2514 21.5957C20.2962 21.6949 20.3458 21.7909 20.3986 21.8853L20.4066 21.9013L20.4162 21.9173C20.7682 22.5013 21.2385 22.9604 21.8113 23.2836L21.8273 23.2932L21.8433 23.3012C22.4177 23.602 23.0576 23.7556 23.7456 23.7556C24.4336 23.7556 25.0751 23.6004 25.6431 23.2964L25.6527 23.29C26.2527 22.962 26.7295 22.4933 27.0718 21.8997C27.4206 21.3029 27.5982 20.607 27.5982 19.831C27.5982 19.055 27.427 18.3687 27.0894 17.7847C26.7423 17.1735 26.2623 16.7032 25.6639 16.3848C25.0927 16.068 24.4464 15.9064 23.7456 15.9064C23.6368 15.9064 23.5296 15.9096 23.424 15.9176L26.3215 10.7291H21.3889L20.3122 12.6554C20.2754 12.5786 20.2354 12.5034 20.1922 12.4298C19.845 11.8186 19.365 11.3482 18.7667 11.0298C18.1955 10.7131 17.5555 10.5515 16.8644 10.5515C16.1732 10.5515 15.5316 10.7115 14.9524 11.0266M5.54332 8.54837V8.82035C5.57532 9.39953 5.81851 9.9179 6.19609 10.3035C5.79451 10.7163 5.54492 11.2794 5.54492 11.9002V15.22C5.57692 15.7992 5.81851 16.3176 6.19609 16.7032C5.79291 17.1159 5.54492 17.6807 5.54492 18.3015V21.6213C5.57692 22.1989 5.81851 22.7173 6.19609 23.1012C5.79451 23.514 5.54492 24.0772 5.54492 24.698V24.85H3.55302C2.77386 24.85 2.13869 24.2164 2.13869 23.4356V9.9595C2.13869 9.58352 2.28429 9.22833 2.54987 8.96275C2.81706 8.69556 3.17224 8.54837 3.54982 8.54837H5.54172M8.84236 7.26843V8.75316C8.81516 9.28433 8.37358 9.70991 7.83281 9.70991C7.29203 9.70991 6.85046 9.28753 6.82326 8.75316V7.26843H3.55142C2.0635 7.26843 0.857158 8.47477 0.860358 9.9627V23.4372C0.860358 24.9251 2.0651 26.1315 3.55462 26.1315H6.82646V24.6996C6.82646 24.1428 7.28083 23.69 7.83601 23.69C8.39118 23.69 8.84556 24.1412 8.84556 24.6996V26.1315H30.1661C31.654 26.1315 32.8604 24.9267 32.8604 23.4372V9.9627H32.8572C32.8572 8.47477 31.6508 7.26843 30.1629 7.26843H8.84236ZM7.83601 16.1144C7.29523 16.1144 6.85366 15.6888 6.82646 15.1544V11.9018C6.82646 11.345 7.28083 10.8923 7.83601 10.8923C8.39118 10.8923 8.84556 11.3434 8.84556 11.9018V15.1544C8.81836 15.6888 8.37678 16.1144 7.83601 16.1144ZM16.8484 17.1303C16.37 17.1303 15.9316 17.0279 15.5396 16.8232C15.1572 16.6088 14.8501 16.3048 14.6133 15.9128C14.3861 15.5112 14.2741 15.0456 14.2741 14.4873C14.2741 13.9289 14.3861 13.4521 14.6133 13.0617C14.8501 12.6602 15.1636 12.3562 15.554 12.1514C15.946 11.937 16.3828 11.8282 16.8628 11.8282C17.3427 11.8282 17.7731 11.937 18.1555 12.1514C18.5475 12.3562 18.8547 12.6602 19.0818 13.0617C19.309 13.4537 19.421 13.9385 19.421 14.4873C19.421 15.036 19.309 15.5128 19.0818 15.9128C18.8579 16.3048 18.5475 16.6088 18.1555 16.8232C17.7731 17.0279 17.3267 17.1303 16.8468 17.1303H16.8484ZM24.1408 12.0042L18.3923 22.2949H16.3908L22.1393 12.0042H24.1408ZM23.7456 22.4677C23.2672 22.4677 22.8289 22.3653 22.4369 22.1605C22.0545 21.9461 21.7473 21.6421 21.5105 21.2501C21.2833 20.8486 21.1713 20.3702 21.1713 19.8246C21.1713 19.279 21.2833 18.8055 21.5105 18.4135C21.7473 18.0119 22.0545 17.7079 22.4369 17.5031C22.8289 17.2887 23.2544 17.1799 23.7456 17.1799C24.2368 17.1799 24.672 17.2887 25.0543 17.5031C25.4463 17.7079 25.7535 18.0119 25.9807 18.4135C26.2079 18.8055 26.3199 19.2742 26.3199 19.8246C26.3199 20.375 26.2015 20.8502 25.9663 21.2501C25.7423 21.6421 25.4319 21.9461 25.0399 22.1605C24.6576 22.3653 24.2256 22.4677 23.7472 22.4677H23.7456ZM7.83601 22.5109C7.29523 22.5109 6.85366 22.0885 6.82646 21.5541V18.3015C6.82646 17.7447 7.28083 17.2919 7.83601 17.2919C8.39118 17.2919 8.84556 17.7431 8.84556 18.3015V21.5541C8.81836 22.0853 8.37678 22.5109 7.83601 22.5109ZM16.8516 13.2057C16.5684 13.2057 16.3476 13.3145 16.162 13.5289C15.9748 13.7433 15.882 14.0633 15.882 14.4857C15.882 14.9081 15.9748 15.1976 16.162 15.412C16.3492 15.6264 16.578 15.7352 16.8516 15.7352C17.1251 15.7352 17.3667 15.6264 17.5411 15.412C17.7283 15.1976 17.8211 14.8873 17.8211 14.4857C17.8211 14.0633 17.7283 13.7465 17.5411 13.5289C17.3635 13.3145 17.1347 13.2057 16.8516 13.2057ZM23.7456 18.5591C23.472 18.5591 23.2416 18.6679 23.056 18.8822C22.8689 19.087 22.7761 19.423 22.7761 19.823C22.7761 20.223 22.8625 20.535 23.04 20.7494C23.2272 20.9637 23.4464 21.0725 23.7296 21.0725C24.0128 21.0725 24.248 20.9637 24.4352 20.7494C24.6224 20.535 24.7152 20.2454 24.7152 19.823C24.7152 19.4006 24.6224 19.087 24.4352 18.8822C24.2608 18.6679 24.0192 18.5591 23.7456 18.5591Z" fill="#72CAB0"/>
</svg>
