<svg width="25" height="24" viewBox="0 0 25 24" fill="none" xmlns="http://www.w3.org/2000/svg">
<path d="M12.4116 15.9563C22.2916 15.9554 22.3304 15.9557 22.4757 16.0299C22.664 16.1259 22.6879 16.1652 23.4513 17.6314C23.5885 17.8948 23.845 18.3838 24.0215 18.7181C24.3676 19.374 24.4457 19.6102 24.4147 19.908C24.3494 20.5349 23.9757 21.0162 23.3766 21.2447C23.1972 21.3132 22.9183 21.3153 12.5494 21.3246C5.49861 21.3309 1.83754 21.3216 1.70259 21.2969C1.41888 21.2451 1.07121 21.0656 0.875678 20.87C0.67149 20.6658 0.498527 20.3219 0.444053 20.0117C0.373154 19.6078 0.426199 19.4657 1.16776 18.0735C1.23251 17.9519 1.40601 17.6204 1.55333 17.3367C2.16401 16.1611 2.2013 16.1011 2.37244 16.0167C2.48286 15.9622 3.35047 15.957 12.4116 15.9563Z" fill="#8FD6C1"/>
<path d="M4.00339 2.69599C4.12512 2.68089 7.98678 2.67102 12.585 2.67404C20.6399 2.67939 20.9525 2.68211 21.1299 2.74815C21.5786 2.9152 21.8833 3.18789 22.0971 3.61359L22.2348 3.88794V9.32961C22.2348 14.7646 22.2347 14.7714 22.159 14.8753C22.1173 14.9325 22.0102 15.0166 21.921 15.0621L21.7588 15.145H3.07981L2.9176 15.0621C2.82843 15.0166 2.72132 14.9325 2.67963 14.8753C2.60412 14.7717 2.60371 14.7487 2.58537 9.47887C2.57097 5.34266 2.57699 4.14004 2.61275 3.97395C2.70369 3.55168 2.97148 3.16908 3.34041 2.93418C3.57451 2.78514 3.72711 2.73032 4.00339 2.69599Z" fill="#8FD6C1"/>
</svg>
