<svg width="73" height="72" viewBox="0 0 73 72" fill="none" xmlns="http://www.w3.org/2000/svg">
<mask id="path-1-inside-1_10116_457" fill="white">
<path fill-rule="evenodd" clip-rule="evenodd" d="M28.4553 58.2346C28.4553 59.6426 28.4919 60.4472 28.5559 60.4472C28.6212 60.4474 28.6565 61.7882 28.6565 64.2689C28.6565 66.7495 28.6212 68.0904 28.5559 68.0905C28.5006 68.0905 28.4553 68.1597 28.4553 68.2441C28.4553 68.4961 27.6307 69.2403 27.1983 69.3786C26.881 69.4801 25.094 69.4989 18.7515 69.4682C14.3272 69.4466 10.5376 69.3945 10.3297 69.3523C10.1223 69.31 9.95251 69.2351 9.95251 69.1859C9.95251 69.1366 9.8826 69.0963 9.79713 69.0963C9.62212 69.0962 9.14809 68.6589 9.14809 68.4974C9.14808 68.4395 9.10281 68.3923 9.04751 68.3923C8.99221 68.3923 8.94693 68.3017 8.94693 68.1911C8.94692 68.0805 8.90166 67.9901 8.84636 67.9901C8.78122 67.9895 8.74588 66.6989 8.74588 64.3192C8.74588 61.9395 8.78122 60.6489 8.84636 60.6484C8.91051 60.6484 8.94693 59.8103 8.94693 58.3352V56.0221H28.4553V58.2346Z"/>
<path fill-rule="evenodd" clip-rule="evenodd" d="M22.5464 62.1698C22.2483 62.0102 15.3112 62.017 15.0342 62.1771C14.7168 62.3612 14.3771 62.7383 14.3771 62.9067C14.3771 62.9922 14.3319 63.0621 14.2766 63.0621C14.2207 63.0621 14.176 63.3303 14.176 63.6655V64.2689L16.3129 64.2863C18.3298 64.3027 21.8995 64.2982 22.9498 64.278L23.4274 64.2689V63.6655C23.4274 63.3303 23.3828 63.0621 23.3269 63.0621C23.2716 63.0621 23.2263 62.9922 23.2263 62.9067C23.2263 62.7314 22.8659 62.3408 22.5464 62.1698Z"/>
<path fill-rule="evenodd" clip-rule="evenodd" d="M53.1187 43.5514C67.9082 43.5514 68.5511 43.5589 69.0321 43.7388C69.7612 44.0114 70.0866 44.1757 70.0866 44.2716C70.0866 44.3179 70.1553 44.3559 70.2394 44.3559C70.4081 44.3559 71.6956 45.5991 71.6956 45.762C71.6956 45.8185 71.7409 45.8645 71.7962 45.8645C71.848 45.8645 71.891 45.9242 71.8961 46L71.8971 46.0307C71.9023 46.1065 71.9454 46.1662 71.9972 46.1662C72.0491 46.1662 72.0921 46.2657 72.0973 46.392L72.0983 46.4433C72.1031 46.5612 72.141 46.6557 72.1881 46.6677L72.2086 46.6703C72.2558 46.6823 72.2936 46.7769 72.2985 46.8948L72.2994 46.9461C72.3046 47.0724 72.3476 47.1718 72.3994 47.1719C72.4657 47.1719 72.5 50.3399 72.5 56.4747C72.5 62.6095 72.4657 65.7775 72.3994 65.7775C72.3476 65.7775 72.3046 65.8769 72.2994 66.0033L72.2985 66.0545C72.2933 66.1809 72.2502 66.2803 72.1984 66.2803C72.1465 66.2803 72.1035 66.3599 72.0983 66.461L72.0973 66.502C72.0924 66.5964 72.0546 66.6718 72.0074 66.6815L71.987 66.6836C71.9398 66.6933 71.902 66.7688 71.8971 66.8632L71.8961 66.9042C71.891 67.0053 71.848 67.0848 71.7962 67.0849C71.7443 67.0849 71.7012 67.1446 71.6961 67.2204L71.6951 67.251C71.6899 67.3269 71.6469 67.3866 71.595 67.3866C71.5397 67.3866 71.4944 67.4331 71.4944 67.4898C71.4942 67.6286 70.6239 68.4928 70.4843 68.4928C70.4236 68.4929 70.3038 68.5629 70.2181 68.6486C70.1325 68.7343 69.932 68.8305 69.7727 68.8624C69.6136 68.8942 69.4833 68.9501 69.4833 68.9864C69.4831 69.0227 69.2683 69.1188 69.0056 69.2C68.2865 69.4223 38.3005 69.4223 37.5811 69.2C37.3184 69.1188 37.1035 69.0171 37.1034 68.9738C37.1034 68.9306 37.0129 68.8952 36.9023 68.8952C36.7985 68.8952 36.7125 68.8554 36.7022 68.8048L36.7 68.7844C36.6904 68.7372 36.6149 68.6993 36.5206 68.6945L36.4795 68.6935C36.3785 68.6887 36.2989 68.6486 36.2989 68.6002C36.2989 68.5486 36.2082 68.4777 36.0974 68.4425C35.8334 68.3586 34.8911 67.4385 34.8911 67.2645C34.8911 67.1901 34.8006 67.064 34.6899 66.9843C34.5793 66.9045 34.4889 66.7588 34.4889 66.6604C34.4889 66.562 34.4436 66.4815 34.3883 66.4815C34.3365 66.4815 34.2934 66.3621 34.2882 66.2105L34.2872 66.149C34.2821 65.9974 34.239 65.878 34.1872 65.878C34.1353 65.878 34.0923 65.7388 34.0871 65.5619L34.0861 65.4902C34.0809 65.3133 34.0379 65.1742 33.9861 65.1741C33.9198 65.1741 33.8855 62.2072 33.8855 56.4747C33.8855 50.7422 33.9198 47.7754 33.9861 47.7754C34.0379 47.7753 34.0809 47.6162 34.0861 47.414L34.0871 47.3321C34.0922 47.1299 34.1353 46.9708 34.1872 46.9707C34.239 46.9707 34.2821 46.8713 34.2872 46.7449L34.2882 46.6937C34.2934 46.5673 34.3365 46.468 34.3883 46.468C34.4401 46.4679 34.4832 46.3884 34.4884 46.2873L34.4894 46.2463C34.4946 46.1452 34.5375 46.0657 34.5894 46.0656C34.6447 46.0656 34.6899 46.0077 34.6899 45.937C34.69 45.8662 34.7805 45.7431 34.8911 45.6633C35.0017 45.5836 35.0921 45.456 35.0922 45.3798C35.0922 45.2328 35.6578 44.6577 35.8022 44.6577C35.8492 44.6576 36.0007 44.5445 36.1389 44.4062C36.2772 44.2679 36.4603 44.1548 36.5458 44.1548C36.6313 44.1548 36.7011 44.1095 36.7011 44.0542C36.7011 44.0024 36.7807 43.9593 36.8817 43.9541L36.9228 43.9531C37.0239 43.9479 37.1034 43.9049 37.1034 43.853C37.1035 43.8012 37.2227 43.7582 37.3743 43.7531L37.4358 43.7521C37.5874 43.7469 37.7066 43.7038 37.7067 43.652C37.7067 43.5854 42.9111 43.5514 53.1187 43.5514ZM43.1369 51.1947V61.3523H63.4497V51.1947H43.1369Z"/>
<path fill-rule="evenodd" clip-rule="evenodd" d="M36.2989 9.86022C36.2989 10.0262 36.2536 10.162 36.1983 10.162C36.1429 10.1621 36.1031 10.4714 36.0983 10.9243L36.0973 11.1092C36.0926 11.5622 36.0527 11.8716 35.9973 11.8717C35.9418 11.8717 35.9019 12.181 35.8972 12.6341L35.8962 12.8189C35.8914 13.2719 35.8515 13.5814 35.7961 13.5814C35.7411 13.5814 35.7008 13.876 35.696 14.2996L35.695 14.4722C35.6902 14.8957 35.65 15.1904 35.595 15.1905C35.5376 15.1905 35.4945 15.4922 35.4945 15.8945C35.4945 16.3898 35.4571 16.599 35.3687 16.6C35.2836 16.6011 35.2916 16.6359 35.3939 16.7082C35.5074 16.7886 35.5136 16.8276 35.419 16.8659C35.3344 16.9003 35.2933 17.1604 35.2933 17.6628C35.2933 18.0931 35.2508 18.4087 35.1927 18.4087C35.1373 18.4088 35.0974 18.7182 35.0927 19.1712L35.0917 19.356C35.0869 19.809 35.0471 20.1183 34.9917 20.1184C34.9362 20.1184 34.8964 20.4278 34.8916 20.8808L34.8906 21.0657C34.886 21.5036 34.8486 21.8074 34.796 21.8272L34.785 21.8291C34.7325 21.8489 34.695 22.1526 34.6904 22.5905L34.6895 22.7754C34.6847 23.2284 34.6448 23.5379 34.5894 23.5379C34.5344 23.538 34.4942 23.8326 34.4894 24.2561L34.4884 24.4287C34.4836 24.8523 34.4433 25.1469 34.3883 25.147C34.3329 25.147 34.293 25.4564 34.2882 25.9094L34.2872 26.0942C34.2825 26.5473 34.2426 26.8566 34.1872 26.8566C34.1322 26.8567 34.0919 27.1514 34.0871 27.5749L34.0861 27.7476C34.0814 28.157 34.0437 28.446 33.9915 28.4648L33.9807 28.4668C33.9249 28.4867 33.8855 28.8156 33.8855 29.2704C33.8855 29.7397 33.8436 30.0749 33.785 30.0749C33.7258 30.0749 33.6844 30.4269 33.6844 30.9297C33.6844 31.4169 33.6455 31.7624 33.5893 31.7835L33.5783 31.7857C33.5217 31.8079 33.4833 32.1702 33.4833 32.6897C33.4833 33.226 33.4424 33.5948 33.3827 33.5949C33.3282 33.5949 33.2875 33.8748 33.2826 34.2689L33.2817 34.4294C33.2768 34.8235 33.2361 35.1035 33.1816 35.1035C33.1262 35.1035 33.0863 35.4129 33.0815 35.8659L33.0805 36.0507C33.0757 36.5038 33.0359 36.8131 32.9804 36.8131C32.9213 36.8133 32.8799 37.1653 32.8799 37.668C32.8799 38.1551 32.841 38.5007 32.7849 38.5218L32.7739 38.5238C32.7181 38.544 32.6788 38.8728 32.6788 39.3274C32.6788 39.7822 32.6394 40.111 32.5836 40.131L32.5728 40.1329C32.5206 40.1517 32.4828 40.4407 32.4781 40.8502L32.4771 41.0228C32.4725 41.4323 32.4347 41.7213 32.3826 41.7401L32.3718 41.7421C32.316 41.7621 32.2766 42.0909 32.2766 42.5456C32.2766 43.015 32.2346 43.3503 32.176 43.3503C32.1169 43.3503 32.0754 43.7022 32.0754 44.2051C32.0754 44.6923 32.0365 45.0378 31.9803 45.0589L31.9693 45.0611C31.9127 45.0833 31.8744 45.4455 31.8744 45.9651C31.8744 46.5013 31.8334 46.8701 31.7738 46.8702C31.7152 46.8702 31.6732 47.2054 31.6732 47.6748C31.6732 48.1296 31.6338 48.4584 31.578 48.4783L31.5672 48.4803C31.5151 48.499 31.4772 48.788 31.4726 49.1976L31.4716 49.3703C31.4668 49.7937 31.4265 50.0883 31.3716 50.0884C31.3163 50.0884 31.271 50.3148 31.271 50.5913C31.271 50.8593 31.2285 51.0801 31.1755 51.0935L31.1602 51.0953C31.1096 51.1071 31.0698 51.2052 31.0698 51.3234C31.0698 51.4495 30.9794 51.6178 30.8688 51.6976C30.7582 51.7773 30.6676 51.9034 30.6676 51.9778C30.6675 52.1519 29.7253 53.0719 29.4613 53.1558C29.3505 53.191 29.2599 53.2618 29.2598 53.3134C29.2598 53.365 29.1731 53.4073 29.067 53.4073C28.9611 53.4073 28.8554 53.4638 28.8324 53.533C28.7989 53.6319 26.6896 53.671 18.9442 53.7164C9.42022 53.7721 8.3436 53.7485 8.34357 53.4834C8.34357 53.4415 8.2749 53.4073 8.19084 53.4073C7.99198 53.4072 6.73462 52.1497 6.73462 51.9509C6.73462 51.8668 6.68943 51.7982 6.63414 51.7982C6.58229 51.7982 6.53923 51.6788 6.53406 51.5272L6.53308 51.4657C6.5279 51.3141 6.48484 51.1947 6.43299 51.1947C6.37768 51.1947 6.33242 50.9685 6.33241 50.6919C6.33241 50.4153 6.28714 50.189 6.23183 50.189C6.17689 50.1889 6.13666 49.8943 6.13185 49.4708L6.13086 49.2982C6.1262 48.8886 6.08836 48.5996 6.03618 48.5809L6.02538 48.5789C5.9696 48.5589 5.9302 48.2301 5.9302 47.7754C5.9302 47.3206 5.8908 46.9917 5.83502 46.9717L5.82422 46.9698C5.77204 46.951 5.7342 46.6621 5.72954 46.2526L5.72855 46.0799C5.7239 45.6704 5.68613 45.3814 5.63397 45.3626L5.62316 45.3606C5.57098 45.3419 5.53314 45.053 5.52848 44.6434L5.5275 44.4707C5.52284 44.0612 5.48499 43.7722 5.43281 43.7535L5.42201 43.7516C5.36623 43.7316 5.32683 43.4027 5.32683 42.9479C5.32683 42.4931 5.28744 42.1644 5.23166 42.1444L5.22085 42.1424C5.16869 42.1237 5.13092 41.8346 5.12627 41.4251L5.12529 41.2525C5.12046 40.829 5.08015 40.5344 5.0252 40.5343C4.96607 40.5343 4.92462 40.1822 4.92462 39.6794C4.92462 39.1922 4.88574 38.8466 4.82955 38.8255L4.81854 38.8236C4.76236 38.8025 4.72347 38.4569 4.72347 37.9697C4.72347 37.4669 4.68202 37.1148 4.62289 37.1148C4.56842 37.1147 4.52777 36.8348 4.5229 36.4409L4.52192 36.2804C4.51704 35.8863 4.47632 35.6063 4.42183 35.6063C4.36321 35.6063 4.32126 35.2711 4.32126 34.8018C4.32126 34.347 4.28186 34.0181 4.22608 33.9981L4.21528 33.9962C4.1631 33.9774 4.12526 33.6885 4.12059 33.2789L4.11961 33.1063C4.11496 32.6968 4.07719 32.4078 4.02502 32.389L4.01422 32.387C3.96204 32.3683 3.9242 32.0794 3.91954 31.6698L3.91855 31.4971C3.91373 31.0736 3.87343 30.779 3.81847 30.779C3.76303 30.779 3.72315 30.4695 3.71838 30.0165L3.7174 29.8316C3.71263 29.3786 3.67275 29.0692 3.61731 29.0692C3.56237 29.0691 3.52214 28.7745 3.51732 28.351L3.51634 28.1783C3.51168 27.7688 3.47383 27.4798 3.42166 27.4611L3.41085 27.4591C3.35507 27.4391 3.31568 27.1103 3.31568 26.6555C3.31567 26.1861 3.27372 25.851 3.2151 25.851C3.16062 25.8509 3.11989 25.571 3.11501 25.177L3.11403 25.0165C3.10916 24.6225 3.06851 24.3426 3.01404 24.3424C2.95861 24.3424 2.91873 24.033 2.91396 23.58L2.91297 23.3952C2.90821 22.9421 2.86832 22.6327 2.81289 22.6327C2.7584 22.6327 2.71768 22.3527 2.7128 21.9587L2.71182 21.7982C2.70695 21.4041 2.66623 21.1241 2.61173 21.1241C2.55262 21.124 2.51116 20.7721 2.51116 20.2693C2.51116 19.7823 2.47234 19.4367 2.41618 19.4155L2.40518 19.4135C2.34942 19.3934 2.3101 19.0645 2.3101 18.6099C2.3101 18.1551 2.2707 17.8263 2.21492 17.8063L2.20412 17.8044C2.15194 17.7857 2.1141 17.4966 2.10944 17.0871L2.10845 16.9144C2.10379 16.5048 2.06595 16.2159 2.01377 16.1972L2.00296 16.1952C1.9508 16.1764 1.91303 15.8874 1.90838 15.4779L1.9074 15.3052C1.90257 14.8817 1.86226 14.5871 1.80731 14.5871C1.75282 14.5871 1.7121 14.3071 1.70722 13.913L1.70624 13.7525C1.70136 13.3584 1.66065 13.0785 1.60616 13.0785C1.5512 13.0784 1.51089 12.7838 1.50607 12.3603L1.50509 12.1876C1.50027 11.7641 1.46004 11.4695 1.4051 11.4694C1.34517 11.4694 1.30452 11.0839 1.30452 10.514V9.55849H36.2989V9.86022ZM10.9581 19.2133V37.316H26.4442V19.2133H10.9581Z"/>
<path d="M53.1928 32.8909C63.9858 32.8909 69.483 32.9248 69.4833 32.9915C69.4833 33.0468 69.5526 33.092 69.6374 33.092C69.8628 33.092 70.4888 33.7551 70.4888 33.9939C70.4889 34.1063 70.5341 34.1983 70.5894 34.1983C70.6544 34.1984 70.69 35.355 70.69 37.4669C70.69 39.5787 70.6544 40.7353 70.5894 40.7354C70.5341 40.7354 70.4888 40.8231 70.4888 40.9304C70.4888 41.0832 70.3964 41.1385 70.0615 41.1862C69.8264 41.2197 62.1192 41.2337 52.9341 41.2174C37.458 41.1901 36.2219 41.1756 36.0654 41.0191C35.914 40.8676 35.8967 40.4942 35.8967 37.3735C35.8967 35.1226 35.9322 33.8966 35.9973 33.8966C36.0525 33.8965 36.0978 33.8287 36.0978 33.7458C36.0978 33.6628 36.143 33.595 36.1983 33.5949C36.2536 33.5949 36.2989 33.5326 36.2989 33.4562C36.2989 33.38 36.4347 33.2613 36.6006 33.1926C36.7665 33.1239 36.9023 33.0279 36.9023 32.9793C36.9036 32.9288 43.8998 32.8909 53.1928 32.8909Z"/>
<path d="M36.02 2.7314C36.5209 2.98694 36.7011 3.1549 36.7011 3.36629C36.7011 3.45318 36.7464 3.52431 36.8017 3.52433C36.8608 3.52433 36.9023 3.87629 36.9023 4.37914C36.9023 4.88199 36.8608 5.23395 36.8017 5.23395C36.7431 5.23403 36.7011 5.56926 36.7011 6.03857C36.7011 6.50782 36.6592 6.84294 36.6006 6.84309C36.5453 6.84309 36.5001 6.95626 36.5 7.09453V7.34598H0.90231V6.7928C0.902306 6.48864 0.857025 6.2398 0.801732 6.23972C0.743609 6.23972 0.701155 5.92117 0.701155 5.48539C0.701153 5.04964 0.658699 4.73116 0.600577 4.73116C0.545275 4.73114 0.5 4.59536 0.5 4.42943C0.500001 4.2635 0.545276 4.12771 0.600577 4.1277C0.655885 4.1277 0.701155 3.9919 0.701155 3.82596C0.701163 3.66004 0.74643 3.52433 0.801732 3.52433C0.857028 3.52431 0.90231 3.46635 0.90231 3.39566C0.902316 3.32486 0.998294 3.20043 1.11574 3.11907C1.23309 3.03771 1.38017 2.9256 1.44262 2.86999C1.80512 2.54648 2.13584 2.54002 18.8811 2.52926L35.603 2.51855L36.02 2.7314Z"/>
</mask>
<path fill-rule="evenodd" clip-rule="evenodd" d="M28.4553 58.2346C28.4553 59.6426 28.4919 60.4472 28.5559 60.4472C28.6212 60.4474 28.6565 61.7882 28.6565 64.2689C28.6565 66.7495 28.6212 68.0904 28.5559 68.0905C28.5006 68.0905 28.4553 68.1597 28.4553 68.2441C28.4553 68.4961 27.6307 69.2403 27.1983 69.3786C26.881 69.4801 25.094 69.4989 18.7515 69.4682C14.3272 69.4466 10.5376 69.3945 10.3297 69.3523C10.1223 69.31 9.95251 69.2351 9.95251 69.1859C9.95251 69.1366 9.8826 69.0963 9.79713 69.0963C9.62212 69.0962 9.14809 68.6589 9.14809 68.4974C9.14808 68.4395 9.10281 68.3923 9.04751 68.3923C8.99221 68.3923 8.94693 68.3017 8.94693 68.1911C8.94692 68.0805 8.90166 67.9901 8.84636 67.9901C8.78122 67.9895 8.74588 66.6989 8.74588 64.3192C8.74588 61.9395 8.78122 60.6489 8.84636 60.6484C8.91051 60.6484 8.94693 59.8103 8.94693 58.3352V56.0221H28.4553V58.2346Z" fill="#8FD6C1"/>
<path fill-rule="evenodd" clip-rule="evenodd" d="M22.5464 62.1698C22.2483 62.0102 15.3112 62.017 15.0342 62.1771C14.7168 62.3612 14.3771 62.7383 14.3771 62.9067C14.3771 62.9922 14.3319 63.0621 14.2766 63.0621C14.2207 63.0621 14.176 63.3303 14.176 63.6655V64.2689L16.3129 64.2863C18.3298 64.3027 21.8995 64.2982 22.9498 64.278L23.4274 64.2689V63.6655C23.4274 63.3303 23.3828 63.0621 23.3269 63.0621C23.2716 63.0621 23.2263 62.9922 23.2263 62.9067C23.2263 62.7314 22.8659 62.3408 22.5464 62.1698Z" fill="#8FD6C1"/>
<path fill-rule="evenodd" clip-rule="evenodd" d="M53.1187 43.5514C67.9082 43.5514 68.5511 43.5589 69.0321 43.7388C69.7612 44.0114 70.0866 44.1757 70.0866 44.2716C70.0866 44.3179 70.1553 44.3559 70.2394 44.3559C70.4081 44.3559 71.6956 45.5991 71.6956 45.762C71.6956 45.8185 71.7409 45.8645 71.7962 45.8645C71.848 45.8645 71.891 45.9242 71.8961 46L71.8971 46.0307C71.9023 46.1065 71.9454 46.1662 71.9972 46.1662C72.0491 46.1662 72.0921 46.2657 72.0973 46.392L72.0983 46.4433C72.1031 46.5612 72.141 46.6557 72.1881 46.6677L72.2086 46.6703C72.2558 46.6823 72.2936 46.7769 72.2985 46.8948L72.2994 46.9461C72.3046 47.0724 72.3476 47.1718 72.3994 47.1719C72.4657 47.1719 72.5 50.3399 72.5 56.4747C72.5 62.6095 72.4657 65.7775 72.3994 65.7775C72.3476 65.7775 72.3046 65.8769 72.2994 66.0033L72.2985 66.0545C72.2933 66.1809 72.2502 66.2803 72.1984 66.2803C72.1465 66.2803 72.1035 66.3599 72.0983 66.461L72.0973 66.502C72.0924 66.5964 72.0546 66.6718 72.0074 66.6815L71.987 66.6836C71.9398 66.6933 71.902 66.7688 71.8971 66.8632L71.8961 66.9042C71.891 67.0053 71.848 67.0848 71.7962 67.0849C71.7443 67.0849 71.7012 67.1446 71.6961 67.2204L71.6951 67.251C71.6899 67.3269 71.6469 67.3866 71.595 67.3866C71.5397 67.3866 71.4944 67.4331 71.4944 67.4898C71.4942 67.6286 70.6239 68.4928 70.4843 68.4928C70.4236 68.4929 70.3038 68.5629 70.2181 68.6486C70.1325 68.7343 69.932 68.8305 69.7727 68.8624C69.6136 68.8942 69.4833 68.9501 69.4833 68.9864C69.4831 69.0227 69.2683 69.1188 69.0056 69.2C68.2865 69.4223 38.3005 69.4223 37.5811 69.2C37.3184 69.1188 37.1035 69.0171 37.1034 68.9738C37.1034 68.9306 37.0129 68.8952 36.9023 68.8952C36.7985 68.8952 36.7125 68.8554 36.7022 68.8048L36.7 68.7844C36.6904 68.7372 36.6149 68.6993 36.5206 68.6945L36.4795 68.6935C36.3785 68.6887 36.2989 68.6486 36.2989 68.6002C36.2989 68.5486 36.2082 68.4777 36.0974 68.4425C35.8334 68.3586 34.8911 67.4385 34.8911 67.2645C34.8911 67.1901 34.8006 67.064 34.6899 66.9843C34.5793 66.9045 34.4889 66.7588 34.4889 66.6604C34.4889 66.562 34.4436 66.4815 34.3883 66.4815C34.3365 66.4815 34.2934 66.3621 34.2882 66.2105L34.2872 66.149C34.2821 65.9974 34.239 65.878 34.1872 65.878C34.1353 65.878 34.0923 65.7388 34.0871 65.5619L34.0861 65.4902C34.0809 65.3133 34.0379 65.1742 33.9861 65.1741C33.9198 65.1741 33.8855 62.2072 33.8855 56.4747C33.8855 50.7422 33.9198 47.7754 33.9861 47.7754C34.0379 47.7753 34.0809 47.6162 34.0861 47.414L34.0871 47.3321C34.0922 47.1299 34.1353 46.9708 34.1872 46.9707C34.239 46.9707 34.2821 46.8713 34.2872 46.7449L34.2882 46.6937C34.2934 46.5673 34.3365 46.468 34.3883 46.468C34.4401 46.4679 34.4832 46.3884 34.4884 46.2873L34.4894 46.2463C34.4946 46.1452 34.5375 46.0657 34.5894 46.0656C34.6447 46.0656 34.6899 46.0077 34.6899 45.937C34.69 45.8662 34.7805 45.7431 34.8911 45.6633C35.0017 45.5836 35.0921 45.456 35.0922 45.3798C35.0922 45.2328 35.6578 44.6577 35.8022 44.6577C35.8492 44.6576 36.0007 44.5445 36.1389 44.4062C36.2772 44.2679 36.4603 44.1548 36.5458 44.1548C36.6313 44.1548 36.7011 44.1095 36.7011 44.0542C36.7011 44.0024 36.7807 43.9593 36.8817 43.9541L36.9228 43.9531C37.0239 43.9479 37.1034 43.9049 37.1034 43.853C37.1035 43.8012 37.2227 43.7582 37.3743 43.7531L37.4358 43.7521C37.5874 43.7469 37.7066 43.7038 37.7067 43.652C37.7067 43.5854 42.9111 43.5514 53.1187 43.5514ZM43.1369 51.1947V61.3523H63.4497V51.1947H43.1369Z" fill="#8FD6C1"/>
<path fill-rule="evenodd" clip-rule="evenodd" d="M36.2989 9.86022C36.2989 10.0262 36.2536 10.162 36.1983 10.162C36.1429 10.1621 36.1031 10.4714 36.0983 10.9243L36.0973 11.1092C36.0926 11.5622 36.0527 11.8716 35.9973 11.8717C35.9418 11.8717 35.9019 12.181 35.8972 12.6341L35.8962 12.8189C35.8914 13.2719 35.8515 13.5814 35.7961 13.5814C35.7411 13.5814 35.7008 13.876 35.696 14.2996L35.695 14.4722C35.6902 14.8957 35.65 15.1904 35.595 15.1905C35.5376 15.1905 35.4945 15.4922 35.4945 15.8945C35.4945 16.3898 35.4571 16.599 35.3687 16.6C35.2836 16.6011 35.2916 16.6359 35.3939 16.7082C35.5074 16.7886 35.5136 16.8276 35.419 16.8659C35.3344 16.9003 35.2933 17.1604 35.2933 17.6628C35.2933 18.0931 35.2508 18.4087 35.1927 18.4087C35.1373 18.4088 35.0974 18.7182 35.0927 19.1712L35.0917 19.356C35.0869 19.809 35.0471 20.1183 34.9917 20.1184C34.9362 20.1184 34.8964 20.4278 34.8916 20.8808L34.8906 21.0657C34.886 21.5036 34.8486 21.8074 34.796 21.8272L34.785 21.8291C34.7325 21.8489 34.695 22.1526 34.6904 22.5905L34.6895 22.7754C34.6847 23.2284 34.6448 23.5379 34.5894 23.5379C34.5344 23.538 34.4942 23.8326 34.4894 24.2561L34.4884 24.4287C34.4836 24.8523 34.4433 25.1469 34.3883 25.147C34.3329 25.147 34.293 25.4564 34.2882 25.9094L34.2872 26.0942C34.2825 26.5473 34.2426 26.8566 34.1872 26.8566C34.1322 26.8567 34.0919 27.1514 34.0871 27.5749L34.0861 27.7476C34.0814 28.157 34.0437 28.446 33.9915 28.4648L33.9807 28.4668C33.9249 28.4867 33.8855 28.8156 33.8855 29.2704C33.8855 29.7397 33.8436 30.0749 33.785 30.0749C33.7258 30.0749 33.6844 30.4269 33.6844 30.9297C33.6844 31.4169 33.6455 31.7624 33.5893 31.7835L33.5783 31.7857C33.5217 31.8079 33.4833 32.1702 33.4833 32.6897C33.4833 33.226 33.4424 33.5948 33.3827 33.5949C33.3282 33.5949 33.2875 33.8748 33.2826 34.2689L33.2817 34.4294C33.2768 34.8235 33.2361 35.1035 33.1816 35.1035C33.1262 35.1035 33.0863 35.4129 33.0815 35.8659L33.0805 36.0507C33.0757 36.5038 33.0359 36.8131 32.9804 36.8131C32.9213 36.8133 32.8799 37.1653 32.8799 37.668C32.8799 38.1551 32.841 38.5007 32.7849 38.5218L32.7739 38.5238C32.7181 38.544 32.6788 38.8728 32.6788 39.3274C32.6788 39.7822 32.6394 40.111 32.5836 40.131L32.5728 40.1329C32.5206 40.1517 32.4828 40.4407 32.4781 40.8502L32.4771 41.0228C32.4725 41.4323 32.4347 41.7213 32.3826 41.7401L32.3718 41.7421C32.316 41.7621 32.2766 42.0909 32.2766 42.5456C32.2766 43.015 32.2346 43.3503 32.176 43.3503C32.1169 43.3503 32.0754 43.7022 32.0754 44.2051C32.0754 44.6923 32.0365 45.0378 31.9803 45.0589L31.9693 45.0611C31.9127 45.0833 31.8744 45.4455 31.8744 45.9651C31.8744 46.5013 31.8334 46.8701 31.7738 46.8702C31.7152 46.8702 31.6732 47.2054 31.6732 47.6748C31.6732 48.1296 31.6338 48.4584 31.578 48.4783L31.5672 48.4803C31.5151 48.499 31.4772 48.788 31.4726 49.1976L31.4716 49.3703C31.4668 49.7937 31.4265 50.0883 31.3716 50.0884C31.3163 50.0884 31.271 50.3148 31.271 50.5913C31.271 50.8593 31.2285 51.0801 31.1755 51.0935L31.1602 51.0953C31.1096 51.1071 31.0698 51.2052 31.0698 51.3234C31.0698 51.4495 30.9794 51.6178 30.8688 51.6976C30.7582 51.7773 30.6676 51.9034 30.6676 51.9778C30.6675 52.1519 29.7253 53.0719 29.4613 53.1558C29.3505 53.191 29.2599 53.2618 29.2598 53.3134C29.2598 53.365 29.1731 53.4073 29.067 53.4073C28.9611 53.4073 28.8554 53.4638 28.8324 53.533C28.7989 53.6319 26.6896 53.671 18.9442 53.7164C9.42022 53.7721 8.3436 53.7485 8.34357 53.4834C8.34357 53.4415 8.2749 53.4073 8.19084 53.4073C7.99198 53.4072 6.73462 52.1497 6.73462 51.9509C6.73462 51.8668 6.68943 51.7982 6.63414 51.7982C6.58229 51.7982 6.53923 51.6788 6.53406 51.5272L6.53308 51.4657C6.5279 51.3141 6.48484 51.1947 6.43299 51.1947C6.37768 51.1947 6.33242 50.9685 6.33241 50.6919C6.33241 50.4153 6.28714 50.189 6.23183 50.189C6.17689 50.1889 6.13666 49.8943 6.13185 49.4708L6.13086 49.2982C6.1262 48.8886 6.08836 48.5996 6.03618 48.5809L6.02538 48.5789C5.9696 48.5589 5.9302 48.2301 5.9302 47.7754C5.9302 47.3206 5.8908 46.9917 5.83502 46.9717L5.82422 46.9698C5.77204 46.951 5.7342 46.6621 5.72954 46.2526L5.72855 46.0799C5.7239 45.6704 5.68613 45.3814 5.63397 45.3626L5.62316 45.3606C5.57098 45.3419 5.53314 45.053 5.52848 44.6434L5.5275 44.4707C5.52284 44.0612 5.48499 43.7722 5.43281 43.7535L5.42201 43.7516C5.36623 43.7316 5.32683 43.4027 5.32683 42.9479C5.32683 42.4931 5.28744 42.1644 5.23166 42.1444L5.22085 42.1424C5.16869 42.1237 5.13092 41.8346 5.12627 41.4251L5.12529 41.2525C5.12046 40.829 5.08015 40.5344 5.0252 40.5343C4.96607 40.5343 4.92462 40.1822 4.92462 39.6794C4.92462 39.1922 4.88574 38.8466 4.82955 38.8255L4.81854 38.8236C4.76236 38.8025 4.72347 38.4569 4.72347 37.9697C4.72347 37.4669 4.68202 37.1148 4.62289 37.1148C4.56842 37.1147 4.52777 36.8348 4.5229 36.4409L4.52192 36.2804C4.51704 35.8863 4.47632 35.6063 4.42183 35.6063C4.36321 35.6063 4.32126 35.2711 4.32126 34.8018C4.32126 34.347 4.28186 34.0181 4.22608 33.9981L4.21528 33.9962C4.1631 33.9774 4.12526 33.6885 4.12059 33.2789L4.11961 33.1063C4.11496 32.6968 4.07719 32.4078 4.02502 32.389L4.01422 32.387C3.96204 32.3683 3.9242 32.0794 3.91954 31.6698L3.91855 31.4971C3.91373 31.0736 3.87343 30.779 3.81847 30.779C3.76303 30.779 3.72315 30.4695 3.71838 30.0165L3.7174 29.8316C3.71263 29.3786 3.67275 29.0692 3.61731 29.0692C3.56237 29.0691 3.52214 28.7745 3.51732 28.351L3.51634 28.1783C3.51168 27.7688 3.47383 27.4798 3.42166 27.4611L3.41085 27.4591C3.35507 27.4391 3.31568 27.1103 3.31568 26.6555C3.31567 26.1861 3.27372 25.851 3.2151 25.851C3.16062 25.8509 3.11989 25.571 3.11501 25.177L3.11403 25.0165C3.10916 24.6225 3.06851 24.3426 3.01404 24.3424C2.95861 24.3424 2.91873 24.033 2.91396 23.58L2.91297 23.3952C2.90821 22.9421 2.86832 22.6327 2.81289 22.6327C2.7584 22.6327 2.71768 22.3527 2.7128 21.9587L2.71182 21.7982C2.70695 21.4041 2.66623 21.1241 2.61173 21.1241C2.55262 21.124 2.51116 20.7721 2.51116 20.2693C2.51116 19.7823 2.47234 19.4367 2.41618 19.4155L2.40518 19.4135C2.34942 19.3934 2.3101 19.0645 2.3101 18.6099C2.3101 18.1551 2.2707 17.8263 2.21492 17.8063L2.20412 17.8044C2.15194 17.7857 2.1141 17.4966 2.10944 17.0871L2.10845 16.9144C2.10379 16.5048 2.06595 16.2159 2.01377 16.1972L2.00296 16.1952C1.9508 16.1764 1.91303 15.8874 1.90838 15.4779L1.9074 15.3052C1.90257 14.8817 1.86226 14.5871 1.80731 14.5871C1.75282 14.5871 1.7121 14.3071 1.70722 13.913L1.70624 13.7525C1.70136 13.3584 1.66065 13.0785 1.60616 13.0785C1.5512 13.0784 1.51089 12.7838 1.50607 12.3603L1.50509 12.1876C1.50027 11.7641 1.46004 11.4695 1.4051 11.4694C1.34517 11.4694 1.30452 11.0839 1.30452 10.514V9.55849H36.2989V9.86022ZM10.9581 19.2133V37.316H26.4442V19.2133H10.9581Z" fill="#8FD6C1"/>
<path d="M53.1928 32.8909C63.9858 32.8909 69.483 32.9248 69.4833 32.9915C69.4833 33.0468 69.5526 33.092 69.6374 33.092C69.8628 33.092 70.4888 33.7551 70.4888 33.9939C70.4889 34.1063 70.5341 34.1983 70.5894 34.1983C70.6544 34.1984 70.69 35.355 70.69 37.4669C70.69 39.5787 70.6544 40.7353 70.5894 40.7354C70.5341 40.7354 70.4888 40.8231 70.4888 40.9304C70.4888 41.0832 70.3964 41.1385 70.0615 41.1862C69.8264 41.2197 62.1192 41.2337 52.9341 41.2174C37.458 41.1901 36.2219 41.1756 36.0654 41.0191C35.914 40.8676 35.8967 40.4942 35.8967 37.3735C35.8967 35.1226 35.9322 33.8966 35.9973 33.8966C36.0525 33.8965 36.0978 33.8287 36.0978 33.7458C36.0978 33.6628 36.143 33.595 36.1983 33.5949C36.2536 33.5949 36.2989 33.5326 36.2989 33.4562C36.2989 33.38 36.4347 33.2613 36.6006 33.1926C36.7665 33.1239 36.9023 33.0279 36.9023 32.9793C36.9036 32.9288 43.8998 32.8909 53.1928 32.8909Z" fill="#8FD6C1"/>
<path d="M36.02 2.7314C36.5209 2.98694 36.7011 3.1549 36.7011 3.36629C36.7011 3.45318 36.7464 3.52431 36.8017 3.52433C36.8608 3.52433 36.9023 3.87629 36.9023 4.37914C36.9023 4.88199 36.8608 5.23395 36.8017 5.23395C36.7431 5.23403 36.7011 5.56926 36.7011 6.03857C36.7011 6.50782 36.6592 6.84294 36.6006 6.84309C36.5453 6.84309 36.5001 6.95626 36.5 7.09453V7.34598H0.90231V6.7928C0.902306 6.48864 0.857025 6.2398 0.801732 6.23972C0.743609 6.23972 0.701155 5.92117 0.701155 5.48539C0.701153 5.04964 0.658699 4.73116 0.600577 4.73116C0.545275 4.73114 0.5 4.59536 0.5 4.42943C0.500001 4.2635 0.545276 4.12771 0.600577 4.1277C0.655885 4.1277 0.701155 3.9919 0.701155 3.82596C0.701163 3.66004 0.74643 3.52433 0.801732 3.52433C0.857028 3.52431 0.90231 3.46635 0.90231 3.39566C0.902316 3.32486 0.998294 3.20043 1.11574 3.11907C1.23309 3.03771 1.38017 2.9256 1.44262 2.86999C1.80512 2.54648 2.13584 2.54002 18.8811 2.52926L35.603 2.51855L36.02 2.7314Z" fill="#8FD6C1"/>
<path fill-rule="evenodd" clip-rule="evenodd" d="M28.4553 58.2346C28.4553 59.6426 28.4919 60.4472 28.5559 60.4472C28.6212 60.4474 28.6565 61.7882 28.6565 64.2689C28.6565 66.7495 28.6212 68.0904 28.5559 68.0905C28.5006 68.0905 28.4553 68.1597 28.4553 68.2441C28.4553 68.4961 27.6307 69.2403 27.1983 69.3786C26.881 69.4801 25.094 69.4989 18.7515 69.4682C14.3272 69.4466 10.5376 69.3945 10.3297 69.3523C10.1223 69.31 9.95251 69.2351 9.95251 69.1859C9.95251 69.1366 9.8826 69.0963 9.79713 69.0963C9.62212 69.0962 9.14809 68.6589 9.14809 68.4974C9.14808 68.4395 9.10281 68.3923 9.04751 68.3923C8.99221 68.3923 8.94693 68.3017 8.94693 68.1911C8.94692 68.0805 8.90166 67.9901 8.84636 67.9901C8.78122 67.9895 8.74588 66.6989 8.74588 64.3192C8.74588 61.9395 8.78122 60.6489 8.84636 60.6484C8.91051 60.6484 8.94693 59.8103 8.94693 58.3352V56.0221H28.4553V58.2346Z" stroke="#72CAB0" stroke-width="6" mask="url(#path-1-inside-1_10116_457)"/>
<path fill-rule="evenodd" clip-rule="evenodd" d="M22.5464 62.1698C22.2483 62.0102 15.3112 62.017 15.0342 62.1771C14.7168 62.3612 14.3771 62.7383 14.3771 62.9067C14.3771 62.9922 14.3319 63.0621 14.2766 63.0621C14.2207 63.0621 14.176 63.3303 14.176 63.6655V64.2689L16.3129 64.2863C18.3298 64.3027 21.8995 64.2982 22.9498 64.278L23.4274 64.2689V63.6655C23.4274 63.3303 23.3828 63.0621 23.3269 63.0621C23.2716 63.0621 23.2263 62.9922 23.2263 62.9067C23.2263 62.7314 22.8659 62.3408 22.5464 62.1698Z" stroke="#72CAB0" stroke-width="6" mask="url(#path-1-inside-1_10116_457)"/>
<path fill-rule="evenodd" clip-rule="evenodd" d="M53.1187 43.5514C67.9082 43.5514 68.5511 43.5589 69.0321 43.7388C69.7612 44.0114 70.0866 44.1757 70.0866 44.2716C70.0866 44.3179 70.1553 44.3559 70.2394 44.3559C70.4081 44.3559 71.6956 45.5991 71.6956 45.762C71.6956 45.8185 71.7409 45.8645 71.7962 45.8645C71.848 45.8645 71.891 45.9242 71.8961 46L71.8971 46.0307C71.9023 46.1065 71.9454 46.1662 71.9972 46.1662C72.0491 46.1662 72.0921 46.2657 72.0973 46.392L72.0983 46.4433C72.1031 46.5612 72.141 46.6557 72.1881 46.6677L72.2086 46.6703C72.2558 46.6823 72.2936 46.7769 72.2985 46.8948L72.2994 46.9461C72.3046 47.0724 72.3476 47.1718 72.3994 47.1719C72.4657 47.1719 72.5 50.3399 72.5 56.4747C72.5 62.6095 72.4657 65.7775 72.3994 65.7775C72.3476 65.7775 72.3046 65.8769 72.2994 66.0033L72.2985 66.0545C72.2933 66.1809 72.2502 66.2803 72.1984 66.2803C72.1465 66.2803 72.1035 66.3599 72.0983 66.461L72.0973 66.502C72.0924 66.5964 72.0546 66.6718 72.0074 66.6815L71.987 66.6836C71.9398 66.6933 71.902 66.7688 71.8971 66.8632L71.8961 66.9042C71.891 67.0053 71.848 67.0848 71.7962 67.0849C71.7443 67.0849 71.7012 67.1446 71.6961 67.2204L71.6951 67.251C71.6899 67.3269 71.6469 67.3866 71.595 67.3866C71.5397 67.3866 71.4944 67.4331 71.4944 67.4898C71.4942 67.6286 70.6239 68.4928 70.4843 68.4928C70.4236 68.4929 70.3038 68.5629 70.2181 68.6486C70.1325 68.7343 69.932 68.8305 69.7727 68.8624C69.6136 68.8942 69.4833 68.9501 69.4833 68.9864C69.4831 69.0227 69.2683 69.1188 69.0056 69.2C68.2865 69.4223 38.3005 69.4223 37.5811 69.2C37.3184 69.1188 37.1035 69.0171 37.1034 68.9738C37.1034 68.9306 37.0129 68.8952 36.9023 68.8952C36.7985 68.8952 36.7125 68.8554 36.7022 68.8048L36.7 68.7844C36.6904 68.7372 36.6149 68.6993 36.5206 68.6945L36.4795 68.6935C36.3785 68.6887 36.2989 68.6486 36.2989 68.6002C36.2989 68.5486 36.2082 68.4777 36.0974 68.4425C35.8334 68.3586 34.8911 67.4385 34.8911 67.2645C34.8911 67.1901 34.8006 67.064 34.6899 66.9843C34.5793 66.9045 34.4889 66.7588 34.4889 66.6604C34.4889 66.562 34.4436 66.4815 34.3883 66.4815C34.3365 66.4815 34.2934 66.3621 34.2882 66.2105L34.2872 66.149C34.2821 65.9974 34.239 65.878 34.1872 65.878C34.1353 65.878 34.0923 65.7388 34.0871 65.5619L34.0861 65.4902C34.0809 65.3133 34.0379 65.1742 33.9861 65.1741C33.9198 65.1741 33.8855 62.2072 33.8855 56.4747C33.8855 50.7422 33.9198 47.7754 33.9861 47.7754C34.0379 47.7753 34.0809 47.6162 34.0861 47.414L34.0871 47.3321C34.0922 47.1299 34.1353 46.9708 34.1872 46.9707C34.239 46.9707 34.2821 46.8713 34.2872 46.7449L34.2882 46.6937C34.2934 46.5673 34.3365 46.468 34.3883 46.468C34.4401 46.4679 34.4832 46.3884 34.4884 46.2873L34.4894 46.2463C34.4946 46.1452 34.5375 46.0657 34.5894 46.0656C34.6447 46.0656 34.6899 46.0077 34.6899 45.937C34.69 45.8662 34.7805 45.7431 34.8911 45.6633C35.0017 45.5836 35.0921 45.456 35.0922 45.3798C35.0922 45.2328 35.6578 44.6577 35.8022 44.6577C35.8492 44.6576 36.0007 44.5445 36.1389 44.4062C36.2772 44.2679 36.4603 44.1548 36.5458 44.1548C36.6313 44.1548 36.7011 44.1095 36.7011 44.0542C36.7011 44.0024 36.7807 43.9593 36.8817 43.9541L36.9228 43.9531C37.0239 43.9479 37.1034 43.9049 37.1034 43.853C37.1035 43.8012 37.2227 43.7582 37.3743 43.7531L37.4358 43.7521C37.5874 43.7469 37.7066 43.7038 37.7067 43.652C37.7067 43.5854 42.9111 43.5514 53.1187 43.5514ZM43.1369 51.1947V61.3523H63.4497V51.1947H43.1369Z" stroke="#72CAB0" stroke-width="6" mask="url(#path-1-inside-1_10116_457)"/>
<path fill-rule="evenodd" clip-rule="evenodd" d="M36.2989 9.86022C36.2989 10.0262 36.2536 10.162 36.1983 10.162C36.1429 10.1621 36.1031 10.4714 36.0983 10.9243L36.0973 11.1092C36.0926 11.5622 36.0527 11.8716 35.9973 11.8717C35.9418 11.8717 35.9019 12.181 35.8972 12.6341L35.8962 12.8189C35.8914 13.2719 35.8515 13.5814 35.7961 13.5814C35.7411 13.5814 35.7008 13.876 35.696 14.2996L35.695 14.4722C35.6902 14.8957 35.65 15.1904 35.595 15.1905C35.5376 15.1905 35.4945 15.4922 35.4945 15.8945C35.4945 16.3898 35.4571 16.599 35.3687 16.6C35.2836 16.6011 35.2916 16.6359 35.3939 16.7082C35.5074 16.7886 35.5136 16.8276 35.419 16.8659C35.3344 16.9003 35.2933 17.1604 35.2933 17.6628C35.2933 18.0931 35.2508 18.4087 35.1927 18.4087C35.1373 18.4088 35.0974 18.7182 35.0927 19.1712L35.0917 19.356C35.0869 19.809 35.0471 20.1183 34.9917 20.1184C34.9362 20.1184 34.8964 20.4278 34.8916 20.8808L34.8906 21.0657C34.886 21.5036 34.8486 21.8074 34.796 21.8272L34.785 21.8291C34.7325 21.8489 34.695 22.1526 34.6904 22.5905L34.6895 22.7754C34.6847 23.2284 34.6448 23.5379 34.5894 23.5379C34.5344 23.538 34.4942 23.8326 34.4894 24.2561L34.4884 24.4287C34.4836 24.8523 34.4433 25.1469 34.3883 25.147C34.3329 25.147 34.293 25.4564 34.2882 25.9094L34.2872 26.0942C34.2825 26.5473 34.2426 26.8566 34.1872 26.8566C34.1322 26.8567 34.0919 27.1514 34.0871 27.5749L34.0861 27.7476C34.0814 28.157 34.0437 28.446 33.9915 28.4648L33.9807 28.4668C33.9249 28.4867 33.8855 28.8156 33.8855 29.2704C33.8855 29.7397 33.8436 30.0749 33.785 30.0749C33.7258 30.0749 33.6844 30.4269 33.6844 30.9297C33.6844 31.4169 33.6455 31.7624 33.5893 31.7835L33.5783 31.7857C33.5217 31.8079 33.4833 32.1702 33.4833 32.6897C33.4833 33.226 33.4424 33.5948 33.3827 33.5949C33.3282 33.5949 33.2875 33.8748 33.2826 34.2689L33.2817 34.4294C33.2768 34.8235 33.2361 35.1035 33.1816 35.1035C33.1262 35.1035 33.0863 35.4129 33.0815 35.8659L33.0805 36.0507C33.0757 36.5038 33.0359 36.8131 32.9804 36.8131C32.9213 36.8133 32.8799 37.1653 32.8799 37.668C32.8799 38.1551 32.841 38.5007 32.7849 38.5218L32.7739 38.5238C32.7181 38.544 32.6788 38.8728 32.6788 39.3274C32.6788 39.7822 32.6394 40.111 32.5836 40.131L32.5728 40.1329C32.5206 40.1517 32.4828 40.4407 32.4781 40.8502L32.4771 41.0228C32.4725 41.4323 32.4347 41.7213 32.3826 41.7401L32.3718 41.7421C32.316 41.7621 32.2766 42.0909 32.2766 42.5456C32.2766 43.015 32.2346 43.3503 32.176 43.3503C32.1169 43.3503 32.0754 43.7022 32.0754 44.2051C32.0754 44.6923 32.0365 45.0378 31.9803 45.0589L31.9693 45.0611C31.9127 45.0833 31.8744 45.4455 31.8744 45.9651C31.8744 46.5013 31.8334 46.8701 31.7738 46.8702C31.7152 46.8702 31.6732 47.2054 31.6732 47.6748C31.6732 48.1296 31.6338 48.4584 31.578 48.4783L31.5672 48.4803C31.5151 48.499 31.4772 48.788 31.4726 49.1976L31.4716 49.3703C31.4668 49.7937 31.4265 50.0883 31.3716 50.0884C31.3163 50.0884 31.271 50.3148 31.271 50.5913C31.271 50.8593 31.2285 51.0801 31.1755 51.0935L31.1602 51.0953C31.1096 51.1071 31.0698 51.2052 31.0698 51.3234C31.0698 51.4495 30.9794 51.6178 30.8688 51.6976C30.7582 51.7773 30.6676 51.9034 30.6676 51.9778C30.6675 52.1519 29.7253 53.0719 29.4613 53.1558C29.3505 53.191 29.2599 53.2618 29.2598 53.3134C29.2598 53.365 29.1731 53.4073 29.067 53.4073C28.9611 53.4073 28.8554 53.4638 28.8324 53.533C28.7989 53.6319 26.6896 53.671 18.9442 53.7164C9.42022 53.7721 8.3436 53.7485 8.34357 53.4834C8.34357 53.4415 8.2749 53.4073 8.19084 53.4073C7.99198 53.4072 6.73462 52.1497 6.73462 51.9509C6.73462 51.8668 6.68943 51.7982 6.63414 51.7982C6.58229 51.7982 6.53923 51.6788 6.53406 51.5272L6.53308 51.4657C6.5279 51.3141 6.48484 51.1947 6.43299 51.1947C6.37768 51.1947 6.33242 50.9685 6.33241 50.6919C6.33241 50.4153 6.28714 50.189 6.23183 50.189C6.17689 50.1889 6.13666 49.8943 6.13185 49.4708L6.13086 49.2982C6.1262 48.8886 6.08836 48.5996 6.03618 48.5809L6.02538 48.5789C5.9696 48.5589 5.9302 48.2301 5.9302 47.7754C5.9302 47.3206 5.8908 46.9917 5.83502 46.9717L5.82422 46.9698C5.77204 46.951 5.7342 46.6621 5.72954 46.2526L5.72855 46.0799C5.7239 45.6704 5.68613 45.3814 5.63397 45.3626L5.62316 45.3606C5.57098 45.3419 5.53314 45.053 5.52848 44.6434L5.5275 44.4707C5.52284 44.0612 5.48499 43.7722 5.43281 43.7535L5.42201 43.7516C5.36623 43.7316 5.32683 43.4027 5.32683 42.9479C5.32683 42.4931 5.28744 42.1644 5.23166 42.1444L5.22085 42.1424C5.16869 42.1237 5.13092 41.8346 5.12627 41.4251L5.12529 41.2525C5.12046 40.829 5.08015 40.5344 5.0252 40.5343C4.96607 40.5343 4.92462 40.1822 4.92462 39.6794C4.92462 39.1922 4.88574 38.8466 4.82955 38.8255L4.81854 38.8236C4.76236 38.8025 4.72347 38.4569 4.72347 37.9697C4.72347 37.4669 4.68202 37.1148 4.62289 37.1148C4.56842 37.1147 4.52777 36.8348 4.5229 36.4409L4.52192 36.2804C4.51704 35.8863 4.47632 35.6063 4.42183 35.6063C4.36321 35.6063 4.32126 35.2711 4.32126 34.8018C4.32126 34.347 4.28186 34.0181 4.22608 33.9981L4.21528 33.9962C4.1631 33.9774 4.12526 33.6885 4.12059 33.2789L4.11961 33.1063C4.11496 32.6968 4.07719 32.4078 4.02502 32.389L4.01422 32.387C3.96204 32.3683 3.9242 32.0794 3.91954 31.6698L3.91855 31.4971C3.91373 31.0736 3.87343 30.779 3.81847 30.779C3.76303 30.779 3.72315 30.4695 3.71838 30.0165L3.7174 29.8316C3.71263 29.3786 3.67275 29.0692 3.61731 29.0692C3.56237 29.0691 3.52214 28.7745 3.51732 28.351L3.51634 28.1783C3.51168 27.7688 3.47383 27.4798 3.42166 27.4611L3.41085 27.4591C3.35507 27.4391 3.31568 27.1103 3.31568 26.6555C3.31567 26.1861 3.27372 25.851 3.2151 25.851C3.16062 25.8509 3.11989 25.571 3.11501 25.177L3.11403 25.0165C3.10916 24.6225 3.06851 24.3426 3.01404 24.3424C2.95861 24.3424 2.91873 24.033 2.91396 23.58L2.91297 23.3952C2.90821 22.9421 2.86832 22.6327 2.81289 22.6327C2.7584 22.6327 2.71768 22.3527 2.7128 21.9587L2.71182 21.7982C2.70695 21.4041 2.66623 21.1241 2.61173 21.1241C2.55262 21.124 2.51116 20.7721 2.51116 20.2693C2.51116 19.7823 2.47234 19.4367 2.41618 19.4155L2.40518 19.4135C2.34942 19.3934 2.3101 19.0645 2.3101 18.6099C2.3101 18.1551 2.2707 17.8263 2.21492 17.8063L2.20412 17.8044C2.15194 17.7857 2.1141 17.4966 2.10944 17.0871L2.10845 16.9144C2.10379 16.5048 2.06595 16.2159 2.01377 16.1972L2.00296 16.1952C1.9508 16.1764 1.91303 15.8874 1.90838 15.4779L1.9074 15.3052C1.90257 14.8817 1.86226 14.5871 1.80731 14.5871C1.75282 14.5871 1.7121 14.3071 1.70722 13.913L1.70624 13.7525C1.70136 13.3584 1.66065 13.0785 1.60616 13.0785C1.5512 13.0784 1.51089 12.7838 1.50607 12.3603L1.50509 12.1876C1.50027 11.7641 1.46004 11.4695 1.4051 11.4694C1.34517 11.4694 1.30452 11.0839 1.30452 10.514V9.55849H36.2989V9.86022ZM10.9581 19.2133V37.316H26.4442V19.2133H10.9581Z" stroke="#72CAB0" stroke-width="6" mask="url(#path-1-inside-1_10116_457)"/>
<path d="M53.1928 32.8909C63.9858 32.8909 69.483 32.9248 69.4833 32.9915C69.4833 33.0468 69.5526 33.092 69.6374 33.092C69.8628 33.092 70.4888 33.7551 70.4888 33.9939C70.4889 34.1063 70.5341 34.1983 70.5894 34.1983C70.6544 34.1984 70.69 35.355 70.69 37.4669C70.69 39.5787 70.6544 40.7353 70.5894 40.7354C70.5341 40.7354 70.4888 40.8231 70.4888 40.9304C70.4888 41.0832 70.3964 41.1385 70.0615 41.1862C69.8264 41.2197 62.1192 41.2337 52.9341 41.2174C37.458 41.1901 36.2219 41.1756 36.0654 41.0191C35.914 40.8676 35.8967 40.4942 35.8967 37.3735C35.8967 35.1226 35.9322 33.8966 35.9973 33.8966C36.0525 33.8965 36.0978 33.8287 36.0978 33.7458C36.0978 33.6628 36.143 33.595 36.1983 33.5949C36.2536 33.5949 36.2989 33.5326 36.2989 33.4562C36.2989 33.38 36.4347 33.2613 36.6006 33.1926C36.7665 33.1239 36.9023 33.0279 36.9023 32.9793C36.9036 32.9288 43.8998 32.8909 53.1928 32.8909Z" stroke="#72CAB0" stroke-width="6" mask="url(#path-1-inside-1_10116_457)"/>
<path d="M36.02 2.7314C36.5209 2.98694 36.7011 3.1549 36.7011 3.36629C36.7011 3.45318 36.7464 3.52431 36.8017 3.52433C36.8608 3.52433 36.9023 3.87629 36.9023 4.37914C36.9023 4.88199 36.8608 5.23395 36.8017 5.23395C36.7431 5.23403 36.7011 5.56926 36.7011 6.03857C36.7011 6.50782 36.6592 6.84294 36.6006 6.84309C36.5453 6.84309 36.5001 6.95626 36.5 7.09453V7.34598H0.90231V6.7928C0.902306 6.48864 0.857025 6.2398 0.801732 6.23972C0.743609 6.23972 0.701155 5.92117 0.701155 5.48539C0.701153 5.04964 0.658699 4.73116 0.600577 4.73116C0.545275 4.73114 0.5 4.59536 0.5 4.42943C0.500001 4.2635 0.545276 4.12771 0.600577 4.1277C0.655885 4.1277 0.701155 3.9919 0.701155 3.82596C0.701163 3.66004 0.74643 3.52433 0.801732 3.52433C0.857028 3.52431 0.90231 3.46635 0.90231 3.39566C0.902316 3.32486 0.998294 3.20043 1.11574 3.11907C1.23309 3.03771 1.38017 2.9256 1.44262 2.86999C1.80512 2.54648 2.13584 2.54002 18.8811 2.52926L35.603 2.51855L36.02 2.7314Z" stroke="#72CAB0" stroke-width="6" mask="url(#path-1-inside-1_10116_457)"/>
</svg>
