<svg width="73" height="72" viewBox="0 0 73 72" fill="none" xmlns="http://www.w3.org/2000/svg">
<path d="M36.2354 49.3691C51.0592 49.3679 58.4901 49.3669 62.2715 49.3945C64.1731 49.4084 65.1161 49.4293 65.6064 49.458C65.6872 49.4627 65.7487 49.4706 65.7949 49.4746C65.8296 49.5228 65.8849 49.6024 65.9629 49.7305C66.3041 50.2907 66.8632 51.3586 68.0234 53.5869C68.4365 54.38 69.2071 55.8498 69.7373 56.8545C70.7878 58.8451 70.7923 59.1798 70.752 59.5684C70.6171 60.8632 69.8874 61.8271 68.627 62.3193C68.5617 62.3283 68.4214 62.3429 68.1318 62.3564C67.5257 62.3847 66.4272 62.4055 64.3408 62.4209C60.1822 62.4516 52.2028 62.4597 36.6465 62.4736C26.071 62.4831 18.0393 62.4806 12.6016 62.4668C9.88247 62.4599 7.81452 62.4502 6.40234 62.4375C5.69555 62.4312 5.15681 62.4246 4.78516 62.417C4.59889 62.4132 4.46098 62.409 4.36719 62.4053C4.35233 62.4047 4.33909 62.4038 4.32812 62.4033C3.76898 62.2866 3.03867 61.901 2.6875 61.5498C2.35943 61.2217 2.02178 60.6112 1.86523 60.0244L1.80957 59.7754C1.76396 59.5155 1.75796 59.4029 1.76465 59.3096C1.77123 59.2184 1.79674 59.0658 1.90918 58.7646C2.15729 58.1002 2.69396 57.0533 3.82715 54.9258C4.02538 54.5536 4.5492 53.5531 4.99121 52.7021C5.92229 50.9097 6.37442 50.0496 6.65723 49.5938C6.6879 49.5443 6.71573 49.5049 6.7373 49.4727C6.84694 49.4659 6.99437 49.4589 7.19141 49.4521C7.88286 49.4285 9.0691 49.4117 11.1152 49.3994C15.1997 49.3748 22.6413 49.3703 36.2354 49.3691ZM36.7539 9.52246C48.8401 9.53048 55.108 9.53669 58.4219 9.56543C60.0854 9.57986 60.9755 9.59915 61.4775 9.62598C61.7215 9.63902 61.8388 9.65226 61.8916 9.66016C62.8696 10.0298 63.4841 10.5854 63.9502 11.5137L64.2041 12.0176V27.9893C64.2041 36.1491 64.2041 40.2153 64.1758 42.2842C64.1649 43.0804 64.1496 43.5444 64.1328 43.8184C64.1073 43.8345 64.0894 43.8458 64.0801 43.8506L63.9141 43.9355H8.60156L8.43555 43.8506C8.42584 43.8456 8.40676 43.8345 8.37988 43.8174C8.36231 43.5486 8.34659 43.0947 8.33301 42.3174C8.29775 40.2987 8.2834 36.3441 8.25586 28.4316C8.23426 22.2268 8.22873 18.2287 8.24121 15.7207C8.24746 14.4655 8.25779 13.593 8.27344 13.0078C8.29101 12.3507 8.3139 12.1948 8.30469 12.2373C8.49192 11.3683 9.05394 10.5607 9.82715 10.0684C10.3297 9.74843 10.5754 9.65569 11.1553 9.58105C11.1231 9.58415 11.1341 9.58188 11.2451 9.5791C11.3449 9.57661 11.4885 9.57383 11.6758 9.57129C12.0492 9.56623 12.5815 9.56211 13.2568 9.55762C14.6068 9.54863 16.5182 9.54014 18.8506 9.53418C23.5147 9.52226 29.8578 9.51793 36.7539 9.52246Z" fill="#8FD6C1" stroke="#72CAB0" stroke-width="3"/>
</svg>
