<svg width="76" height="74" viewBox="0 0 76 74" fill="none" xmlns="http://www.w3.org/2000/svg">
<path d="M7.07124 1.86645C7.07124 1.86645 -0.303772 2.85704 3.47236 17.9169C3.47236 17.9169 6.5186 26.3853 8.47891 30.8317C10.6046 35.6521 13.2218 44.2843 14.5043 49.3951L15.419 53.0357C15.8137 54.5968 17.3986 55.5472 18.9642 55.1539L21.7408 54.4598C23.3064 54.0665 24.2612 52.4861 23.8665 50.925L22.9519 47.2844C21.6693 42.175 19.9056 33.3328 19.5049 28.079C19.137 23.2378 17.8276 14.3314 17.8276 14.3314C14.0515 -0.716511 7.07124 1.86645 7.07124 1.86645Z" fill="#8FD6C1"/>
<path d="M27.3163 67.2186L19.7849 69.0969C18.9105 69.3144 18.3787 70.1977 18.5977 71.0692C18.8167 71.9406 19.7015 72.4709 20.5759 72.2534L28.1073 70.3765C28.9817 70.1575 29.5135 69.2757 29.2945 68.4043C29.0755 67.5329 28.1907 67.0025 27.3163 67.2215V67.2186Z" fill="#8FD6C1"/>
<path d="M33.8601 24.0988C38.4823 24.0988 42.2302 20.1961 42.2302 15.3802C42.2302 10.5643 38.4823 6.66155 33.8601 6.66155C29.2379 6.66155 25.49 10.5643 25.49 15.3802C25.49 20.1961 29.2379 24.0988 33.8601 24.0988Z" fill="#8FD6C1"/>
<path d="M51.9934 23.0532C48.5063 24.4474 46.0037 26.3601 42.7609 29.9545C39.1948 33.9094 36.9127 38.554 35.8402 43.3937C39.9128 44.2919 43.814 46.2135 47.1418 49.1852C50.0301 51.7697 52.1677 54.8725 53.5501 58.2241C57.9518 56.6109 62.0304 53.9341 65.379 50.216C68.3984 46.8644 70.5032 43.0138 71.7277 38.9666C67.9977 37.9894 64.4316 36.1468 61.366 33.3985C57.8461 30.2435 55.4314 26.3214 54.1489 22.1103L51.9934 23.0532Z" fill="#8FD6C1"/>
<path d="M34.3411 49.7633C33.6634 52.8259 33.6574 55.9943 34.3277 59.0509C34.6435 60.5077 35.8739 61.6086 37.3606 61.7665C40.6824 62.1269 44.0712 61.7143 47.2292 60.5524C46.2222 58.1125 44.6641 55.8557 42.5652 53.9803C40.1446 51.8159 37.3084 50.4187 34.3411 49.7633Z" fill="#8FD6C1"/>
<path d="M73.8723 21.3937C73.5372 19.8594 72.2412 18.6975 70.6756 18.5336C67.0574 18.1404 63.3736 18.6185 59.952 19.9368C60.9322 23.1633 62.7808 26.1678 65.4784 28.5884C67.8275 30.6932 70.5565 32.1113 73.4195 32.8517C74.5501 29.1187 74.6961 25.1639 73.8738 21.3922L73.8723 21.3937Z" fill="#8FD6C1"/>
<path d="M16.828 60.5391L25.6896 58.3285M17.9215 64.9467L26.7891 62.7361M49.413 45.2574L57.3466 36.4553M47.7731 41.5244L53.517 46.6606M50.6091 38.375L56.353 43.5171M53.636 35.0177L59.3799 40.1598M7.07124 1.86645C7.07124 1.86645 -0.303772 2.85704 3.47236 17.9169C3.47236 17.9169 6.5186 26.3853 8.47891 30.8317C10.6046 35.6521 13.2218 44.2843 14.5043 49.3951L15.419 53.0357C15.8137 54.5968 17.3986 55.5472 18.9642 55.1539L21.7408 54.4598C23.3064 54.0665 24.2612 52.4861 23.8665 50.925L22.9519 47.2844C21.6693 42.175 19.9056 33.3328 19.5049 28.079C19.137 23.2378 17.8276 14.3314 17.8276 14.3314C14.0515 -0.716511 7.07124 1.86645 7.07124 1.86645ZM27.3163 67.2185L19.7849 69.0969C18.9105 69.3144 18.3787 70.1977 18.5977 71.0692C18.8167 71.9406 19.7015 72.4709 20.5759 72.2534L28.1073 70.3765C28.9817 70.1575 29.5135 69.2757 29.2945 68.4043C29.0755 67.5328 28.1907 67.0026 27.3163 67.2215V67.2185ZM33.8601 24.0988C38.4823 24.0988 42.2302 20.1961 42.2302 15.3802C42.2302 10.5643 38.4823 6.66155 33.8601 6.66155C29.2379 6.66155 25.49 10.5643 25.49 15.3802C25.49 20.1961 29.2379 24.0988 33.8601 24.0988ZM51.9934 23.0532C48.5063 24.4474 46.0038 26.3601 42.7609 29.9545C39.1948 33.9094 36.9127 38.554 35.8402 43.3937C39.9128 44.2919 43.814 46.2135 47.1418 49.1852C50.0301 51.7697 52.1677 54.8725 53.5501 58.2241C57.9518 56.6109 62.0304 53.9341 65.379 50.216C68.3984 46.8644 70.5032 43.0138 71.7277 38.9666C67.9977 37.9894 64.4316 36.1468 61.366 33.3985C57.8461 30.2435 55.4314 26.3214 54.1489 22.1103L51.9934 23.0532ZM34.3411 49.7633C33.6634 52.8259 33.6574 55.9943 34.3277 59.0509C34.6435 60.5077 35.8739 61.6086 37.3606 61.7665C40.6824 62.1269 44.0712 61.7143 47.2292 60.5524C46.2222 58.1125 44.6641 55.8557 42.5652 53.9803C40.1446 51.8159 37.3084 50.4187 34.3411 49.7633ZM73.8723 21.3937C73.5372 19.8594 72.2412 18.6975 70.6756 18.5336C67.0574 18.1404 63.3736 18.6185 59.952 19.9368C60.9322 23.1633 62.7808 26.1678 65.4784 28.5884C67.8275 30.6932 70.5565 32.1113 73.4195 32.8517C74.5501 29.1187 74.6961 25.1639 73.8738 21.3922L73.8723 21.3937Z" stroke="#72CAB0" stroke-width="3" stroke-linecap="round"/>
</svg>
