<svg width="76" height="74" viewBox="0 0 76 74" fill="none" xmlns="http://www.w3.org/2000/svg">
<path d="M36.7856 31.8425C47.5485 31.2191 56.7462 39.8202 62.2585 48.1836C65.5955 53.2459 68.2058 59.3323 66.0814 65.4381C64.6521 69.5585 60.6707 72.6548 56.1736 72.0523C51.7856 71.4647 50.1171 66.3875 45.0398 68.9186C42.3412 70.2672 40.1435 72.9942 36.7572 72.124C34.6461 71.5798 33.0359 69.9338 31.1432 68.9695C25.9568 66.3142 24.3691 71.4572 19.9078 72.0523C15.4465 72.6473 11.4577 69.5869 10.0224 65.5099C7.51967 58.4233 11.3859 51.3083 15.5123 45.7675C20.3862 39.2177 28.2338 32.3209 36.7856 31.8276V31.8425ZM32.3751 43.7731C30.8442 43.9466 29.5465 45.2966 28.9873 46.6676C27.1155 51.2798 31.9251 56.2195 35.1604 58.9032C36.8872 60.3325 38.0474 61.0725 40.1076 59.549C43.8288 56.7862 50.0378 50.3963 46.4317 45.5074C44.4956 42.8895 41.6161 43.5414 39.3376 45.2966C38.8592 45.6659 38.475 46.1084 38.0175 46.5076C36.6181 44.9916 34.543 43.5339 32.3751 43.7806V43.7731Z" fill="#8FD6C1"/>
<path d="M26.5145 1.71976C31.4751 1.42972 34.4488 9.11735 34.6671 13.1361C34.9496 18.3075 31.7009 25.3209 25.5277 24.1398C20.6179 23.2038 18.5862 17.3731 18.8478 12.9268C19.0795 9.00223 21.9082 1.9814 26.5145 1.71378V1.72126V1.71976Z" fill="#8FD6C1"/>
<path d="M49.0215 1.71985C53.6711 1.38645 56.6015 8.17554 57.1158 11.9536C57.7467 16.6107 55.8106 23.1516 50.545 24.1458C44.3868 25.306 41.138 18.3584 41.4056 13.193C41.609 9.2176 44.3509 2.05923 49.0215 1.72583V1.71835V1.71985Z" fill="#8FD6C1"/>
<path d="M6.59945 18.4168C11.575 17.8577 16.579 24.3059 17.1307 28.803C17.6824 33.3002 14.9987 38.5374 9.65985 37.5716C3.03821 36.3681 0.433802 27.0179 2.93654 21.4922C3.59586 20.027 4.91601 18.6052 6.59945 18.4168Z" fill="#8FD6C1"/>
<path d="M68.2049 18.4169C74.3272 17.8294 74.668 26.5546 73.4122 30.6316C72.1578 34.7071 68.2408 38.6167 63.7077 37.5074C59.4573 36.4624 58.2537 31.4584 59.1523 27.6788C60.0523 23.8993 64.1353 18.8161 68.2034 18.4244V18.4169H68.2049Z" fill="#8FD6C1"/>
<path d="M36.7856 31.8425C47.5485 31.2191 56.7462 39.8202 62.2585 48.1836C65.5955 53.2459 68.2058 59.3323 66.0814 65.4381C64.6521 69.5585 60.6707 72.6548 56.1736 72.0523C51.7856 71.4647 50.1171 66.3875 45.0398 68.9186C42.3412 70.2672 40.1435 72.9942 36.7572 72.124C34.6461 71.5798 33.0359 69.9338 31.1432 68.9695C25.9568 66.3142 24.3691 71.4572 19.9078 72.0523C15.4465 72.6473 11.4577 69.5869 10.0224 65.5099C7.51967 58.4233 11.3859 51.3083 15.5123 45.7675C20.3862 39.2177 28.2338 32.3209 36.7856 31.8276V31.8425ZM32.3751 43.7731C30.8442 43.9466 29.5465 45.2966 28.9873 46.6676C27.1155 51.2798 31.9251 56.2195 35.1604 58.9032C36.8872 60.3325 38.0474 61.0725 40.1076 59.549C43.8288 56.7862 50.0378 50.3963 46.4317 45.5074C44.4956 42.8895 41.6161 43.5414 39.3376 45.2966C38.8592 45.6659 38.475 46.1084 38.0175 46.5076C36.6181 44.9916 34.543 43.5339 32.3751 43.7806V43.7731Z" stroke="#72CAB0" stroke-width="3" stroke-linecap="round" stroke-linejoin="round"/>
<path d="M26.5145 1.71976C31.4751 1.42972 34.4488 9.11735 34.6671 13.1361C34.9496 18.3075 31.7009 25.3209 25.5277 24.1398C20.6179 23.2038 18.5862 17.3731 18.8478 12.9268C19.0795 9.00223 21.9082 1.9814 26.5145 1.71378V1.72126V1.71976Z" stroke="#72CAB0" stroke-width="3" stroke-linecap="round" stroke-linejoin="round"/>
<path d="M49.0215 1.71985C53.6711 1.38645 56.6015 8.17554 57.1158 11.9536C57.7467 16.6107 55.8106 23.1516 50.545 24.1458C44.3868 25.306 41.138 18.3584 41.4056 13.193C41.609 9.2176 44.3509 2.05923 49.0215 1.72583V1.71835V1.71985Z" stroke="#72CAB0" stroke-width="3" stroke-linecap="round" stroke-linejoin="round"/>
<path d="M6.59945 18.4168C11.575 17.8577 16.579 24.3059 17.1307 28.803C17.6824 33.3002 14.9987 38.5374 9.65985 37.5716C3.03821 36.3681 0.433802 27.0179 2.93654 21.4922C3.59586 20.027 4.91601 18.6052 6.59945 18.4168Z" stroke="#72CAB0" stroke-width="3" stroke-linecap="round" stroke-linejoin="round"/>
<path d="M68.2049 18.4169C74.3272 17.8294 74.668 26.5546 73.4122 30.6316C72.1578 34.7071 68.2408 38.6167 63.7077 37.5074C59.4573 36.4624 58.2537 31.4584 59.1523 27.6788C60.0523 23.8993 64.1353 18.8161 68.2034 18.4244V18.4169H68.2049Z" stroke="#72CAB0" stroke-width="3" stroke-linecap="round" stroke-linejoin="round"/>
</svg>
