<svg width="73" height="72" viewBox="0 0 73 72" fill="none" xmlns="http://www.w3.org/2000/svg">
<mask id="path-1-inside-1_10116_469" fill="white">
<path fill-rule="evenodd" clip-rule="evenodd" d="M63.4248 31.7403V48.4773C63.4151 61.9781 63.3955 65.3703 63.2883 65.9552C63.2201 66.3549 63.0446 66.969 62.8984 67.3199C62.7619 67.6708 62.4988 68.1875 62.3233 68.4799C62.1576 68.7626 61.7287 69.3085 61.3778 69.6789C61.0268 70.0591 60.442 70.5561 60.0618 70.7901C59.6914 71.0143 58.9603 71.3555 57.5274 71.8526H17.2688L16.5377 71.6285C16.138 71.5017 15.5239 71.2483 15.173 71.0631C14.8221 70.8876 14.3152 70.5464 14.0423 70.3222C13.7693 70.0883 13.3209 69.6399 13.0382 69.3182C12.7652 68.9965 12.3364 68.3434 12.0927 67.856C11.8588 67.3686 11.5858 66.6668 11.498 66.2964C11.3421 65.6725 11.3323 64.1421 11.2836 31.7306L11.5663 31.4478L11.8392 31.1554H62.8399L63.4248 31.7403ZM49.4367 35.9221C49.2222 35.9221 48.9297 36.0001 48.7835 36.0976C48.6373 36.1853 48.4424 36.3705 48.3449 36.507C48.1889 36.7215 48.1597 37.0725 48.111 39.6751C48.0622 42.4434 48.0427 42.6482 47.7892 43.5742C47.6528 44.1103 47.3213 44.9876 47.0581 45.5238C46.8047 46.0599 46.3271 46.8495 46.0054 47.2784C45.6837 47.7073 45.0989 48.3603 44.6992 48.7307C44.2996 49.1109 43.6757 49.608 43.2955 49.8517C42.9154 50.0954 42.2622 50.4561 41.8333 50.6511C41.4044 50.8558 40.7026 51.1092 40.2737 51.2164C39.8448 51.3334 39.1234 51.4699 38.6653 51.5284C38.1876 51.5966 37.3396 51.6161 36.667 51.5868C35.9164 51.5479 35.1658 51.4406 34.5712 51.2944C34.0643 51.1677 33.2747 50.8948 32.8166 50.6998C32.3584 50.4951 31.6858 50.1344 31.3057 49.881C30.9255 49.6275 30.2529 49.072 29.8045 48.6431C29.3658 48.2142 28.781 47.5806 28.5275 47.2296C28.2643 46.8787 27.8841 46.2646 27.6599 45.8649C27.4455 45.4653 27.1433 44.7439 26.9776 44.2565C26.8216 43.7692 26.617 42.8918 26.5292 42.307C26.4123 41.4979 26.3733 40.6985 26.4025 39.0414C26.4318 37.0724 26.4122 36.8091 26.266 36.5752C26.1685 36.429 25.9443 36.2243 25.7786 36.1171C25.6032 36.0099 25.301 35.9221 25.1061 35.9221C24.9111 35.9221 24.6187 36.0196 24.4237 36.1463C24.2385 36.2633 24.0143 36.5168 23.9168 36.702C23.7511 37.0139 23.7413 37.2869 23.7803 39.87C23.8193 42.5116 23.8388 42.7651 24.0728 43.7204C24.2092 44.2858 24.4335 45.0364 24.5699 45.4068C24.7064 45.7674 25.0085 46.4206 25.223 46.8689C25.4472 47.3076 25.8371 47.9705 26.0906 48.3506C26.344 48.7308 26.8022 49.3157 27.1044 49.6666C27.4163 50.0175 27.9719 50.5731 28.3618 50.9143C28.7517 51.2457 29.3464 51.7136 29.6973 51.9475C30.0482 52.1815 30.7305 52.5714 31.2082 52.8151C31.6858 53.0491 32.5047 53.3805 33.0115 53.5462C33.5184 53.7119 34.3567 53.9264 34.8636 54.0141C35.3705 54.1018 36.3161 54.1798 36.9594 54.1895C37.6028 54.1993 38.4898 54.1701 38.9382 54.1311C39.3769 54.0823 40.0787 53.9654 40.4979 53.8679C40.9073 53.7606 41.5994 53.5462 42.0283 53.3902C42.4572 53.2342 43.0908 52.9614 43.4417 52.7859C43.7927 52.6104 44.4458 52.2205 44.9039 51.9183C45.3621 51.6161 46.1419 50.9826 46.6488 50.4952C47.1459 50.0078 47.7892 49.3157 48.0817 48.9355C48.3643 48.5554 48.803 47.9022 49.0467 47.4733C49.2904 47.0444 49.6414 46.3036 49.8266 45.8162C50.0118 45.3288 50.275 44.5197 50.4017 44.0128C50.5382 43.506 50.6941 42.5117 50.7526 41.8196C50.8111 41.1275 50.8501 39.7433 50.8306 38.749C50.8111 37.2576 50.7721 36.8872 50.6356 36.6337C50.5381 36.4583 50.3139 36.2243 50.1482 36.1171C49.963 36.0099 49.6609 35.9221 49.4367 35.9221Z"/>
<path fill-rule="evenodd" clip-rule="evenodd" d="M12.7165 3.27658C13.2039 3.27658 13.9545 3.34477 14.3736 3.4325C14.7831 3.52023 15.3485 3.67626 15.6116 3.78348C15.8846 3.89071 16.3427 4.09543 16.6352 4.24165C16.9276 4.39762 17.4345 4.6998 17.7562 4.924C18.0779 5.14821 18.7017 5.64529 19.1501 6.0352C19.5985 6.42511 20.2614 7.06849 20.6221 7.46815C20.9827 7.86781 21.5578 8.55017 21.899 8.97906C22.2304 9.40797 22.9128 10.373 23.4099 11.1236C23.9168 11.8742 24.6576 13.0829 25.067 13.8042C25.4862 14.5256 26.1003 15.6661 26.4317 16.3387C26.7632 17.0113 27.2701 18.0835 27.5527 18.7269C27.8257 19.3703 28.2253 20.3451 28.4398 20.8909C28.6445 21.4466 28.9662 22.3921 29.1514 22.9867C29.3366 23.5911 29.6388 24.6829 29.8338 25.4042C30.0287 26.1255 30.2724 27.1393 30.3796 27.6462C30.4868 28.1531 30.5746 28.6015 30.5746 28.6405C30.5729 28.6892 26.4094 28.7184 12.0537 28.7184L11.6541 27.8607C11.4299 27.3928 10.9619 26.2912 10.6207 25.4042C10.2698 24.5171 9.72393 23.0257 9.40225 22.0899C9.09032 21.1541 8.68093 19.8089 8.49572 19.1168C8.31051 18.4247 8.08631 17.4987 8.00833 17.0698C7.93034 16.6409 7.76467 15.6953 7.65744 14.974C7.55022 14.2526 7.43319 12.8879 7.40394 11.9522C7.36495 10.8312 7.3845 9.9246 7.46249 9.32024C7.53072 8.81335 7.65742 8.1505 7.73541 7.85806C7.81339 7.56563 7.9986 7.05874 8.12532 6.73706C8.26179 6.41538 8.52494 5.90849 8.7199 5.61606C8.90511 5.32362 9.26584 4.86544 9.50953 4.60224C9.75322 4.34881 10.1334 4.0272 10.3478 3.90048C10.5623 3.77375 10.9814 3.58847 11.2739 3.48124C11.6638 3.33503 12.0634 3.28632 12.7165 3.27658ZM20.8267 19.0973C20.5733 19.0583 20.4075 19.0973 20.1541 19.2727C19.9689 19.3995 19.5108 19.848 19.1404 20.2768C18.7602 20.7058 18.1948 21.4076 17.8732 21.8365C17.5515 22.2654 17.1226 22.9673 16.9179 23.3962C16.7229 23.8251 16.4597 24.4489 16.3524 24.7901C16.2355 25.1215 16.1478 25.5699 16.1478 25.7844C16.1478 26.067 16.216 26.2425 16.3915 26.418C16.5767 26.6032 16.7327 26.6617 17.0543 26.6617C17.4247 26.6617 17.5124 26.6031 18.0583 26.0475C18.38 25.7161 19.1891 24.6341 19.8422 23.6399C20.5051 22.6456 21.1581 21.6221 21.2946 21.3491C21.4408 21.0567 21.5578 20.6278 21.5871 20.2768C21.626 19.7602 21.6066 19.6627 21.4019 19.419C21.2557 19.2533 21.0314 19.1265 20.8267 19.0973ZM17.4442 11.65C17.2298 11.65 16.8886 11.7572 16.6352 11.9034C16.3915 12.0399 15.8943 12.4006 15.5239 12.7028C15.1535 13.0147 14.6758 13.4826 14.4711 13.7458C14.2567 14.0187 13.9155 14.5159 13.7108 14.8668C13.5061 15.2177 13.1941 15.8416 13.0382 16.2607C12.814 16.8066 12.736 17.177 12.736 17.6254C12.7263 18.0641 12.775 18.298 12.9018 18.4637C13.048 18.6586 13.1357 18.6879 13.4184 18.6391C13.6036 18.6001 13.9447 18.4442 14.1787 18.2785C14.4029 18.1226 14.8026 17.7131 15.0755 17.3817C15.3387 17.0406 16.0406 16.1145 16.6352 15.3055C17.22 14.5062 17.8341 13.5996 17.9999 13.3071C18.1558 13.0147 18.2825 12.6248 18.2923 12.4591C18.2923 12.2446 18.2111 12.0562 18.0486 11.8937C17.8731 11.7182 17.6977 11.65 17.4442 11.65Z"/>
<path d="M52.7412 9.0278C52.8007 9.02808 54.8668 9.58356 57.3324 10.256C59.7981 10.9285 61.8449 11.5035 61.8749 11.5427C61.9139 11.5817 61.8164 12.0496 61.6605 12.5858C61.5045 13.1219 61.3778 13.7458 61.3778 13.97C61.3778 14.2039 61.4557 14.5938 61.5532 14.8473C61.6507 15.1105 62.0699 15.8221 62.4988 16.4362C62.9179 17.0503 63.3371 17.7521 63.4443 17.9958C63.5418 18.2395 63.6978 18.7854 63.7855 19.2143C63.883 19.7309 63.9122 20.2086 63.8732 20.6277C63.8342 20.9787 63.3956 22.7138 62.879 24.4781C62.3721 26.2425 61.8944 27.9289 61.6702 28.7184H51.9224C45.4891 28.7184 42.1748 28.6892 42.1745 28.621C42.1745 28.5625 42.9056 25.9891 43.7926 22.8893C44.6797 19.7992 45.518 16.9333 45.6545 16.5336C45.791 16.134 46.0151 15.5784 46.1516 15.3152C46.2881 15.0422 46.6391 14.5743 46.9412 14.2624C47.2434 13.9505 47.7308 13.5411 48.0232 13.3656C48.3157 13.1901 48.998 12.8879 49.5341 12.693C50.0703 12.498 50.7136 12.2153 50.9768 12.0496C51.2302 11.8937 51.5812 11.5525 51.7664 11.2893C51.9809 11.0066 52.205 10.49 52.3707 9.92462C52.5169 9.43723 52.6827 9.0278 52.7412 9.0278Z"/>
<path d="M37.8855 0.147461C38.1974 0.147462 38.3437 0.215716 38.6068 0.459411C38.8505 0.703104 38.9577 0.917641 39.0552 1.36604C39.1332 1.7657 39.1624 2.36035 39.1235 3.21813C39.0845 3.9687 38.9674 4.94351 38.8212 5.60635L38.803 5.69431C38.6845 6.26855 38.5879 6.73679 38.597 6.74677C38.6068 6.76626 38.792 6.54211 39.0065 6.26918C39.2209 5.99624 39.7278 5.46986 40.1275 5.09944C40.6149 4.6413 41.0243 4.35857 41.3752 4.23184C41.6481 4.13437 42.0673 4.0467 42.3012 4.04669C42.5742 4.04669 42.8276 4.11491 43.0518 4.27087C43.2663 4.40735 43.4418 4.63157 43.5295 4.87526C43.6562 5.21639 43.6562 5.31393 43.51 5.70383C43.4125 5.96703 43.0225 6.52263 42.4962 7.12697C42.0283 7.67285 41.1997 8.57939 40.6636 9.1545C40.1275 9.71988 39.7083 10.2073 39.7376 10.2268C39.7668 10.2463 40.069 10.4022 40.4199 10.5875C40.7708 10.7727 41.2874 11.1431 41.5701 11.4257C41.8528 11.7182 42.2038 12.2056 42.3695 12.5467C42.5254 12.8879 42.7106 13.4631 42.7691 13.8433C42.8276 14.2234 42.8568 14.7595 42.8178 15.0324C42.7886 15.3151 42.4474 16.8553 42.077 18.4442L42.0046 18.7489C41.652 20.2318 41.3312 21.581 41.2582 21.8365C41.1802 22.1483 41.0828 22.3141 40.9951 22.3044C40.9171 22.2946 40.0397 22.2167 39.0357 22.1289C37.3104 21.9925 37.1836 21.9924 36.8522 22.1484C36.6475 22.2556 36.4526 22.4506 36.3648 22.6358C36.2479 22.9184 36.2478 22.9965 36.3745 23.2987C36.4525 23.4839 36.6182 23.7081 36.7449 23.7861C36.8717 23.8738 37.6321 24.0102 38.714 24.137C39.6791 24.2539 40.4979 24.3806 40.5369 24.4099C40.5758 24.4393 40.3711 25.4143 39.5621 28.66L36.1406 28.6794C32.953 28.7087 32.7191 28.6989 32.6801 28.5332C32.6508 28.4453 32.4754 27.5973 32.2805 26.6617C32.0855 25.7259 31.7833 24.1857 31.5981 23.2499C31.4226 22.3142 31.1107 20.735 30.9255 19.7407C30.7305 18.7466 30.5746 17.8303 30.5746 17.6937C30.5746 17.4597 30.5843 17.4499 31.0327 17.5181C31.296 17.5571 32.1635 17.6254 32.9628 17.6644C34.2495 17.7228 34.4542 17.7131 34.6979 17.5669C34.8441 17.4791 35.0293 17.2453 35.1073 17.0601C35.2048 16.8261 35.2243 16.6506 35.1658 16.4946C35.117 16.3776 34.9806 16.1827 34.8539 16.0658C34.6395 15.8611 34.4055 15.8221 32.4754 15.6271C31.2863 15.5101 30.2921 15.3737 30.2529 15.3152C30.2042 15.2567 30.1945 14.8083 30.2237 14.3307C30.2529 13.853 30.3602 13.1707 30.4674 12.8198C30.5746 12.4591 30.8378 11.9424 31.0912 11.6013C31.3251 11.2796 31.6663 10.8994 31.8515 10.7629C32.0367 10.6167 32.4657 10.3633 32.8166 10.1975C33.1675 10.0318 33.6354 9.87591 33.8693 9.84666C34.0934 9.81743 34.2786 9.77842 34.2788 9.74918C34.2788 9.71994 33.9376 9.11549 33.5282 8.4039C33.1188 7.70208 32.5437 6.71761 32.2512 6.23996C31.9685 5.76232 31.5494 4.99224 31.3349 4.53408C31.0717 3.99798 30.9158 3.53006 30.8865 3.21813C30.8573 2.82822 30.8963 2.66249 31.0815 2.38956C31.2082 2.20435 31.4226 1.98988 31.5494 1.93139C31.6858 1.86316 31.9783 1.80469 32.2122 1.80469C32.4364 1.80469 32.7873 1.89237 32.992 1.98984C33.187 2.08732 33.5769 2.40902 33.8401 2.6917C34.113 2.98414 34.4932 3.48132 34.6882 3.803C34.8929 4.12469 35.1854 4.73885 35.6337 5.94752L35.6435 5.31391C35.6435 4.963 35.7117 4.24164 35.7897 3.70552C35.8677 3.16941 36.0139 2.46756 36.1309 2.14586C36.2381 1.82419 36.4331 1.38554 36.5598 1.17108C36.6865 0.956627 36.9497 0.634929 37.1447 0.469216V0.459411C37.4176 0.215743 37.593 0.147461 37.8855 0.147461Z"/>
<path d="M53.677 2.10683C53.8329 2.10684 54.5055 2.24327 55.1684 2.40898C55.7648 2.55142 57.7678 3.06784 59.7814 3.587L60.3542 3.73474C62.5473 4.30007 64.4285 4.79713 64.5263 4.84594C64.614 4.89468 64.7603 5.06043 64.8382 5.22614C64.9162 5.38211 64.9845 5.62581 64.9845 5.76228C64.9845 5.89877 64.8285 6.56163 64.6336 7.24397C64.4386 7.93606 64.2144 8.66717 64.1267 8.87187C64.0097 9.13505 63.8439 9.31046 63.6003 9.42743C63.3955 9.53465 63.1713 9.61267 63.1129 9.61267C63.0443 9.61258 60.6367 8.9693 57.7711 8.18953C53.0337 6.90284 52.5267 6.74683 52.2928 6.48365C52.1368 6.3277 51.9906 6.08397 51.9614 5.92801C51.9126 5.75255 52.0296 5.16766 52.3026 4.20262C52.6632 2.90618 52.7412 2.70147 53.0434 2.41878C53.2676 2.21408 53.482 2.10683 53.677 2.10683Z"/>
</mask>
<path fill-rule="evenodd" clip-rule="evenodd" d="M63.4248 31.7403V48.4773C63.4151 61.9781 63.3955 65.3703 63.2883 65.9552C63.2201 66.3549 63.0446 66.969 62.8984 67.3199C62.7619 67.6708 62.4988 68.1875 62.3233 68.4799C62.1576 68.7626 61.7287 69.3085 61.3778 69.6789C61.0268 70.0591 60.442 70.5561 60.0618 70.7901C59.6914 71.0143 58.9603 71.3555 57.5274 71.8526H17.2688L16.5377 71.6285C16.138 71.5017 15.5239 71.2483 15.173 71.0631C14.8221 70.8876 14.3152 70.5464 14.0423 70.3222C13.7693 70.0883 13.3209 69.6399 13.0382 69.3182C12.7652 68.9965 12.3364 68.3434 12.0927 67.856C11.8588 67.3686 11.5858 66.6668 11.498 66.2964C11.3421 65.6725 11.3323 64.1421 11.2836 31.7306L11.5663 31.4478L11.8392 31.1554H62.8399L63.4248 31.7403ZM49.4367 35.9221C49.2222 35.9221 48.9297 36.0001 48.7835 36.0976C48.6373 36.1853 48.4424 36.3705 48.3449 36.507C48.1889 36.7215 48.1597 37.0725 48.111 39.6751C48.0622 42.4434 48.0427 42.6482 47.7892 43.5742C47.6528 44.1103 47.3213 44.9876 47.0581 45.5238C46.8047 46.0599 46.3271 46.8495 46.0054 47.2784C45.6837 47.7073 45.0989 48.3603 44.6992 48.7307C44.2996 49.1109 43.6757 49.608 43.2955 49.8517C42.9154 50.0954 42.2622 50.4561 41.8333 50.6511C41.4044 50.8558 40.7026 51.1092 40.2737 51.2164C39.8448 51.3334 39.1234 51.4699 38.6653 51.5284C38.1876 51.5966 37.3396 51.6161 36.667 51.5868C35.9164 51.5479 35.1658 51.4406 34.5712 51.2944C34.0643 51.1677 33.2747 50.8948 32.8166 50.6998C32.3584 50.4951 31.6858 50.1344 31.3057 49.881C30.9255 49.6275 30.2529 49.072 29.8045 48.6431C29.3658 48.2142 28.781 47.5806 28.5275 47.2296C28.2643 46.8787 27.8841 46.2646 27.6599 45.8649C27.4455 45.4653 27.1433 44.7439 26.9776 44.2565C26.8216 43.7692 26.617 42.8918 26.5292 42.307C26.4123 41.4979 26.3733 40.6985 26.4025 39.0414C26.4318 37.0724 26.4122 36.8091 26.266 36.5752C26.1685 36.429 25.9443 36.2243 25.7786 36.1171C25.6032 36.0099 25.301 35.9221 25.1061 35.9221C24.9111 35.9221 24.6187 36.0196 24.4237 36.1463C24.2385 36.2633 24.0143 36.5168 23.9168 36.702C23.7511 37.0139 23.7413 37.2869 23.7803 39.87C23.8193 42.5116 23.8388 42.7651 24.0728 43.7204C24.2092 44.2858 24.4335 45.0364 24.5699 45.4068C24.7064 45.7674 25.0085 46.4206 25.223 46.8689C25.4472 47.3076 25.8371 47.9705 26.0906 48.3506C26.344 48.7308 26.8022 49.3157 27.1044 49.6666C27.4163 50.0175 27.9719 50.5731 28.3618 50.9143C28.7517 51.2457 29.3464 51.7136 29.6973 51.9475C30.0482 52.1815 30.7305 52.5714 31.2082 52.8151C31.6858 53.0491 32.5047 53.3805 33.0115 53.5462C33.5184 53.7119 34.3567 53.9264 34.8636 54.0141C35.3705 54.1018 36.3161 54.1798 36.9594 54.1895C37.6028 54.1993 38.4898 54.1701 38.9382 54.1311C39.3769 54.0823 40.0787 53.9654 40.4979 53.8679C40.9073 53.7606 41.5994 53.5462 42.0283 53.3902C42.4572 53.2342 43.0908 52.9614 43.4417 52.7859C43.7927 52.6104 44.4458 52.2205 44.9039 51.9183C45.3621 51.6161 46.1419 50.9826 46.6488 50.4952C47.1459 50.0078 47.7892 49.3157 48.0817 48.9355C48.3643 48.5554 48.803 47.9022 49.0467 47.4733C49.2904 47.0444 49.6414 46.3036 49.8266 45.8162C50.0118 45.3288 50.275 44.5197 50.4017 44.0128C50.5382 43.506 50.6941 42.5117 50.7526 41.8196C50.8111 41.1275 50.8501 39.7433 50.8306 38.749C50.8111 37.2576 50.7721 36.8872 50.6356 36.6337C50.5381 36.4583 50.3139 36.2243 50.1482 36.1171C49.963 36.0099 49.6609 35.9221 49.4367 35.9221Z" fill="#8FD6C1"/>
<path fill-rule="evenodd" clip-rule="evenodd" d="M12.7165 3.27658C13.2039 3.27658 13.9545 3.34477 14.3736 3.4325C14.7831 3.52023 15.3485 3.67626 15.6116 3.78348C15.8846 3.89071 16.3427 4.09543 16.6352 4.24165C16.9276 4.39762 17.4345 4.6998 17.7562 4.924C18.0779 5.14821 18.7017 5.64529 19.1501 6.0352C19.5985 6.42511 20.2614 7.06849 20.6221 7.46815C20.9827 7.86781 21.5578 8.55017 21.899 8.97906C22.2304 9.40797 22.9128 10.373 23.4099 11.1236C23.9168 11.8742 24.6576 13.0829 25.067 13.8042C25.4862 14.5256 26.1003 15.6661 26.4317 16.3387C26.7632 17.0113 27.2701 18.0835 27.5527 18.7269C27.8257 19.3703 28.2253 20.3451 28.4398 20.8909C28.6445 21.4466 28.9662 22.3921 29.1514 22.9867C29.3366 23.5911 29.6388 24.6829 29.8338 25.4042C30.0287 26.1255 30.2724 27.1393 30.3796 27.6462C30.4868 28.1531 30.5746 28.6015 30.5746 28.6405C30.5729 28.6892 26.4094 28.7184 12.0537 28.7184L11.6541 27.8607C11.4299 27.3928 10.9619 26.2912 10.6207 25.4042C10.2698 24.5171 9.72393 23.0257 9.40225 22.0899C9.09032 21.1541 8.68093 19.8089 8.49572 19.1168C8.31051 18.4247 8.08631 17.4987 8.00833 17.0698C7.93034 16.6409 7.76467 15.6953 7.65744 14.974C7.55022 14.2526 7.43319 12.8879 7.40394 11.9522C7.36495 10.8312 7.3845 9.9246 7.46249 9.32024C7.53072 8.81335 7.65742 8.1505 7.73541 7.85806C7.81339 7.56563 7.9986 7.05874 8.12532 6.73706C8.26179 6.41538 8.52494 5.90849 8.7199 5.61606C8.90511 5.32362 9.26584 4.86544 9.50953 4.60224C9.75322 4.34881 10.1334 4.0272 10.3478 3.90048C10.5623 3.77375 10.9814 3.58847 11.2739 3.48124C11.6638 3.33503 12.0634 3.28632 12.7165 3.27658ZM20.8267 19.0973C20.5733 19.0583 20.4075 19.0973 20.1541 19.2727C19.9689 19.3995 19.5108 19.848 19.1404 20.2768C18.7602 20.7058 18.1948 21.4076 17.8732 21.8365C17.5515 22.2654 17.1226 22.9673 16.9179 23.3962C16.7229 23.8251 16.4597 24.4489 16.3524 24.7901C16.2355 25.1215 16.1478 25.5699 16.1478 25.7844C16.1478 26.067 16.216 26.2425 16.3915 26.418C16.5767 26.6032 16.7327 26.6617 17.0543 26.6617C17.4247 26.6617 17.5124 26.6031 18.0583 26.0475C18.38 25.7161 19.1891 24.6341 19.8422 23.6399C20.5051 22.6456 21.1581 21.6221 21.2946 21.3491C21.4408 21.0567 21.5578 20.6278 21.5871 20.2768C21.626 19.7602 21.6066 19.6627 21.4019 19.419C21.2557 19.2533 21.0314 19.1265 20.8267 19.0973ZM17.4442 11.65C17.2298 11.65 16.8886 11.7572 16.6352 11.9034C16.3915 12.0399 15.8943 12.4006 15.5239 12.7028C15.1535 13.0147 14.6758 13.4826 14.4711 13.7458C14.2567 14.0187 13.9155 14.5159 13.7108 14.8668C13.5061 15.2177 13.1941 15.8416 13.0382 16.2607C12.814 16.8066 12.736 17.177 12.736 17.6254C12.7263 18.0641 12.775 18.298 12.9018 18.4637C13.048 18.6586 13.1357 18.6879 13.4184 18.6391C13.6036 18.6001 13.9447 18.4442 14.1787 18.2785C14.4029 18.1226 14.8026 17.7131 15.0755 17.3817C15.3387 17.0406 16.0406 16.1145 16.6352 15.3055C17.22 14.5062 17.8341 13.5996 17.9999 13.3071C18.1558 13.0147 18.2825 12.6248 18.2923 12.4591C18.2923 12.2446 18.2111 12.0562 18.0486 11.8937C17.8731 11.7182 17.6977 11.65 17.4442 11.65Z" fill="#8FD6C1"/>
<path d="M52.7412 9.0278C52.8007 9.02808 54.8668 9.58356 57.3324 10.256C59.7981 10.9285 61.8449 11.5035 61.8749 11.5427C61.9139 11.5817 61.8164 12.0496 61.6605 12.5858C61.5045 13.1219 61.3778 13.7458 61.3778 13.97C61.3778 14.2039 61.4557 14.5938 61.5532 14.8473C61.6507 15.1105 62.0699 15.8221 62.4988 16.4362C62.9179 17.0503 63.3371 17.7521 63.4443 17.9958C63.5418 18.2395 63.6978 18.7854 63.7855 19.2143C63.883 19.7309 63.9122 20.2086 63.8732 20.6277C63.8342 20.9787 63.3956 22.7138 62.879 24.4781C62.3721 26.2425 61.8944 27.9289 61.6702 28.7184H51.9224C45.4891 28.7184 42.1748 28.6892 42.1745 28.621C42.1745 28.5625 42.9056 25.9891 43.7926 22.8893C44.6797 19.7992 45.518 16.9333 45.6545 16.5336C45.791 16.134 46.0151 15.5784 46.1516 15.3152C46.2881 15.0422 46.6391 14.5743 46.9412 14.2624C47.2434 13.9505 47.7308 13.5411 48.0232 13.3656C48.3157 13.1901 48.998 12.8879 49.5341 12.693C50.0703 12.498 50.7136 12.2153 50.9768 12.0496C51.2302 11.8937 51.5812 11.5525 51.7664 11.2893C51.9809 11.0066 52.205 10.49 52.3707 9.92462C52.5169 9.43723 52.6827 9.0278 52.7412 9.0278Z" fill="#8FD6C1"/>
<path d="M37.8855 0.147461C38.1974 0.147462 38.3437 0.215716 38.6068 0.459411C38.8505 0.703104 38.9577 0.917641 39.0552 1.36604C39.1332 1.7657 39.1624 2.36035 39.1235 3.21813C39.0845 3.9687 38.9674 4.94351 38.8212 5.60635L38.803 5.69431C38.6845 6.26855 38.5879 6.73679 38.597 6.74677C38.6068 6.76626 38.792 6.54211 39.0065 6.26918C39.2209 5.99624 39.7278 5.46986 40.1275 5.09944C40.6149 4.6413 41.0243 4.35857 41.3752 4.23184C41.6481 4.13437 42.0673 4.0467 42.3012 4.04669C42.5742 4.04669 42.8276 4.11491 43.0518 4.27087C43.2663 4.40735 43.4418 4.63157 43.5295 4.87526C43.6562 5.21639 43.6562 5.31393 43.51 5.70383C43.4125 5.96703 43.0225 6.52263 42.4962 7.12697C42.0283 7.67285 41.1997 8.57939 40.6636 9.1545C40.1275 9.71988 39.7083 10.2073 39.7376 10.2268C39.7668 10.2463 40.069 10.4022 40.4199 10.5875C40.7708 10.7727 41.2874 11.1431 41.5701 11.4257C41.8528 11.7182 42.2038 12.2056 42.3695 12.5467C42.5254 12.8879 42.7106 13.4631 42.7691 13.8433C42.8276 14.2234 42.8568 14.7595 42.8178 15.0324C42.7886 15.3151 42.4474 16.8553 42.077 18.4442L42.0046 18.7489C41.652 20.2318 41.3312 21.581 41.2582 21.8365C41.1802 22.1483 41.0828 22.3141 40.9951 22.3044C40.9171 22.2946 40.0397 22.2167 39.0357 22.1289C37.3104 21.9925 37.1836 21.9924 36.8522 22.1484C36.6475 22.2556 36.4526 22.4506 36.3648 22.6358C36.2479 22.9184 36.2478 22.9965 36.3745 23.2987C36.4525 23.4839 36.6182 23.7081 36.7449 23.7861C36.8717 23.8738 37.6321 24.0102 38.714 24.137C39.6791 24.2539 40.4979 24.3806 40.5369 24.4099C40.5758 24.4393 40.3711 25.4143 39.5621 28.66L36.1406 28.6794C32.953 28.7087 32.7191 28.6989 32.6801 28.5332C32.6508 28.4453 32.4754 27.5973 32.2805 26.6617C32.0855 25.7259 31.7833 24.1857 31.5981 23.2499C31.4226 22.3142 31.1107 20.735 30.9255 19.7407C30.7305 18.7466 30.5746 17.8303 30.5746 17.6937C30.5746 17.4597 30.5843 17.4499 31.0327 17.5181C31.296 17.5571 32.1635 17.6254 32.9628 17.6644C34.2495 17.7228 34.4542 17.7131 34.6979 17.5669C34.8441 17.4791 35.0293 17.2453 35.1073 17.0601C35.2048 16.8261 35.2243 16.6506 35.1658 16.4946C35.117 16.3776 34.9806 16.1827 34.8539 16.0658C34.6395 15.8611 34.4055 15.8221 32.4754 15.6271C31.2863 15.5101 30.2921 15.3737 30.2529 15.3152C30.2042 15.2567 30.1945 14.8083 30.2237 14.3307C30.2529 13.853 30.3602 13.1707 30.4674 12.8198C30.5746 12.4591 30.8378 11.9424 31.0912 11.6013C31.3251 11.2796 31.6663 10.8994 31.8515 10.7629C32.0367 10.6167 32.4657 10.3633 32.8166 10.1975C33.1675 10.0318 33.6354 9.87591 33.8693 9.84666C34.0934 9.81743 34.2786 9.77842 34.2788 9.74918C34.2788 9.71994 33.9376 9.11549 33.5282 8.4039C33.1188 7.70208 32.5437 6.71761 32.2512 6.23996C31.9685 5.76232 31.5494 4.99224 31.3349 4.53408C31.0717 3.99798 30.9158 3.53006 30.8865 3.21813C30.8573 2.82822 30.8963 2.66249 31.0815 2.38956C31.2082 2.20435 31.4226 1.98988 31.5494 1.93139C31.6858 1.86316 31.9783 1.80469 32.2122 1.80469C32.4364 1.80469 32.7873 1.89237 32.992 1.98984C33.187 2.08732 33.5769 2.40902 33.8401 2.6917C34.113 2.98414 34.4932 3.48132 34.6882 3.803C34.8929 4.12469 35.1854 4.73885 35.6337 5.94752L35.6435 5.31391C35.6435 4.963 35.7117 4.24164 35.7897 3.70552C35.8677 3.16941 36.0139 2.46756 36.1309 2.14586C36.2381 1.82419 36.4331 1.38554 36.5598 1.17108C36.6865 0.956627 36.9497 0.634929 37.1447 0.469216V0.459411C37.4176 0.215743 37.593 0.147461 37.8855 0.147461Z" fill="#8FD6C1"/>
<path d="M53.677 2.10683C53.8329 2.10684 54.5055 2.24327 55.1684 2.40898C55.7648 2.55142 57.7678 3.06784 59.7814 3.587L60.3542 3.73474C62.5473 4.30007 64.4285 4.79713 64.5263 4.84594C64.614 4.89468 64.7603 5.06043 64.8382 5.22614C64.9162 5.38211 64.9845 5.62581 64.9845 5.76228C64.9845 5.89877 64.8285 6.56163 64.6336 7.24397C64.4386 7.93606 64.2144 8.66717 64.1267 8.87187C64.0097 9.13505 63.8439 9.31046 63.6003 9.42743C63.3955 9.53465 63.1713 9.61267 63.1129 9.61267C63.0443 9.61258 60.6367 8.9693 57.7711 8.18953C53.0337 6.90284 52.5267 6.74683 52.2928 6.48365C52.1368 6.3277 51.9906 6.08397 51.9614 5.92801C51.9126 5.75255 52.0296 5.16766 52.3026 4.20262C52.6632 2.90618 52.7412 2.70147 53.0434 2.41878C53.2676 2.21408 53.482 2.10683 53.677 2.10683Z" fill="#8FD6C1"/>
<path fill-rule="evenodd" clip-rule="evenodd" d="M63.4248 31.7403V48.4773C63.4151 61.9781 63.3955 65.3703 63.2883 65.9552C63.2201 66.3549 63.0446 66.969 62.8984 67.3199C62.7619 67.6708 62.4988 68.1875 62.3233 68.4799C62.1576 68.7626 61.7287 69.3085 61.3778 69.6789C61.0268 70.0591 60.442 70.5561 60.0618 70.7901C59.6914 71.0143 58.9603 71.3555 57.5274 71.8526H17.2688L16.5377 71.6285C16.138 71.5017 15.5239 71.2483 15.173 71.0631C14.8221 70.8876 14.3152 70.5464 14.0423 70.3222C13.7693 70.0883 13.3209 69.6399 13.0382 69.3182C12.7652 68.9965 12.3364 68.3434 12.0927 67.856C11.8588 67.3686 11.5858 66.6668 11.498 66.2964C11.3421 65.6725 11.3323 64.1421 11.2836 31.7306L11.5663 31.4478L11.8392 31.1554H62.8399L63.4248 31.7403ZM49.4367 35.9221C49.2222 35.9221 48.9297 36.0001 48.7835 36.0976C48.6373 36.1853 48.4424 36.3705 48.3449 36.507C48.1889 36.7215 48.1597 37.0725 48.111 39.6751C48.0622 42.4434 48.0427 42.6482 47.7892 43.5742C47.6528 44.1103 47.3213 44.9876 47.0581 45.5238C46.8047 46.0599 46.3271 46.8495 46.0054 47.2784C45.6837 47.7073 45.0989 48.3603 44.6992 48.7307C44.2996 49.1109 43.6757 49.608 43.2955 49.8517C42.9154 50.0954 42.2622 50.4561 41.8333 50.6511C41.4044 50.8558 40.7026 51.1092 40.2737 51.2164C39.8448 51.3334 39.1234 51.4699 38.6653 51.5284C38.1876 51.5966 37.3396 51.6161 36.667 51.5868C35.9164 51.5479 35.1658 51.4406 34.5712 51.2944C34.0643 51.1677 33.2747 50.8948 32.8166 50.6998C32.3584 50.4951 31.6858 50.1344 31.3057 49.881C30.9255 49.6275 30.2529 49.072 29.8045 48.6431C29.3658 48.2142 28.781 47.5806 28.5275 47.2296C28.2643 46.8787 27.8841 46.2646 27.6599 45.8649C27.4455 45.4653 27.1433 44.7439 26.9776 44.2565C26.8216 43.7692 26.617 42.8918 26.5292 42.307C26.4123 41.4979 26.3733 40.6985 26.4025 39.0414C26.4318 37.0724 26.4122 36.8091 26.266 36.5752C26.1685 36.429 25.9443 36.2243 25.7786 36.1171C25.6032 36.0099 25.301 35.9221 25.1061 35.9221C24.9111 35.9221 24.6187 36.0196 24.4237 36.1463C24.2385 36.2633 24.0143 36.5168 23.9168 36.702C23.7511 37.0139 23.7413 37.2869 23.7803 39.87C23.8193 42.5116 23.8388 42.7651 24.0728 43.7204C24.2092 44.2858 24.4335 45.0364 24.5699 45.4068C24.7064 45.7674 25.0085 46.4206 25.223 46.8689C25.4472 47.3076 25.8371 47.9705 26.0906 48.3506C26.344 48.7308 26.8022 49.3157 27.1044 49.6666C27.4163 50.0175 27.9719 50.5731 28.3618 50.9143C28.7517 51.2457 29.3464 51.7136 29.6973 51.9475C30.0482 52.1815 30.7305 52.5714 31.2082 52.8151C31.6858 53.0491 32.5047 53.3805 33.0115 53.5462C33.5184 53.7119 34.3567 53.9264 34.8636 54.0141C35.3705 54.1018 36.3161 54.1798 36.9594 54.1895C37.6028 54.1993 38.4898 54.1701 38.9382 54.1311C39.3769 54.0823 40.0787 53.9654 40.4979 53.8679C40.9073 53.7606 41.5994 53.5462 42.0283 53.3902C42.4572 53.2342 43.0908 52.9614 43.4417 52.7859C43.7927 52.6104 44.4458 52.2205 44.9039 51.9183C45.3621 51.6161 46.1419 50.9826 46.6488 50.4952C47.1459 50.0078 47.7892 49.3157 48.0817 48.9355C48.3643 48.5554 48.803 47.9022 49.0467 47.4733C49.2904 47.0444 49.6414 46.3036 49.8266 45.8162C50.0118 45.3288 50.275 44.5197 50.4017 44.0128C50.5382 43.506 50.6941 42.5117 50.7526 41.8196C50.8111 41.1275 50.8501 39.7433 50.8306 38.749C50.8111 37.2576 50.7721 36.8872 50.6356 36.6337C50.5381 36.4583 50.3139 36.2243 50.1482 36.1171C49.963 36.0099 49.6609 35.9221 49.4367 35.9221Z" stroke="#72CAB0" stroke-width="6" mask="url(#path-1-inside-1_10116_469)"/>
<path fill-rule="evenodd" clip-rule="evenodd" d="M12.7165 3.27658C13.2039 3.27658 13.9545 3.34477 14.3736 3.4325C14.7831 3.52023 15.3485 3.67626 15.6116 3.78348C15.8846 3.89071 16.3427 4.09543 16.6352 4.24165C16.9276 4.39762 17.4345 4.6998 17.7562 4.924C18.0779 5.14821 18.7017 5.64529 19.1501 6.0352C19.5985 6.42511 20.2614 7.06849 20.6221 7.46815C20.9827 7.86781 21.5578 8.55017 21.899 8.97906C22.2304 9.40797 22.9128 10.373 23.4099 11.1236C23.9168 11.8742 24.6576 13.0829 25.067 13.8042C25.4862 14.5256 26.1003 15.6661 26.4317 16.3387C26.7632 17.0113 27.2701 18.0835 27.5527 18.7269C27.8257 19.3703 28.2253 20.3451 28.4398 20.8909C28.6445 21.4466 28.9662 22.3921 29.1514 22.9867C29.3366 23.5911 29.6388 24.6829 29.8338 25.4042C30.0287 26.1255 30.2724 27.1393 30.3796 27.6462C30.4868 28.1531 30.5746 28.6015 30.5746 28.6405C30.5729 28.6892 26.4094 28.7184 12.0537 28.7184L11.6541 27.8607C11.4299 27.3928 10.9619 26.2912 10.6207 25.4042C10.2698 24.5171 9.72393 23.0257 9.40225 22.0899C9.09032 21.1541 8.68093 19.8089 8.49572 19.1168C8.31051 18.4247 8.08631 17.4987 8.00833 17.0698C7.93034 16.6409 7.76467 15.6953 7.65744 14.974C7.55022 14.2526 7.43319 12.8879 7.40394 11.9522C7.36495 10.8312 7.3845 9.9246 7.46249 9.32024C7.53072 8.81335 7.65742 8.1505 7.73541 7.85806C7.81339 7.56563 7.9986 7.05874 8.12532 6.73706C8.26179 6.41538 8.52494 5.90849 8.7199 5.61606C8.90511 5.32362 9.26584 4.86544 9.50953 4.60224C9.75322 4.34881 10.1334 4.0272 10.3478 3.90048C10.5623 3.77375 10.9814 3.58847 11.2739 3.48124C11.6638 3.33503 12.0634 3.28632 12.7165 3.27658ZM20.8267 19.0973C20.5733 19.0583 20.4075 19.0973 20.1541 19.2727C19.9689 19.3995 19.5108 19.848 19.1404 20.2768C18.7602 20.7058 18.1948 21.4076 17.8732 21.8365C17.5515 22.2654 17.1226 22.9673 16.9179 23.3962C16.7229 23.8251 16.4597 24.4489 16.3524 24.7901C16.2355 25.1215 16.1478 25.5699 16.1478 25.7844C16.1478 26.067 16.216 26.2425 16.3915 26.418C16.5767 26.6032 16.7327 26.6617 17.0543 26.6617C17.4247 26.6617 17.5124 26.6031 18.0583 26.0475C18.38 25.7161 19.1891 24.6341 19.8422 23.6399C20.5051 22.6456 21.1581 21.6221 21.2946 21.3491C21.4408 21.0567 21.5578 20.6278 21.5871 20.2768C21.626 19.7602 21.6066 19.6627 21.4019 19.419C21.2557 19.2533 21.0314 19.1265 20.8267 19.0973ZM17.4442 11.65C17.2298 11.65 16.8886 11.7572 16.6352 11.9034C16.3915 12.0399 15.8943 12.4006 15.5239 12.7028C15.1535 13.0147 14.6758 13.4826 14.4711 13.7458C14.2567 14.0187 13.9155 14.5159 13.7108 14.8668C13.5061 15.2177 13.1941 15.8416 13.0382 16.2607C12.814 16.8066 12.736 17.177 12.736 17.6254C12.7263 18.0641 12.775 18.298 12.9018 18.4637C13.048 18.6586 13.1357 18.6879 13.4184 18.6391C13.6036 18.6001 13.9447 18.4442 14.1787 18.2785C14.4029 18.1226 14.8026 17.7131 15.0755 17.3817C15.3387 17.0406 16.0406 16.1145 16.6352 15.3055C17.22 14.5062 17.8341 13.5996 17.9999 13.3071C18.1558 13.0147 18.2825 12.6248 18.2923 12.4591C18.2923 12.2446 18.2111 12.0562 18.0486 11.8937C17.8731 11.7182 17.6977 11.65 17.4442 11.65Z" stroke="#72CAB0" stroke-width="6" mask="url(#path-1-inside-1_10116_469)"/>
<path d="M52.7412 9.0278C52.8007 9.02808 54.8668 9.58356 57.3324 10.256C59.7981 10.9285 61.8449 11.5035 61.8749 11.5427C61.9139 11.5817 61.8164 12.0496 61.6605 12.5858C61.5045 13.1219 61.3778 13.7458 61.3778 13.97C61.3778 14.2039 61.4557 14.5938 61.5532 14.8473C61.6507 15.1105 62.0699 15.8221 62.4988 16.4362C62.9179 17.0503 63.3371 17.7521 63.4443 17.9958C63.5418 18.2395 63.6978 18.7854 63.7855 19.2143C63.883 19.7309 63.9122 20.2086 63.8732 20.6277C63.8342 20.9787 63.3956 22.7138 62.879 24.4781C62.3721 26.2425 61.8944 27.9289 61.6702 28.7184H51.9224C45.4891 28.7184 42.1748 28.6892 42.1745 28.621C42.1745 28.5625 42.9056 25.9891 43.7926 22.8893C44.6797 19.7992 45.518 16.9333 45.6545 16.5336C45.791 16.134 46.0151 15.5784 46.1516 15.3152C46.2881 15.0422 46.6391 14.5743 46.9412 14.2624C47.2434 13.9505 47.7308 13.5411 48.0232 13.3656C48.3157 13.1901 48.998 12.8879 49.5341 12.693C50.0703 12.498 50.7136 12.2153 50.9768 12.0496C51.2302 11.8937 51.5812 11.5525 51.7664 11.2893C51.9809 11.0066 52.205 10.49 52.3707 9.92462C52.5169 9.43723 52.6827 9.0278 52.7412 9.0278Z" stroke="#72CAB0" stroke-width="6" mask="url(#path-1-inside-1_10116_469)"/>
<path d="M37.8855 0.147461C38.1974 0.147462 38.3437 0.215716 38.6068 0.459411C38.8505 0.703104 38.9577 0.917641 39.0552 1.36604C39.1332 1.7657 39.1624 2.36035 39.1235 3.21813C39.0845 3.9687 38.9674 4.94351 38.8212 5.60635L38.803 5.69431C38.6845 6.26855 38.5879 6.73679 38.597 6.74677C38.6068 6.76626 38.792 6.54211 39.0065 6.26918C39.2209 5.99624 39.7278 5.46986 40.1275 5.09944C40.6149 4.6413 41.0243 4.35857 41.3752 4.23184C41.6481 4.13437 42.0673 4.0467 42.3012 4.04669C42.5742 4.04669 42.8276 4.11491 43.0518 4.27087C43.2663 4.40735 43.4418 4.63157 43.5295 4.87526C43.6562 5.21639 43.6562 5.31393 43.51 5.70383C43.4125 5.96703 43.0225 6.52263 42.4962 7.12697C42.0283 7.67285 41.1997 8.57939 40.6636 9.1545C40.1275 9.71988 39.7083 10.2073 39.7376 10.2268C39.7668 10.2463 40.069 10.4022 40.4199 10.5875C40.7708 10.7727 41.2874 11.1431 41.5701 11.4257C41.8528 11.7182 42.2038 12.2056 42.3695 12.5467C42.5254 12.8879 42.7106 13.4631 42.7691 13.8433C42.8276 14.2234 42.8568 14.7595 42.8178 15.0324C42.7886 15.3151 42.4474 16.8553 42.077 18.4442L42.0046 18.7489C41.652 20.2318 41.3312 21.581 41.2582 21.8365C41.1802 22.1483 41.0828 22.3141 40.9951 22.3044C40.9171 22.2946 40.0397 22.2167 39.0357 22.1289C37.3104 21.9925 37.1836 21.9924 36.8522 22.1484C36.6475 22.2556 36.4526 22.4506 36.3648 22.6358C36.2479 22.9184 36.2478 22.9965 36.3745 23.2987C36.4525 23.4839 36.6182 23.7081 36.7449 23.7861C36.8717 23.8738 37.6321 24.0102 38.714 24.137C39.6791 24.2539 40.4979 24.3806 40.5369 24.4099C40.5758 24.4393 40.3711 25.4143 39.5621 28.66L36.1406 28.6794C32.953 28.7087 32.7191 28.6989 32.6801 28.5332C32.6508 28.4453 32.4754 27.5973 32.2805 26.6617C32.0855 25.7259 31.7833 24.1857 31.5981 23.2499C31.4226 22.3142 31.1107 20.735 30.9255 19.7407C30.7305 18.7466 30.5746 17.8303 30.5746 17.6937C30.5746 17.4597 30.5843 17.4499 31.0327 17.5181C31.296 17.5571 32.1635 17.6254 32.9628 17.6644C34.2495 17.7228 34.4542 17.7131 34.6979 17.5669C34.8441 17.4791 35.0293 17.2453 35.1073 17.0601C35.2048 16.8261 35.2243 16.6506 35.1658 16.4946C35.117 16.3776 34.9806 16.1827 34.8539 16.0658C34.6395 15.8611 34.4055 15.8221 32.4754 15.6271C31.2863 15.5101 30.2921 15.3737 30.2529 15.3152C30.2042 15.2567 30.1945 14.8083 30.2237 14.3307C30.2529 13.853 30.3602 13.1707 30.4674 12.8198C30.5746 12.4591 30.8378 11.9424 31.0912 11.6013C31.3251 11.2796 31.6663 10.8994 31.8515 10.7629C32.0367 10.6167 32.4657 10.3633 32.8166 10.1975C33.1675 10.0318 33.6354 9.87591 33.8693 9.84666C34.0934 9.81743 34.2786 9.77842 34.2788 9.74918C34.2788 9.71994 33.9376 9.11549 33.5282 8.4039C33.1188 7.70208 32.5437 6.71761 32.2512 6.23996C31.9685 5.76232 31.5494 4.99224 31.3349 4.53408C31.0717 3.99798 30.9158 3.53006 30.8865 3.21813C30.8573 2.82822 30.8963 2.66249 31.0815 2.38956C31.2082 2.20435 31.4226 1.98988 31.5494 1.93139C31.6858 1.86316 31.9783 1.80469 32.2122 1.80469C32.4364 1.80469 32.7873 1.89237 32.992 1.98984C33.187 2.08732 33.5769 2.40902 33.8401 2.6917C34.113 2.98414 34.4932 3.48132 34.6882 3.803C34.8929 4.12469 35.1854 4.73885 35.6337 5.94752L35.6435 5.31391C35.6435 4.963 35.7117 4.24164 35.7897 3.70552C35.8677 3.16941 36.0139 2.46756 36.1309 2.14586C36.2381 1.82419 36.4331 1.38554 36.5598 1.17108C36.6865 0.956627 36.9497 0.634929 37.1447 0.469216V0.459411C37.4176 0.215743 37.593 0.147461 37.8855 0.147461Z" stroke="#72CAB0" stroke-width="6" mask="url(#path-1-inside-1_10116_469)"/>
<path d="M53.677 2.10683C53.8329 2.10684 54.5055 2.24327 55.1684 2.40898C55.7648 2.55142 57.7678 3.06784 59.7814 3.587L60.3542 3.73474C62.5473 4.30007 64.4285 4.79713 64.5263 4.84594C64.614 4.89468 64.7603 5.06043 64.8382 5.22614C64.9162 5.38211 64.9845 5.62581 64.9845 5.76228C64.9845 5.89877 64.8285 6.56163 64.6336 7.24397C64.4386 7.93606 64.2144 8.66717 64.1267 8.87187C64.0097 9.13505 63.8439 9.31046 63.6003 9.42743C63.3955 9.53465 63.1713 9.61267 63.1129 9.61267C63.0443 9.61258 60.6367 8.9693 57.7711 8.18953C53.0337 6.90284 52.5267 6.74683 52.2928 6.48365C52.1368 6.3277 51.9906 6.08397 51.9614 5.92801C51.9126 5.75255 52.0296 5.16766 52.3026 4.20262C52.6632 2.90618 52.7412 2.70147 53.0434 2.41878C53.2676 2.21408 53.482 2.10683 53.677 2.10683Z" stroke="#72CAB0" stroke-width="6" mask="url(#path-1-inside-1_10116_469)"/>
</svg>
