<svg width="73" height="72" viewBox="0 0 73 72" fill="none" xmlns="http://www.w3.org/2000/svg">
<path d="M10.1924 35.415L8.7168 35.3906L2.34473 35.2861L2.25977 35.2285L2.23438 35.2109C2.20151 35.1894 2.16132 35.1556 2.12695 35.1172C2.09105 35.077 2.08564 35.0589 2.09375 35.0771L2.08496 35.0586L2.07617 35.0391L2.05664 34.9883C2.04497 34.9539 2.03287 34.9128 2.02246 34.8701C2.01369 34.8341 2.0079 34.8026 2.00391 34.7783C2.00784 34.7584 2.01371 34.7329 2.02148 34.7041C2.0324 34.6638 2.04551 34.6256 2.05762 34.5938C2.07041 34.5601 2.07753 34.5465 2.0752 34.5508L2.09277 34.5186L2.1084 34.4854C2.11613 34.4692 2.13039 34.4436 2.15039 34.4111C2.17011 34.3791 2.19168 34.3474 2.21191 34.3203C2.22432 34.3037 2.23392 34.2917 2.24023 34.2842C2.50429 34.0675 3.17972 33.4349 3.78027 32.8447L3.7793 32.8438C4.42121 32.2243 5.7829 30.9416 6.81934 29.9609C7.86117 28.9856 9.45034 27.4849 10.3301 26.6602C11.2327 25.825 13.7087 23.4952 15.8477 21.4893L15.8506 21.4863C16.9193 20.4789 17.9215 19.5351 18.6709 18.8262C19.0454 18.4719 19.3598 18.1738 19.5889 17.9541C19.7504 17.7992 19.9407 17.6133 20.0498 17.4941L20.0518 17.4961C20.0635 17.4851 20.1347 17.415 20.2988 17.2578C20.4692 17.0946 20.7036 16.872 20.9854 16.6055C21.5477 16.0736 22.2937 15.3721 23.0879 14.6279C24.6675 13.1588 26.8143 11.1371 27.7705 10.2461L27.7773 10.2402C28.7299 9.34184 30.5707 7.58241 31.7344 6.4834L31.7393 6.47852C32.9337 5.33987 34.304 4.04822 34.791 3.60449L34.8027 3.59277C35.0073 3.40217 35.2506 3.19935 35.4707 3.03125C35.5799 2.94782 35.6761 2.8784 35.752 2.82715C35.8376 2.76927 35.8645 2.7567 35.8447 2.7666L35.876 2.75098C35.9554 2.70894 35.985 2.70193 36.0195 2.69531C36.0829 2.68321 36.2077 2.66895 36.5 2.66895C36.7506 2.66895 36.8961 2.6836 36.9844 2.69922C37.054 2.71156 37.0915 2.72507 37.1221 2.73926C37.1333 2.74637 37.1539 2.76035 37.1855 2.78223C37.2604 2.83401 37.3617 2.90805 37.4824 3.00293C37.7235 3.19238 38.0074 3.43473 38.2686 3.67578C38.8427 4.20576 40.1959 5.46963 41.2578 6.4873C42.3314 7.51616 44.6641 9.73729 49.6797 14.4854L52.1494 16.8232L52.21 13.4219L52.2656 10.292C52.294 8.78608 52.3109 8.06182 52.3447 7.6582C52.3479 7.61988 52.3526 7.58802 52.3555 7.56152C52.444 7.55416 52.5595 7.54826 52.708 7.54102C53.3001 7.51215 54.2723 7.49457 55.9033 7.4834H55.9082C56.9884 7.47232 58.0229 7.4695 58.8164 7.47363C59.2138 7.4757 59.547 7.48019 59.793 7.48535C59.9656 7.48898 60.0627 7.49055 60.1055 7.49219C60.1129 7.4945 60.1223 7.4975 60.1318 7.50195C60.1414 7.50641 60.1487 7.51072 60.1533 7.51367L60.168 7.52637C60.1685 7.52698 60.1693 7.52754 60.1699 7.52832C60.1745 7.53366 60.1811 7.54107 60.1885 7.55078C60.1936 7.55753 60.1989 7.56484 60.2041 7.57227C60.2103 7.65031 60.2196 7.76844 60.2266 7.94238C60.2442 8.38329 60.2581 9.10322 60.2686 10.2773C60.279 11.4488 60.2858 13.0565 60.2891 15.2637V24.5088L60.7744 24.9551L61.8672 25.958L61.873 25.9639C62.4655 26.5014 64.7697 28.6499 67.0176 30.7412V30.7422C68.6308 32.2494 69.6406 33.2066 70.2627 33.8301C70.5751 34.1432 70.7664 34.3492 70.8809 34.4844C70.9064 34.5146 70.924 34.5393 70.9375 34.5566C70.9379 34.558 70.939 34.5591 70.9395 34.5605C70.9504 34.5976 70.9623 34.6441 70.9727 34.6943C70.983 34.7444 70.9904 34.7912 70.9951 34.8301C70.9989 34.8613 70.9998 34.8792 71 34.8838C71 34.8955 70.9994 34.919 70.9961 34.9512C70.993 34.9819 70.9877 35.0132 70.9824 35.041C70.9759 35.0502 70.9691 35.0607 70.9609 35.0713C70.9435 35.0941 70.9268 35.1144 70.9131 35.1299C70.898 35.1469 70.8943 35.1499 70.9033 35.1416L70.9014 35.1436C70.8899 35.1519 70.869 35.1669 70.8398 35.1846C70.8102 35.2025 70.7796 35.2195 70.752 35.2334C70.7384 35.2402 70.7263 35.2462 70.7178 35.25C70.7164 35.2506 70.715 35.2505 70.7139 35.251C70.6554 35.2579 70.4292 35.2841 69.835 35.3008C68.9144 35.3265 67.2901 35.335 64.3076 35.335H62.8047L62.8076 36.8379L62.8418 53.0205C62.8529 60.5036 62.8552 64.5526 62.833 66.7959C62.8219 67.9225 62.8045 68.5641 62.7812 68.9482C62.7683 69.1618 62.7547 69.2623 62.749 69.2979C62.7211 69.379 62.6247 69.5661 62.3564 69.8438C62.0907 70.1082 61.9869 70.1586 61.8203 70.2129C61.7589 70.2286 61.4729 70.2771 59.5068 70.3008C57.5878 70.3239 54.1952 70.3283 48.0264 70.3291L47.9756 51.1523L47.9746 50.9346L47.9121 50.7256L47.6445 49.834C47.4815 49.2837 47.1925 48.5019 46.9873 48.04C46.7668 47.5439 46.3654 46.8445 46.085 46.4238L46.0762 46.4111L46.0674 46.3975C45.7569 45.9521 45.1925 45.2813 44.791 44.8555L44.7842 44.8477L44.7764 44.8398L44.3965 44.4727C43.9804 44.0891 43.4783 43.6769 43.1084 43.4141L43.0908 43.4004L43.0723 43.3887L42.6631 43.127C42.2153 42.8506 41.6761 42.5451 41.2812 42.3525C40.7223 42.0799 39.8514 41.7708 39.292 41.6182H39.293C38.4249 41.3801 37.7434 41.3198 36.5693 41.3193H36.5703C35.3356 41.3076 34.7258 41.3554 33.7881 41.6113C33.332 41.7278 32.7278 41.9318 32.2354 42.1299L31.79 42.3223C31.3402 42.5307 30.6921 42.8738 30.2832 43.1523V43.1514C29.8898 43.4042 29.2834 43.8779 28.8916 44.2207C28.5012 44.5547 27.9623 45.1061 27.5693 45.582L27.4238 45.7646C27.0195 46.2733 26.4627 47.1267 26.1475 47.7441C25.8138 48.3976 25.4247 49.4104 24.9658 51.0967L24.9141 51.2881L24.9131 51.4863L24.8613 70.3242L18.5723 70.2979H18.5703C14.6986 70.2867 12.7913 70.2815 11.7891 70.249C11.3555 70.235 11.1544 70.2146 11.0635 70.2021C10.9286 70.1244 10.6964 69.9532 10.5996 69.8564C10.555 69.8118 10.4192 69.6543 10.1924 69.2656V35.415Z" fill="#8FD6C1" stroke="#72CAB0" stroke-width="3"/>
</svg>
