<svg width="72" height="72" viewBox="0 0 72 72" fill="none" xmlns="http://www.w3.org/2000/svg">
<path d="M43.0999 3.97454C43.3779 3.4964 43.7449 2.98489 43.9228 2.85146V2.84034C44.1229 2.68466 44.3898 2.5957 44.6678 2.5957C44.9013 2.5957 45.2238 2.66242 45.4017 2.75138C45.5685 2.82922 45.9688 3.19617 46.3024 3.552C46.6805 3.97454 47.0919 4.60837 47.4366 5.32003C47.7368 5.95385 48.0815 6.86566 48.2039 7.43277C48.3373 7.97763 48.4819 8.87833 48.5931 10.4017L49.7606 10.8688C50.4056 11.1245 51.3285 11.5471 51.8178 11.8139C52.307 12.0808 53.0854 12.5589 53.5413 12.8592C53.9972 13.1705 54.7978 13.7599 55.3205 14.1713C55.8431 14.5827 56.8216 15.4834 57.4999 16.184C58.1782 16.8734 59.0567 17.863 59.457 18.3857C59.8573 18.9083 60.4578 19.7534 60.7914 20.276C61.1249 20.7986 61.6364 21.6437 61.9144 22.1664C62.1924 22.689 62.6595 23.712 62.9486 24.4459C63.2266 25.1798 63.6269 26.4586 63.8381 27.2814C64.0383 28.1043 64.3052 29.3274 64.4275 30.0057C64.5498 30.6729 64.7055 31.7515 64.7722 32.3965C64.8389 33.0414 64.8834 33.8643 64.8834 34.2312C64.8834 34.5982 64.9168 35.1319 65.0502 35.9548H65.495C65.7396 35.9548 66.24 36.0326 66.6069 36.1216C66.9739 36.2216 67.5966 36.4552 67.9969 36.6331C68.4195 36.8332 68.9866 37.2335 69.3646 37.6116C69.7316 37.9563 70.232 38.5568 70.4988 38.9571C70.7657 39.3574 71.1215 39.9801 71.2772 40.3471C71.444 40.714 71.6664 41.4145 71.7887 41.9038C71.9222 42.482 72 43.2048 72 43.961C72 44.7727 71.9333 45.3954 71.7776 46.0181C71.6553 46.5074 71.3884 47.2524 71.1883 47.6861C70.9881 48.1197 70.5989 48.7869 70.332 49.1872C70.0541 49.5875 69.5537 50.2102 69.209 50.5772C68.8643 50.9441 68.3416 51.4 68.0414 51.6002C67.7412 51.8003 67.1963 52.0672 66.8293 52.1895C66.429 52.3341 65.7285 52.4564 63.9827 52.5787L63.449 53.8019C63.1487 54.4691 62.6483 55.5032 62.3259 56.0814C62.0034 56.6596 61.4697 57.5603 61.1249 58.083C60.7802 58.6056 60.1131 59.5063 59.646 60.0845C59.179 60.6627 58.2783 61.6413 57.6445 62.2528C57.0107 62.8644 56.0655 63.6984 55.5429 64.1098C55.0202 64.5101 54.1751 65.1106 53.6525 65.4553C53.1299 65.7889 52.1847 66.3449 51.5398 66.6785C50.8948 67.0232 49.9497 67.4791 49.427 67.7015C48.9044 67.9239 47.9815 68.2797 47.3699 68.491C46.7583 68.7023 45.8354 69.0025 45.3127 69.1471C44.7901 69.2916 43.8783 69.514 43.289 69.6363C42.6885 69.7698 41.71 69.9477 41.1206 70.0366C40.5202 70.1256 39.2303 70.2479 38.2517 70.3257C37.2287 70.4036 35.772 70.4258 34.8046 70.3813C33.8928 70.348 32.4806 70.2368 31.6911 70.1478C30.9016 70.0477 29.7452 69.8698 29.1336 69.7475C28.522 69.6252 27.5435 69.4028 26.9653 69.2471C26.387 69.0803 25.3307 68.7579 24.6301 68.5132C23.9296 68.2686 22.4507 67.6237 21.3498 67.0899C20.249 66.545 18.8368 65.7556 18.2141 65.3441C17.5914 64.9327 16.6684 64.2655 16.168 63.8652C15.6565 63.4649 14.6669 62.5642 13.9552 61.8637C13.2547 61.1631 12.2873 60.0623 11.798 59.4173C11.3198 58.7724 10.5859 57.6715 10.1634 56.971C9.75197 56.2705 9.19598 55.2141 8.91799 54.6359C8.65112 54.0576 8.33977 53.3349 8.00618 52.512L7.2278 52.5231C6.80525 52.5231 6.14919 52.4453 5.78224 52.3563C5.41529 52.2562 4.85931 52.0672 4.55907 51.9227C4.24772 51.7781 3.73622 51.4556 3.42486 51.211C3.10239 50.9552 2.51305 50.3325 2.11274 49.821C1.71243 49.3206 1.16757 48.4867 0.900695 47.964C0.633822 47.4414 0.322471 46.7186 0.211274 46.3517C0.0444788 45.8291 0 45.3176 0 43.961C0 42.4709 0.0333591 42.1262 0.255753 41.4034C0.400309 40.9475 0.72278 40.1914 0.967413 39.7355C1.21205 39.2796 1.66795 38.579 1.99042 38.1787C2.3129 37.7784 2.86888 37.2558 3.23583 37.0111C3.59166 36.7665 4.24772 36.444 4.67027 36.3106C5.09282 36.1661 5.80448 36.0215 7.00541 35.8992L7.08324 33.9532C7.1166 32.8857 7.23892 31.4624 7.339 30.7841C7.43907 30.1058 7.65035 28.9605 7.80602 28.2266C7.95058 27.4927 8.28417 26.2918 8.51768 25.5579C8.76232 24.824 9.25158 23.623 9.60741 22.8891C9.95212 22.1552 10.5415 21.0766 10.8973 20.4984C11.2642 19.9202 11.9314 18.9416 12.3985 18.3301C12.8544 17.7185 13.7328 16.6955 14.3444 16.0616C14.956 15.4278 15.8789 14.5716 16.4015 14.1602C16.9242 13.7488 17.8471 13.0816 18.4587 12.6813C19.0703 12.281 20.1155 11.6805 20.7938 11.3469C21.4721 11.0133 22.5285 10.524 23.1623 10.2794C23.785 10.0237 24.7302 9.70119 25.2639 9.54551C25.8088 9.38983 26.665 9.15632 27.1876 9.04512C27.7103 8.93393 28.7333 8.75601 29.4672 8.66705C30.2011 8.56698 31.7245 8.44466 32.8587 8.37794C33.9929 8.31122 35.3717 8.18891 35.9166 8.08883C36.4726 7.99987 37.2954 7.83308 37.7514 7.72188C38.2073 7.59956 38.9634 7.36605 39.4193 7.18814C39.8752 7.01022 40.5535 6.66551 40.9093 6.432C41.2763 6.18736 41.7989 5.73146 42.0769 5.4201C42.3549 5.11987 42.8219 4.46381 43.0999 3.97454Z" fill="#72CAB0"/>
<path d="M47.7591 20.9432C47.9036 20.4873 48.0371 20.0314 48.0593 19.9424C48.0927 19.8535 48.215 20.1537 48.3373 20.6096C48.4485 21.0655 48.7598 21.8995 49.0267 22.4444C49.2825 22.9892 49.7606 23.8454 50.0942 24.3236C50.4278 24.8128 51.1061 25.6357 51.6065 26.1583C52.1069 26.6921 52.8519 27.3926 53.2744 27.7373C53.697 28.082 54.4198 28.6158 54.8757 28.916C55.3316 29.2274 56.0321 29.6388 56.4324 29.8389C56.8327 30.0502 57.5444 30.3616 58.901 30.8953L59.179 31.6181C59.3236 32.0184 59.6127 32.8857 59.8239 33.564C60.0241 34.2423 60.4022 35.7101 60.6468 36.8444C60.9026 37.9786 61.1805 39.1128 61.2695 39.3685C61.3918 39.7021 61.5475 39.9023 61.7921 40.0357C62.0034 40.1469 62.3926 40.2136 62.7151 40.2136C63.0153 40.2025 63.4712 40.1135 63.7158 40.0135C63.9605 39.9023 64.4497 39.8133 64.8278 39.8133C65.2615 39.8133 65.6284 39.88 65.8842 40.0135C66.0955 40.1247 66.4179 40.3248 66.6069 40.4583C66.7849 40.6028 67.0851 40.9253 67.263 41.1922C67.4409 41.459 67.6856 41.9594 67.7968 42.293C67.908 42.6266 68.0303 43.2271 68.0636 43.6274C68.1081 44.0499 68.0748 44.6281 67.9969 45.0173C67.9191 45.3843 67.6856 46.0181 67.4854 46.4295C67.2741 46.8521 66.9183 47.3969 66.6737 47.6527C66.4402 47.9196 66.0065 48.2643 65.7063 48.4311C65.406 48.5867 64.939 48.7869 64.661 48.8536C64.2273 48.9759 64.0605 48.9537 63.3266 48.7424C62.7373 48.5645 62.3259 48.5089 61.9367 48.5534C61.6031 48.5867 61.3029 48.6979 61.1917 48.8203C61.0805 48.9315 60.7914 49.6209 60.5467 50.3548C60.291 51.0887 59.7906 52.3118 59.4236 53.0791C59.0567 53.8464 58.5229 54.8471 58.2449 55.303C57.9669 55.7589 57.4332 56.5373 57.0663 57.0266C56.6882 57.5159 55.8542 58.4499 55.2093 59.0949C54.5643 59.7509 53.508 60.6739 52.8519 61.152C52.207 61.6413 51.0839 62.364 50.35 62.7755C49.6272 63.1869 48.6153 63.6984 48.0927 63.9208C47.57 64.1432 46.7249 64.4768 46.2023 64.6547C45.6797 64.8437 44.7345 65.1328 44.0896 65.3108C43.4446 65.4776 42.5217 65.7 42.0324 65.8C41.5432 65.9001 40.5646 66.0558 39.8641 66.1447C39.1636 66.2337 37.8625 66.3338 36.973 66.3783C36.0278 66.4227 34.6934 66.4005 33.7483 66.3227C32.8587 66.2559 31.5132 66.0891 30.7459 65.9668C29.9787 65.8445 28.6999 65.5665 27.9104 65.3664C27.1098 65.1662 25.9645 64.8104 25.3529 64.588C24.7413 64.3656 23.6849 63.9097 23.0178 63.5872C22.3395 63.2647 21.4388 62.7866 21.0162 62.5197C20.5826 62.264 19.7597 61.6969 19.1815 61.2632C18.6032 60.8295 17.6803 60.0511 17.1354 59.5285C16.5906 59.0059 15.8456 58.2053 15.4786 57.7494C15.1117 57.2935 14.5112 56.4706 14.1442 55.9146C13.7773 55.3586 13.1212 54.1577 12.6764 53.2459C12.2205 52.323 11.7202 51.1776 11.5645 50.6884C11.3977 50.1991 11.1975 49.5875 11.1086 49.3206C10.9974 48.9982 10.8528 48.798 10.6193 48.6868C10.4303 48.5979 10.0744 48.52 9.80757 48.52C9.55182 48.52 9.11815 48.5979 8.84015 48.6868C8.56216 48.7869 8.06178 48.8647 7.72819 48.8647C7.25004 48.8759 6.96093 48.7869 6.40494 48.4978C6.01575 48.2976 5.49313 47.8973 5.23737 47.6193C4.98162 47.3413 4.64803 46.8632 4.48124 46.563C4.31444 46.2627 4.10317 45.7179 4.01421 45.3509C3.91413 44.984 3.83629 44.3613 3.83629 43.961C3.83629 43.5495 3.92525 42.9268 4.04757 42.5154C4.16988 42.1151 4.41452 41.5702 4.59243 41.2922C4.75923 41.0142 5.07058 40.6584 5.28185 40.5027C5.49313 40.3359 5.84896 40.1135 6.06023 40.0135C6.29375 39.8911 6.69405 39.8133 7.061 39.8133C7.42795 39.8133 7.93946 39.9134 8.33977 40.0579C8.84015 40.247 9.14039 40.3026 9.56293 40.2581C9.941 40.2136 10.1968 40.1135 10.3636 39.9356C10.5303 39.7688 10.686 39.3463 10.8306 38.7347C10.9418 38.2121 11.1753 37.1891 11.3421 36.4552C11.5089 35.7213 11.8425 34.4425 12.0871 33.6196C12.3317 32.7968 12.6653 31.7738 13.1657 30.5617L13.9219 30.4728C14.3444 30.4172 15.4008 30.2504 16.2903 30.1058C17.1799 29.9613 18.6255 29.661 19.5151 29.4386C20.4046 29.2162 21.8502 28.8048 22.7398 28.5157C23.6293 28.2155 24.9748 27.7151 25.7421 27.3926C26.5093 27.0701 27.6102 26.5698 28.1884 26.2806C28.7666 25.9915 29.5673 25.569 29.9676 25.3466C30.3679 25.1242 30.7015 24.9574 30.7237 24.9685C30.7459 24.9908 30.6792 25.3244 30.5792 25.7247C30.4791 26.125 30.2678 26.6921 30.101 26.9923C29.9342 27.2925 29.4672 27.9041 29.0446 28.3489C28.6332 28.8048 28.1995 29.3386 28.0772 29.5387C27.9549 29.7278 27.8548 30.0836 27.8548 30.306C27.8548 30.5951 27.9438 30.8397 28.1328 31.0621C28.2885 31.2511 28.5998 31.4402 28.8222 31.5069C29.0558 31.5625 29.6896 31.6181 30.2456 31.6181C30.7904 31.6181 31.8913 31.518 32.6919 31.4068C33.4814 31.2845 34.6378 31.0621 35.2494 30.9064C35.861 30.7508 36.6616 30.5284 37.0286 30.4061C37.3955 30.2949 38.0849 30.0502 38.552 29.8501C39.0301 29.661 39.7529 29.3386 40.1643 29.1273C40.5869 28.9271 41.4653 28.3823 42.1436 27.9375C42.8108 27.4816 43.8116 26.6921 44.3564 26.1694C44.8902 25.6468 45.6241 24.8462 45.9577 24.3903C46.3024 23.9344 46.7917 23.156 47.0474 22.6667C47.3032 22.1775 47.6256 21.3991 47.7591 20.9432Z" fill="#FBFBFB"/>
<path d="M22.5173 39.4241C22.7953 39.2573 23.2179 39.0683 23.4625 38.9904C23.7071 38.9126 24.2742 38.857 24.7413 38.8792C25.4085 38.9015 25.7198 38.9793 26.298 39.2573C26.7206 39.4575 27.1987 39.8022 27.4545 40.0913C27.6991 40.347 28.0216 40.8474 28.1773 41.181C28.3329 41.548 28.4664 42.0817 28.4997 42.5154C28.5331 42.9824 28.4886 43.4606 28.3774 43.8497C28.2773 44.1833 28.0327 44.706 27.8214 45.0173C27.6213 45.3175 27.1765 45.7623 26.8429 45.9847C26.4982 46.2294 25.9422 46.474 25.5196 46.5852C25.0304 46.7075 24.5967 46.7409 24.1853 46.6964C23.8517 46.663 23.2735 46.4851 22.9065 46.3072C22.484 46.107 22.0503 45.7735 21.7056 45.3954C21.4054 45.0618 21.0607 44.5169 20.9272 44.1833C20.7604 43.7385 20.6937 43.3271 20.6937 42.6822C20.6937 41.9594 20.7493 41.6703 20.9717 41.181C21.1274 40.8474 21.4276 40.3804 21.6389 40.1358C21.8501 39.9023 22.2393 39.5798 22.5173 39.4241Z" fill="#72CAB0"/>
<path d="M45.2126 39.5687C45.4684 39.3907 45.9465 39.1461 46.2467 39.0349C46.6582 38.9015 47.0474 38.8459 47.6478 38.8792C48.2372 38.9015 48.6597 39.0016 49.0934 39.1906C49.427 39.3463 49.9274 39.691 50.1942 39.9579C50.4611 40.2358 50.8169 40.7362 50.9726 41.0698C51.195 41.5368 51.2617 41.9038 51.2951 42.6266C51.3285 43.3716 51.284 43.7052 51.1061 44.1833C50.9837 44.5169 50.6724 45.0396 50.4055 45.3398C50.1386 45.64 49.7383 46.007 49.5048 46.1515C49.2824 46.285 48.782 46.4851 48.3929 46.5852C47.9258 46.7075 47.5033 46.7409 47.0919 46.6964C46.7583 46.6519 46.2023 46.4962 45.8687 46.3406C45.5351 46.1849 45.0681 45.8735 44.8234 45.6511C44.5899 45.4287 44.2897 45.0618 44.1451 44.8505C44.0117 44.6392 43.8115 44.1611 43.7003 43.7941C43.5669 43.3271 43.5224 42.9268 43.5669 42.4598C43.6003 42.0928 43.7115 41.5924 43.8227 41.3478C43.9227 41.1032 44.1674 40.6806 44.3675 40.4026C44.5677 40.1246 44.9458 39.7466 45.2126 39.5687Z" fill="#72CAB0"/>
<path d="M26.02 51.6335C26.1423 51.5446 26.4092 51.4 26.6316 51.3222C26.8429 51.2555 27.2098 51.211 27.4434 51.2443C27.6657 51.2777 27.9882 51.3667 28.1661 51.4556C28.3329 51.5446 28.8889 52.0672 29.4115 52.6343C29.9342 53.2014 30.6569 53.8686 31.0239 54.1132C31.3908 54.369 32.0358 54.7248 32.4695 54.925C32.9031 55.1251 33.6704 55.3586 34.193 55.4587C34.7156 55.5588 35.5051 55.6366 35.9499 55.6366C36.3836 55.6366 37.1175 55.5699 37.5512 55.4809C37.9959 55.392 38.6631 55.2141 39.0301 55.0806C39.397 54.9583 40.0197 54.6692 40.42 54.4357C40.8203 54.2133 41.443 53.7463 41.81 53.4016C42.1769 53.0569 42.6329 52.5676 42.8108 52.3007C42.9887 52.045 43.3445 51.7114 43.5891 51.5779C43.8338 51.4334 44.1896 51.2888 44.3675 51.2443C44.5454 51.211 44.9013 51.2221 45.1459 51.2888C45.3905 51.3555 45.7464 51.5668 45.9465 51.767C46.1356 51.9671 46.3579 52.2674 46.4135 52.4341C46.4803 52.6121 46.5359 52.9123 46.5359 53.1013C46.5359 53.3015 46.3913 53.7685 46.2134 54.1355C46.0355 54.5024 45.6574 55.0806 45.3794 55.4142C45.1014 55.7478 44.5566 56.2927 44.1674 56.6152C43.7893 56.9487 43.0999 57.438 42.644 57.7049C42.1881 57.9718 41.4319 58.3498 40.976 58.5389C40.5201 58.739 39.6639 59.017 39.0857 59.1616C38.3518 59.3506 37.5845 59.4507 36.5837 59.4952C35.683 59.5396 34.7824 59.5063 34.193 59.4173C33.6704 59.3506 32.8253 59.1616 32.3027 59.0059C31.78 58.8613 30.9572 58.55 30.4679 58.3165C29.9786 58.0941 29.178 57.6382 28.6999 57.3046C28.2217 56.971 27.4434 56.2927 26.9763 55.8034C26.4648 55.2585 25.9867 54.6358 25.7643 54.1911C25.553 53.7685 25.4085 53.3015 25.4085 53.0791C25.4085 52.8678 25.5085 52.4897 25.6197 52.2451C25.7309 52.0005 25.9088 51.7225 26.02 51.6335Z" fill="#72CAB0"/>
</svg>
