<svg width="72" height="72" viewBox="0 0 72 72" fill="none" xmlns="http://www.w3.org/2000/svg">
<mask id="path-1-inside-1_10116_481" fill="white">
<path d="M45.6753 35.1601C45.666 35.6654 45.694 36.3111 45.7595 36.5918C45.8156 36.8725 46.0216 37.4246 46.2087 37.8083C46.4708 38.3417 46.7327 38.6973 47.3503 39.3055C47.8463 39.8015 48.361 40.2132 48.7072 40.391C49.016 40.5594 49.5026 40.7653 49.7833 40.8589C50.1296 40.9712 50.5694 41.0274 51.1402 41.0274C51.6362 41.0181 52.2351 40.9525 52.5907 40.8589C52.9275 40.7653 53.5171 40.5314 54.6026 39.9793L55.0237 40.2506C55.2576 40.4004 55.7817 40.6344 56.1934 40.7747C56.8017 40.9712 57.1199 41.018 57.8778 41.0087C58.5703 41.0087 58.982 40.9619 59.4686 40.8028C59.8242 40.6905 60.395 40.4472 60.7319 40.2601C61.0688 40.0729 61.6303 39.6331 62.6503 38.6412L64.709 38.7441C65.8412 38.8002 67.4789 38.9312 68.3585 39.0248C69.2287 39.1277 70.1552 39.2775 70.4172 39.3523C70.6699 39.4272 71.0255 39.5769 71.1846 39.6799C71.353 39.7828 71.6057 40.0261 71.746 40.2133C71.9706 40.5034 72.0081 40.6437 71.9987 41.121C71.9987 41.5234 71.9145 41.879 71.7367 42.3C71.5964 42.6369 71.2875 43.1984 71.0442 43.5633C70.8103 43.9283 70.1926 44.6488 69.6686 45.1635C69.1539 45.6875 68.3772 46.3707 67.9374 46.6982C67.4976 47.0164 66.6554 47.5684 66.0659 47.924C65.4763 48.2703 64.5218 48.7756 63.9604 49.0376C63.3989 49.309 62.6128 49.6553 62.2292 49.805C61.8455 49.9641 61.1062 50.2354 60.5916 50.4132C60.0769 50.591 58.9352 50.9185 58.065 51.1431C57.1853 51.3677 55.8191 51.6578 55.0237 51.7888C54.2283 51.9292 52.9837 52.0976 52.2631 52.1818C51.5426 52.2567 49.7927 52.3503 48.3797 52.3784C46.9667 52.4064 45.4694 52.397 44.309 52.2941L45.5723 51.7888C46.2648 51.5081 47.8837 50.7595 49.1751 50.1138C50.4571 49.4775 52.1695 48.5604 52.965 48.0925C53.7604 47.6153 54.3686 47.2128 54.3219 47.1941C54.2748 47.1755 53.7228 47.269 53.1053 47.4093C52.4877 47.5403 51.3929 47.8399 50.6723 48.0738C49.9518 48.3077 48.623 48.7663 47.7246 49.1032C46.8263 49.44 45.0109 50.1512 43.7008 50.6752C42.3907 51.2086 40.5753 51.9572 39.6769 52.3409C38.7786 52.7246 37.4872 53.2299 36.8228 53.4732C36.1491 53.7165 34.97 54.1002 34.2026 54.3248C33.4259 54.5494 32.0597 54.8769 31.1614 55.0641C30.263 55.2419 28.8687 55.4664 28.0733 55.5506C26.9317 55.6722 26.0894 55.691 24.0963 55.6536C22.075 55.6162 21.2608 55.56 20.0256 55.3729C19.1741 55.2418 17.995 55.0266 17.4055 54.8956C16.8159 54.7552 15.7678 54.4838 15.0847 54.278C14.411 54.0721 13.4565 53.754 12.9792 53.5668C12.5114 53.3797 11.5662 52.9679 10.9018 52.6497C10.228 52.3315 9.24546 51.7982 8.70273 51.4706C8.15997 51.1431 7.24292 50.5255 6.66275 50.095C6.09192 49.6739 5.0813 48.8037 4.43562 48.1767C3.78058 47.5404 2.9945 46.7075 2.6857 46.3239C2.37689 45.9402 1.85287 45.2197 1.53471 44.7331C1.21655 44.2464 0.804786 43.5259 0.626989 43.1422C0.449192 42.7586 0.233999 42.1877 0.149779 41.8789C0.074917 41.5701 0 41.0648 0 40.756C4.66725e-07 40.3536 0.0561472 40.1103 0.187155 39.8951C0.290089 39.7266 0.514696 39.5021 0.673778 39.3991C0.842208 39.2962 1.13229 39.1745 1.31009 39.1184C1.48788 39.0716 2.12422 38.9687 2.71375 38.8844C3.30329 38.8096 5.0532 38.5756 6.59723 38.3698C8.14124 38.1639 10.0783 37.93 10.9018 37.8551C11.7253 37.7802 13.4097 37.6679 14.6449 37.6212C15.8801 37.565 17.4523 37.4995 19.3706 37.434V34.6267L19.67 34.5799C19.8385 34.5612 20.8866 34.4957 21.9908 34.4395C23.095 34.3834 24.5267 34.3272 25.1724 34.3179C25.8181 34.2992 30.7029 34.2804 45.7127 34.2524L45.6753 35.1601Z"/>
<path fill-rule="evenodd" clip-rule="evenodd" d="M54.3593 21.4415C54.6962 21.4415 55.1454 21.479 55.3606 21.5258C55.5852 21.5819 55.9595 21.7129 56.2028 21.8346C56.4461 21.9469 56.8765 22.2557 57.1479 22.5084C57.4754 22.8078 57.7562 23.1915 57.9433 23.5845C58.1492 24.0243 58.2521 24.3799 58.2896 24.8571C58.3364 25.4841 58.3457 25.5216 58.5235 25.456C58.6265 25.4186 58.9446 25.3624 59.2254 25.325C59.5061 25.2876 59.9927 25.3063 60.3015 25.3625C60.6103 25.428 61.1156 25.5871 61.4244 25.7368C61.7613 25.8959 62.173 26.2047 62.4631 26.5041C62.7251 26.7755 63.0433 27.2153 63.1837 27.468C63.3147 27.73 63.4644 28.2072 63.5299 28.5441C63.6048 28.9839 63.6048 29.3208 63.5393 29.7606C63.4831 30.0975 63.324 30.6028 63.1837 30.8836C63.0433 31.1643 62.7532 31.576 62.5286 31.8006C62.3041 32.0158 61.8456 32.3247 61.49 32.4931C61.1437 32.6522 60.8537 32.8019 60.8349 32.8206C60.8256 32.83 60.9191 32.989 61.0501 33.1575C61.1718 33.3166 61.3683 33.6815 61.4712 33.9529C61.5742 34.2149 61.6864 34.6828 61.7145 34.9822C61.7519 35.2817 61.7239 35.759 61.6584 36.0771C61.5929 36.3859 61.415 36.8819 61.2466 37.1907C61.0875 37.4902 60.76 37.9206 60.5074 38.1451C60.2641 38.3697 59.8243 38.6692 59.5248 38.8096C59.1505 38.9874 58.7855 39.0716 58.2896 39.0997C57.7936 39.1277 57.4193 39.0903 57.0263 38.978C56.7175 38.8938 56.2683 38.716 56.0157 38.5944C55.7724 38.4727 55.3325 38.1452 54.4997 37.3685L54.0318 37.8551C53.7698 38.1265 53.3393 38.454 53.068 38.585C52.806 38.7253 52.3193 38.9031 51.9918 38.9873C51.6175 39.0903 51.1964 39.1277 50.8034 39.0997C50.4103 39.0716 49.9892 38.9593 49.5962 38.7815C49.1938 38.5944 48.8382 38.3417 48.52 37.9955C48.2112 37.6679 47.9586 37.2749 47.8182 36.9193C47.7059 36.6105 47.5843 36.0865 47.5562 35.7496C47.5188 35.3379 47.5563 34.9448 47.6592 34.5331C47.7434 34.1962 47.9212 33.7564 48.0428 33.5505C48.1645 33.3447 48.3516 33.0826 48.6511 32.7551L48.1832 32.6615C47.9212 32.6054 47.5469 32.4837 47.341 32.3808C47.1351 32.2779 46.7702 32.0158 46.5363 31.8006C46.3023 31.576 46.0122 31.2298 45.8905 31.0239C45.7689 30.8181 45.6004 30.397 45.5162 30.0881C45.3946 29.6858 45.3665 29.3302 45.3946 28.8248C45.432 28.3008 45.5162 27.9639 45.7314 27.496C45.8999 27.1404 46.2181 26.6632 46.4427 26.4199C46.6673 26.1672 47.0977 25.8397 47.3971 25.6713C47.7059 25.5028 48.2393 25.3251 48.6043 25.2596C49.1003 25.166 49.4091 25.166 49.8676 25.2408C50.2045 25.297 50.5414 25.3719 50.6162 25.3999C50.7285 25.4467 50.7565 25.3531 50.7659 24.8758C50.7659 24.5483 50.8127 24.1179 50.8782 23.912C50.9344 23.7061 51.1216 23.3318 51.29 23.0698C51.4584 22.8172 51.8234 22.4241 52.0854 22.2089C52.3942 21.9562 52.8059 21.741 53.1709 21.6287H53.1615C53.4891 21.5258 54.0225 21.4415 54.3593 21.4415ZM54.4248 27.6177C54.0037 27.6177 53.5826 27.6832 53.2832 27.7955C53.0212 27.8891 52.6094 28.1511 52.3567 28.3757C52.076 28.6284 51.7952 29.0027 51.6081 29.3863C51.3554 29.9197 51.318 30.0882 51.318 30.79C51.318 31.4637 51.3555 31.6696 51.5707 32.1001C51.7111 32.4089 52.0199 32.7925 52.3193 33.0639C52.6001 33.3259 53.0305 33.5973 53.33 33.7096C53.7323 33.8593 54.0037 33.8874 54.5933 33.8593C55.1547 33.8312 55.4729 33.7657 55.8566 33.5786C56.1373 33.4382 56.5584 33.1294 56.783 32.8767C57.017 32.6334 57.2883 32.2404 57.3913 32.0065C57.5316 31.6883 57.5784 31.3795 57.5878 30.7432C57.5878 30.0226 57.5503 29.8261 57.3351 29.3863C57.1947 29.0775 56.8859 28.6939 56.5865 28.4225C56.3151 28.1698 55.8753 27.8891 55.5946 27.7862C55.2764 27.6739 54.8834 27.6083 54.4248 27.6177Z"/>
<path d="M35.5502 17.3335C36.7948 17.3148 37.4498 17.3616 38.3107 17.5019C38.9284 17.6049 39.808 17.7921 40.2759 17.9137C40.7438 18.0354 41.5205 18.2974 42.0071 18.4845C42.4937 18.681 43.1768 18.9804 43.523 19.1489C43.8786 19.3267 44.4401 19.6448 44.7863 19.8507C45.1419 20.0659 45.7595 20.5058 46.1713 20.824C46.583 21.1421 47.3223 21.8253 48.6979 23.2477L47.996 23.3973C47.6124 23.4816 47.079 23.6407 46.8263 23.7623C46.5643 23.8746 46.1058 24.1554 45.797 24.3706C45.4882 24.5858 45.0296 25.0162 44.7769 25.325C44.5336 25.6245 44.1874 26.1485 44.019 26.4854C43.8505 26.8223 43.6446 27.3463 43.5604 27.6551C43.4762 27.9639 43.4107 28.5909 43.4107 29.0588C43.4107 29.5267 43.4762 30.1536 43.5604 30.4625C43.6446 30.7713 43.8131 31.2392 43.9441 31.4918C44.0751 31.7538 44.2529 32.0626 44.5149 32.4276L33.4072 32.4369C27.306 32.4369 21.6821 32.4837 20.924 32.5305C20.1567 32.5773 19.5203 32.596 19.5016 32.568C19.4829 32.5399 19.511 32.1656 19.5577 31.7258C19.6045 31.2859 19.7355 30.5092 19.8385 29.9946C19.9414 29.4799 20.138 28.7406 20.269 28.357C20.4 27.9733 20.6995 27.234 20.9428 26.7193C21.1861 26.2047 21.6072 25.428 21.8785 24.9882C22.1593 24.5483 22.571 23.9401 22.8049 23.6313C23.0482 23.3225 23.6378 22.658 24.1337 22.1434C24.6203 21.638 25.3596 20.955 25.7713 20.6368C26.1831 20.3186 26.7539 19.9069 27.0346 19.7198C27.3154 19.542 27.9704 19.1864 28.4851 18.9243C28.9998 18.6717 29.842 18.3067 30.3566 18.1289C30.8713 17.9511 31.7322 17.7171 32.275 17.6048C32.8177 17.5019 33.4073 17.399 33.5851 17.3803C33.7629 17.3616 34.6519 17.3335 35.5502 17.3335Z"/>
</mask>
<path d="M45.6753 35.1601C45.666 35.6654 45.694 36.3111 45.7595 36.5918C45.8156 36.8725 46.0216 37.4246 46.2087 37.8083C46.4708 38.3417 46.7327 38.6973 47.3503 39.3055C47.8463 39.8015 48.361 40.2132 48.7072 40.391C49.016 40.5594 49.5026 40.7653 49.7833 40.8589C50.1296 40.9712 50.5694 41.0274 51.1402 41.0274C51.6362 41.0181 52.2351 40.9525 52.5907 40.8589C52.9275 40.7653 53.5171 40.5314 54.6026 39.9793L55.0237 40.2506C55.2576 40.4004 55.7817 40.6344 56.1934 40.7747C56.8017 40.9712 57.1199 41.018 57.8778 41.0087C58.5703 41.0087 58.982 40.9619 59.4686 40.8028C59.8242 40.6905 60.395 40.4472 60.7319 40.2601C61.0688 40.0729 61.6303 39.6331 62.6503 38.6412L64.709 38.7441C65.8412 38.8002 67.4789 38.9312 68.3585 39.0248C69.2287 39.1277 70.1552 39.2775 70.4172 39.3523C70.6699 39.4272 71.0255 39.5769 71.1846 39.6799C71.353 39.7828 71.6057 40.0261 71.746 40.2133C71.9706 40.5034 72.0081 40.6437 71.9987 41.121C71.9987 41.5234 71.9145 41.879 71.7367 42.3C71.5964 42.6369 71.2875 43.1984 71.0442 43.5633C70.8103 43.9283 70.1926 44.6488 69.6686 45.1635C69.1539 45.6875 68.3772 46.3707 67.9374 46.6982C67.4976 47.0164 66.6554 47.5684 66.0659 47.924C65.4763 48.2703 64.5218 48.7756 63.9604 49.0376C63.3989 49.309 62.6128 49.6553 62.2292 49.805C61.8455 49.9641 61.1062 50.2354 60.5916 50.4132C60.0769 50.591 58.9352 50.9185 58.065 51.1431C57.1853 51.3677 55.8191 51.6578 55.0237 51.7888C54.2283 51.9292 52.9837 52.0976 52.2631 52.1818C51.5426 52.2567 49.7927 52.3503 48.3797 52.3784C46.9667 52.4064 45.4694 52.397 44.309 52.2941L45.5723 51.7888C46.2648 51.5081 47.8837 50.7595 49.1751 50.1138C50.4571 49.4775 52.1695 48.5604 52.965 48.0925C53.7604 47.6153 54.3686 47.2128 54.3219 47.1941C54.2748 47.1755 53.7228 47.269 53.1053 47.4093C52.4877 47.5403 51.3929 47.8399 50.6723 48.0738C49.9518 48.3077 48.623 48.7663 47.7246 49.1032C46.8263 49.44 45.0109 50.1512 43.7008 50.6752C42.3907 51.2086 40.5753 51.9572 39.6769 52.3409C38.7786 52.7246 37.4872 53.2299 36.8228 53.4732C36.1491 53.7165 34.97 54.1002 34.2026 54.3248C33.4259 54.5494 32.0597 54.8769 31.1614 55.0641C30.263 55.2419 28.8687 55.4664 28.0733 55.5506C26.9317 55.6722 26.0894 55.691 24.0963 55.6536C22.075 55.6162 21.2608 55.56 20.0256 55.3729C19.1741 55.2418 17.995 55.0266 17.4055 54.8956C16.8159 54.7552 15.7678 54.4838 15.0847 54.278C14.411 54.0721 13.4565 53.754 12.9792 53.5668C12.5114 53.3797 11.5662 52.9679 10.9018 52.6497C10.228 52.3315 9.24546 51.7982 8.70273 51.4706C8.15997 51.1431 7.24292 50.5255 6.66275 50.095C6.09192 49.6739 5.0813 48.8037 4.43562 48.1767C3.78058 47.5404 2.9945 46.7075 2.6857 46.3239C2.37689 45.9402 1.85287 45.2197 1.53471 44.7331C1.21655 44.2464 0.804786 43.5259 0.626989 43.1422C0.449192 42.7586 0.233999 42.1877 0.149779 41.8789C0.074917 41.5701 0 41.0648 0 40.756C4.66725e-07 40.3536 0.0561472 40.1103 0.187155 39.8951C0.290089 39.7266 0.514696 39.5021 0.673778 39.3991C0.842208 39.2962 1.13229 39.1745 1.31009 39.1184C1.48788 39.0716 2.12422 38.9687 2.71375 38.8844C3.30329 38.8096 5.0532 38.5756 6.59723 38.3698C8.14124 38.1639 10.0783 37.93 10.9018 37.8551C11.7253 37.7802 13.4097 37.6679 14.6449 37.6212C15.8801 37.565 17.4523 37.4995 19.3706 37.434V34.6267L19.67 34.5799C19.8385 34.5612 20.8866 34.4957 21.9908 34.4395C23.095 34.3834 24.5267 34.3272 25.1724 34.3179C25.8181 34.2992 30.7029 34.2804 45.7127 34.2524L45.6753 35.1601Z" fill="#8FD6C1"/>
<path fill-rule="evenodd" clip-rule="evenodd" d="M54.3593 21.4415C54.6962 21.4415 55.1454 21.479 55.3606 21.5258C55.5852 21.5819 55.9595 21.7129 56.2028 21.8346C56.4461 21.9469 56.8765 22.2557 57.1479 22.5084C57.4754 22.8078 57.7562 23.1915 57.9433 23.5845C58.1492 24.0243 58.2521 24.3799 58.2896 24.8571C58.3364 25.4841 58.3457 25.5216 58.5235 25.456C58.6265 25.4186 58.9446 25.3624 59.2254 25.325C59.5061 25.2876 59.9927 25.3063 60.3015 25.3625C60.6103 25.428 61.1156 25.5871 61.4244 25.7368C61.7613 25.8959 62.173 26.2047 62.4631 26.5041C62.7251 26.7755 63.0433 27.2153 63.1837 27.468C63.3147 27.73 63.4644 28.2072 63.5299 28.5441C63.6048 28.9839 63.6048 29.3208 63.5393 29.7606C63.4831 30.0975 63.324 30.6028 63.1837 30.8836C63.0433 31.1643 62.7532 31.576 62.5286 31.8006C62.3041 32.0158 61.8456 32.3247 61.49 32.4931C61.1437 32.6522 60.8537 32.8019 60.8349 32.8206C60.8256 32.83 60.9191 32.989 61.0501 33.1575C61.1718 33.3166 61.3683 33.6815 61.4712 33.9529C61.5742 34.2149 61.6864 34.6828 61.7145 34.9822C61.7519 35.2817 61.7239 35.759 61.6584 36.0771C61.5929 36.3859 61.415 36.8819 61.2466 37.1907C61.0875 37.4902 60.76 37.9206 60.5074 38.1451C60.2641 38.3697 59.8243 38.6692 59.5248 38.8096C59.1505 38.9874 58.7855 39.0716 58.2896 39.0997C57.7936 39.1277 57.4193 39.0903 57.0263 38.978C56.7175 38.8938 56.2683 38.716 56.0157 38.5944C55.7724 38.4727 55.3325 38.1452 54.4997 37.3685L54.0318 37.8551C53.7698 38.1265 53.3393 38.454 53.068 38.585C52.806 38.7253 52.3193 38.9031 51.9918 38.9873C51.6175 39.0903 51.1964 39.1277 50.8034 39.0997C50.4103 39.0716 49.9892 38.9593 49.5962 38.7815C49.1938 38.5944 48.8382 38.3417 48.52 37.9955C48.2112 37.6679 47.9586 37.2749 47.8182 36.9193C47.7059 36.6105 47.5843 36.0865 47.5562 35.7496C47.5188 35.3379 47.5563 34.9448 47.6592 34.5331C47.7434 34.1962 47.9212 33.7564 48.0428 33.5505C48.1645 33.3447 48.3516 33.0826 48.6511 32.7551L48.1832 32.6615C47.9212 32.6054 47.5469 32.4837 47.341 32.3808C47.1351 32.2779 46.7702 32.0158 46.5363 31.8006C46.3023 31.576 46.0122 31.2298 45.8905 31.0239C45.7689 30.8181 45.6004 30.397 45.5162 30.0881C45.3946 29.6858 45.3665 29.3302 45.3946 28.8248C45.432 28.3008 45.5162 27.9639 45.7314 27.496C45.8999 27.1404 46.2181 26.6632 46.4427 26.4199C46.6673 26.1672 47.0977 25.8397 47.3971 25.6713C47.7059 25.5028 48.2393 25.3251 48.6043 25.2596C49.1003 25.166 49.4091 25.166 49.8676 25.2408C50.2045 25.297 50.5414 25.3719 50.6162 25.3999C50.7285 25.4467 50.7565 25.3531 50.7659 24.8758C50.7659 24.5483 50.8127 24.1179 50.8782 23.912C50.9344 23.7061 51.1216 23.3318 51.29 23.0698C51.4584 22.8172 51.8234 22.4241 52.0854 22.2089C52.3942 21.9562 52.8059 21.741 53.1709 21.6287H53.1615C53.4891 21.5258 54.0225 21.4415 54.3593 21.4415ZM54.4248 27.6177C54.0037 27.6177 53.5826 27.6832 53.2832 27.7955C53.0212 27.8891 52.6094 28.1511 52.3567 28.3757C52.076 28.6284 51.7952 29.0027 51.6081 29.3863C51.3554 29.9197 51.318 30.0882 51.318 30.79C51.318 31.4637 51.3555 31.6696 51.5707 32.1001C51.7111 32.4089 52.0199 32.7925 52.3193 33.0639C52.6001 33.3259 53.0305 33.5973 53.33 33.7096C53.7323 33.8593 54.0037 33.8874 54.5933 33.8593C55.1547 33.8312 55.4729 33.7657 55.8566 33.5786C56.1373 33.4382 56.5584 33.1294 56.783 32.8767C57.017 32.6334 57.2883 32.2404 57.3913 32.0065C57.5316 31.6883 57.5784 31.3795 57.5878 30.7432C57.5878 30.0226 57.5503 29.8261 57.3351 29.3863C57.1947 29.0775 56.8859 28.6939 56.5865 28.4225C56.3151 28.1698 55.8753 27.8891 55.5946 27.7862C55.2764 27.6739 54.8834 27.6083 54.4248 27.6177Z" fill="#8FD6C1"/>
<path d="M35.5502 17.3335C36.7948 17.3148 37.4498 17.3616 38.3107 17.5019C38.9284 17.6049 39.808 17.7921 40.2759 17.9137C40.7438 18.0354 41.5205 18.2974 42.0071 18.4845C42.4937 18.681 43.1768 18.9804 43.523 19.1489C43.8786 19.3267 44.4401 19.6448 44.7863 19.8507C45.1419 20.0659 45.7595 20.5058 46.1713 20.824C46.583 21.1421 47.3223 21.8253 48.6979 23.2477L47.996 23.3973C47.6124 23.4816 47.079 23.6407 46.8263 23.7623C46.5643 23.8746 46.1058 24.1554 45.797 24.3706C45.4882 24.5858 45.0296 25.0162 44.7769 25.325C44.5336 25.6245 44.1874 26.1485 44.019 26.4854C43.8505 26.8223 43.6446 27.3463 43.5604 27.6551C43.4762 27.9639 43.4107 28.5909 43.4107 29.0588C43.4107 29.5267 43.4762 30.1536 43.5604 30.4625C43.6446 30.7713 43.8131 31.2392 43.9441 31.4918C44.0751 31.7538 44.2529 32.0626 44.5149 32.4276L33.4072 32.4369C27.306 32.4369 21.6821 32.4837 20.924 32.5305C20.1567 32.5773 19.5203 32.596 19.5016 32.568C19.4829 32.5399 19.511 32.1656 19.5577 31.7258C19.6045 31.2859 19.7355 30.5092 19.8385 29.9946C19.9414 29.4799 20.138 28.7406 20.269 28.357C20.4 27.9733 20.6995 27.234 20.9428 26.7193C21.1861 26.2047 21.6072 25.428 21.8785 24.9882C22.1593 24.5483 22.571 23.9401 22.8049 23.6313C23.0482 23.3225 23.6378 22.658 24.1337 22.1434C24.6203 21.638 25.3596 20.955 25.7713 20.6368C26.1831 20.3186 26.7539 19.9069 27.0346 19.7198C27.3154 19.542 27.9704 19.1864 28.4851 18.9243C28.9998 18.6717 29.842 18.3067 30.3566 18.1289C30.8713 17.9511 31.7322 17.7171 32.275 17.6048C32.8177 17.5019 33.4073 17.399 33.5851 17.3803C33.7629 17.3616 34.6519 17.3335 35.5502 17.3335Z" fill="#8FD6C1"/>
<path d="M45.6753 35.1601C45.666 35.6654 45.694 36.3111 45.7595 36.5918C45.8156 36.8725 46.0216 37.4246 46.2087 37.8083C46.4708 38.3417 46.7327 38.6973 47.3503 39.3055C47.8463 39.8015 48.361 40.2132 48.7072 40.391C49.016 40.5594 49.5026 40.7653 49.7833 40.8589C50.1296 40.9712 50.5694 41.0274 51.1402 41.0274C51.6362 41.0181 52.2351 40.9525 52.5907 40.8589C52.9275 40.7653 53.5171 40.5314 54.6026 39.9793L55.0237 40.2506C55.2576 40.4004 55.7817 40.6344 56.1934 40.7747C56.8017 40.9712 57.1199 41.018 57.8778 41.0087C58.5703 41.0087 58.982 40.9619 59.4686 40.8028C59.8242 40.6905 60.395 40.4472 60.7319 40.2601C61.0688 40.0729 61.6303 39.6331 62.6503 38.6412L64.709 38.7441C65.8412 38.8002 67.4789 38.9312 68.3585 39.0248C69.2287 39.1277 70.1552 39.2775 70.4172 39.3523C70.6699 39.4272 71.0255 39.5769 71.1846 39.6799C71.353 39.7828 71.6057 40.0261 71.746 40.2133C71.9706 40.5034 72.0081 40.6437 71.9987 41.121C71.9987 41.5234 71.9145 41.879 71.7367 42.3C71.5964 42.6369 71.2875 43.1984 71.0442 43.5633C70.8103 43.9283 70.1926 44.6488 69.6686 45.1635C69.1539 45.6875 68.3772 46.3707 67.9374 46.6982C67.4976 47.0164 66.6554 47.5684 66.0659 47.924C65.4763 48.2703 64.5218 48.7756 63.9604 49.0376C63.3989 49.309 62.6128 49.6553 62.2292 49.805C61.8455 49.9641 61.1062 50.2354 60.5916 50.4132C60.0769 50.591 58.9352 50.9185 58.065 51.1431C57.1853 51.3677 55.8191 51.6578 55.0237 51.7888C54.2283 51.9292 52.9837 52.0976 52.2631 52.1818C51.5426 52.2567 49.7927 52.3503 48.3797 52.3784C46.9667 52.4064 45.4694 52.397 44.309 52.2941L45.5723 51.7888C46.2648 51.5081 47.8837 50.7595 49.1751 50.1138C50.4571 49.4775 52.1695 48.5604 52.965 48.0925C53.7604 47.6153 54.3686 47.2128 54.3219 47.1941C54.2748 47.1755 53.7228 47.269 53.1053 47.4093C52.4877 47.5403 51.3929 47.8399 50.6723 48.0738C49.9518 48.3077 48.623 48.7663 47.7246 49.1032C46.8263 49.44 45.0109 50.1512 43.7008 50.6752C42.3907 51.2086 40.5753 51.9572 39.6769 52.3409C38.7786 52.7246 37.4872 53.2299 36.8228 53.4732C36.1491 53.7165 34.97 54.1002 34.2026 54.3248C33.4259 54.5494 32.0597 54.8769 31.1614 55.0641C30.263 55.2419 28.8687 55.4664 28.0733 55.5506C26.9317 55.6722 26.0894 55.691 24.0963 55.6536C22.075 55.6162 21.2608 55.56 20.0256 55.3729C19.1741 55.2418 17.995 55.0266 17.4055 54.8956C16.8159 54.7552 15.7678 54.4838 15.0847 54.278C14.411 54.0721 13.4565 53.754 12.9792 53.5668C12.5114 53.3797 11.5662 52.9679 10.9018 52.6497C10.228 52.3315 9.24546 51.7982 8.70273 51.4706C8.15997 51.1431 7.24292 50.5255 6.66275 50.095C6.09192 49.6739 5.0813 48.8037 4.43562 48.1767C3.78058 47.5404 2.9945 46.7075 2.6857 46.3239C2.37689 45.9402 1.85287 45.2197 1.53471 44.7331C1.21655 44.2464 0.804786 43.5259 0.626989 43.1422C0.449192 42.7586 0.233999 42.1877 0.149779 41.8789C0.074917 41.5701 0 41.0648 0 40.756C4.66725e-07 40.3536 0.0561472 40.1103 0.187155 39.8951C0.290089 39.7266 0.514696 39.5021 0.673778 39.3991C0.842208 39.2962 1.13229 39.1745 1.31009 39.1184C1.48788 39.0716 2.12422 38.9687 2.71375 38.8844C3.30329 38.8096 5.0532 38.5756 6.59723 38.3698C8.14124 38.1639 10.0783 37.93 10.9018 37.8551C11.7253 37.7802 13.4097 37.6679 14.6449 37.6212C15.8801 37.565 17.4523 37.4995 19.3706 37.434V34.6267L19.67 34.5799C19.8385 34.5612 20.8866 34.4957 21.9908 34.4395C23.095 34.3834 24.5267 34.3272 25.1724 34.3179C25.8181 34.2992 30.7029 34.2804 45.7127 34.2524L45.6753 35.1601Z" stroke="#72CAB0" stroke-width="6" mask="url(#path-1-inside-1_10116_481)"/>
<path fill-rule="evenodd" clip-rule="evenodd" d="M54.3593 21.4415C54.6962 21.4415 55.1454 21.479 55.3606 21.5258C55.5852 21.5819 55.9595 21.7129 56.2028 21.8346C56.4461 21.9469 56.8765 22.2557 57.1479 22.5084C57.4754 22.8078 57.7562 23.1915 57.9433 23.5845C58.1492 24.0243 58.2521 24.3799 58.2896 24.8571C58.3364 25.4841 58.3457 25.5216 58.5235 25.456C58.6265 25.4186 58.9446 25.3624 59.2254 25.325C59.5061 25.2876 59.9927 25.3063 60.3015 25.3625C60.6103 25.428 61.1156 25.5871 61.4244 25.7368C61.7613 25.8959 62.173 26.2047 62.4631 26.5041C62.7251 26.7755 63.0433 27.2153 63.1837 27.468C63.3147 27.73 63.4644 28.2072 63.5299 28.5441C63.6048 28.9839 63.6048 29.3208 63.5393 29.7606C63.4831 30.0975 63.324 30.6028 63.1837 30.8836C63.0433 31.1643 62.7532 31.576 62.5286 31.8006C62.3041 32.0158 61.8456 32.3247 61.49 32.4931C61.1437 32.6522 60.8537 32.8019 60.8349 32.8206C60.8256 32.83 60.9191 32.989 61.0501 33.1575C61.1718 33.3166 61.3683 33.6815 61.4712 33.9529C61.5742 34.2149 61.6864 34.6828 61.7145 34.9822C61.7519 35.2817 61.7239 35.759 61.6584 36.0771C61.5929 36.3859 61.415 36.8819 61.2466 37.1907C61.0875 37.4902 60.76 37.9206 60.5074 38.1451C60.2641 38.3697 59.8243 38.6692 59.5248 38.8096C59.1505 38.9874 58.7855 39.0716 58.2896 39.0997C57.7936 39.1277 57.4193 39.0903 57.0263 38.978C56.7175 38.8938 56.2683 38.716 56.0157 38.5944C55.7724 38.4727 55.3325 38.1452 54.4997 37.3685L54.0318 37.8551C53.7698 38.1265 53.3393 38.454 53.068 38.585C52.806 38.7253 52.3193 38.9031 51.9918 38.9873C51.6175 39.0903 51.1964 39.1277 50.8034 39.0997C50.4103 39.0716 49.9892 38.9593 49.5962 38.7815C49.1938 38.5944 48.8382 38.3417 48.52 37.9955C48.2112 37.6679 47.9586 37.2749 47.8182 36.9193C47.7059 36.6105 47.5843 36.0865 47.5562 35.7496C47.5188 35.3379 47.5563 34.9448 47.6592 34.5331C47.7434 34.1962 47.9212 33.7564 48.0428 33.5505C48.1645 33.3447 48.3516 33.0826 48.6511 32.7551L48.1832 32.6615C47.9212 32.6054 47.5469 32.4837 47.341 32.3808C47.1351 32.2779 46.7702 32.0158 46.5363 31.8006C46.3023 31.576 46.0122 31.2298 45.8905 31.0239C45.7689 30.8181 45.6004 30.397 45.5162 30.0881C45.3946 29.6858 45.3665 29.3302 45.3946 28.8248C45.432 28.3008 45.5162 27.9639 45.7314 27.496C45.8999 27.1404 46.2181 26.6632 46.4427 26.4199C46.6673 26.1672 47.0977 25.8397 47.3971 25.6713C47.7059 25.5028 48.2393 25.3251 48.6043 25.2596C49.1003 25.166 49.4091 25.166 49.8676 25.2408C50.2045 25.297 50.5414 25.3719 50.6162 25.3999C50.7285 25.4467 50.7565 25.3531 50.7659 24.8758C50.7659 24.5483 50.8127 24.1179 50.8782 23.912C50.9344 23.7061 51.1216 23.3318 51.29 23.0698C51.4584 22.8172 51.8234 22.4241 52.0854 22.2089C52.3942 21.9562 52.8059 21.741 53.1709 21.6287H53.1615C53.4891 21.5258 54.0225 21.4415 54.3593 21.4415ZM54.4248 27.6177C54.0037 27.6177 53.5826 27.6832 53.2832 27.7955C53.0212 27.8891 52.6094 28.1511 52.3567 28.3757C52.076 28.6284 51.7952 29.0027 51.6081 29.3863C51.3554 29.9197 51.318 30.0882 51.318 30.79C51.318 31.4637 51.3555 31.6696 51.5707 32.1001C51.7111 32.4089 52.0199 32.7925 52.3193 33.0639C52.6001 33.3259 53.0305 33.5973 53.33 33.7096C53.7323 33.8593 54.0037 33.8874 54.5933 33.8593C55.1547 33.8312 55.4729 33.7657 55.8566 33.5786C56.1373 33.4382 56.5584 33.1294 56.783 32.8767C57.017 32.6334 57.2883 32.2404 57.3913 32.0065C57.5316 31.6883 57.5784 31.3795 57.5878 30.7432C57.5878 30.0226 57.5503 29.8261 57.3351 29.3863C57.1947 29.0775 56.8859 28.6939 56.5865 28.4225C56.3151 28.1698 55.8753 27.8891 55.5946 27.7862C55.2764 27.6739 54.8834 27.6083 54.4248 27.6177Z" stroke="#72CAB0" stroke-width="6" mask="url(#path-1-inside-1_10116_481)"/>
<path d="M35.5502 17.3335C36.7948 17.3148 37.4498 17.3616 38.3107 17.5019C38.9284 17.6049 39.808 17.7921 40.2759 17.9137C40.7438 18.0354 41.5205 18.2974 42.0071 18.4845C42.4937 18.681 43.1768 18.9804 43.523 19.1489C43.8786 19.3267 44.4401 19.6448 44.7863 19.8507C45.1419 20.0659 45.7595 20.5058 46.1713 20.824C46.583 21.1421 47.3223 21.8253 48.6979 23.2477L47.996 23.3973C47.6124 23.4816 47.079 23.6407 46.8263 23.7623C46.5643 23.8746 46.1058 24.1554 45.797 24.3706C45.4882 24.5858 45.0296 25.0162 44.7769 25.325C44.5336 25.6245 44.1874 26.1485 44.019 26.4854C43.8505 26.8223 43.6446 27.3463 43.5604 27.6551C43.4762 27.9639 43.4107 28.5909 43.4107 29.0588C43.4107 29.5267 43.4762 30.1536 43.5604 30.4625C43.6446 30.7713 43.8131 31.2392 43.9441 31.4918C44.0751 31.7538 44.2529 32.0626 44.5149 32.4276L33.4072 32.4369C27.306 32.4369 21.6821 32.4837 20.924 32.5305C20.1567 32.5773 19.5203 32.596 19.5016 32.568C19.4829 32.5399 19.511 32.1656 19.5577 31.7258C19.6045 31.2859 19.7355 30.5092 19.8385 29.9946C19.9414 29.4799 20.138 28.7406 20.269 28.357C20.4 27.9733 20.6995 27.234 20.9428 26.7193C21.1861 26.2047 21.6072 25.428 21.8785 24.9882C22.1593 24.5483 22.571 23.9401 22.8049 23.6313C23.0482 23.3225 23.6378 22.658 24.1337 22.1434C24.6203 21.638 25.3596 20.955 25.7713 20.6368C26.1831 20.3186 26.7539 19.9069 27.0346 19.7198C27.3154 19.542 27.9704 19.1864 28.4851 18.9243C28.9998 18.6717 29.842 18.3067 30.3566 18.1289C30.8713 17.9511 31.7322 17.7171 32.275 17.6048C32.8177 17.5019 33.4073 17.399 33.5851 17.3803C33.7629 17.3616 34.6519 17.3335 35.5502 17.3335Z" stroke="#72CAB0" stroke-width="6" mask="url(#path-1-inside-1_10116_481)"/>
</svg>
