<svg width="72" height="72" viewBox="0 0 72 72" fill="none" xmlns="http://www.w3.org/2000/svg">
<path fill-rule="evenodd" clip-rule="evenodd" d="M37.5668 5.44397C49.1429 5.43045 51.0044 5.45036 51.9578 5.59782C55.1126 6.0855 57.6182 7.3329 59.6256 9.41539C61.1301 10.9762 61.8793 12.2853 62.8857 15.1127C63.1611 15.8864 63.9675 18.1506 64.6776 20.1442C65.3876 22.1378 66.0085 23.7585 66.0572 23.7457C66.1061 23.7329 66.4407 23.6009 66.801 23.4524C67.2282 23.2763 67.7744 23.1584 68.3699 23.1137C70.5567 22.9498 72.2543 23.7215 72.9864 25.2124C73.2512 25.7516 73.2871 25.9479 73.2871 26.8528C73.2871 28.1458 73.0573 28.686 72.2885 29.1994C71.7431 29.5636 70.6084 29.9447 70.4182 29.8275C70.3563 29.7893 70.6494 30.1864 71.0695 30.7101C71.9957 31.8645 72.8074 33.4686 73.206 34.9324L73.4959 35.996L73.4996 42.8129C73.504 50.6563 73.483 50.9849 72.8931 52.2457C72.4584 53.1747 71.4689 54.0663 70.2583 54.6199L69.3397 55.0399L69.3386 58.0155C69.3376 60.8479 69.3252 61.0316 69.0783 61.8318C68.3791 64.0975 66.5778 65.8233 64.3105 66.3997C63.4758 66.6119 61.9737 66.6091 61.0398 66.3936C59.0339 65.9307 57.2695 64.4288 56.4887 62.5196C56.0051 61.3374 55.9202 60.6435 55.9202 57.8802V55.3104H19.1522L19.1034 58.0967C19.0601 60.5664 19.0274 60.9751 18.8152 61.6944C18.188 63.8213 16.6276 65.4773 14.5513 66.2191C13.5415 66.5799 11.7601 66.6686 10.6639 66.4127C8.43649 65.8927 6.63659 64.1729 5.83891 61.8026C5.71427 61.432 5.66027 60.5574 5.6132 58.1429L5.55128 54.9701L5.01026 54.7401C3.2518 53.9928 2.16143 52.8179 1.72558 51.201C1.51112 50.4053 1.40901 38.0053 1.60311 36.3257C1.85446 34.1507 2.71647 32.1785 4.16386 30.4665L4.6306 29.9144L3.93562 29.7263C2.54462 29.3498 1.80808 28.4303 1.75178 27C1.69097 25.4551 2.38289 24.2471 3.69058 23.6152C5.00545 22.9799 6.72104 22.9175 8.20016 23.451C8.62793 23.6054 8.9984 23.7112 9.02395 23.6868C9.07138 23.6389 9.78227 21.6575 11.5181 16.7357C12.9907 12.5602 13.6571 11.238 15.0795 9.66889C16.3727 8.24226 18.4909 6.9278 20.6462 6.21418C22.959 5.44864 22.6819 5.46118 37.5668 5.44397ZM16.7758 34.0547C15.7636 33.809 15.4346 33.7911 14.6945 33.9422C13.7059 34.1437 13.156 34.3593 12.4718 34.8134C11.3067 35.5868 10.4955 36.8634 10.1705 38.4347C10.0048 39.2363 10.0051 39.3568 10.1733 40.1703C10.6453 42.453 12.0366 43.9821 14.1544 44.5457C17.123 45.3356 20.2312 43.261 20.7579 40.1383C21.2166 37.4191 19.4373 34.7008 16.7758 34.0547ZM60.8164 34.055C59.7985 33.8079 59.4743 33.7912 58.6946 33.946C57.5023 34.1824 56.6523 34.6437 55.7646 35.5362C55.1229 36.1811 54.9205 36.4743 54.6252 37.1862C53.7508 39.2938 54.2158 41.6406 55.8186 43.2102C56.3981 43.7776 57.6199 44.4064 58.4953 44.5877C61.458 45.201 64.2096 43.3232 64.863 40.2419C65.431 37.5641 63.5736 34.7245 60.8164 34.055ZM52.079 12.0859C51.2046 11.8457 50.6195 11.8395 35.8485 11.9124C21.9668 11.9809 23.018 11.9278 21.5659 12.6334C20.7693 13.0205 19.517 14.2285 19.0518 15.0586C18.7316 15.6301 18.4873 16.2869 16.5378 21.8213C16.0556 23.1901 15.5362 24.6584 15.3836 25.0843C15.1349 25.7775 15.1213 25.8909 15.2534 26.1664C15.3504 26.3689 15.5424 26.5205 15.8146 26.6097C16.1421 26.7168 20.7912 26.7395 37.9871 26.7179L59.7461 26.6905L59.8329 26.3659C59.9044 26.0986 59.6309 25.1801 58.2871 21.1721C57.3893 18.4943 56.4774 15.9383 56.2604 15.492C55.5021 13.932 53.8245 12.5654 52.079 12.0859Z" fill="#8FD6C1" stroke="#72CAB0" stroke-width="3"/>
</svg>
