<svg width="29" height="28" viewBox="0 0 29 28" fill="none" xmlns="http://www.w3.org/2000/svg">
<path d="M18.4293 13.9788C18.4257 14.1753 18.4366 14.4264 18.462 14.5356C18.4839 14.6448 18.564 14.8595 18.6368 15.0087C18.7386 15.2161 18.8405 15.3544 19.0807 15.591C19.2736 15.7838 19.4737 15.9439 19.6084 16.0131C19.7285 16.0786 19.9177 16.1586 20.0269 16.195C20.1615 16.2387 20.3326 16.2606 20.5545 16.2606C20.7474 16.2569 20.9803 16.2314 21.1186 16.195C21.2496 16.1587 21.4789 16.0677 21.901 15.853L22.0648 15.9585C22.1558 16.0167 22.3596 16.1077 22.5197 16.1623C22.7562 16.2387 22.88 16.2569 23.1747 16.2533C23.444 16.2533 23.6041 16.2351 23.7934 16.1732C23.9317 16.1296 24.1536 16.0349 24.2847 15.9622C24.4157 15.8894 24.634 15.7183 25.0307 15.3326L25.8313 15.3726C26.2716 15.3944 26.9085 15.4454 27.2505 15.4818C27.589 15.5218 27.9492 15.58 28.0512 15.6092C28.1494 15.6383 28.2877 15.6965 28.3496 15.7365C28.4151 15.7766 28.5133 15.8712 28.5679 15.944C28.6553 16.0568 28.6698 16.1114 28.6662 16.297C28.6662 16.4534 28.6334 16.5917 28.5643 16.7555C28.5097 16.8865 28.3896 17.1048 28.295 17.2468C28.204 17.3887 27.9638 17.6689 27.76 17.869C27.5599 18.0728 27.2578 18.3385 27.0868 18.4659C26.9157 18.5896 26.5882 18.8043 26.359 18.9426C26.1297 19.0772 25.7585 19.2738 25.5402 19.3757C25.3218 19.4812 25.0161 19.6158 24.8669 19.6741C24.7177 19.7359 24.4302 19.8415 24.2301 19.9106C24.0299 19.9798 23.5859 20.1071 23.2475 20.1945C22.9054 20.2818 22.3741 20.3946 22.0648 20.4456C21.7555 20.5002 21.2715 20.5656 20.9912 20.5984C20.711 20.6275 20.0305 20.6639 19.481 20.6748C18.9315 20.6858 18.3492 20.6821 17.898 20.6421L18.3893 20.4456C18.6586 20.3364 19.2881 20.0453 19.7903 19.7942C20.2889 19.5467 20.9548 19.1901 21.2642 19.0081C21.5735 18.8225 21.81 18.666 21.7919 18.6587C21.7736 18.6515 21.5589 18.6879 21.3188 18.7424C21.0786 18.7934 20.6528 18.9099 20.3726 19.0008C20.0924 19.0918 19.5756 19.2701 19.2263 19.4011C18.8769 19.5322 18.1709 19.8087 17.6614 20.0125C17.152 20.2199 16.446 20.5111 16.0966 20.6603C15.7473 20.8095 15.2451 21.006 14.9867 21.1006C14.7247 21.1952 14.2661 21.3444 13.9677 21.4318C13.6657 21.5191 13.1344 21.6465 12.785 21.7193C12.4356 21.7884 11.8934 21.8757 11.5841 21.9085C11.1401 21.9558 10.8126 21.9631 10.0375 21.9485C9.25141 21.934 8.93479 21.9121 8.45443 21.8394C8.12327 21.7884 7.66474 21.7047 7.43547 21.6537C7.2062 21.5992 6.79863 21.4936 6.53298 21.4136C6.27096 21.3335 5.89977 21.2098 5.71417 21.137C5.53221 21.0642 5.16465 20.9041 4.90628 20.7803C4.64426 20.6566 4.26215 20.4492 4.05108 20.3218C3.84001 20.1945 3.48338 19.9543 3.25776 19.7869C3.03577 19.6231 2.64275 19.2847 2.39165 19.0409C2.13691 18.7934 1.83122 18.4695 1.71113 18.3203C1.59103 18.1711 1.38725 17.8909 1.26352 17.7017C1.13979 17.5124 0.979659 17.2322 0.910516 17.083C0.841373 16.9338 0.757686 16.7118 0.724934 16.5917C0.695821 16.4716 0.666687 16.2751 0.666687 16.155C0.666687 15.9985 0.688522 15.9039 0.73947 15.8202C0.779499 15.7547 0.866847 15.6674 0.928712 15.6274C0.994212 15.5873 1.10702 15.54 1.17617 15.5182C1.24531 15.5 1.49277 15.46 1.72204 15.4272C1.9513 15.3981 2.63182 15.3071 3.23228 15.227C3.83272 15.147 4.58602 15.056 4.90628 15.0269C5.22652 14.9978 5.88157 14.9541 6.36193 14.9359C6.84229 14.9141 7.45368 14.8886 8.19969 14.8631V13.7714L8.31615 13.7532C8.38165 13.7459 8.78924 13.7204 9.21865 13.6986C9.64806 13.6768 10.2048 13.655 10.456 13.6513C10.7071 13.644 12.6067 13.6367 18.4438 13.6258L18.4293 13.9788Z" fill="#8FD6C1"/>
<path fill-rule="evenodd" clip-rule="evenodd" d="M21.8064 8.64384C21.9374 8.64384 22.1121 8.65841 22.1958 8.67661C22.2832 8.69844 22.4287 8.74938 22.5233 8.79669C22.618 8.84036 22.7853 8.96046 22.8909 9.05872C23.0182 9.17517 23.1274 9.32438 23.2002 9.47722C23.2803 9.64825 23.3203 9.78654 23.3349 9.97213C23.3531 10.2159 23.3567 10.2305 23.4258 10.205C23.4659 10.1905 23.5896 10.1686 23.6988 10.1541C23.8079 10.1395 23.9972 10.1468 24.1173 10.1687C24.2374 10.1941 24.4339 10.256 24.554 10.3142C24.685 10.3761 24.8451 10.4962 24.9579 10.6126C25.0598 10.7182 25.1835 10.8892 25.2381 10.9875C25.2891 11.0894 25.3473 11.2749 25.3728 11.406C25.4019 11.577 25.4019 11.708 25.3764 11.879C25.3546 12.0101 25.2927 12.2066 25.2381 12.3157C25.1835 12.4249 25.0707 12.585 24.9834 12.6724C24.896 12.7561 24.7177 12.8762 24.5794 12.9417C24.4448 13.0035 24.332 13.0618 24.3247 13.069C24.3211 13.0727 24.3575 13.1345 24.4084 13.2C24.4557 13.2619 24.5321 13.4038 24.5722 13.5094C24.6122 13.6113 24.6558 13.7932 24.6668 13.9097C24.6813 14.0261 24.6704 14.2117 24.6449 14.3355C24.6195 14.4556 24.5503 14.6484 24.4848 14.7685C24.4229 14.885 24.2956 15.0524 24.1973 15.1397C24.1027 15.227 23.9317 15.3435 23.8152 15.3981C23.6697 15.4672 23.5277 15.5 23.3349 15.5109C23.142 15.5218 22.9964 15.5073 22.8436 15.4636C22.7235 15.4308 22.5488 15.3617 22.4506 15.3144C22.3559 15.2671 22.1849 15.1397 21.861 14.8377L21.6791 15.0269C21.5772 15.1324 21.4098 15.2598 21.3042 15.3107C21.2023 15.3653 21.0131 15.4345 20.8857 15.4672C20.7402 15.5072 20.5764 15.5218 20.4236 15.5109C20.2707 15.5 20.1069 15.4563 19.9541 15.3872C19.7976 15.3144 19.6593 15.2161 19.5356 15.0815C19.4155 14.9541 19.3172 14.8013 19.2627 14.663C19.219 14.5429 19.1717 14.3391 19.1608 14.2081C19.1462 14.048 19.1608 13.8951 19.2008 13.735C19.2336 13.604 19.3027 13.433 19.35 13.3529C19.3973 13.2728 19.4701 13.1709 19.5866 13.0436L19.4046 13.0072C19.3027 12.9853 19.1571 12.938 19.0771 12.898C18.997 12.858 18.8551 12.7561 18.7641 12.6724C18.6731 12.585 18.5603 12.4504 18.513 12.3703C18.4657 12.2903 18.4002 12.1265 18.3674 12.0064C18.3201 11.8499 18.3092 11.7116 18.3201 11.5151C18.3347 11.3113 18.3674 11.1803 18.4511 10.9984C18.5166 10.8601 18.6404 10.6745 18.7277 10.5799C18.8151 10.4816 18.9824 10.3542 19.0989 10.2887C19.219 10.2232 19.4264 10.1541 19.5684 10.1286C19.7612 10.0922 19.8813 10.0922 20.0596 10.1214C20.1906 10.1432 20.3217 10.1723 20.3508 10.1832C20.3944 10.2014 20.4053 10.165 20.409 9.97941C20.409 9.85204 20.4272 9.68465 20.4527 9.60459C20.4745 9.52453 20.5473 9.37896 20.6128 9.27707C20.6783 9.17881 20.8202 9.02596 20.9221 8.94226C21.0422 8.844 21.2023 8.76029 21.3442 8.71662H21.3406C21.468 8.6766 21.6754 8.64384 21.8064 8.64384ZM21.8319 11.0457C21.6681 11.0457 21.5044 11.0712 21.3879 11.1148C21.286 11.1512 21.1259 11.2531 21.0276 11.3405C20.9185 11.4387 20.8093 11.5843 20.7365 11.7335C20.6382 11.9409 20.6237 12.0064 20.6237 12.2793C20.6237 12.5414 20.6383 12.6214 20.722 12.7888C20.7766 12.9089 20.8966 13.0581 21.0131 13.1637C21.1223 13.2655 21.2897 13.3711 21.4061 13.4148C21.5626 13.473 21.6681 13.4839 21.8974 13.473C22.1157 13.4621 22.2395 13.4366 22.3887 13.3638C22.4979 13.3092 22.6616 13.1891 22.749 13.0909C22.8399 12.9963 22.9455 12.8434 22.9855 12.7524C23.0401 12.6287 23.0583 12.5086 23.0619 12.2612C23.0619 11.9809 23.0474 11.9045 22.9637 11.7335C22.9091 11.6134 22.789 11.4642 22.6725 11.3587C22.567 11.2604 22.396 11.1512 22.2868 11.1112C22.1631 11.0675 22.0102 11.042 21.8319 11.0457Z" fill="#8FD6C1"/>
<path d="M14.4918 7.04628C14.9758 7.03901 15.2305 7.05719 15.5653 7.11178C15.8055 7.15181 16.1476 7.22461 16.3295 7.27192C16.5115 7.31923 16.8135 7.42111 17.0028 7.49389C17.192 7.57031 17.4577 7.68675 17.5923 7.75225C17.7306 7.8214 17.9489 7.94513 18.0836 8.02519C18.2219 8.10889 18.4621 8.27994 18.6222 8.40367C18.7823 8.5274 19.0698 8.79307 19.6047 9.34622L19.3318 9.40443C19.1826 9.43719 18.9752 9.49907 18.8769 9.54638C18.775 9.59005 18.5967 9.69922 18.4766 9.78292C18.3565 9.86662 18.1782 10.034 18.0799 10.1541C17.9853 10.2705 17.8507 10.4743 17.7852 10.6053C17.7197 10.7364 17.6396 10.9401 17.6068 11.0602C17.5741 11.1803 17.5486 11.4242 17.5486 11.6061C17.5486 11.7881 17.5741 12.0319 17.6068 12.152C17.6396 12.2721 17.7051 12.454 17.7561 12.5523C17.807 12.6542 17.8762 12.7743 17.978 12.9162L13.6584 12.9198C11.2857 12.9198 9.09861 12.938 8.80381 12.9562C8.5054 12.9744 8.25793 12.9817 8.25065 12.9708C8.24338 12.9599 8.25428 12.8143 8.27247 12.6433C8.29067 12.4722 8.34162 12.1702 8.38165 11.97C8.42168 11.7699 8.49812 11.4824 8.54907 11.3332C8.60002 11.184 8.71648 10.8965 8.81109 10.6963C8.90571 10.4962 9.06947 10.1941 9.17501 10.0231C9.28418 9.85205 9.44428 9.6155 9.53526 9.49541C9.62988 9.37532 9.85915 9.11693 10.052 8.91678C10.2413 8.72026 10.5288 8.45462 10.6889 8.33089C10.849 8.20716 11.071 8.04705 11.1802 7.97426C11.2893 7.90512 11.5441 7.76683 11.7442 7.66494C11.9444 7.56668 12.2719 7.42475 12.472 7.35561C12.6722 7.28647 13.007 7.19547 13.2181 7.1518C13.4291 7.11177 13.6584 7.07176 13.7275 7.06448C13.7967 7.0572 14.1424 7.04628 14.4918 7.04628Z" fill="#8FD6C1"/>
</svg>
