<svg width="804" height="158" viewBox="0 0 804 158" fill="none" xmlns="http://www.w3.org/2000/svg">
<path d="M234.777 91.9624L262.343 124.991H242.455L225.131 102.316L219.539 108.316V125H203.258V40.654H219.539V89.6966L239.192 66.8938H258.147L234.777 91.9709V91.9624ZM300.118 65.4766C295.77 65.4766 291.994 66.3761 288.782 68.1752C285.561 69.9743 283.021 72.3929 281.163 75.4395V66.8938H264.882V125H281.163V95.009C281.163 90.087 282.416 86.2426 284.939 83.4676C287.462 80.6926 290.657 79.3093 294.534 79.3093C298.646 79.3093 301.648 80.5823 303.549 83.1112C305.449 85.6486 306.4 89.2977 306.4 94.0671V124.991H322.68V92.5395C322.68 83.7986 320.746 77.1029 316.869 72.4523C312.993 67.8103 307.409 65.4851 300.126 65.4851L300.118 65.4766ZM387.281 80.0646C390.031 84.6387 391.41 89.9257 391.41 95.9425C391.41 101.959 390.039 107.144 387.281 111.753C384.523 116.361 380.806 119.95 376.122 122.53C371.429 125.102 366.182 126.392 360.363 126.392C354.543 126.392 349.296 125.102 344.603 122.53C339.911 119.959 336.194 116.361 333.444 111.753C330.686 107.153 329.315 101.874 329.315 95.9425C329.315 90.0106 330.686 84.6387 333.444 80.0646C336.194 75.4904 339.936 71.9262 344.671 69.3463C349.397 66.775 354.627 65.4851 360.371 65.4851C366.115 65.4851 371.438 66.775 376.13 69.3463C380.823 71.9177 384.548 75.4989 387.29 80.0646H387.281ZM374.667 95.9425C374.667 92.3443 374.003 89.3401 372.691 86.9215C371.371 84.5029 369.647 82.6869 367.511 81.4733C365.375 80.2682 363.037 79.6572 360.48 79.6572C357.924 79.6572 355.443 80.2598 353.265 81.4733C351.096 82.6869 349.346 84.4775 348.034 86.8621C346.714 89.2468 346.058 92.2764 346.058 95.9425C346.058 99.6086 346.697 102.545 347.976 104.964C349.254 107.382 350.978 109.198 353.156 110.412C355.325 111.625 357.722 112.228 360.371 112.228H360.354C362.986 112.228 365.391 111.617 367.569 110.403C369.739 109.19 371.463 107.382 372.75 104.955C374.028 102.536 374.675 99.5322 374.675 95.934L374.667 95.9425ZM419.43 81.5242C421.524 80.2004 423.854 79.5384 426.41 79.5384C429.269 79.5384 431.758 80.2767 433.852 81.7619C435.938 83.247 437.334 85.2328 438.032 87.7362H455.237C453.774 80.7859 450.478 75.3462 445.356 71.4C440.243 67.4624 433.962 65.4851 426.519 65.4851C420.549 65.4851 415.276 66.792 410.71 69.4142C406.135 72.0365 402.553 75.6262 399.954 80.1919C397.356 84.766 396.06 90.0106 396.06 95.9425C396.06 101.874 397.364 107.128 399.954 111.693C402.553 116.267 406.135 119.857 410.71 122.471C415.276 125.085 420.549 126.392 426.519 126.392V126.375C433.953 126.375 440.252 124.346 445.407 120.281C450.562 116.216 453.841 110.836 455.237 104.115H438.032C437.342 106.771 435.946 108.816 433.852 110.267C431.767 111.71 429.278 112.431 426.41 112.431C423.845 112.431 421.524 111.77 419.43 110.446C417.336 109.122 415.688 107.204 414.485 104.709C413.283 102.205 412.686 99.3625 412.686 95.9255C412.686 92.4886 413.283 89.5608 414.485 87.1422C415.688 84.7236 417.336 82.8481 419.43 81.5157V81.5242ZM497.696 66.8853L478.044 89.6881V40.6455H461.763V124.991H478.044V108.307L483.627 102.316L500.951 124.991H520.839L493.281 91.9624L516.66 66.8853H497.696ZM564.324 40.6371H580.605V124.983H564.324V117.014C562.541 119.518 560.153 121.699 557.168 123.574C554.182 125.45 550.322 126.383 545.596 126.383V126.4C540.248 126.4 535.421 125.068 531.115 122.411C526.81 119.755 523.421 116.106 520.94 111.456C518.459 106.814 517.215 101.594 517.215 95.8152C517.215 90.036 518.459 84.749 520.94 80.1749C523.421 75.6008 526.81 72.0195 531.115 69.3973C535.421 66.7835 540.24 65.4681 545.596 65.4681C549.86 65.4681 553.56 66.2488 556.697 67.8103C559.842 69.3803 562.373 71.5613 564.316 74.3702V40.6286L564.324 40.6371ZM564.795 95.934C564.795 92.8875 564.131 90.036 562.819 87.6174C561.498 85.1988 559.674 83.2809 557.353 81.8807C555.023 80.4719 552.349 79.7676 549.33 79.7676C546.311 79.7676 543.729 80.4719 541.366 81.8807C538.995 83.2894 537.162 85.1818 535.841 87.558C534.521 89.9427 533.865 92.6923 533.865 95.8152C533.865 98.9382 534.53 101.73 535.841 104.191C537.153 106.652 538.995 108.587 541.366 109.987C543.729 111.396 546.387 112.101 549.33 112.101C552.273 112.101 555.032 111.396 557.353 109.987C559.682 108.579 561.498 106.644 562.819 104.191C564.131 101.73 564.795 98.9806 564.795 95.934ZM645.441 80.0646C648.191 84.6387 649.57 89.9257 649.57 95.9425C649.57 101.959 648.199 107.144 645.441 111.753C642.683 116.361 638.966 119.95 634.282 122.53C629.589 125.102 624.342 126.392 618.523 126.392C612.703 126.392 607.456 125.102 602.763 122.53C598.071 119.959 594.346 116.361 591.604 111.753C588.846 107.153 587.475 101.874 587.475 95.9425C587.475 90.0106 588.846 84.6387 591.604 80.0646C594.354 75.4904 598.096 71.9262 602.822 69.3463C607.557 66.775 612.787 65.4851 618.523 65.4851C624.258 65.4851 629.589 66.775 634.282 69.3463C638.974 71.9177 642.691 75.4989 645.441 80.0646ZM632.827 95.9425C632.827 92.3443 632.162 89.3401 630.851 86.9215C629.53 84.5029 627.806 82.6869 625.67 81.4733C623.534 80.2682 621.197 79.6572 618.64 79.6572C616.084 79.6572 613.603 80.2598 611.425 81.4733C609.255 82.6869 607.506 84.4775 606.194 86.8621C604.874 89.2468 604.218 92.2764 604.218 95.9425C604.218 99.6086 604.857 102.545 606.144 104.964C607.422 107.382 609.146 109.198 611.324 110.412C613.494 111.625 615.89 112.228 618.539 112.228H618.523C621.155 112.228 623.56 111.617 625.738 110.403C627.907 109.19 629.631 107.382 630.918 104.955C632.196 102.536 632.844 99.5322 632.844 95.934L632.827 95.9425ZM715.172 107.62L704.088 66.8938H686.067L675.034 107.806L665.489 66.8853H649.444L666.422 124.991H683.275L695.09 82.9075L706.998 124.991H723.859L740.837 66.8853H724.674L715.172 107.62ZM798.189 72.4438C794.312 67.8018 788.729 65.4766 781.438 65.4766C777.09 65.4766 773.314 66.3761 770.102 68.1752C766.881 69.9743 764.341 72.3929 762.483 75.4395V66.8938H746.202V125H762.483V95.009C762.483 90.087 763.736 86.2426 766.259 83.4676C768.781 80.6926 771.977 79.3093 775.854 79.3093C779.966 79.3093 782.968 80.5823 784.869 83.1112C786.769 85.6486 787.719 89.2977 787.719 94.0671V124.991H804V92.5395C804 83.7986 802.066 77.1029 798.189 72.4523V72.4438Z" fill="#72CAB0"/>
<path d="M150.898 0H102.095C101.309 0 100.563 0.353265 100.059 0.969748L52.7882 58.4482V2.74301C52.7882 1.22604 51.592 0 50.1202 0H2.66797C1.19622 0 0 1.22604 0 2.74301V155.25C0 156.767 1.19622 157.993 2.66797 157.993H50.1202C51.592 157.993 52.7882 156.767 52.7882 155.25V70.6463L98.6209 135.405L81.39 153.324C79.7233 155.056 80.9128 158 83.2851 158H150.898C152.37 158 153.566 156.774 153.566 155.257V85.7121C153.566 83.2738 150.71 82.0478 149.023 83.7656L127.969 105.273L76.9075 64.1005L151.698 40.1199C152.814 39.7667 153.573 38.7069 153.573 37.5016V2.74993C153.573 1.23297 152.377 0.00692562 150.905 0.00692562L150.898 0Z" fill="#72CAB0"/>
</svg>
