<svg width="24" height="25" viewBox="0 0 24 25" fill="none" xmlns="http://www.w3.org/2000/svg">
<path d="M10.5795 0.673155C10.8837 0.620086 11.3598 0.562595 11.6376 0.540484C11.9154 0.522794 12.2725 0.500682 12.4312 0.500682C12.5899 0.49626 12.9955 0.513949 13.335 0.536061C13.6745 0.562595 14.1992 0.620086 14.5034 0.668733C14.8076 0.717379 15.2838 0.819093 15.5615 0.889851C15.8393 0.965032 16.2978 1.10655 16.5756 1.20384C16.8534 1.30113 17.3604 1.51783 17.6999 1.68588C18.0394 1.85393 18.4935 2.106 18.7139 2.2431C18.9344 2.38019 19.2606 2.60573 19.4414 2.7384C19.6222 2.87108 19.9352 3.11873 20.1336 3.28678C20.3364 3.45041 20.4995 3.60519 20.4995 3.63173C20.4995 3.65826 19.75 4.42333 18.8374 5.33434C17.9247 6.24535 17.162 6.99273 17.1399 6.99273C17.1223 6.99273 16.9812 6.88659 16.8269 6.75835C16.677 6.6301 16.4345 6.44436 16.289 6.34264C16.1435 6.24535 15.8525 6.07288 15.6365 5.9579C15.4249 5.84734 15.0589 5.68813 14.8253 5.60411C14.5872 5.52008 14.1771 5.40952 13.9082 5.35203C13.4849 5.25916 13.3086 5.24589 12.5194 5.24589C11.7655 5.25032 11.545 5.26358 11.1747 5.34318C10.9322 5.39625 10.5442 5.50239 10.3149 5.58199C10.0857 5.65717 9.71531 5.81196 9.49927 5.91809C9.28323 6.02865 8.93493 6.22766 8.72771 6.36033C8.52049 6.49743 8.19423 6.74066 8.00024 6.89986C7.80624 7.06349 7.51526 7.34652 7.34772 7.52784C7.18459 7.70916 6.92446 8.03641 6.76574 8.25311C6.61143 8.46981 6.37334 8.85898 6.24108 9.11547C6.10881 9.37197 5.94127 9.73903 5.86632 9.93361C5.79137 10.1282 5.68996 10.4245 5.64146 10.597C5.59297 10.7694 5.52242 11.0746 5.49156 11.2824C5.45629 11.4903 5.4122 11.875 5.39897 12.1448C5.37693 12.4411 5.38575 12.848 5.42102 13.1841C5.44747 13.4892 5.53124 13.9757 5.60619 14.2675C5.68114 14.5594 5.80019 14.9486 5.87073 15.1299C5.94127 15.3112 6.09117 15.6429 6.2014 15.8596C6.31162 16.0763 6.5012 16.408 6.62024 16.5893C6.74369 16.7706 6.97737 17.0802 7.1405 17.2748C7.29922 17.4693 7.58139 17.7612 7.76216 17.9293C7.94292 18.0929 8.26918 18.3582 8.48522 18.513C8.70126 18.6722 9.1201 18.9199 9.41109 19.0658C9.70208 19.2118 10.1562 19.3975 10.4251 19.4859C10.6941 19.5744 11.0909 19.6805 11.3069 19.7203C11.5979 19.7734 11.9418 19.7911 12.6076 19.7911C13.3306 19.7911 13.6128 19.769 14.0184 19.6938C14.2962 19.6452 14.7327 19.5346 14.9884 19.4506C15.2441 19.3665 15.588 19.2294 15.7599 19.1498C15.9319 19.0702 16.2185 18.9155 16.3992 18.8049C16.58 18.6988 16.8578 18.5042 17.0165 18.3804C17.1752 18.2521 17.4309 18.0133 17.5896 17.8408C17.7484 17.6728 17.9776 17.3853 18.1011 17.204C18.2289 17.0227 18.4097 16.7175 18.5067 16.523C18.6037 16.3284 18.7448 15.9878 18.8197 15.7712C18.8947 15.5545 18.9696 15.2803 19.0225 14.953H12.5194V10.2653H23.7842L23.8415 10.6279C23.868 10.8314 23.9164 11.1851 23.9473 11.4151C23.9738 11.6451 24.0002 12.2731 24.0002 12.8082C24.0002 13.4627 23.9738 13.9889 23.9209 14.4223C23.8812 14.7761 23.7842 15.351 23.7092 15.7048C23.6343 16.0586 23.4976 16.5937 23.4006 16.8989C23.3036 17.204 23.1228 17.6816 23.0038 17.9602C22.8848 18.2388 22.6952 18.6369 22.585 18.8447C22.4747 19.0526 22.2411 19.4417 22.0691 19.7071C21.8928 19.9724 21.5929 20.3837 21.399 20.6137C21.2094 20.8436 20.8743 21.2107 20.6538 21.4229C20.4378 21.6396 20.0586 21.9713 19.8162 22.1615C19.5737 22.3516 19.1636 22.6391 18.8991 22.7983C18.639 22.9575 18.2642 23.1742 18.0658 23.2715C17.863 23.3732 17.4926 23.5413 17.2369 23.643C16.9812 23.7491 16.5756 23.8951 16.3331 23.9702C16.0906 24.0454 15.7026 24.1471 15.4734 24.1958C15.2441 24.2488 14.7944 24.3284 14.4814 24.3771C14.1198 24.4346 13.5643 24.4788 12.9823 24.4921C12.4048 24.5098 11.8316 24.4965 11.4612 24.4655C11.135 24.4346 10.5574 24.3506 10.1827 24.2754C9.8079 24.2046 9.18183 24.0366 8.79384 23.9083C8.40586 23.7801 7.8812 23.5766 7.62548 23.4617C7.36976 23.3423 6.98178 23.1477 6.76574 23.0283C6.5497 22.9089 6.17053 22.6789 5.92804 22.5197C5.68555 22.3605 5.28875 22.073 5.04626 21.874C4.80377 21.6794 4.3761 21.2903 4.09834 21.0117C3.82058 20.7331 3.44141 20.3129 3.25624 20.083C3.07106 19.853 2.7933 19.4727 2.63458 19.2427C2.47586 19.0128 2.22455 18.6015 2.07905 18.3361C1.92915 18.0708 1.71752 17.6462 1.6073 17.3986C1.49708 17.1465 1.32954 16.7087 1.22813 16.4257C1.13114 16.1382 0.99005 15.665 0.919508 15.3731C0.848965 15.0813 0.74756 14.5638 0.694653 14.2233C0.615292 13.7147 0.597656 13.414 0.597656 12.5207C0.597656 11.6141 0.615292 11.3311 0.699061 10.796C0.751969 10.4422 0.875418 9.85843 0.968006 9.49137C1.06059 9.12874 1.22813 8.58037 1.34276 8.27522C1.4574 7.97008 1.66902 7.48804 1.81011 7.20501C1.9556 6.91755 2.2025 6.47089 2.36123 6.20997C2.52436 5.94463 2.75803 5.59526 2.88589 5.42279C3.00934 5.25474 3.29151 4.90537 3.50755 4.64887C3.72799 4.39237 4.0763 4.02532 4.27911 3.83073C4.48633 3.63615 4.8214 3.33985 5.02421 3.17622C5.23143 3.00817 5.64587 2.70745 5.95009 2.50402C6.2543 2.30059 6.7481 2.00429 7.05232 1.84508C7.35653 1.6903 7.76216 1.49572 7.95615 1.42054C8.15014 1.34093 8.4764 1.21711 8.68362 1.14635C8.89084 1.07559 9.27442 0.960609 9.54336 0.889851C9.8123 0.823516 10.2752 0.721801 10.5795 0.673155Z" fill="#5B6B84"/>
</svg>
