<svg width="25" height="24" viewBox="0 0 25 24" fill="none" xmlns="http://www.w3.org/2000/svg">
<path fill-rule="evenodd" clip-rule="evenodd" d="M21.3083 10.5801V16.1591C21.3051 20.6593 21.2986 21.7901 21.2628 21.9851C21.2401 22.1183 21.1816 22.323 21.1328 22.44C21.0874 22.5569 20.9996 22.7292 20.9412 22.8266C20.8859 22.9209 20.7429 23.1028 20.626 23.2263C20.509 23.353 20.314 23.5187 20.1873 23.5967C20.0638 23.6714 19.8201 23.7852 19.3425 23.9509H5.92298L5.67928 23.8761C5.54606 23.8339 5.34136 23.7494 5.22438 23.6877C5.10741 23.6292 4.93846 23.5155 4.84748 23.4407C4.7565 23.3627 4.60701 23.2133 4.51278 23.1061C4.4218 22.9988 4.27885 22.7811 4.19762 22.6187C4.11964 22.4562 4.02864 22.2222 3.9994 22.0988C3.94741 21.8908 3.94415 21.3807 3.92791 10.5768L4.02215 10.4826L4.11312 10.3851H21.1134L21.3083 10.5801ZM16.6456 11.974C16.5741 11.974 16.4766 12 16.4279 12.0325C16.3792 12.0618 16.3142 12.1235 16.2817 12.169C16.2297 12.2405 16.22 12.3575 16.2037 13.225C16.1875 14.1478 16.1809 14.216 16.0965 14.5247C16.051 14.7034 15.9405 14.9959 15.8528 15.1746C15.7683 15.3533 15.6091 15.6165 15.5018 15.7594C15.3946 15.9024 15.1997 16.1201 15.0665 16.2436C14.9332 16.3703 14.7253 16.536 14.5986 16.6172C14.4718 16.6985 14.2541 16.8187 14.1112 16.8837C13.9682 16.9519 13.7342 17.0364 13.5913 17.0721C13.4483 17.1111 13.2079 17.1566 13.0551 17.1761C12.8959 17.1989 12.6132 17.2053 12.389 17.1956C12.1389 17.1826 11.8887 17.1469 11.6904 17.0981C11.5215 17.0559 11.2583 16.9649 11.1056 16.8999C10.9529 16.8317 10.7287 16.7115 10.6019 16.627C10.4752 16.5425 10.251 16.3573 10.1015 16.2143C9.95532 16.0714 9.76038 15.8602 9.6759 15.7432C9.58817 15.6262 9.46143 15.4215 9.3867 15.2883C9.31521 15.1551 9.21449 14.9146 9.15925 14.7522C9.10726 14.5897 9.03904 14.2973 9.00979 14.1023C8.9708 13.8326 8.95781 13.5662 8.96756 13.0138C8.97731 12.3574 8.97079 12.2697 8.92206 12.1917C8.88956 12.143 8.81483 12.0748 8.75959 12.039C8.70111 12.0033 8.6004 11.974 8.53541 11.974C8.47043 11.974 8.37295 12.0065 8.30796 12.0488C8.24622 12.0878 8.17148 12.1722 8.13899 12.234C8.08376 12.3379 8.08049 12.429 8.09349 13.29C8.10649 14.1705 8.11299 14.255 8.19097 14.5735C8.23646 14.7619 8.31121 15.0121 8.3567 15.1356C8.40219 15.2558 8.50289 15.4735 8.57438 15.623C8.64911 15.7692 8.77909 15.9901 8.86357 16.1169C8.94806 16.2436 9.10079 16.4385 9.20151 16.5555C9.30549 16.6725 9.49069 16.8577 9.62065 16.9714C9.75062 17.0819 9.94883 17.2378 10.0658 17.3158C10.1828 17.3938 10.4102 17.5238 10.5694 17.605C10.7287 17.683 11.0016 17.7935 11.1706 17.8487C11.3395 17.904 11.619 17.9754 11.7879 18.0047C11.9569 18.0339 12.2721 18.0599 12.4865 18.0632C12.701 18.0664 12.9967 18.0567 13.1461 18.0437C13.2923 18.0274 13.5263 17.9884 13.666 17.9559C13.8025 17.9202 14.0332 17.8487 14.1761 17.7967C14.3191 17.7447 14.5303 17.6538 14.6473 17.5953C14.7643 17.5368 14.982 17.4068 15.1347 17.3061C15.2874 17.2054 15.5474 16.9942 15.7163 16.8317C15.882 16.6693 16.0965 16.4385 16.1939 16.3118C16.2882 16.1851 16.4344 15.9674 16.5156 15.8244C16.5969 15.6815 16.7138 15.4345 16.7756 15.2721C16.8373 15.1096 16.9251 14.8399 16.9673 14.6709C17.0128 14.502 17.0648 14.1705 17.0843 13.9398C17.1038 13.7092 17.1167 13.2477 17.1102 12.9163C17.1037 12.4192 17.0907 12.2957 17.0453 12.2112C17.0128 12.1527 16.938 12.0748 16.8828 12.039C16.8211 12.0033 16.7203 11.974 16.6456 11.974Z" fill="#8FD6C1"/>
<path fill-rule="evenodd" clip-rule="evenodd" d="M4.40556 1.09218C4.56802 1.09218 4.81821 1.11491 4.95793 1.14415C5.0944 1.1734 5.28287 1.22541 5.3706 1.26115C5.46158 1.29689 5.6143 1.36513 5.71177 1.41387C5.80925 1.46586 5.97822 1.56659 6.08544 1.64132C6.19267 1.71606 6.40062 1.88175 6.55008 2.01172C6.69955 2.14169 6.92052 2.35615 7.04074 2.48937C7.16096 2.62259 7.35266 2.85004 7.46638 2.99301C7.57686 3.13598 7.80431 3.45766 7.97002 3.70785C8.13899 3.95804 8.38593 4.36096 8.5224 4.6014C8.66212 4.84185 8.86683 5.22202 8.9773 5.44622C9.08778 5.67042 9.25674 6.02784 9.35097 6.24229C9.44195 6.45674 9.57516 6.78168 9.64664 6.96364C9.71487 7.14884 9.82213 7.46403 9.88386 7.66223C9.9456 7.86369 10.0463 8.2276 10.1113 8.46805C10.1763 8.70849 10.2575 9.04642 10.2933 9.21538C10.329 9.38434 10.3582 9.53382 10.3582 9.54681C10.3577 9.56305 8.96983 9.5728 4.18461 9.5728L4.0514 9.28687C3.97667 9.13091 3.82069 8.76373 3.70696 8.46805C3.58999 8.17236 3.40803 7.67522 3.3008 7.36329C3.19682 7.05136 3.06036 6.60296 2.99862 6.37226C2.93689 6.14156 2.86215 5.83288 2.83616 5.68991C2.81017 5.54694 2.75494 5.23176 2.7192 4.99132C2.68346 4.75087 2.64445 4.29597 2.6347 3.98404C2.6217 3.61037 2.62822 3.30819 2.65421 3.10673C2.67696 2.93777 2.71919 2.71682 2.74519 2.61934C2.77118 2.52186 2.83292 2.3529 2.87516 2.24567C2.92065 2.13845 3.00837 1.96949 3.07335 1.87201C3.13509 1.77453 3.25533 1.6218 3.33656 1.53407C3.41779 1.44959 3.54451 1.34239 3.61599 1.30015C3.68747 1.25791 3.82719 1.19614 3.92467 1.1604C4.05464 1.11166 4.18786 1.09543 4.40556 1.09218ZM7.10896 6.36576C7.02448 6.35276 6.96923 6.36575 6.88475 6.42424C6.82301 6.46648 6.67031 6.61597 6.54684 6.75894C6.42012 6.90191 6.23166 7.13586 6.12444 7.27882C6.01721 7.42179 5.87425 7.65574 5.80601 7.79871C5.74103 7.94167 5.65327 8.14962 5.61753 8.26335C5.57854 8.37382 5.54931 8.5233 5.54931 8.59478C5.54931 8.689 5.57206 8.7475 5.63054 8.80598C5.69227 8.86771 5.74427 8.88721 5.85149 8.88722C5.97496 8.88722 6.0042 8.86769 6.18616 8.68249C6.29338 8.57201 6.5631 8.21136 6.7808 7.87994C7.00174 7.54853 7.21942 7.20736 7.26492 7.11636C7.31366 7.01888 7.35265 6.87591 7.3624 6.75894C7.3754 6.58673 7.36892 6.55421 7.30068 6.47297C7.25194 6.41774 7.1772 6.3755 7.10896 6.36576ZM5.98146 3.88332C5.90997 3.88333 5.79625 3.91905 5.71177 3.96779C5.63054 4.01328 5.46481 4.13351 5.34134 4.23424C5.21787 4.33822 5.05866 4.49419 4.99043 4.58192C4.91894 4.6729 4.80522 4.83862 4.73699 4.95559C4.66875 5.07256 4.56476 5.28051 4.51278 5.42023C4.43805 5.60218 4.41206 5.72566 4.41206 5.87513C4.40881 6.02134 4.42507 6.09932 4.4673 6.15455C4.51604 6.21954 4.54528 6.22928 4.63951 6.21303C4.70124 6.20004 4.81497 6.14807 4.89295 6.09283C4.96768 6.04085 5.10091 5.90437 5.19189 5.79389C5.27962 5.68017 5.51357 5.37149 5.71177 5.1018C5.90672 4.83537 6.11142 4.53319 6.16667 4.4357C6.21866 4.33823 6.2609 4.20825 6.26415 4.15301C6.26415 4.08153 6.23707 4.01871 6.18292 3.96456C6.12443 3.90607 6.06594 3.88332 5.98146 3.88332Z" fill="#8FD6C1"/>
<path d="M17.7471 3.00925C17.767 3.00935 18.4557 3.19451 19.2775 3.41865C20.0994 3.64281 20.7817 3.8345 20.7917 3.84756C20.8047 3.86056 20.7722 4.01653 20.7202 4.19524C20.6682 4.37395 20.626 4.58191 20.626 4.65665C20.626 4.73463 20.652 4.8646 20.6845 4.94908C20.7169 5.03682 20.8567 5.27401 20.9996 5.47871C21.1394 5.68341 21.2791 5.91736 21.3148 5.99859C21.3473 6.07983 21.3993 6.26179 21.4285 6.40475C21.461 6.57696 21.4708 6.73618 21.4578 6.8759C21.4448 6.99288 21.2986 7.57125 21.1264 8.15936C20.9574 8.74748 20.7982 9.30961 20.7234 9.5728H17.4742C15.3297 9.5728 14.225 9.56305 14.2249 9.54031C14.2249 9.52081 14.4686 8.663 14.7643 7.62974C15.0599 6.59972 15.3394 5.64442 15.3849 5.5112C15.4304 5.37798 15.5051 5.19277 15.5506 5.10504C15.5961 5.01406 15.7131 4.8581 15.8138 4.75412C15.9145 4.65015 16.077 4.51367 16.1745 4.45518C16.2719 4.3967 16.4994 4.29596 16.6781 4.23097C16.8568 4.16599 17.0712 4.07177 17.159 4.01653C17.2435 3.96454 17.3605 3.85082 17.4222 3.76309C17.4937 3.66887 17.5684 3.49665 17.6236 3.30819C17.6724 3.14573 17.7276 3.00925 17.7471 3.00925Z" fill="#8FD6C1"/>
<path d="M12.7952 0.0491409C12.8992 0.0491412 12.9479 0.0718928 13.0357 0.153124C13.1169 0.234355 13.1526 0.305867 13.1851 0.455333C13.2111 0.588553 13.2209 0.786771 13.2079 1.0727C13.1949 1.32289 13.1559 1.64782 13.1071 1.86877L13.1011 1.89809C13.0616 2.0895 13.0294 2.24558 13.0324 2.24891C13.0356 2.25541 13.0974 2.18069 13.1689 2.08971C13.2404 1.99874 13.4093 1.82327 13.5425 1.6998C13.705 1.54709 13.8415 1.45284 13.9584 1.4106C14.0494 1.37811 14.1891 1.34889 14.2671 1.34888C14.3581 1.34888 14.4426 1.37162 14.5173 1.42361C14.5888 1.4691 14.6473 1.54384 14.6766 1.62507C14.7188 1.73878 14.7188 1.7713 14.67 1.90126C14.6375 1.989 14.5076 2.1742 14.3321 2.37564C14.1761 2.5576 13.9 2.85978 13.7212 3.05149C13.5425 3.23995 13.4028 3.40241 13.4126 3.40891C13.4223 3.41541 13.523 3.4674 13.64 3.52914C13.757 3.59087 13.9292 3.71434 14.0234 3.80856C14.1177 3.90604 14.2346 4.06851 14.2899 4.18223C14.3419 4.29596 14.4036 4.48769 14.4231 4.61441C14.4426 4.74113 14.4523 4.91982 14.4393 5.0108C14.4296 5.10503 14.3159 5.61842 14.1924 6.14805L14.1682 6.24962C14.0507 6.74391 13.9438 7.19365 13.9194 7.27882C13.8935 7.38277 13.861 7.43801 13.8317 7.43478C13.8057 7.43153 13.5133 7.40554 13.1786 7.3763C12.6035 7.33081 12.5613 7.33079 12.4508 7.38277C12.3826 7.41851 12.3176 7.48351 12.2883 7.54524C12.2493 7.63947 12.2493 7.66549 12.2916 7.76621C12.3176 7.82795 12.3728 7.90269 12.415 7.92868C12.4573 7.95792 12.7107 8.0034 13.0714 8.04564C13.3931 8.08463 13.666 8.12687 13.679 8.13661C13.692 8.14642 13.6238 8.47141 13.3541 9.55332L12.2136 9.55979C11.1511 9.56954 11.0731 9.56629 11.0601 9.51105C11.0503 9.48174 10.9918 9.1991 10.9269 8.88722C10.8619 8.57529 10.7612 8.0619 10.6994 7.74997C10.6409 7.43804 10.5369 6.91165 10.4752 6.58023C10.4102 6.24884 10.3583 5.94342 10.3582 5.89788C10.3582 5.8199 10.3615 5.81662 10.511 5.83937C10.5987 5.85236 10.8879 5.87511 11.1543 5.8881C11.5832 5.9076 11.6515 5.90435 11.7327 5.85561C11.7814 5.82637 11.8432 5.74841 11.8692 5.68667C11.9017 5.60869 11.9081 5.55018 11.8886 5.49819C11.8724 5.4592 11.8269 5.39423 11.7847 5.35524C11.7132 5.28701 11.6352 5.27401 10.9919 5.20902C10.5955 5.17004 10.2641 5.12454 10.251 5.10504C10.2348 5.08555 10.2315 4.93608 10.2413 4.77688C10.251 4.61767 10.2868 4.39021 10.3225 4.27324C10.3583 4.15302 10.446 3.9808 10.5304 3.86708C10.6084 3.75985 10.7221 3.63311 10.7839 3.58762C10.8456 3.53888 10.9886 3.45441 11.1056 3.39917C11.2225 3.34393 11.3785 3.29196 11.4565 3.28221C11.5312 3.27246 11.5929 3.25946 11.593 3.24971C11.593 3.23997 11.4792 3.03849 11.3428 2.80129C11.2063 2.56735 11.0146 2.23919 10.9171 2.07997C10.8229 1.92076 10.6832 1.66407 10.6117 1.51135C10.524 1.33265 10.472 1.17667 10.4622 1.0727C10.4525 0.942728 10.4655 0.887483 10.5272 0.796507C10.5695 0.734772 10.6409 0.663282 10.6832 0.643785C10.7287 0.62104 10.8261 0.601551 10.9041 0.60155C10.9788 0.60155 11.0958 0.630776 11.1641 0.663268C11.229 0.69576 11.359 0.802993 11.4468 0.897222C11.5377 0.994701 11.6645 1.16043 11.7294 1.26765C11.7977 1.37488 11.8952 1.5796 12.0446 1.98249L12.0479 1.77129C12.0479 1.65432 12.0706 1.41387 12.0966 1.23516C12.1226 1.05646 12.1713 0.822507 12.2103 0.715275C12.2461 0.608052 12.3111 0.461833 12.3533 0.390347C12.3956 0.318863 12.4833 0.21163 12.5483 0.156393V0.153124C12.6392 0.0719017 12.6977 0.0491409 12.7952 0.0491409Z" fill="#8FD6C1"/>
<path d="M18.059 0.702265C18.111 0.702267 18.3352 0.747744 18.5562 0.80298C18.755 0.850459 19.4226 1.0226 20.0938 1.19565L20.2848 1.2449C21.0158 1.43334 21.6429 1.59903 21.6755 1.6153C21.7047 1.63155 21.7535 1.6868 21.7795 1.74204C21.8055 1.79402 21.8282 1.87526 21.8282 1.92075C21.8282 1.96624 21.7762 2.1872 21.7112 2.41464C21.6463 2.64534 21.5715 2.88904 21.5423 2.95728C21.5033 3.045 21.448 3.10347 21.3668 3.14246C21.2986 3.1782 21.2238 3.20421 21.2043 3.20421C21.1815 3.20418 20.379 2.98975 19.4237 2.72983C17.8446 2.30093 17.6756 2.24893 17.5976 2.16121C17.5457 2.10922 17.4969 2.02798 17.4872 1.97599C17.4709 1.9175 17.5099 1.72254 17.6009 1.40086C17.7211 0.968712 17.7471 0.900476 17.8478 0.806249C17.9226 0.738014 17.9941 0.702265 18.059 0.702265Z" fill="#8FD6C1"/>
</svg>
