<svg width="178" height="36" viewBox="0 0 178 36" fill="none" xmlns="http://www.w3.org/2000/svg">
<path d="M51.978 20.8714L58.0809 28.1879H53.6778L49.8425 23.1649L48.6044 24.494V28.1898H45V9.50564H48.6044V20.3695L52.9554 15.3182H57.1518L51.978 20.8733V20.8714ZM66.444 15.0043C65.4815 15.0043 64.6455 15.2036 63.9343 15.6021C63.2212 16.0006 62.659 16.5364 62.2475 17.2113V15.3182H58.6431V28.1898H62.2475V21.5463C62.2475 20.456 62.5249 19.6044 63.0835 18.9897C63.642 18.3749 64.3495 18.0685 65.2078 18.0685C66.1182 18.0685 66.7828 18.3505 67.2036 18.9107C67.6244 19.4728 67.8347 20.2811 67.8347 21.3376V28.1879H71.4391V20.9993C71.4391 19.063 71.0109 17.5797 70.1527 16.5496C69.2944 15.5213 68.0582 15.0062 66.4458 15.0062L66.444 15.0043ZM85.7413 18.2358C86.3501 19.2491 86.6555 20.4203 86.6555 21.7531C86.6555 23.0859 86.352 24.2345 85.7413 25.2553C85.1307 26.2761 84.3078 27.0713 83.2708 27.6428C82.2319 28.2124 81.0701 28.4981 79.7818 28.4981C78.4934 28.4981 77.3317 28.2124 76.2928 27.6428C75.2539 27.0732 74.431 26.2761 73.8222 25.2553C73.2116 24.2364 72.9081 23.0671 72.9081 21.7531C72.9081 20.4391 73.2116 19.2491 73.8222 18.2358C74.431 17.2226 75.2595 16.433 76.3077 15.8615C77.354 15.2919 78.512 15.0062 79.7836 15.0062C81.0552 15.0062 82.2337 15.2919 83.2726 15.8615C84.3115 16.4311 85.1363 17.2244 85.7432 18.2358H85.7413ZM82.9487 21.7531C82.9487 20.956 82.8016 20.2905 82.5112 19.7548C82.2189 19.219 81.8372 18.8167 81.3643 18.5479C80.8914 18.2809 80.3738 18.1456 79.8078 18.1456C79.2419 18.1456 78.6926 18.2791 78.2104 18.5479C77.7301 18.8167 77.3428 19.2134 77.0524 19.7416C76.7601 20.2699 76.6149 20.941 76.6149 21.7531C76.6149 22.5652 76.7564 23.2156 77.0394 23.7514C77.3224 24.2872 77.704 24.6895 78.1862 24.9583C78.6666 25.2271 79.1972 25.3606 79.7836 25.3606H79.7799C80.3627 25.3606 80.8951 25.2252 81.3773 24.9564C81.8577 24.6876 82.2393 24.2872 82.5242 23.7495C82.8072 23.2138 82.9505 22.5483 82.9505 21.7512L82.9487 21.7531ZM92.8589 18.5592C93.3225 18.2659 93.8382 18.1193 94.4042 18.1193C95.0372 18.1193 95.5883 18.2828 96.0519 18.6118C96.5136 18.9408 96.8227 19.3807 96.9772 19.9352H100.786C100.462 18.3956 99.7326 17.1906 98.5988 16.3165C97.4668 15.4442 96.0761 15.0062 94.4284 15.0062C93.1065 15.0062 91.9392 15.2957 90.9283 15.8766C89.9155 16.4575 89.1223 17.2526 88.547 18.264C87.9718 19.2773 87.685 20.4391 87.685 21.7531C87.685 23.0671 87.9736 24.2308 88.547 25.2422C89.1223 26.2554 89.9155 27.0506 90.9283 27.6296C91.9392 28.2086 93.1065 28.4981 94.4284 28.4981V28.4944C96.0742 28.4944 97.4687 28.0451 98.61 27.1446C99.7512 26.2441 100.477 25.0523 100.786 23.5634H96.9772C96.8245 24.1518 96.5155 24.6049 96.0519 24.9263C95.5901 25.2459 95.0391 25.4057 94.4042 25.4057C93.8364 25.4057 93.3225 25.2591 92.8589 24.9658C92.3953 24.6726 92.0304 24.2477 91.7642 23.695C91.498 23.1404 91.3658 22.5107 91.3658 21.7493C91.3658 20.988 91.498 20.3394 91.7642 19.8037C92.0304 19.2679 92.3953 18.8524 92.8589 18.5573V18.5592ZM110.187 15.3164L105.836 20.3676V9.50376H102.231V28.1879H105.836V24.4921L107.072 23.1649L110.907 28.1879H115.31L109.209 20.8714L114.385 15.3164H110.187ZM124.937 9.50188H128.542V28.1861H124.937V26.4208C124.543 26.9754 124.014 27.4585 123.353 27.874C122.692 28.2895 121.838 28.4962 120.791 28.4962V28.5C119.607 28.5 118.538 28.2049 117.585 27.6165C116.632 27.0281 115.882 26.2197 115.332 25.1895C114.783 24.1612 114.508 23.0051 114.508 21.7249C114.508 20.4447 114.783 19.2735 115.332 18.2603C115.882 17.247 116.632 16.4537 117.585 15.8728C118.538 15.2938 119.605 15.0024 120.791 15.0024C121.735 15.0024 122.554 15.1754 123.249 15.5213C123.945 15.8691 124.505 16.3522 124.936 16.9744V9.5L124.937 9.50188ZM125.042 21.7512C125.042 21.0763 124.895 20.4447 124.604 19.9089C124.312 19.3732 123.908 18.9483 123.394 18.6381C122.878 18.3261 122.286 18.17 121.618 18.17C120.949 18.17 120.378 18.3261 119.855 18.6381C119.33 18.9502 118.924 19.3694 118.632 19.8958C118.339 20.424 118.194 21.0331 118.194 21.7249C118.194 22.4167 118.341 23.0352 118.632 23.5803C118.922 24.1255 119.33 24.5541 119.855 24.8643C120.378 25.1764 120.966 25.3324 121.618 25.3324C122.269 25.3324 122.88 25.1764 123.394 24.8643C123.91 24.5522 124.312 24.1236 124.604 23.5803C124.895 23.0352 125.042 22.4261 125.042 21.7512ZM142.896 18.2358C143.505 19.2491 143.81 20.4203 143.81 21.7531C143.81 23.0859 143.507 24.2345 142.896 25.2553C142.285 26.2761 141.463 27.0713 140.426 27.6428C139.387 28.2124 138.225 28.4981 136.937 28.4981C135.648 28.4981 134.486 28.2124 133.448 27.6428C132.409 27.0732 131.584 26.2761 130.977 25.2553C130.366 24.2364 130.063 23.0671 130.063 21.7531C130.063 20.4391 130.366 19.2491 130.977 18.2358C131.586 17.2226 132.414 16.433 133.461 15.8615C134.509 15.2919 135.667 15.0062 136.937 15.0062C138.206 15.0062 139.387 15.2919 140.426 15.8615C141.464 16.4311 142.287 17.2244 142.896 18.2358ZM140.103 21.7531C140.103 20.956 139.956 20.2905 139.666 19.7548C139.374 19.219 138.992 18.8167 138.519 18.5479C138.046 18.2809 137.529 18.1456 136.963 18.1456C136.397 18.1456 135.847 18.2791 135.365 18.5479C134.885 18.8167 134.498 19.2134 134.207 19.7416C133.915 20.2699 133.77 20.941 133.77 21.7531C133.77 22.5652 133.911 23.2156 134.196 23.7514C134.479 24.2872 134.861 24.6895 135.343 24.9583C135.823 25.2271 136.354 25.3606 136.94 25.3606H136.937C137.519 25.3606 138.052 25.2252 138.534 24.9564C139.014 24.6876 139.396 24.2872 139.681 23.7495C139.964 23.2138 140.107 22.5483 140.107 21.7512L140.103 21.7531ZM158.334 24.3398L155.88 15.3182H151.89L149.448 24.3812L147.335 15.3164H143.782L147.541 28.1879H151.272L153.888 18.8656L156.524 28.1879H160.257L164.016 15.3164H160.438L158.334 24.3398ZM176.714 16.5477C175.855 15.5194 174.619 15.0043 173.005 15.0043C172.042 15.0043 171.206 15.2036 170.495 15.6021C169.782 16.0006 169.22 16.5364 168.808 17.2113V15.3182H165.204V28.1898H168.808V21.5463C168.808 20.456 169.086 19.6044 169.644 18.9897C170.203 18.3749 170.91 18.0685 171.769 18.0685C172.679 18.0685 173.344 18.3505 173.764 18.9107C174.185 19.4728 174.396 20.2811 174.396 21.3376V28.1879H178V20.9993C178 19.063 177.572 17.5797 176.714 16.5496V16.5477Z" fill="#72CAB0"/>
<path d="M33.4078 0.5H22.6032C22.4291 0.5 22.264 0.578255 22.1524 0.714818L11.6869 13.4474V1.10763C11.6869 0.771591 11.4221 0.5 11.0963 0.5H0.590671C0.264835 0.5 0 0.771591 0 1.10763V34.8908C0 35.2269 0.264835 35.4985 0.590671 35.4985H11.0963C11.4221 35.4985 11.6869 35.2269 11.6869 34.8908V16.1495L21.834 30.4947L18.0192 34.4643C17.6502 34.8479 17.9135 35.5 18.4387 35.5H33.4078C33.7337 35.5 33.9985 35.2284 33.9985 34.8924V19.4868C33.9985 18.9467 33.3662 18.6751 32.9927 19.0557L28.3314 23.82L17.0268 14.6995L33.5849 9.38733C33.8319 9.30908 34 9.07431 34 8.80732V1.10916C34 0.773125 33.7352 0.501534 33.4093 0.501534L33.4078 0.5Z" fill="#72CAB0"/>
</svg>
