<svg width="24" height="24" viewBox="0 0 24 24" fill="none" xmlns="http://www.w3.org/2000/svg">
<path fill-rule="evenodd" clip-rule="evenodd" d="M9.31844 19.4115C9.31844 19.8808 9.33065 20.1491 9.35197 20.1491C9.37372 20.1491 9.38549 20.5961 9.38549 21.4229C9.38549 22.2498 9.37372 22.6968 9.35197 22.6968C9.33353 22.6968 9.31844 22.7199 9.31844 22.748C9.31844 22.832 9.04357 23.0801 8.89944 23.1262C8.79367 23.16 8.19799 23.1663 6.08382 23.156C4.60907 23.1489 3.34588 23.1315 3.27656 23.1174C3.20744 23.1033 3.15084 23.0783 3.15084 23.0619C3.15084 23.0455 3.12753 23.0321 3.09904 23.0321C3.04071 23.032 2.8827 22.8863 2.8827 22.8324C2.88269 22.8132 2.8676 22.7974 2.84917 22.7974C2.83074 22.7974 2.81564 22.7672 2.81564 22.7303C2.81564 22.6935 2.80055 22.6633 2.78212 22.6633C2.76041 22.6631 2.74863 22.2329 2.74863 21.4397C2.74863 20.6465 2.76041 20.2163 2.78212 20.2161C2.8035 20.2161 2.81564 19.9367 2.81564 19.445V18.674H9.31844V19.4115Z" fill="#8FD6C1"/>
<path fill-rule="evenodd" clip-rule="evenodd" d="M7.3488 20.7232C7.24942 20.67 4.93707 20.6723 4.84474 20.7257C4.73892 20.7871 4.62571 20.9127 4.62571 20.9689C4.62571 20.9974 4.61062 21.0207 4.59219 21.0207C4.57355 21.0207 4.55866 21.1101 4.55866 21.2218V21.4229L5.27095 21.4287C5.94325 21.4342 7.13315 21.4327 7.48326 21.426L7.64248 21.4229V21.2218C7.64248 21.1101 7.62759 21.0207 7.60895 21.0207C7.59052 21.0207 7.57543 20.9974 7.57543 20.9689C7.57543 20.9104 7.45529 20.7802 7.3488 20.7232Z" fill="#8FD6C1"/>
<path fill-rule="evenodd" clip-rule="evenodd" d="M17.5396 14.5171C22.4694 14.5171 22.6837 14.5196 22.844 14.5796C23.0871 14.6704 23.1955 14.7252 23.1955 14.7572C23.1955 14.7726 23.2184 14.7853 23.2465 14.7853C23.3027 14.7853 23.7319 15.1997 23.7319 15.254C23.7319 15.2728 23.747 15.2881 23.7654 15.2881C23.7827 15.2881 23.797 15.308 23.7987 15.3333L23.799 15.3435C23.8008 15.3688 23.8151 15.3887 23.8324 15.3887C23.8497 15.3887 23.864 15.4219 23.8658 15.464L23.8661 15.4811C23.8677 15.5204 23.8803 15.5519 23.896 15.5559L23.9029 15.5567C23.9186 15.5608 23.9312 15.5923 23.9328 15.6316L23.9331 15.6487C23.9349 15.6908 23.9492 15.7239 23.9665 15.7239C23.9886 15.7239 24 16.7799 24 18.8249C24 20.8698 23.9886 21.9258 23.9665 21.9258C23.9492 21.9258 23.9349 21.9589 23.9331 22.0011L23.9328 22.0181C23.9311 22.0603 23.9167 22.0934 23.8995 22.0934C23.8822 22.0934 23.8678 22.1199 23.8661 22.1536L23.8658 22.1673C23.8641 22.1988 23.8515 22.2239 23.8358 22.2271L23.829 22.2278C23.8133 22.2311 23.8007 22.2563 23.799 22.2877L23.7987 22.3014C23.797 22.3351 23.7827 22.3616 23.7654 22.3616C23.7481 22.3616 23.7337 22.3815 23.732 22.4068L23.7317 22.417C23.73 22.4423 23.7156 22.4622 23.6983 22.4622C23.6799 22.4622 23.6648 22.4777 23.6648 22.4966C23.6647 22.5428 23.3746 22.8309 23.3281 22.8309C23.3079 22.8309 23.2679 22.8543 23.2394 22.8828C23.2108 22.9114 23.144 22.9435 23.0909 22.9541C23.0379 22.9647 22.9944 22.9833 22.9944 22.9954C22.9944 23.0076 22.9228 23.0396 22.8352 23.0666C22.5955 23.1407 12.6002 23.1407 12.3604 23.0666C12.2728 23.0396 12.2012 23.0057 12.2011 22.9912C12.2011 22.9768 12.171 22.965 12.1341 22.965C12.0995 22.965 12.0708 22.9518 12.0674 22.9349L12.0667 22.9281C12.0635 22.9124 12.0383 22.8997 12.0069 22.8981L11.9932 22.8978C11.9595 22.8962 11.933 22.8828 11.933 22.8667C11.933 22.8495 11.9027 22.8259 11.8658 22.8141C11.7778 22.7862 11.4637 22.4795 11.4637 22.4215C11.4637 22.3967 11.4335 22.3547 11.3966 22.3281C11.3598 22.3015 11.3296 22.2529 11.3296 22.2201C11.3296 22.1873 11.3145 22.1605 11.2961 22.1605C11.2788 22.1605 11.2645 22.1207 11.2627 22.0701L11.2624 22.0496C11.2607 21.9991 11.2463 21.9593 11.2291 21.9593C11.2118 21.9593 11.1974 21.9129 11.1957 21.8539L11.1954 21.83C11.1936 21.7711 11.1793 21.7247 11.162 21.7247C11.1399 21.7247 11.1285 20.7357 11.1285 18.8249C11.1285 16.914 11.1399 15.9251 11.162 15.9251C11.1793 15.9251 11.1936 15.872 11.1954 15.8046L11.1957 15.7773C11.1974 15.7099 11.2118 15.6569 11.2291 15.6569C11.2463 15.6569 11.2607 15.6237 11.2624 15.5816L11.2627 15.5645C11.2645 15.5224 11.2788 15.4893 11.2961 15.4893C11.3134 15.4893 11.3277 15.4628 11.3295 15.4291L11.3298 15.4154C11.3315 15.3817 11.3458 15.3552 11.3631 15.3552C11.3816 15.3552 11.3966 15.3359 11.3966 15.3123C11.3967 15.2887 11.4268 15.2477 11.4637 15.2211C11.5006 15.1945 11.5307 15.152 11.5307 15.1266C11.5307 15.0776 11.7193 14.8859 11.7674 14.8859C11.7831 14.8858 11.8336 14.8481 11.8796 14.802C11.9257 14.7559 11.9868 14.7182 12.0153 14.7182C12.0438 14.7182 12.067 14.7031 12.067 14.6847C12.067 14.6674 12.0936 14.6531 12.1272 14.6513L12.1409 14.651C12.1746 14.6493 12.2011 14.6349 12.2011 14.6177C12.2012 14.6004 12.2409 14.586 12.2914 14.5843L12.3119 14.584C12.3625 14.5823 12.4022 14.5679 12.4022 14.5506C12.4022 14.5284 14.137 14.5171 17.5396 14.5171ZM14.2123 17.0649V20.4508H20.9832V17.0649H14.2123Z" fill="#8FD6C1"/>
<path fill-rule="evenodd" clip-rule="evenodd" d="M11.933 3.28671C11.933 3.34203 11.9179 3.38729 11.8994 3.38729C11.881 3.38733 11.8677 3.49045 11.8661 3.64142L11.8658 3.70304C11.8642 3.85403 11.8509 3.95717 11.8324 3.9572C11.8139 3.9572 11.8006 4.06032 11.7991 4.21133L11.7987 4.27294C11.7971 4.42396 11.7838 4.5271 11.7654 4.5271C11.747 4.52712 11.7336 4.62531 11.732 4.7665L11.7317 4.82406C11.7301 4.96521 11.7167 5.06343 11.6983 5.06348C11.6792 5.06348 11.6648 5.16404 11.6648 5.29813C11.6648 5.46323 11.6524 5.53296 11.6229 5.5333C11.5945 5.53367 11.5972 5.54528 11.6313 5.56938C11.6691 5.59616 11.6712 5.60916 11.6397 5.62193C11.6115 5.6334 11.5978 5.7201 11.5978 5.88758C11.5978 6.03099 11.5836 6.13621 11.5642 6.13621C11.5458 6.13624 11.5325 6.23938 11.5309 6.39037L11.5306 6.45199C11.529 6.60296 11.5157 6.70607 11.4972 6.70612C11.4787 6.70612 11.4655 6.80924 11.4639 6.96025L11.4635 7.02186C11.462 7.16785 11.4495 7.26911 11.432 7.2757L11.4283 7.27635C11.4108 7.28293 11.3984 7.38418 11.3968 7.53015L11.3965 7.59177C11.3949 7.74278 11.3816 7.84593 11.3631 7.84593C11.3448 7.84598 11.3314 7.94416 11.3298 8.08532L11.3295 8.14288C11.3279 8.28407 11.3144 8.38229 11.2961 8.38231C11.2776 8.38231 11.2643 8.48543 11.2627 8.63644L11.2624 8.69805C11.2608 8.84906 11.2475 8.95218 11.2291 8.95218C11.2107 8.9522 11.1973 9.05043 11.1957 9.19161L11.1954 9.24917C11.1938 9.38566 11.1812 9.48197 11.1638 9.48824L11.1602 9.48889C11.1416 9.49555 11.1285 9.60517 11.1285 9.75677C11.1285 9.91321 11.1145 10.0249 11.095 10.0249C11.0753 10.0249 11.0615 10.1423 11.0615 10.3099C11.0615 10.4723 11.0485 10.5875 11.0298 10.5945L11.0261 10.5952C11.0072 10.6026 10.9944 10.7234 10.9944 10.8965C10.9944 11.0753 10.9808 11.1982 10.9609 11.1983C10.9427 11.1983 10.9292 11.2916 10.9276 11.4229L10.9272 11.4764C10.9256 11.6078 10.912 11.7011 10.8939 11.7011C10.8754 11.7011 10.8621 11.8043 10.8605 11.9553L10.8602 12.0169C10.8586 12.1679 10.8453 12.271 10.8268 12.271C10.8071 12.2711 10.7933 12.3884 10.7933 12.556C10.7933 12.7183 10.7803 12.8335 10.7616 12.8406L10.758 12.8412C10.7394 12.848 10.7263 12.9576 10.7263 13.1091C10.7263 13.2607 10.7131 13.3703 10.6945 13.377L10.6909 13.3776C10.6735 13.3839 10.6609 13.4802 10.6594 13.6167L10.659 13.6742C10.6575 13.8107 10.6449 13.9071 10.6275 13.9133L10.6239 13.914C10.6053 13.9207 10.5922 14.0303 10.5922 14.1818C10.5922 14.3383 10.5782 14.4501 10.5587 14.4501C10.539 14.4501 10.5251 14.5674 10.5251 14.735C10.5251 14.8974 10.5122 15.0126 10.4935 15.0196L10.4898 15.0203C10.4709 15.0277 10.4581 15.1485 10.4581 15.3217C10.4581 15.5004 10.4445 15.6233 10.4246 15.6234C10.4051 15.6234 10.3911 15.7351 10.3911 15.8916C10.3911 16.0432 10.3779 16.1528 10.3593 16.1594L10.3557 16.1601C10.3384 16.1663 10.3257 16.2627 10.3242 16.3992L10.3239 16.4567C10.3223 16.5979 10.3088 16.6961 10.2905 16.6961C10.2721 16.6961 10.257 16.7716 10.257 16.8638C10.257 16.9531 10.2428 17.0267 10.2252 17.0312L10.2201 17.0317C10.2032 17.0357 10.1899 17.0684 10.1899 17.1078C10.1899 17.1498 10.1598 17.2059 10.1229 17.2325C10.0861 17.2591 10.0559 17.3011 10.0559 17.3259C10.0558 17.3839 9.74178 17.6906 9.65377 17.7186C9.61684 17.7303 9.58663 17.7539 9.58662 17.7711C9.58662 17.7883 9.55771 17.8024 9.52235 17.8024C9.48702 17.8024 9.45181 17.8213 9.44413 17.8443C9.43298 17.8773 8.72988 17.8903 6.14806 17.9054C2.97341 17.924 2.61453 17.9161 2.61452 17.8278C2.61452 17.8138 2.59163 17.8024 2.56361 17.8024C2.49733 17.8024 2.07821 17.3832 2.07821 17.3169C2.07821 17.2889 2.06314 17.266 2.04471 17.266C2.02743 17.266 2.01308 17.2262 2.01135 17.1757L2.01103 17.1552C2.0093 17.1047 1.99495 17.0649 1.97766 17.0649C1.95923 17.0649 1.94414 16.9895 1.94414 16.8973C1.94414 16.8051 1.92905 16.7296 1.91061 16.7296C1.8923 16.7296 1.87889 16.6314 1.87728 16.4903L1.87695 16.4327C1.8754 16.2962 1.86278 16.1998 1.84539 16.1936L1.84179 16.1929C1.8232 16.1863 1.81007 16.0767 1.81007 15.9251C1.81007 15.7735 1.79693 15.6639 1.77834 15.6572L1.77474 15.6566C1.75735 15.6503 1.74473 15.554 1.74318 15.4175L1.74285 15.3599C1.7413 15.2234 1.72871 15.1271 1.71132 15.1208L1.70772 15.1202C1.69033 15.114 1.67771 15.0176 1.67616 14.8811L1.67583 14.8236C1.67428 14.687 1.66166 14.5907 1.64427 14.5845L1.64067 14.5838C1.62208 14.5772 1.60894 14.4676 1.60894 14.316C1.60894 14.1644 1.59581 14.0548 1.57722 14.0481L1.57362 14.0475C1.55623 14.0412 1.54364 13.9449 1.54209 13.8084L1.54176 13.7508C1.54015 13.6096 1.52672 13.5114 1.5084 13.5114C1.48869 13.5114 1.47487 13.394 1.47487 13.2264C1.47487 13.064 1.46191 12.9488 1.44318 12.9418L1.43951 12.9412C1.42079 12.9341 1.40782 12.8189 1.40782 12.6566C1.40782 12.4889 1.39401 12.3716 1.3743 12.3716C1.35614 12.3715 1.34259 12.2782 1.34097 12.1469L1.34064 12.0934C1.33901 11.9621 1.32544 11.8688 1.30728 11.8687C1.28774 11.8687 1.27375 11.757 1.27375 11.6006C1.27375 11.449 1.26062 11.3393 1.24203 11.3327L1.23843 11.332C1.22103 11.3258 1.20842 11.2295 1.20686 11.093L1.20654 11.0354C1.20499 10.8989 1.1924 10.8026 1.17501 10.7963L1.17141 10.7956C1.15401 10.7894 1.1414 10.6931 1.13985 10.5566L1.13952 10.499C1.13791 10.3578 1.12448 10.2596 1.10616 10.2596C1.08768 10.2596 1.07438 10.1565 1.07279 10.0055L1.07247 9.94385C1.07088 9.79284 1.05758 9.68972 1.0391 9.68972C1.02079 9.68967 1.00738 9.59146 1.00577 9.45029L1.00545 9.39273C1.00389 9.25623 0.991277 9.15992 0.973886 9.15367L0.970284 9.15301C0.951691 9.14635 0.938559 9.03673 0.938559 8.88513C0.938558 8.72869 0.924575 8.61696 0.905033 8.61696C0.886872 8.61694 0.873297 8.52364 0.871671 8.3923L0.871344 8.3388C0.869721 8.20748 0.856171 8.11416 0.838014 8.1141C0.819537 8.1141 0.806242 8.01098 0.804652 7.85997L0.804325 7.79836C0.802735 7.64735 0.789439 7.54421 0.770963 7.5442C0.752799 7.5442 0.739226 7.45089 0.737601 7.31953L0.737273 7.26604C0.735648 7.13468 0.722075 7.04134 0.703911 7.04134C0.684207 7.04131 0.670385 6.924 0.670385 6.75641C0.670385 6.59406 0.657448 6.47888 0.638726 6.4718L0.635059 6.47114C0.616474 6.46443 0.603366 6.35482 0.603366 6.20326C0.603366 6.05167 0.590235 5.94207 0.571641 5.93542L0.56804 5.93476C0.550646 5.92853 0.538033 5.83218 0.536479 5.69566L0.536151 5.6381C0.534597 5.50158 0.521984 5.40526 0.50459 5.39904L0.500988 5.39838C0.483601 5.39211 0.471011 5.29577 0.46946 5.15928L0.469132 5.10172C0.467524 4.96055 0.454088 4.86235 0.43577 4.86233C0.417606 4.86233 0.404033 4.76899 0.402408 4.63763L0.402081 4.58414C0.400455 4.45279 0.386882 4.35947 0.368719 4.35947C0.350401 4.35945 0.336965 4.26125 0.335356 4.12008L0.335029 4.06252C0.333424 3.92136 0.320014 3.82314 0.3017 3.82309C0.281722 3.82309 0.268174 3.69461 0.268174 3.50463V3.18614H11.933V3.28671ZM3.48603 6.40442V12.4386H8.64806V6.40442H3.48603Z" fill="#8FD6C1"/>
<path d="M17.5643 10.9636C21.1619 10.9636 22.9943 10.9749 22.9944 10.9971C22.9944 11.0156 23.0175 11.0306 23.0458 11.0307C23.1209 11.0307 23.3296 11.2517 23.3296 11.3313C23.3296 11.3687 23.3447 11.3994 23.3631 11.3994C23.3848 11.3994 23.3967 11.785 23.3967 12.4889C23.3967 13.1929 23.3848 13.5784 23.3631 13.5785C23.3447 13.5785 23.3296 13.6077 23.3296 13.6434C23.3296 13.6944 23.2988 13.7128 23.1872 13.7287C23.1088 13.7399 20.5397 13.7445 17.4781 13.7391C12.3193 13.73 11.9073 13.7252 11.8551 13.673C11.8047 13.6225 11.7989 13.498 11.7989 12.4578C11.7989 11.7075 11.8107 11.2988 11.8324 11.2988C11.8508 11.2988 11.8659 11.2762 11.8659 11.2486C11.8659 11.2209 11.881 11.1983 11.8994 11.1983C11.9179 11.1983 11.933 11.1775 11.933 11.1521C11.933 11.1266 11.9782 11.0871 12.0335 11.0642C12.0888 11.0413 12.1341 11.0093 12.1341 10.9931C12.1345 10.9762 14.4666 10.9636 17.5643 10.9636Z" fill="#8FD6C1"/>
<path d="M11.84 0.91044C12.007 0.995622 12.067 1.05161 12.067 1.12207C12.067 1.15103 12.0821 1.17475 12.1006 1.17475C12.1203 1.17475 12.1341 1.29207 12.1341 1.45969C12.1341 1.62731 12.1203 1.74462 12.1006 1.74462C12.081 1.74465 12.067 1.85639 12.067 2.01283C12.067 2.16925 12.0531 2.28095 12.0335 2.281C12.0151 2.281 12 2.31873 12 2.36482V2.44863H0.134103V2.26424C0.134102 2.16286 0.119008 2.07991 0.100577 2.07988C0.0812032 2.07988 0.0670516 1.9737 0.0670516 1.82844C0.067051 1.68319 0.0528997 1.57703 0.0335258 1.57703C0.0150917 1.57702 0 1.53176 0 1.47645C3.21106e-07 1.42114 0.0150919 1.37588 0.0335258 1.37587C0.0519616 1.37587 0.0670516 1.33061 0.0670516 1.2753C0.0670545 1.21999 0.0821434 1.17475 0.100577 1.17475C0.119009 1.17474 0.134103 1.15542 0.134103 1.13186C0.134105 1.10826 0.166098 1.06679 0.205247 1.03967C0.244365 1.01255 0.293391 0.975175 0.314206 0.956637C0.435041 0.8488 0.545278 0.846648 6.12704 0.843061L11.701 0.839493L11.84 0.91044Z" fill="#8FD6C1"/>
</svg>
