<svg width="25" height="25" viewBox="0 0 25 25" fill="none" xmlns="http://www.w3.org/2000/svg">
<path d="M11.2602 1.16501C11.4237 1.01269 11.6354 0.852939 11.7246 0.808357C11.8509 0.741484 11.9512 0.722908 12.1667 0.722908C12.3673 0.722908 12.4862 0.745199 12.5939 0.797211C12.6757 0.834363 12.9023 1.01269 13.0955 1.19102C13.2887 1.36935 13.7419 1.79288 14.0986 2.13467C14.4552 2.47647 15.2317 3.21579 16.9035 4.79845L16.9221 3.75449C16.9407 2.76997 16.9444 2.70309 17.0224 2.58049C17.0633 2.5099 17.1487 2.42446 17.2082 2.39473C17.2936 2.35015 17.5463 2.33529 18.6311 2.32786C19.3555 2.32043 20.0206 2.32415 20.106 2.33529C20.2063 2.35015 20.3103 2.39845 20.3846 2.46532C20.4515 2.52105 20.5295 2.63622 20.5518 2.71424C20.589 2.82198 20.6001 3.52415 20.5964 8.28328L20.9605 8.61765C21.1611 8.79969 21.9339 9.52043 22.6806 10.2152C23.7543 11.2183 24.0515 11.5155 24.0998 11.6381C24.137 11.7235 24.1667 11.8684 24.1667 11.9613C24.1667 12.0542 24.1444 12.1731 24.1147 12.2288C24.085 12.2882 24.0218 12.37 23.9735 12.4145C23.9289 12.4591 23.8249 12.5223 23.7469 12.552C23.6317 12.6003 23.4199 12.6115 21.436 12.6115L21.4472 18.0059C21.4546 22.9916 21.4509 23.4189 21.3915 23.5898C21.3506 23.7124 21.2651 23.8387 21.1425 23.965C21.0014 24.1062 20.9011 24.1694 20.7487 24.2176C20.5667 24.2697 20.2583 24.2771 15.5103 24.2771L15.4918 17.3854L15.4026 17.0882C15.3543 16.9248 15.2651 16.6833 15.2057 16.5495C15.1463 16.4158 15.0274 16.2077 14.9456 16.0851C14.8602 15.9625 14.6893 15.7582 14.5667 15.6282C14.4404 15.4981 14.2212 15.3124 14.08 15.2121C13.9351 15.1155 13.6936 14.9743 13.5413 14.9C13.389 14.8257 13.1289 14.7328 12.9654 14.6882C12.7351 14.6251 12.5568 14.6065 12.1853 14.6065C11.7952 14.6028 11.6428 14.6176 11.3865 14.6882C11.2119 14.7328 10.9518 14.8257 10.8106 14.8926C10.6658 14.9594 10.4651 15.0672 10.3648 15.1378C10.2608 15.2046 10.0788 15.3458 9.95988 15.4498C9.83728 15.5539 9.64409 15.7545 9.53263 15.8994C9.41746 16.0443 9.25028 16.3006 9.16111 16.4752C9.07195 16.6498 8.95306 16.9508 8.80446 17.4969L8.78588 24.2771L6.18862 24.2659C3.61806 24.2585 3.60314 24.2585 3.45461 24.1768C3.37288 24.1322 3.25028 24.043 3.17969 23.9724C3.11282 23.9056 3.01994 23.783 2.89734 23.5526V12.63L0.623653 12.5929L0.471331 12.4889C0.374737 12.4257 0.285572 12.3291 0.24099 12.2288C0.200124 12.1433 0.166687 12.0059 0.166687 11.9241C0.166687 11.8424 0.203839 11.7012 0.252136 11.6121C0.296718 11.5192 0.374737 11.4152 0.426749 11.378C0.478761 11.3371 0.694241 11.1365 0.909721 10.9248C1.1252 10.7167 1.58588 10.282 1.93139 9.95511C2.28062 9.62817 2.80446 9.13405 3.10167 8.85542C3.39889 8.58049 4.22365 7.80402 4.94068 7.13158C5.65399 6.45913 6.27443 5.87585 6.31529 5.82755C6.35616 5.78297 6.82427 5.34087 7.35554 4.84303C7.88681 4.34891 8.58898 3.68761 8.91591 3.38297C9.24285 3.07461 9.83356 2.50991 10.2348 2.13096C10.6323 1.75201 11.093 1.31734 11.2602 1.16501Z" fill="#8FD6C1"/>
</svg>
