<svg width="393" height="852" viewBox="0 0 393 852" fill="none" xmlns="http://www.w3.org/2000/svg">
<g clip-path="url(#clip0_24_1947)">
<rect width="393" height="852" fill="#8FD6C1"/>
<path d="M32.75 0.00769043H64.4C65.0075 0.00769043 65.5 0.500177 65.5 1.10769V32.7577C47.4129 32.7577 32.75 18.0948 32.75 0.00769043Z" fill="#FBFBFB"/>
<path d="M65.5 32.7577V64.4077C65.5 65.0152 65.0075 65.5077 64.4 65.5077H32.75C32.75 47.4206 47.4129 32.7577 65.5 32.7577Z" fill="#FBFBFB"/>
<path d="M32.75 0.00769043C32.75 18.0948 18.0871 32.7577 0 32.7577V1.10769C0 0.500178 0.492487 0.00769043 1.1 0.00769043H32.75Z" fill="#D6DCE5"/>
<path d="M32.75 65.5077C32.75 47.4206 18.0871 32.7577 0 32.7577V64.4077C0 65.0152 0.492487 65.5077 1.1 65.5077H32.75Z" fill="#FBFBFB"/>
<path d="M98.25 131.008L98.25 98.2577L65.5 98.2577C65.5 116.345 80.1629 131.008 98.25 131.008Z" fill="#D6DCE5"/>
<path d="M98.25 98.2577C98.25 80.5394 112.321 66.1071 129.898 65.5259C130.505 65.5058 131 66.0002 131 66.6077L131 98.2577L98.25 98.2577Z" fill="#FBFBFB"/>
<path d="M65.5 65.5078C83.5871 65.5078 98.25 80.1707 98.25 98.2578L65.5 98.2578L65.5 65.5078Z" fill="#132A4C"/>
<path d="M65.5 65.5078C83.5871 65.5078 98.25 80.1707 98.25 98.2578L65.5 98.2578L65.5 65.5078Z" fill="black" fill-opacity="0.2"/>
<path d="M131 98.2577C131 115.976 116.929 130.408 99.352 130.989C98.7449 131.01 98.25 130.515 98.25 129.908L98.25 98.2577L131 98.2577Z" fill="#132A4C"/>
<path d="M131 98.2577C131 115.976 116.929 130.408 99.352 130.989C98.7449 131.01 98.25 130.515 98.25 129.908L98.25 98.2577L131 98.2577Z" fill="black" fill-opacity="0.2"/>
<path d="M392.994 31.0908V2.27484C392.994 1.02011 391.983 0 390.736 0H349.423C348.76 0 348.127 0.29583 347.698 0.805883L307.685 48.4632V2.27484C307.685 1.01807 306.674 0 305.427 0H265.258C264.011 0 263 1.01807 263 2.27484V128.725C263 129.982 264.011 131 265.258 131H305.429C306.676 131 307.687 129.982 307.687 128.725V58.5765L346.486 112.269L331.899 127.124C330.485 128.56 331.498 130.998 333.502 130.998H390.736C391.981 130.998 392.992 129.98 392.992 128.723V71.0606C392.992 69.0367 390.573 68.0227 389.147 69.4468L371.324 87.2762L328.101 53.1394L391.415 33.2575C392.359 32.9617 393 32.0844 393 31.0888L392.994 31.0908Z" fill="#FBFBFB"/>
<path d="M132.102 -0.981562C131.495 -1.00164 131 -0.507268 131 0.100245L131 30.6503C131 31.2578 131.492 31.7503 132.1 31.7503L163.75 31.7503C163.75 14.032 149.679 -0.40036 132.102 -0.981562Z" fill="#132A4C"/>
<path d="M132.102 -0.981562C131.495 -1.00164 131 -0.507268 131 0.100245L131 30.6503C131 31.2578 131.492 31.7503 132.1 31.7503L163.75 31.7503C163.75 14.032 149.679 -0.40036 132.102 -0.981562Z" fill="black" fill-opacity="0.2"/>
<path d="M196.5 63.4002C196.5 64.0077 196.005 64.502 195.398 64.482C177.821 63.9008 163.75 49.4684 163.75 31.7501L195.4 31.7501C196.008 31.7501 196.5 32.2426 196.5 32.8501L196.5 63.4002Z" fill="#FBFBFB"/>
<path d="M163.75 31.7502C163.75 14.0318 177.821 -0.400488 195.398 -0.981684C196.005 -1.00176 196.5 -0.507391 196.5 0.100123L196.5 30.6502C196.5 31.2577 196.008 31.7502 195.4 31.7502L163.75 31.7502Z" fill="#FBFBFB"/>
<path d="M163.75 31.75C163.75 49.4683 149.679 63.9006 132.102 64.4818C131.495 64.5019 131 64.0075 131 63.4L131 32.85C131 32.2424 131.492 31.75 132.1 31.75L163.75 31.75Z" fill="#132A4C"/>
<path d="M163.75 31.75C163.75 49.4683 149.679 63.9006 132.102 64.4818C131.495 64.5019 131 64.0075 131 63.4L131 32.85C131 32.2424 131.492 31.75 132.1 31.75L163.75 31.75Z" fill="black" fill-opacity="0.2"/>
<path d="M197.602 65.5261C196.995 65.5061 196.5 66.0004 196.5 66.6079L196.5 98.2579L229.25 98.2579C229.25 80.5396 215.179 66.1073 197.602 65.5261Z" fill="#D6DCE5"/>
<path d="M229.25 98.2577C246.968 98.2577 261.401 112.329 261.982 129.906C262.002 130.513 261.508 131.008 260.9 131.008L229.25 131.008L229.25 98.2577Z" fill="#D6DCE5"/>
<path d="M229.25 66.6077C229.25 66.0002 229.745 65.5058 230.352 65.5259C247.563 66.095 261.413 79.9446 261.982 97.1556C262.002 97.7628 261.508 98.2577 260.9 98.2577L229.25 98.2577L229.25 66.6077Z" fill="#D6DCE5"/>
<path d="M196.5 98.2573C214.587 98.2573 229.25 112.92 229.25 131.007L197.6 131.007C196.992 131.007 196.5 130.515 196.5 129.907L196.5 98.2573Z" fill="#D6DCE5"/>
<path d="M15.3837 67.2514L0.766031 81.8691C0.342964 82.2922 0.342964 82.9781 0.766032 83.4012L16.1498 98.7849L32.2996 82.6351L16.9158 67.2514C16.4927 66.8283 15.8068 66.8283 15.3837 67.2514Z" fill="#D6DCE5"/>
<path d="M47.5937 67.2509L32.21 82.6346L48.3597 98.7844L63.7435 83.4007C64.1665 82.9776 64.1665 82.2917 63.7435 81.8686L49.1258 67.2509C48.7027 66.8278 48.0168 66.8278 47.5937 67.2509Z" fill="#D6DCE5"/>
<path d="M16.1508 98.6929L0.767008 114.077C0.34394 114.5 0.343941 115.186 0.767008 115.609L15.3847 130.226C15.8078 130.649 16.4937 130.649 16.9168 130.226L32.3005 114.843L16.1508 98.6929Z" fill="#FBFBFB"/>
<path d="M48.3578 98.6925L32.208 114.842L47.5918 130.226C48.0148 130.649 48.7007 130.649 49.1238 130.226L63.7415 115.608C64.1646 115.185 64.1646 114.499 63.7415 114.076L48.3578 98.6925Z" fill="#D6DCE5"/>
<path d="M147.375 163.75C156.419 163.75 163.75 156.419 163.75 147.375C163.75 138.331 156.419 131 147.375 131C138.331 131 131 138.331 131 147.375C131 156.419 138.331 163.75 147.375 163.75Z" fill="#FBFBFB"/>
<path d="M180.125 163.75C189.169 163.75 196.5 156.419 196.5 147.375C196.5 138.331 189.169 131 180.125 131C171.081 131 163.75 138.331 163.75 147.375C163.75 156.419 171.081 163.75 180.125 163.75Z" fill="#132A4C"/>
<path d="M180.125 163.75C189.169 163.75 196.5 156.419 196.5 147.375C196.5 138.331 189.169 131 180.125 131C171.081 131 163.75 138.331 163.75 147.375C163.75 156.419 171.081 163.75 180.125 163.75Z" fill="black" fill-opacity="0.2"/>
<path d="M147.375 196.5C156.419 196.5 163.75 189.169 163.75 180.125C163.75 171.081 156.419 163.75 147.375 163.75C138.331 163.75 131 171.081 131 180.125C131 189.169 138.331 196.5 147.375 196.5Z" fill="#132A4C"/>
<path d="M147.375 196.5C156.419 196.5 163.75 189.169 163.75 180.125C163.75 171.081 156.419 163.75 147.375 163.75C138.331 163.75 131 171.081 131 180.125C131 189.169 138.331 196.5 147.375 196.5Z" fill="black" fill-opacity="0.2"/>
<path d="M180.125 196.5C189.169 196.5 196.5 189.169 196.5 180.125C196.5 171.081 189.169 163.75 180.125 163.75C171.081 163.75 163.75 171.081 163.75 180.125C163.75 189.169 171.081 196.5 180.125 196.5Z" fill="#D6DCE5"/>
<path d="M295.75 163.75L295.75 131L327 131C327.828 131 328.504 131.673 328.466 132.501C327.682 149.891 313.334 163.75 295.75 163.75Z" fill="#D6DCE5"/>
<path d="M295.75 163.75C278.166 163.75 263.818 177.609 263.034 194.999C262.996 195.827 263.672 196.5 264.5 196.5L294.25 196.5C295.078 196.5 295.75 195.828 295.75 195L295.75 163.75Z" fill="#D6DCE5"/>
<path d="M264.5 163.75C263.672 163.75 263 163.078 263 162.25L263 132.5C263 131.672 263.672 131 264.5 131L295.75 131L295.75 163.75L264.5 163.75Z" fill="#D6DCE5"/>
<path d="M295.75 196.5L295.75 163.75L327 163.75C327.828 163.75 328.5 164.422 328.5 165.25L328.5 195C328.5 195.828 327.828 196.5 327 196.5L295.75 196.5Z" fill="#D6DCE5"/>
<path d="M32.75 163.75L65.5 163.75L65.5 195C65.5 195.828 64.827 196.503 63.9994 196.466C46.6088 195.682 32.75 181.334 32.75 163.75Z" fill="#D6DCE5"/>
<path d="M-5.96046e-08 163.75L2.67236e-06 132.5C2.74478e-06 131.671 0.671576 131 1.5 131L32.75 131C32.75 149.087 18.0871 163.75 -5.96046e-08 163.75Z" fill="#D6DCE5"/>
<path d="M32.75 163.75C32.75 181.334 18.8912 195.682 1.50056 196.466C0.672978 196.503 -5.60877e-06 195.828 -5.46392e-06 195L0 163.75L32.75 163.75Z" fill="#D6DCE5"/>
<path d="M32.75 131C32.75 149.087 47.4129 163.75 65.5 163.75L65.5 132.5C65.5 131.671 64.8284 131 64 131L32.75 131Z" fill="#D6DCE5"/>
</g>
<defs>
<clipPath id="clip0_24_1947">
<rect width="393" height="852" fill="white"/>
</clipPath>
</defs>
</svg>
