<svg width="393" height="852" viewBox="0 0 393 852" fill="none" xmlns="http://www.w3.org/2000/svg">
<g clip-path="url(#clip0_24_2010)">
<rect width="393" height="852" fill="#8FD6C1"/>
<path d="M197.602 65.5261C196.995 65.5061 196.5 66.0004 196.5 66.6079L196.5 98.2579L229.25 98.2579C229.25 80.5396 215.179 66.1073 197.602 65.5261Z" fill="#FBFBFB"/>
<path d="M229.25 98.2577C246.968 98.2577 261.401 112.329 261.982 129.906C262.002 130.513 261.508 131.008 260.9 131.008L229.25 131.008L229.25 98.2577Z" fill="#FBFBFB"/>
<path d="M229.25 66.6077C229.25 66.0002 229.745 65.5058 230.352 65.5259C247.563 66.095 261.413 79.9446 261.982 97.1556C262.002 97.7628 261.508 98.2577 260.9 98.2577L229.25 98.2577L229.25 66.6077Z" fill="#D6DCE5"/>
<path d="M196.5 98.2573C214.587 98.2573 229.25 112.92 229.25 131.007L197.6 131.007C196.992 131.007 196.5 130.515 196.5 129.907L196.5 98.2573Z" fill="#FBFBFB"/>
<path d="M15.375 162.75C24.4187 162.75 31.75 155.419 31.75 146.375C31.75 137.331 24.4187 130 15.375 130C6.33134 130 -1 137.331 -1 146.375C-1 155.419 6.33134 162.75 15.375 162.75Z" fill="#FBFBFB"/>
<path d="M48.125 162.75C57.1687 162.75 64.5 155.419 64.5 146.375C64.5 137.331 57.1687 130 48.125 130C39.0813 130 31.75 137.331 31.75 146.375C31.75 155.419 39.0813 162.75 48.125 162.75Z" fill="#D6DCE5"/>
<path d="M15.375 195.5C24.4187 195.5 31.75 188.169 31.75 179.125C31.75 170.081 24.4187 162.75 15.375 162.75C6.33134 162.75 -1 170.081 -1 179.125C-1 188.169 6.33134 195.5 15.375 195.5Z" fill="#D6DCE5"/>
<path d="M48.125 195.5C57.1687 195.5 64.5 188.169 64.5 179.125C64.5 170.081 57.1687 162.75 48.125 162.75C39.0813 162.75 31.75 170.081 31.75 179.125C31.75 188.169 39.0813 195.5 48.125 195.5Z" fill="#D6DCE5"/>
<path d="M328 0H390.908C392.063 0 393 0.936864 393 2.09254V65C357.102 65 328 35.8981 328 0Z" fill="#132A4C"/>
<path d="M328 0H390.908C392.063 0 393 0.936864 393 2.09254V65C357.102 65 328 35.8981 328 0Z" fill="black" fill-opacity="0.2"/>
<path d="M393 65V127.907C393 129.063 392.063 130 390.908 130H328C328 94.1019 357.102 65 393 65Z" fill="#132A4C"/>
<path d="M393 65V127.907C393 129.063 392.063 130 390.908 130H328C328 94.1019 357.102 65 393 65Z" fill="black" fill-opacity="0.2"/>
<path d="M328 0.00012207C328 35.8982 298.898 65.0001 263 65.0001V2.09266C263 0.936984 263.937 0.00012207 265.093 0.00012207H328Z" fill="#132A4C"/>
<path d="M328 0.00012207C328 35.8982 298.898 65.0001 263 65.0001V2.09266C263 0.936984 263.937 0.00012207 265.093 0.00012207H328Z" fill="black" fill-opacity="0.2"/>
<path d="M328 130C328 94.1019 298.898 65 263 65V127.907C263 129.063 263.937 130 265.093 130H328Z" fill="#132A4C"/>
<path d="M328 130C328 94.1019 298.898 65 263 65V127.907C263 129.063 263.937 130 265.093 130H328Z" fill="black" fill-opacity="0.2"/>
<path d="M46.6117 90.7251H40.7749V84.8883C40.7749 73.9044 31.8705 65 20.8865 65C9.90254 65 1 73.9044 1 84.8865V129.407C1 130.011 1.48944 130.5 2.09319 130.5H46.6117C57.5956 130.5 66.4982 121.596 66.4982 110.612C66.4982 99.6277 57.5938 90.7233 46.6117 90.7233V90.7251Z" fill="#132A4C"/>
<path d="M46.6117 90.7251H40.7749V84.8883C40.7749 73.9044 31.8705 65 20.8865 65C9.90254 65 1 73.9044 1 84.8865V129.407C1 130.011 1.48944 130.5 2.09319 130.5H46.6117C57.5956 130.5 66.4982 121.596 66.4982 110.612C66.4982 99.6277 57.5938 90.7233 46.6117 90.7233V90.7251Z" fill="black" fill-opacity="0.2"/>
<path d="M163.626 32.7837H195.25C195.853 32.7837 196.342 33.2726 196.342 33.8758V64.408C196.342 65.0111 195.851 65.5019 195.248 65.4821C177.686 64.905 163.626 50.4861 163.626 32.7837Z" fill="#132A4C"/>
<path d="M163.626 32.7837H195.25C195.853 32.7837 196.342 33.2726 196.342 33.8758V64.408C196.342 65.0111 195.851 65.5019 195.248 65.4821C177.686 64.905 163.626 50.4861 163.626 32.7837Z" fill="black" fill-opacity="0.2"/>
<path d="M163.716 32.5345V64.1588C163.716 64.762 163.227 65.2509 162.624 65.2509H132.092C131.489 65.2509 130.998 64.7596 131.018 64.1568C131.595 46.5947 146.014 32.5345 163.716 32.5345Z" fill="#FBFBFB"/>
<path d="M195.25 0.0672607C195.853 0.0672607 196.344 0.558585 196.324 1.16139C195.747 18.7234 181.328 32.7836 163.626 32.7836V1.15933C163.626 0.556196 164.115 0.0672607 164.718 0.0672607H195.25Z" fill="#FBFBFB"/>
<path d="M131 1.09207C131 0.488935 131.491 -0.00185731 132.094 0.0179516C149.656 0.595061 163.716 15.014 163.716 32.7163H132.092C131.489 32.7163 131 32.2274 131 31.6243V1.09207Z" fill="#D6DCE5"/>
<path d="M32.75 31.75L-5.96046e-08 31.75L2.70282e-06 0.151513C2.75842e-06 -0.484453 0.517864 -1.00207 1.15345 -0.980069C18.7064 -0.372467 32.75 14.049 32.75 31.75Z" fill="#FBFBFB"/>
<path d="M65.5 31.75V63.3485C65.5 63.9844 64.9844 64.5 64.3485 64.5H32.75C32.75 46.4129 47.4129 31.75 65.5 31.75Z" fill="#FBFBFB"/>
<path d="M32.75 31.75C32.75 14.049 46.7936 -0.372468 64.3466 -0.980067C64.9821 -1.00207 65.5 -0.484448 65.5 0.151517L65.5 31.75L32.75 31.75Z" fill="#FBFBFB"/>
<path d="M32.75 64.5C32.75 46.4129 18.0871 31.75 0 31.75V63.3485C0 63.9844 0.515552 64.5 1.15152 64.5H32.75Z" fill="#FBFBFB"/>
<path d="M295.75 163.75C313.471 163.75 327.904 177.825 328.482 195.405C328.502 196.008 328.011 196.5 327.407 196.5H264.093C263.489 196.5 262.998 196.008 263.018 195.405C263.596 177.825 278.029 163.75 295.75 163.75Z" fill="#D6DCE5"/>
<path d="M295.75 163.75C313.471 163.75 327.904 149.675 328.482 132.095C328.502 131.492 328.011 131 327.407 131H264.093C263.489 131 262.998 131.492 263.018 132.095C263.596 149.675 278.029 163.75 295.75 163.75Z" fill="#D6DCE5"/>
<path d="M195.482 195.407C195.502 196.009 195.012 196.5 194.409 196.5L162.75 196.5L162.75 163.75C180.471 163.75 194.906 177.826 195.482 195.407Z" fill="#D6DCE5"/>
<path d="M162.75 163.75C180.471 163.75 194.906 149.674 195.482 132.093C195.502 131.491 195.012 131 194.409 131L163.841 131C163.238 131 162.75 131.488 162.75 132.091L162.75 163.75Z" fill="#132A4C"/>
<path d="M162.75 163.75C180.471 163.75 194.906 149.674 195.482 132.093C195.502 131.491 195.012 131 194.409 131L163.841 131C163.238 131 162.75 131.488 162.75 132.091L162.75 163.75Z" fill="black" fill-opacity="0.2"/>
<path d="M162.75 163.75L162.75 196.5L131.091 196.5C130.488 196.5 130 196.012 130 195.409L130 163.75L162.75 163.75Z" fill="#D6DCE5"/>
<path d="M162.75 131L162.75 163.75L130 163.75L130 132.091C130 131.489 130.488 131 131.091 131L162.75 131Z" fill="#132A4C"/>
<path d="M162.75 131L162.75 163.75L130 163.75L130 132.091C130 131.489 130.488 131 131.091 131L162.75 131Z" fill="black" fill-opacity="0.2"/>
<path d="M119.253 130.5C126.098 130.5 131.647 124.951 131.647 118.106C131.647 111.261 126.098 105.712 119.253 105.712C112.408 105.712 106.859 111.261 106.859 118.106C106.859 124.951 112.408 130.5 119.253 130.5Z" fill="#FBFBFB"/>
<path d="M78.3941 89.7882C85.2391 89.7882 90.7881 84.2392 90.7881 77.3942C90.7881 70.5491 85.2391 65.0001 78.3941 65.0001C71.549 65.0001 66 70.5491 66 77.3942C66 84.2392 71.549 89.7882 78.3941 89.7882Z" fill="#FBFBFB"/>
<path d="M130.7 80.3224L116.327 65.9488C115.9 65.5219 115.208 65.5219 114.781 65.9488L67.0972 113.632C66.6703 114.059 66.6703 114.751 67.0972 115.178L81.4709 129.552C81.8978 129.979 82.5899 129.979 83.0169 129.552L130.7 81.8685C131.127 81.4415 131.127 80.7494 130.7 80.3224Z" fill="#FBFBFB"/>
<path d="M65.031 802.508V788.135C65.031 787.509 64.5253 787 63.9014 787H43.2343C42.9025 787 42.586 787.148 42.3713 787.402L22.3544 811.173V788.135C22.3544 787.508 21.8486 787 21.2248 787H1.12958C0.505766 787 0 787.508 0 788.135V851.207C0 851.834 0.505766 852.341 1.12958 852.341H21.2259C21.8497 852.341 22.3554 851.834 22.3554 851.207V816.217L41.7648 842.998L34.4673 850.408C33.7601 851.124 34.2669 852.34 35.2692 852.34H63.9014C64.5242 852.34 65.03 851.833 65.03 851.206V822.444C65.03 821.435 63.82 820.929 63.1067 821.639L54.1901 830.532L32.5674 813.505L64.2413 803.588C64.7135 803.441 65.0341 803.003 65.0341 802.507L65.031 802.508Z" fill="#FBFBFB"/>
<path d="M129.44 721.018C130.043 720.998 130.534 721.489 130.534 722.091L130.534 753.767L97.7667 753.767C97.7667 736.036 111.85 721.595 129.44 721.018Z" fill="#D6DCE5"/>
<path d="M97.7665 753.767C97.7665 736.036 83.6833 721.595 66.0931 721.018C65.4906 720.998 64.9995 721.489 64.9995 722.091V752.676C64.9995 753.278 65.4882 753.767 66.091 753.767H97.7665Z" fill="#D6DCE5"/>
<path d="M97.7666 753.767H130.534V785.443C130.534 786.045 130.045 786.534 129.442 786.534H97.7666V753.767Z" fill="#D6DCE5"/>
<path d="M64.9995 753.767H97.7665V786.534H66.091C65.4882 786.534 64.9995 786.045 64.9995 785.443V753.767Z" fill="#D6DCE5"/>
<path d="M231.77 808.505L231.77 787.91C231.77 787.407 231.363 787 230.86 787L221.417 787C220.914 787 220.507 787.407 220.507 787.91L220.507 800.54L207.32 787.354C207.15 787.183 206.918 787.087 206.677 787.088C204.452 787.088 202.227 787.089 200.002 787.09C199.5 787.091 199.093 787.498 199.093 788C199.092 790.225 199.091 792.45 199.09 794.675C199.09 794.916 199.185 795.148 199.356 795.318L212.542 808.504L199.911 808.504C199.408 808.504 199.001 808.911 199.001 809.414L199.001 818.857C199.001 819.36 199.408 819.767 199.911 819.767L231.77 819.767L231.77 808.504L231.77 808.505Z" fill="#132A4C"/>
<path d="M231.77 808.505L231.77 787.91C231.77 787.407 231.363 787 230.86 787L221.417 787C220.914 787 220.507 787.407 220.507 787.91L220.507 800.54L207.32 787.354C207.15 787.183 206.918 787.087 206.677 787.088C204.452 787.088 202.227 787.089 200.002 787.09C199.5 787.091 199.093 787.498 199.093 788C199.092 790.225 199.091 792.45 199.09 794.675C199.09 794.916 199.185 795.148 199.356 795.318L212.542 808.504L199.911 808.504C199.408 808.504 199.001 808.911 199.001 809.414L199.001 818.857C199.001 819.36 199.408 819.767 199.911 819.767L231.77 819.767L231.77 808.504L231.77 808.505Z" fill="black" fill-opacity="0.2"/>
<path d="M264.539 841.272L264.539 820.677C264.539 820.174 264.132 819.767 263.629 819.767L254.186 819.767C253.683 819.767 253.276 820.174 253.276 820.677L253.276 833.308L240.089 820.121C239.919 819.95 239.687 819.855 239.446 819.855C236.918 819.855 234.39 819.856 231.862 819.858C231.861 822.386 231.86 824.914 231.859 827.442C231.859 827.683 231.954 827.915 232.125 828.086L245.311 841.271L232.68 841.271C232.177 841.271 231.77 841.678 231.77 842.181L231.77 851.625C231.77 852.127 232.177 852.534 232.68 852.534L263.629 852.534C264.132 852.534 264.539 852.127 264.539 851.625L264.539 841.271L264.539 841.272Z" fill="#132A4C"/>
<path d="M264.539 841.272L264.539 820.677C264.539 820.174 264.132 819.767 263.629 819.767L254.186 819.767C253.683 819.767 253.276 820.174 253.276 820.677L253.276 833.308L240.089 820.121C239.919 819.95 239.687 819.855 239.446 819.855C236.918 819.855 234.39 819.856 231.862 819.858C231.861 822.386 231.86 824.914 231.859 827.442C231.859 827.683 231.954 827.915 232.125 828.086L245.311 841.271L232.68 841.271C232.177 841.271 231.77 841.678 231.77 842.181L231.77 851.625C231.77 852.127 232.177 852.534 232.68 852.534L263.629 852.534C264.132 852.534 264.539 852.127 264.539 851.625L264.539 841.271L264.539 841.272Z" fill="black" fill-opacity="0.2"/>
<path d="M330.292 808.449C329.525 807.765 330.04 806.498 331.066 806.543L346.928 807.249C347.574 807.278 348.104 806.742 348.066 806.096L347.152 790.244C347.093 789.218 348.353 788.686 349.047 789.444L359.766 801.159C360.202 801.636 360.956 801.631 361.386 801.148L371.947 789.292C372.63 788.525 373.898 789.04 373.853 790.066L373.148 805.928C373.119 806.574 373.656 807.104 374.301 807.066L390.154 806.152C391.179 806.093 391.711 807.353 390.954 808.047L379.239 818.766C378.761 819.202 378.766 819.956 379.249 820.386L391.105 830.947C391.872 831.63 391.357 832.898 390.331 832.853L374.467 832.148C373.821 832.119 373.292 832.656 373.329 833.301L374.245 849.153C374.305 850.179 373.044 850.711 372.35 849.953L361.632 838.238C361.195 837.761 360.442 837.766 360.012 838.249L349.449 850.106C348.765 850.872 347.498 850.357 347.543 849.331L348.249 833.467C348.278 832.821 347.742 832.292 347.096 832.329L331.244 833.245C330.219 833.305 329.686 832.044 330.444 831.35L342.159 820.632C342.636 820.195 342.631 819.442 342.148 819.012L330.292 808.449Z" fill="#FBFBFB"/>
<path d="M266.094 786.516C265.491 786.536 265 786.045 265 785.442L265 753.767L297.767 753.767C297.767 771.497 283.684 785.939 266.094 786.516Z" fill="#132A4C"/>
<path d="M266.094 786.516C265.491 786.536 265 786.045 265 785.442L265 753.767L297.767 753.767C297.767 771.497 283.684 785.939 266.094 786.516Z" fill="black" fill-opacity="0.2"/>
<path d="M297.767 753.767C297.767 771.497 311.85 785.939 329.441 786.516C330.043 786.536 330.534 786.045 330.534 785.442L330.534 754.858C330.534 754.256 330.046 753.767 329.443 753.767L297.767 753.767Z" fill="#132A4C"/>
<path d="M297.767 753.767C297.767 771.497 311.85 785.939 329.441 786.516C330.043 786.536 330.534 786.045 330.534 785.442L330.534 754.858C330.534 754.256 330.046 753.767 329.443 753.767L297.767 753.767Z" fill="black" fill-opacity="0.2"/>
<path d="M297.767 753.767L265 753.767L265 722.091C265 721.489 265.489 721 266.092 721L297.767 721L297.767 753.767Z" fill="#132A4C"/>
<path d="M297.767 753.767L265 753.767L265 722.091C265 721.489 265.489 721 266.092 721L297.767 721L297.767 753.767Z" fill="black" fill-opacity="0.2"/>
<path d="M330.534 753.767L297.767 753.767L297.767 721L329.443 721C330.046 721 330.534 721.489 330.534 722.091L330.534 753.767Z" fill="#132A4C"/>
<path d="M330.534 753.767L297.767 753.767L297.767 721L329.443 721C330.046 721 330.534 721.489 330.534 722.091L330.534 753.767Z" fill="black" fill-opacity="0.2"/>
</g>
<defs>
<clipPath id="clip0_24_2010">
<rect width="393" height="852" fill="white"/>
</clipPath>
</defs>
</svg>
