<svg width="20" height="20" viewBox="0 0 20 20" fill="none" xmlns="http://www.w3.org/2000/svg">
<path fill-rule="evenodd" clip-rule="evenodd" d="M9.68058 0.072546C9.45828 0.0914384 9.26104 0.140204 9.08165 0.220591C9.02286 0.246945 8.95684 0.262119 8.93497 0.254332C8.91311 0.246521 8.90306 0.248842 8.91266 0.259498C8.92225 0.270155 8.84372 0.335243 8.73813 0.404149C8.54378 0.530955 8.27012 0.791481 8.19173 0.924277C8.16819 0.964158 8.13386 0.996802 8.11544 0.996802C8.09704 0.996802 8.08784 1.00634 8.09502 1.01797C8.10945 1.04135 7.93881 1.37864 7.9058 1.392C7.89443 1.39661 7.88997 1.40822 7.89588 1.41783C7.90181 1.42741 7.88643 1.50824 7.86172 1.59747C7.83701 1.68669 7.80844 1.83229 7.79824 1.92106C7.78804 2.0098 7.76703 2.09069 7.75154 2.10077C7.73145 2.11385 7.7323 2.11922 7.75454 2.11949C7.77346 2.11971 7.7857 2.15418 7.7857 2.20721C7.7857 2.25526 7.77368 2.29456 7.759 2.29456C7.74429 2.29456 7.7499 2.31221 7.77147 2.33377C7.79301 2.35536 7.81081 2.40308 7.81103 2.43984C7.81123 2.47662 7.82891 2.57408 7.85028 2.65644C7.87165 2.7388 7.89072 2.82582 7.89264 2.84986C7.89456 2.87389 7.90313 2.89353 7.91171 2.89353C7.92029 2.89353 7.94024 2.92198 7.95607 2.95677C7.98045 3.01033 7.97821 3.02238 7.94138 3.03554C7.91747 3.0441 7.81375 3.0846 7.7109 3.12556C7.54725 3.19074 7.49294 3.20672 7.40401 3.2159C7.39291 3.21705 7.3895 3.22715 7.39643 3.23836C7.40334 3.24957 7.33948 3.29157 7.25454 3.33167C7.10472 3.40243 7.08707 3.40862 7.01755 3.41476C6.9996 3.41633 6.99185 3.42886 7.00032 3.44258C7.01556 3.46727 6.98205 3.4778 6.9168 3.46884C6.89828 3.46629 6.89022 3.4757 6.8989 3.48978C6.9177 3.5202 6.76721 3.6057 6.7136 3.59502C6.69303 3.59093 6.68468 3.59619 6.69503 3.60672C6.7237 3.63585 6.48933 3.79193 6.41625 3.79236C6.37733 3.7926 6.36382 3.80022 6.3819 3.81172C6.41122 3.83039 6.11908 4.07916 5.96223 4.16908C5.92369 4.19117 5.89778 4.2149 5.90466 4.22179C5.91154 4.22868 5.82228 4.31902 5.70632 4.42257C5.59039 4.52611 5.5006 4.61593 5.50684 4.62217C5.51304 4.62841 5.47016 4.6769 5.41152 4.72994C5.35288 4.78297 5.3064 4.83229 5.30825 4.8395C5.31007 4.84674 5.2697 4.90319 5.21849 4.96496C5.1673 5.02673 5.05025 5.18957 4.95834 5.32683C4.86644 5.4641 4.77217 5.58404 4.74889 5.59337C4.72557 5.60271 4.72026 5.61112 4.73707 5.61209C4.78033 5.61456 4.49148 6.18398 4.44473 6.18832C4.42274 6.19037 4.41908 6.19661 4.43586 6.2035C4.47729 6.22049 4.44618 6.31228 4.39818 6.31461C4.37579 6.31568 4.36949 6.32157 4.38417 6.32768C4.401 6.33467 4.37141 6.45701 4.30404 6.65889C4.24527 6.83493 4.16793 7.12371 4.13215 7.30058C4.09638 7.47745 4.05543 7.62939 4.04117 7.63822C4.02357 7.6491 4.02404 7.65724 4.04264 7.66353C4.06204 7.67007 4.06349 7.73119 4.04758 7.87244C4.03524 7.98225 4.01706 8.24897 4.00719 8.46517C3.99734 8.68137 3.98236 8.85824 3.97391 8.85824C3.96545 8.85824 3.95855 8.95652 3.95855 9.07662C3.95855 9.54883 3.85216 10.477 3.73328 11.042C3.69862 11.2067 3.66355 11.3779 3.65532 11.4226C3.64579 11.4743 3.62572 11.5038 3.59999 11.5041C3.56838 11.5044 3.56683 11.509 3.59289 11.5255C3.62004 11.5428 3.61632 11.5805 3.57259 11.7311C3.42571 12.237 3.1812 12.8505 3.12535 12.8533C3.10149 12.8545 3.09775 12.8601 3.11587 12.8675C3.15841 12.8848 3.07651 13.0509 3.0252 13.0514C2.99089 13.0517 2.99071 13.0547 3.02357 13.076C3.05569 13.0967 3.05491 13.1002 3.01811 13.1006C2.99403 13.1008 2.98054 13.1147 2.9873 13.1323C3.00188 13.1704 2.78078 13.5492 2.73338 13.5674C2.71488 13.5745 2.70521 13.5892 2.71192 13.6001C2.74288 13.6502 2.18584 14.3729 2.11403 14.3757C2.08633 14.3768 2.07793 14.3834 2.09536 14.3904C2.13495 14.4064 1.88842 14.6982 1.83534 14.6982C1.81532 14.6982 1.80592 14.7095 1.81444 14.7233C1.82299 14.7371 1.8125 14.7551 1.79113 14.7634C1.76976 14.7716 1.75849 14.7883 1.7661 14.8006C1.77368 14.8129 1.76174 14.823 1.73955 14.823C1.71736 14.823 1.70519 14.8327 1.71252 14.8445C1.71985 14.8564 1.69943 14.921 1.66714 14.988C1.63485 15.0551 1.59506 15.1745 1.57873 15.2535C1.56237 15.3324 1.53859 15.397 1.52585 15.397C1.51311 15.397 1.50269 15.4138 1.50269 15.4344C1.50269 15.455 1.51672 15.472 1.53385 15.4722C1.55666 15.4725 1.55592 15.4784 1.53103 15.4941C1.50234 15.5123 1.50234 15.5178 1.53103 15.5292C1.55811 15.54 1.55834 15.5432 1.53208 15.5447C1.5071 15.5462 1.50862 15.5562 1.53831 15.5859C1.58277 15.6304 1.5896 15.6715 1.55255 15.6715C1.53884 15.6715 1.52762 15.694 1.52762 15.7214C1.52762 15.7491 1.54425 15.7713 1.56502 15.7713C1.6255 15.7713 1.60778 15.821 1.54632 15.8237C1.49401 15.826 1.49359 15.8273 1.54008 15.8424C1.56751 15.8514 1.59107 15.8727 1.59244 15.8899C1.59803 15.9597 1.60376 15.971 1.63363 15.971C1.65079 15.971 1.69098 16.0203 1.72289 16.0805C1.79522 16.217 1.87408 16.293 2.05828 16.4037C2.14201 16.454 2.18906 16.4959 2.17048 16.5036C2.15288 16.5109 2.16091 16.5158 2.18833 16.5145C2.21576 16.5132 2.26064 16.5141 2.28806 16.5165C2.33045 16.5202 2.33232 16.5248 2.30053 16.5477C2.26981 16.5698 2.27163 16.5719 2.31068 16.5591C2.37545 16.5379 2.77527 16.6229 2.7562 16.6539C2.74742 16.6681 2.75857 16.6716 2.78295 16.6622C2.83835 16.6409 3.22501 16.6963 3.20843 16.7232C3.20132 16.7347 3.21281 16.7374 3.23393 16.7293C3.25507 16.7212 3.40993 16.7322 3.57805 16.7537C4.38844 16.8574 5.0578 16.9145 6.38948 16.9936C7.178 17.0403 8.211 17.0566 10.279 17.0547C11.974 17.0532 12.5346 17.0439 13.2958 17.0048C13.81 16.9784 14.3486 16.9576 14.4926 16.9586C14.6437 16.9596 14.7228 16.9529 14.6796 16.9428C14.6138 16.9274 14.6188 16.9249 14.7206 16.9223C14.8708 16.9185 15.9615 16.8038 16.1798 16.7689C16.2723 16.7541 16.3933 16.7478 16.4488 16.7549C16.5105 16.7628 16.5265 16.7608 16.4899 16.7495C16.4457 16.7359 16.4873 16.7228 16.652 16.6985C16.7739 16.6805 16.9984 16.6383 17.1508 16.6049C17.3032 16.5714 17.4435 16.548 17.4624 16.5529C17.4814 16.5578 17.4889 16.5572 17.4792 16.5516C17.4694 16.546 17.5385 16.5017 17.6328 16.4531C17.9017 16.3147 18.0854 16.1056 18.1588 15.8545C18.1815 15.777 18.1995 15.7537 18.2296 15.7633C18.2541 15.771 18.2596 15.7678 18.2436 15.7549C18.2284 15.7427 18.2173 15.6288 18.2173 15.4843C18.2172 15.3189 18.2039 15.199 18.1779 15.1287C18.151 15.0561 18.1475 15.0225 18.1668 15.0222C18.1875 15.0219 18.1874 15.0169 18.1664 15.0035C18.1507 14.9934 18.0843 14.9122 18.0189 14.823C17.9535 14.7337 17.8783 14.6453 17.8518 14.6263C17.8132 14.5988 17.8103 14.5877 17.8372 14.5706C17.8638 14.5537 17.8621 14.5491 17.8294 14.5488C17.7767 14.5483 17.4997 14.2349 17.5212 14.2001C17.5301 14.1858 17.5211 14.1741 17.5014 14.1741C17.4498 14.1741 17.3266 14.0069 17.3663 13.9909C17.385 13.9833 17.3806 13.9776 17.355 13.9764C17.3076 13.9742 17.2303 13.8777 17.2501 13.8456C17.2572 13.8341 17.2476 13.8247 17.2288 13.8247C17.1897 13.8247 17.0708 13.6288 17.081 13.5813C17.0847 13.5642 17.0728 13.5502 17.0545 13.5502C17.0152 13.5502 16.831 13.2417 16.6757 12.9157C16.51 12.5677 16.4368 12.3772 16.4688 12.3772C16.4841 12.3772 16.4787 12.3631 16.4568 12.346C16.4078 12.3077 16.2538 11.8625 16.2726 11.8135C16.2801 11.7941 16.2725 11.778 16.2558 11.7778C16.2366 11.7776 16.2391 11.7685 16.2628 11.7532C16.2958 11.7319 16.2957 11.729 16.2617 11.7287C16.2077 11.7281 16.1472 11.5042 16.1932 11.475C16.2177 11.4594 16.2159 11.4544 16.1856 11.4541C16.156 11.4539 16.1347 11.4004 16.1019 11.2437C16.0777 11.1282 16.0653 11.0215 16.0745 11.0066C16.0837 10.9917 16.0807 10.9796 16.0679 10.9796C16.0292 10.9796 16.0087 10.8234 16.0443 10.8007C16.0668 10.7864 16.0674 10.7806 16.0463 10.7803C16.0042 10.7798 15.9955 10.7392 15.9411 10.2933C15.8613 9.6391 15.8232 9.00821 15.862 8.98417C15.8878 8.9682 15.888 8.96196 15.8629 8.9536C15.8441 8.94731 15.8281 8.88817 15.8232 8.80708C15.7655 7.84961 15.7222 7.49547 15.6078 7.04262C15.5717 6.90002 15.5595 6.81147 15.5757 6.81102C15.5902 6.8106 15.5824 6.79882 15.5584 6.78482C15.5345 6.77082 15.5148 6.74671 15.5148 6.73124C15.5148 6.68142 15.3617 6.28209 15.252 6.04564C15.1816 5.89408 15.1553 5.8121 15.1743 5.80429C15.1913 5.79732 15.1878 5.79158 15.1658 5.79031C15.1214 5.78774 15.0073 5.59841 15.029 5.56333C15.0373 5.54992 15.0325 5.53897 15.0184 5.53897C15.0043 5.53897 14.9344 5.45192 14.863 5.34555C14.7917 5.23918 14.6622 5.06047 14.5752 4.94844C14.4693 4.812 14.4275 4.74015 14.4486 4.73079C14.4695 4.72153 14.4675 4.71831 14.4427 4.7212C14.4035 4.72577 13.8778 4.2175 13.8882 4.18505C13.8915 4.17475 13.8782 4.16633 13.8586 4.16633C13.839 4.16633 13.7813 4.12703 13.7304 4.07899C13.6795 4.03094 13.6334 3.99164 13.6279 3.99164C13.5958 3.99164 13.4747 3.88005 13.4863 3.86121C13.494 3.84876 13.4795 3.84212 13.4541 3.84646C13.4275 3.85103 13.4106 3.8412 13.4142 3.82318C13.4177 3.80603 13.4008 3.79163 13.3768 3.79118C13.3229 3.79021 13.2408 3.73054 13.2629 3.7084C13.2719 3.69947 13.26 3.69215 13.2364 3.69215C13.2129 3.69215 13.1297 3.65097 13.0515 3.60066C12.9733 3.55032 12.7824 3.44483 12.6272 3.36621C12.472 3.2876 12.3542 3.2183 12.3654 3.21223C12.3766 3.20617 12.3723 3.20442 12.3558 3.20836C12.3393 3.21228 12.2271 3.17677 12.1066 3.1294C11.9861 3.08203 11.8706 3.0431 11.8499 3.0429C11.8165 3.04255 11.8165 3.0398 11.8497 3.01832C11.8725 3.00359 11.8754 2.99398 11.8572 2.99373C11.8346 2.99346 11.834 2.97379 11.8546 2.91225C11.8696 2.86765 11.8899 2.81991 11.8997 2.80618C11.9095 2.79245 11.9374 2.67725 11.9616 2.55017C12.0224 2.23077 12.0049 1.83096 11.9184 1.56565C11.8752 1.43327 11.8645 1.36971 11.8839 1.36172C11.8994 1.35536 11.8947 1.34924 11.8736 1.34817C11.8525 1.3471 11.8063 1.28723 11.771 1.21517C11.7357 1.14312 11.6657 1.03027 11.6154 0.964408C11.5652 0.898571 11.5307 0.833983 11.5388 0.820905C11.5469 0.807853 11.5382 0.797146 11.5195 0.797146C11.4754 0.797146 11.32 0.636923 11.3423 0.614561C11.3517 0.605177 11.3432 0.59749 11.3235 0.59749C11.3038 0.59749 11.2462 0.563299 11.1955 0.521497C11.1448 0.479694 11.0294 0.402227 10.9391 0.349343C10.8487 0.296485 10.7838 0.248293 10.7949 0.242278C10.8059 0.236239 10.8013 0.234641 10.7845 0.238684C10.7676 0.242752 10.7152 0.229849 10.6678 0.210059C10.3838 0.0912884 10.0337 0.0425228 9.68058 0.072546ZM10.2151 1.31568C10.2905 1.34533 10.3241 1.36941 10.3022 1.37807C10.2815 1.38623 10.2932 1.39299 10.3299 1.39414C10.3704 1.39541 10.4329 1.43657 10.5034 1.50842C10.5639 1.57019 10.6027 1.62107 10.5896 1.62147C10.5764 1.6219 10.5853 1.63368 10.6093 1.64768C10.6664 1.68097 10.7351 1.81524 10.7179 1.86006C10.7104 1.87943 10.7166 1.89525 10.7314 1.89525C10.7463 1.89525 10.7528 1.91716 10.7458 1.94397C10.7388 1.97077 10.7459 1.99795 10.7616 2.00439C10.7772 2.01083 10.762 2.01774 10.7277 2.01976L10.6654 2.02341L10.7215 2.05048C10.7818 2.07958 10.8012 2.19324 10.7464 2.19671C10.7215 2.19828 10.7215 2.2012 10.7464 2.21126C10.7921 2.2297 10.7855 2.36796 10.7381 2.38618C10.7092 2.39729 10.7067 2.40632 10.7288 2.42C10.7513 2.4339 10.744 2.46884 10.7003 2.55624C10.6155 2.72629 10.5383 2.80254 10.471 2.78285C10.3701 2.75335 9.6454 2.73807 9.47436 2.76186C9.29425 2.78689 9.1944 2.76238 9.1944 2.69313C9.1944 2.67296 9.17567 2.64239 9.15276 2.62522C9.05031 2.54843 8.97152 2.04814 9.05385 1.9972C9.08255 1.97943 9.08255 1.97399 9.05385 1.96224C9.02712 1.95128 9.02947 1.94052 9.06482 1.91182C9.09559 1.88684 9.10017 1.87214 9.07933 1.86518C9.03867 1.8516 9.17677 1.59577 9.22476 1.59577C9.24396 1.59577 9.25336 1.58554 9.24563 1.57303C9.22835 1.54503 9.43801 1.35678 9.50638 1.33889C9.53365 1.33175 9.54971 1.33609 9.542 1.34852C9.53432 1.36097 9.50907 1.37205 9.48588 1.37313C9.46269 1.3742 9.45586 1.38014 9.47072 1.38628C9.48556 1.39244 9.53044 1.38039 9.57045 1.35953C9.61067 1.33851 9.62648 1.32032 9.60578 1.31877C9.58521 1.31725 9.61326 1.30048 9.66811 1.28151C9.79756 1.23674 10.0553 1.25284 10.2151 1.31568ZM7.9057 3.0104C7.92368 3.01762 7.9452 3.01672 7.95347 3.00843C7.96175 3.00015 7.94704 2.99426 7.92076 2.99533C7.89172 2.99653 7.88581 3.00244 7.9057 3.0104ZM2.94254 16.7112C2.9597 16.7182 2.98775 16.7182 3.00487 16.7112C3.02203 16.7043 3.00799 16.6987 2.97371 16.6987C2.93943 16.6987 2.92541 16.7043 2.94254 16.7112ZM4.53823 16.9109C4.55538 16.9178 4.58343 16.9178 4.60056 16.9109C4.61772 16.904 4.60368 16.8983 4.5694 16.8983C4.53511 16.8983 4.5211 16.904 4.53823 16.9109ZM4.88886 16.9364C4.90683 16.9436 4.92835 16.9427 4.93663 16.9344C4.94491 16.9261 4.9302 16.9202 4.90392 16.9213C4.87487 16.9225 4.86896 16.9284 4.88886 16.9364ZM4.97039 16.9283C4.97612 16.9332 5.01444 16.9448 5.05558 16.954C5.11021 16.9663 5.12028 16.9639 5.09298 16.9454C5.05932 16.9226 4.94538 16.9067 4.97039 16.9283ZM15.0115 16.9364C15.0295 16.9436 15.051 16.9427 15.0593 16.9344C15.0675 16.9261 15.0528 16.9202 15.0266 16.9213C14.9975 16.9225 14.9916 16.9284 15.0115 16.9364ZM5.18678 16.9619C5.21779 16.9679 5.26267 16.9677 5.28651 16.9614C5.31034 16.9552 5.28496 16.9503 5.23011 16.9506C5.17526 16.9509 5.15576 16.956 5.18678 16.9619ZM14.7985 16.9616C14.8227 16.9679 14.8564 16.9675 14.8733 16.9607C14.8902 16.9538 14.8703 16.9487 14.8292 16.9492C14.788 16.9497 14.7742 16.9553 14.7985 16.9616ZM7.65638 17.0861C7.67435 17.0933 7.69587 17.0924 7.70415 17.0842C7.71243 17.0759 7.69771 17.07 7.67144 17.0711C7.64239 17.0723 7.63648 17.0782 7.65638 17.0861ZM9.1274 17.1111C9.14538 17.1183 9.16689 17.1174 9.17517 17.1091C9.18345 17.1008 9.16874 17.0949 9.14246 17.096C9.11341 17.0972 9.1075 17.1031 9.1274 17.1111ZM9.92525 17.1111C9.94322 17.1183 9.96474 17.1174 9.97301 17.1091C9.98129 17.1008 9.96658 17.0949 9.9403 17.096C9.91126 17.0972 9.90535 17.1031 9.92525 17.1111ZM10.5236 17.1111C10.5416 17.1183 10.5631 17.1174 10.5714 17.1091C10.5797 17.1008 10.565 17.0949 10.5387 17.096C10.5096 17.0972 10.5037 17.1031 10.5236 17.1111ZM7.55453 17.6755C7.47853 17.7036 7.47559 17.7106 7.52094 17.756C7.56914 17.8042 7.57318 17.8426 7.53014 17.8431C7.50937 17.8434 7.51144 17.8516 7.53638 17.8677C7.564 17.8856 7.56517 17.892 7.54084 17.8923C7.51673 17.8926 7.51887 17.9037 7.54889 17.9337C7.58203 17.9669 7.58357 17.9788 7.55692 17.9957C7.52974 18.013 7.52972 18.0167 7.55675 18.0171C7.57861 18.0173 7.5841 18.0348 7.5732 18.0692C7.5629 18.1016 7.57056 18.1319 7.59362 18.1503C7.61389 18.1665 7.65411 18.2445 7.68301 18.3237C7.7119 18.4029 7.76406 18.5241 7.79892 18.5929C7.83377 18.6618 7.85561 18.7289 7.84746 18.7421C7.83931 18.7553 7.85133 18.7662 7.87416 18.7662C7.90084 18.7662 7.91056 18.7796 7.90134 18.8036C7.89204 18.8278 7.90206 18.8411 7.92984 18.8414C7.96669 18.8417 7.96746 18.8452 7.9353 18.8664C7.90376 18.8871 7.906 18.8932 7.94966 18.9052C7.99835 18.9186 8.09581 19.0491 8.09689 19.1023C8.09714 19.1157 8.12229 19.139 8.15276 19.1542C8.1832 19.1694 8.26887 19.2393 8.34307 19.3096C8.41729 19.3798 8.54684 19.4818 8.63094 19.5363C8.71504 19.5907 8.76964 19.6404 8.75226 19.6467C8.73489 19.6531 8.74872 19.6583 8.78301 19.6582C8.81729 19.6582 8.92784 19.6933 9.02869 19.7363C9.12952 19.7792 9.2277 19.8143 9.24685 19.8143C9.27897 19.8143 9.293 19.846 9.28383 19.8978C9.28178 19.9094 9.29447 19.9136 9.31205 19.9072C9.3296 19.9007 9.3409 19.882 9.33713 19.8655C9.33297 19.8473 9.34768 19.8408 9.37453 19.849C9.39887 19.8564 9.51976 19.8749 9.64318 19.8901C9.97144 19.9305 10.3633 19.888 10.6737 19.7784C10.7313 19.758 10.7923 19.7447 10.8092 19.7488C10.8261 19.7529 10.8316 19.7516 10.8213 19.7458C10.8111 19.7401 10.8692 19.7021 10.9504 19.6615C11.0317 19.6209 11.1744 19.532 11.2677 19.4639C11.361 19.3958 11.4515 19.3402 11.469 19.3402C11.4864 19.3402 11.4978 19.3307 11.4944 19.3191C11.491 19.3076 11.5455 19.2357 11.6155 19.1594C11.6856 19.0831 11.7958 18.941 11.8605 18.8435C11.9253 18.7461 11.9892 18.6663 12.0027 18.6663C12.0162 18.6663 12.021 18.6562 12.0133 18.6438C12.0057 18.6315 12.034 18.54 12.0763 18.4406C12.1443 18.2805 12.2727 17.7934 12.2733 17.693C12.2735 17.66 11.9979 17.6556 9.9409 17.6556C8.65795 17.6556 7.58407 17.6645 7.55453 17.6755ZM10.3226 19.9057C10.3397 19.9127 10.3678 19.9127 10.3849 19.9057C10.4021 19.8988 10.388 19.8932 10.3538 19.8932C10.3195 19.8932 10.3055 19.8988 10.3226 19.9057ZM9.57619 19.9312C9.59416 19.9384 9.61568 19.9375 9.62396 19.9292C9.63224 19.921 9.61753 19.9151 9.59125 19.9161C9.5622 19.9173 9.55629 19.9233 9.57619 19.9312ZM10.1859 19.9315C10.2102 19.9378 10.2439 19.9374 10.2607 19.9305C10.2776 19.9237 10.2578 19.9185 10.2166 19.919C10.1755 19.9195 10.1617 19.9251 10.1859 19.9315Z" fill="#AEBBCE"/>
</svg>
