<svg width="26" height="24" viewBox="0 0 26 24" fill="none" xmlns="http://www.w3.org/2000/svg">
<path d="M24.6213 8.23649H1.37944V12.5863H24.6213V8.23649Z" fill="#8FD6C1"/>
<path d="M24.6213 8.23649H1.37944V12.5863H24.6213V8.23649Z" fill="#8FD6C1"/>
<path d="M24.6213 17.94H1.37944V22.5H24.6213V17.94Z" fill="#8FD6C1"/>
<path d="M24.6213 17.94H1.37944V22.5H24.6213V17.94Z" fill="#8FD6C1"/>
<path d="M24.7001 14.4988H1.30005V16.1317H24.7001V14.4988Z" fill="#8FD6C1"/>
<path d="M11.7849 3.55014C11.7849 3.55014 11.8333 2.99788 12.8424 3.00327C13.8491 3.00866 14.0462 3.35008 14.0588 3.66335" fill="#8FD6C1"/>
<path d="M4.71668 2.36181C5.84583 2.4259 6.07166 2.6032 6.71688 3.43997C7.36211 4.27674 7.63872 4.98593 7.63872 4.98593" fill="#8FD6C1"/>
<path d="M21.299 2.45876C20.1699 2.50728 19.9416 2.68458 19.2886 3.51417C18.6333 4.34076 18.3489 5.04695 18.3489 5.04695" fill="#8FD6C1"/>
<path d="M11.7849 3.55014C11.7849 3.55014 11.8333 2.99788 12.8424 3.00327C13.8491 3.00866 14.0462 3.35008 14.0588 3.66335" fill="#8FD6C1"/>
<path d="M4.71668 2.36181C5.84583 2.4259 6.07166 2.6032 6.71688 3.43997C7.36211 4.27674 7.63872 4.98593 7.63872 4.98593" fill="#8FD6C1"/>
<path d="M21.299 2.45876C20.1699 2.50728 19.9416 2.68458 19.2886 3.51417C18.6333 4.34076 18.3489 5.04695 18.3489 5.04695" fill="#8FD6C1"/>
<path d="M11.7849 3.55014C11.7849 3.55014 11.8333 2.99788 12.8424 3.00327C13.8491 3.00866 14.0462 3.35008 14.0588 3.66335M4.71668 2.36181C5.84583 2.4259 6.07166 2.6032 6.71688 3.43997C7.36211 4.27674 7.63872 4.98593 7.63872 4.98593M21.299 2.45876C20.1699 2.50728 19.9416 2.68458 19.2886 3.51417C18.6333 4.34076 18.3489 5.04695 18.3489 5.04695M11.3292 2.36416C11.3292 2.36416 11.9057 2.85473 11.7647 3.75559C11.6237 4.65646 11.6136 7.0937 8.39163 7.24524C5.16968 7.39678 5.21867 4.08443 5.19298 3.42975C5.16729 2.77506 4.40676 2.69001 4.40676 2.69001V2.20484C4.40676 2.20484 8.98846 1.72745 9.97721 1.9299C10.966 2.13296 11.9213 2.73373 13.0223 2.74152C14.1234 2.74931 15.1456 2.01736 17.2939 1.83227C19.4429 1.64719 21.5943 2.31984 21.5943 2.31984V2.79243C21.5943 2.79243 20.762 2.95655 20.7596 3.32672C20.7573 3.69629 20.7752 5.67592 19.4973 6.66244C18.2194 7.64596 16.16 7.52017 15.2328 6.66483C14.3056 5.80949 14.0033 4.67742 14.0672 3.06257C14.0828 2.65167 14.2721 2.51571 14.2721 2.51571M24.6213 8.23649H1.37944V12.5863H24.6213V8.23649ZM24.6213 17.94H1.37944V22.5H24.6213V17.94ZM24.7 14.4988H1.30005V16.1317H24.7V14.4988Z" stroke="#8FD6C1" stroke-linecap="round" stroke-linejoin="round"/>
</svg>
