<svg width="25" height="24" viewBox="0 0 25 24" fill="none" xmlns="http://www.w3.org/2000/svg">
<path d="M12.4286 10.2808C16.0162 10.073 19.0821 12.94 20.9195 15.7278C22.0319 17.4153 22.902 19.4441 22.1938 21.4794C21.7174 22.8528 20.3903 23.8849 18.8912 23.6841C17.4286 23.4882 16.8724 21.7958 15.18 22.6395C14.2804 23.089 13.5479 23.998 12.4191 23.708C11.7154 23.5266 11.1787 22.9779 10.5478 22.6565C8.81898 21.7714 8.28972 23.4857 6.80263 23.6841C5.31554 23.8824 3.98593 22.8623 3.50751 21.5033C2.67326 19.1411 3.96201 16.7694 5.33747 14.9225C6.96211 12.7392 9.57797 10.4403 12.4286 10.2758V10.2808ZM10.9584 14.2577C10.4481 14.3155 10.0155 14.7655 9.82914 15.2225C9.2052 16.7599 10.8084 18.4065 11.8869 19.301C12.4625 19.7775 12.8492 20.0242 13.5359 19.5163C14.7763 18.5954 16.846 16.4654 15.6439 14.8358C14.9986 13.9632 14.0387 14.1805 13.2793 14.7655C13.1198 14.8886 12.9917 15.0361 12.8392 15.1692C12.3727 14.6639 11.681 14.178 10.9584 14.2602V14.2577Z" fill="#8FD6C1"/>
<path d="M9.00487 0.239911C10.6584 0.143231 11.6496 2.70577 11.7224 4.04535C11.8166 5.76916 10.7337 8.10694 8.67595 7.71324C7.03936 7.40127 6.36209 5.45769 6.44931 3.97558C6.52655 2.6674 7.46944 0.327124 9.00487 0.237918V0.24041V0.239911Z" fill="#8FD6C1"/>
<path d="M16.5072 0.239938C18.0571 0.128805 19.0339 2.39183 19.2053 3.65118C19.4156 5.20355 18.7702 7.38386 17.015 7.71526C14.9623 8.10199 13.8794 5.78613 13.9686 4.06431C14.0364 2.73919 14.9503 0.353065 16.5072 0.241932V0.23944V0.239938Z" fill="#8FD6C1"/>
<path d="M2.36652 5.8056C4.02505 5.61922 5.69304 7.76862 5.87694 9.26767C6.06083 10.7667 5.16628 12.5125 3.38666 12.1905C1.17944 11.7893 0.311308 8.67264 1.14555 6.83072C1.36533 6.34233 1.80538 5.86839 2.36652 5.8056Z" fill="#8FD6C1"/>
<path d="M22.9017 5.80563C24.9424 5.60978 25.0561 8.51818 24.6374 9.87719C24.2193 11.2357 22.9136 12.5389 21.4026 12.1691C19.9858 11.8208 19.5846 10.1528 19.8841 8.89294C20.1841 7.6331 21.5451 5.93869 22.9012 5.80812V5.80563H22.9017Z" fill="#8FD6C1"/>
</svg>
