<svg width="16" height="17" viewBox="0 0 16 17" fill="none" xmlns="http://www.w3.org/2000/svg">
<path d="M6.2583 4.94824C6.32534 4.94826 6.37631 4.96878 6.42822 5.02051L9.7251 8.31738C9.76091 8.35329 9.77787 8.3817 9.78564 8.40039C9.79547 8.42407 9.80127 8.45098 9.80127 8.4834C9.80123 8.5158 9.79551 8.54273 9.78564 8.56641C9.77783 8.58516 9.76109 8.6134 9.7251 8.64941L6.41162 11.9619C6.35992 12.0135 6.31585 12.0283 6.26221 12.0264C6.19936 12.0241 6.14477 12.0027 6.0874 11.9453C6.03541 11.8933 6.01514 11.8416 6.01514 11.7744C6.0152 11.7074 6.03562 11.6564 6.0874 11.6045L9.2085 8.4834L8.97314 8.24707L6.0708 5.34473C6.01928 5.29306 6.00537 5.24895 6.00732 5.19531C6.00962 5.13247 6.03003 5.07788 6.0874 5.02051C6.13947 4.96845 6.19105 4.94824 6.2583 4.94824Z" fill="#5B6B84" stroke="#5B6B84" stroke-width="0.666667"/>
</svg>
