<svg width="25" height="24" viewBox="0 0 25 24" fill="none" xmlns="http://www.w3.org/2000/svg">
<path d="M9.87695 3.37329C11.5475 3.37338 12.9514 3.95645 14.1182 5.1311C15.2863 6.30701 15.8652 7.71368 15.8652 9.37915C15.8652 10.0477 15.7604 10.6838 15.5518 11.2903C15.3436 11.8953 15.0304 12.4664 14.6084 13.0042L14.333 13.3547L14.6494 13.6682L20.6631 19.6321L20.666 19.634C20.7363 19.7029 20.7705 19.7798 20.7705 19.8967C20.7704 19.9847 20.7509 20.0516 20.71 20.1106L20.6621 20.1672L20.6602 20.1692C20.5833 20.2468 20.5021 20.2815 20.3867 20.2815C20.272 20.2815 20.2016 20.2473 20.1377 20.179L20.1318 20.1731L20.125 20.1672L14.1367 14.1838L13.8105 13.8586L13.46 14.1565C13.0697 14.4877 12.6179 14.7581 12.1016 14.9661L11.876 15.052C11.2695 15.2676 10.6165 15.3772 9.91406 15.3772C8.21323 15.3772 6.79193 14.7923 5.61914 13.6184C4.4443 12.4422 3.86235 11.0371 3.8623 9.37524C3.8623 7.71348 4.44477 6.3084 5.62109 5.13208C6.79674 3.95628 8.20599 3.37329 9.87695 3.37329ZM9.89062 4.07642C8.51061 4.07651 7.31093 4.53417 6.31543 5.44165L6.11816 5.62915C5.08695 6.66009 4.56543 7.91834 4.56543 9.37524C4.56548 10.8321 5.0874 12.0894 6.11816 13.1204C7.15036 14.1527 8.41745 14.673 9.89062 14.6731C11.3518 14.6731 12.6081 14.1517 13.6289 13.1184C14.6478 12.087 15.1621 10.8301 15.1621 9.37524C15.1621 7.92014 14.6476 6.66252 13.6279 5.6311C12.6067 4.59801 11.3508 4.07642 9.89062 4.07642Z" fill="#FBFBFB" stroke="#5B6B84"/>
</svg>
