<svg width="1442" height="900" viewBox="0 0 1442 900" fill="none" xmlns="http://www.w3.org/2000/svg">
<g clip-path="url(#clip0_19_1539)">
<rect width="1442" height="900" fill="#FBFBFB"/>
<path d="M413 450C413 -117.791 872.891 -578.185 1440.49 -578.999C1441.32 -579 1442 -578.328 1442 -577.5L1442 1477.5C1442 1478.33 1441.32 1479 1440.49 1479C872.891 1478.18 413 1017.79 413 450Z" fill="#8FD6C1"/>
<path d="M1005.21 620.248H1178.96C1182.27 620.248 1184.96 622.934 1184.96 626.248V806.624C1085.69 806.624 1005.21 723.179 1005.21 620.248Z" fill="#132A4C"/>
<path d="M1005.21 620.248H1178.96C1182.27 620.248 1184.96 622.934 1184.96 626.248V806.624C1085.69 806.624 1005.21 723.179 1005.21 620.248Z" fill="black" fill-opacity="0.2"/>
<path d="M1184.96 806.624V987C1184.96 990.314 1182.27 993 1178.96 993H1005.21C1005.21 890.069 1085.69 806.624 1184.96 806.624Z" fill="#132A4C"/>
<path d="M1184.96 806.624V987C1184.96 990.314 1182.27 993 1178.96 993H1005.21C1005.21 890.069 1085.69 806.624 1184.96 806.624Z" fill="black" fill-opacity="0.2"/>
<path d="M1005.21 620.248C1005.21 723.179 924.73 806.624 825.458 806.624V626.248C825.458 622.934 828.144 620.248 831.458 620.248H1005.21Z" fill="#132A4C"/>
<path d="M1005.21 620.248C1005.21 723.179 924.73 806.624 825.458 806.624V626.248C825.458 622.934 828.144 620.248 831.458 620.248H1005.21Z" fill="black" fill-opacity="0.2"/>
<path d="M1005.21 993C1005.21 890.069 924.73 806.624 825.458 806.624V987C825.458 990.314 828.144 993 831.458 993H1005.21Z" fill="#132A4C"/>
<path d="M1005.21 993C1005.21 890.069 924.73 806.624 825.458 806.624V987C825.458 990.314 828.144 993 831.458 993H1005.21Z" fill="black" fill-opacity="0.2"/>
<path d="M870.271 485.528H913.708C914.537 485.528 915.208 486.2 915.208 487.028V528.966C915.208 529.794 914.533 530.468 913.705 530.441C889.583 529.648 870.271 509.843 870.271 485.528Z" fill="#132A4C"/>
<path d="M870.271 485.528H913.708C914.537 485.528 915.208 486.2 915.208 487.028V528.966C915.208 529.794 914.533 530.468 913.705 530.441C889.583 529.648 870.271 509.843 870.271 485.528Z" fill="black" fill-opacity="0.2"/>
<path d="M870.395 485.186V528.624C870.395 529.452 869.724 530.124 868.895 530.124H826.958C826.13 530.124 825.455 529.449 825.483 528.621C826.275 504.499 846.08 485.186 870.395 485.186Z" fill="#FBFBFB"/>
<path d="M913.708 440.591C914.537 440.591 915.211 441.266 915.184 442.094C914.391 466.216 894.586 485.528 870.271 485.528V442.091C870.271 441.262 870.943 440.591 871.771 440.591H913.708Z" fill="#FBFBFB"/>
<path d="M825.458 441.999C825.458 441.17 826.133 440.496 826.961 440.523C851.083 441.316 870.395 461.121 870.395 485.436H826.958C826.13 485.436 825.458 484.764 825.458 483.936V441.999Z" fill="#D6DCE5"/>
<path d="M930.312 110.958C938.585 110.958 945.291 104.252 945.291 95.9791C945.291 87.7064 938.585 81 930.312 81C922.039 81 915.333 87.7064 915.333 95.9791C915.333 104.252 922.039 110.958 930.312 110.958Z" fill="#D6DCE5"/>
<path d="M990.228 110.958C998.501 110.958 1005.21 104.252 1005.21 95.9791C1005.21 87.7064 998.501 81 990.228 81C981.955 81 975.249 87.7064 975.249 95.9791C975.249 104.252 981.955 110.958 990.228 110.958Z" fill="#FBFBFB"/>
<path d="M960.27 110.958C968.543 110.958 975.249 104.252 975.249 95.9791C975.249 87.7064 968.543 81 960.27 81C951.997 81 945.291 87.7064 945.291 95.9791C945.291 104.252 951.997 110.958 960.27 110.958Z" fill="#FBFBFB"/>
<path d="M930.312 140.759C938.585 140.759 945.291 134.053 945.291 125.78C945.291 117.507 938.585 110.801 930.312 110.801C922.039 110.801 915.333 117.507 915.333 125.78C915.333 134.053 922.039 140.759 930.312 140.759Z" fill="#FBFBFB"/>
<path d="M990.228 140.759C998.501 140.759 1005.21 134.053 1005.21 125.78C1005.21 117.507 998.501 110.801 990.228 110.801C981.955 110.801 975.249 117.507 975.249 125.78C975.249 134.053 981.955 140.759 990.228 140.759Z" fill="#132A4C"/>
<path d="M990.228 140.759C998.501 140.759 1005.21 134.053 1005.21 125.78C1005.21 117.507 998.501 110.801 990.228 110.801C981.955 110.801 975.249 117.507 975.249 125.78C975.249 134.053 981.955 140.759 990.228 140.759Z" fill="black" fill-opacity="0.2"/>
<path d="M960.27 140.759C968.543 140.759 975.249 134.053 975.249 125.78C975.249 117.507 968.543 110.801 960.27 110.801C951.997 110.801 945.291 117.507 945.291 125.78C945.291 134.053 951.997 140.759 960.27 140.759Z" fill="#D6DCE5"/>
<path d="M930.312 170.717C938.585 170.717 945.291 164.011 945.291 155.738C945.291 147.466 938.585 140.759 930.312 140.759C922.039 140.759 915.333 147.466 915.333 155.738C915.333 164.011 922.039 170.717 930.312 170.717Z" fill="#132A4C"/>
<path d="M930.312 170.717C938.585 170.717 945.291 164.011 945.291 155.738C945.291 147.466 938.585 140.759 930.312 140.759C922.039 140.759 915.333 147.466 915.333 155.738C915.333 164.011 922.039 170.717 930.312 170.717Z" fill="black" fill-opacity="0.2"/>
<path d="M990.228 170.717C998.501 170.717 1005.21 164.011 1005.21 155.738C1005.21 147.466 998.501 140.759 990.228 140.759C981.955 140.759 975.249 147.466 975.249 155.738C975.249 164.011 981.955 170.717 990.228 170.717Z" fill="#FBFBFB"/>
<path d="M960.27 170.717C968.543 170.717 975.249 164.011 975.249 155.738C975.249 147.466 968.543 140.759 960.27 140.759C951.997 140.759 945.291 147.466 945.291 155.738C945.291 164.011 951.997 170.717 960.27 170.717Z" fill="#FBFBFB"/>
<path d="M960.27 395.561C984.585 395.561 1004.39 414.874 1005.18 438.996C1005.21 439.824 1004.54 440.499 1003.71 440.499H916.833C916.005 440.499 915.33 439.824 915.358 438.996C916.15 414.874 935.955 395.561 960.27 395.561Z" fill="#132A4C"/>
<path d="M960.27 395.561C984.585 395.561 1004.39 414.874 1005.18 438.996C1005.21 439.824 1004.54 440.499 1003.71 440.499H916.833C916.005 440.499 915.33 439.824 915.358 438.996C916.15 414.874 935.955 395.561 960.27 395.561Z" fill="black" fill-opacity="0.2"/>
<path d="M960.27 395.561C984.585 395.561 1004.39 376.249 1005.18 352.127C1005.21 351.299 1004.54 350.624 1003.71 350.624H916.833C916.005 350.624 915.33 351.299 915.358 352.127C916.15 376.249 935.955 395.561 960.27 395.561Z" fill="#132A4C"/>
<path d="M960.27 395.561C984.585 395.561 1004.39 376.249 1005.18 352.127C1005.21 351.299 1004.54 350.624 1003.71 350.624H916.833C916.005 350.624 915.33 351.299 915.358 352.127C916.15 376.249 935.955 395.561 960.27 395.561Z" fill="black" fill-opacity="0.2"/>
<path d="M937.802 575.311C950.211 575.311 960.27 565.251 960.27 552.842C960.27 540.433 950.211 530.373 937.802 530.373C925.393 530.373 915.333 540.433 915.333 552.842C915.333 565.251 925.393 575.311 937.802 575.311Z" fill="#132A4C"/>
<path d="M937.802 575.311C950.211 575.311 960.27 565.251 960.27 552.842C960.27 540.433 950.211 530.373 937.802 530.373C925.393 530.373 915.333 540.433 915.333 552.842C915.333 565.251 925.393 575.311 937.802 575.311Z" fill="black" fill-opacity="0.2"/>
<path d="M982.739 575.311C995.148 575.311 1005.21 565.251 1005.21 552.842C1005.21 540.433 995.148 530.373 982.739 530.373C970.33 530.373 960.271 540.433 960.271 552.842C960.271 565.251 970.33 575.311 982.739 575.311Z" fill="#FBFBFB"/>
<path d="M937.802 620.248C950.211 620.248 960.27 610.188 960.27 597.779C960.27 585.37 950.211 575.311 937.802 575.311C925.393 575.311 915.333 585.37 915.333 597.779C915.333 610.188 925.393 620.248 937.802 620.248Z" fill="#FBFBFB"/>
<path d="M982.739 620.248C995.148 620.248 1005.21 610.188 1005.21 597.779C1005.21 585.37 995.148 575.311 982.739 575.311C970.33 575.311 960.271 585.37 960.271 597.779C960.271 610.188 970.33 620.248 982.739 620.248Z" fill="#132A4C"/>
<path d="M982.739 620.248C995.148 620.248 1005.21 610.188 1005.21 597.779C1005.21 585.37 995.148 575.311 982.739 575.311C970.33 575.311 960.271 585.37 960.271 597.779C960.271 610.188 970.33 620.248 982.739 620.248Z" fill="black" fill-opacity="0.2"/>
<path d="M1247.54 206.173H1239.53V198.164C1239.53 183.093 1227.32 170.875 1212.24 170.875C1197.17 170.875 1184.96 183.093 1184.96 198.162V259.249C1184.96 260.078 1185.63 260.749 1186.46 260.749H1247.54C1262.61 260.749 1274.83 248.531 1274.83 233.46C1274.83 218.388 1262.61 206.17 1247.54 206.17V206.173Z" fill="#132A4C"/>
<path d="M1247.54 206.173H1239.53V198.164C1239.53 183.093 1227.32 170.875 1212.24 170.875C1197.17 170.875 1184.96 183.093 1184.96 198.162V259.249C1184.96 260.078 1185.63 260.749 1186.46 260.749H1247.54C1262.61 260.749 1274.83 248.531 1274.83 233.46C1274.83 218.388 1262.61 206.17 1247.54 206.17V206.173Z" fill="black" fill-opacity="0.2"/>
<path d="M738.733 469.975C737.679 469.036 738.387 467.294 739.797 467.357L761.596 468.327C762.484 468.366 763.211 467.629 763.16 466.742L761.903 444.956C761.822 443.547 763.554 442.816 764.507 443.857L779.238 459.957C779.838 460.613 780.873 460.606 781.465 459.942L795.979 443.648C796.918 442.594 798.66 443.302 798.598 444.713L797.629 466.511C797.59 467.399 798.327 468.127 799.214 468.076L821 466.819C822.409 466.737 823.14 468.47 822.099 469.423L805.999 484.153C805.344 484.753 805.35 485.789 806.014 486.38L822.308 500.895C823.362 501.833 822.654 503.576 821.244 503.513L799.442 502.545C798.554 502.505 797.827 503.242 797.878 504.13L799.137 525.915C799.219 527.324 797.486 528.056 796.533 527.014L781.803 510.915C781.203 510.259 780.167 510.266 779.576 510.93L765.059 527.224C764.121 528.277 762.378 527.569 762.441 526.159L763.411 504.358C763.451 503.47 762.714 502.743 761.826 502.794L740.041 504.053C738.632 504.134 737.901 502.401 738.942 501.449L755.041 486.718C755.697 486.118 755.69 485.083 755.027 484.492L738.733 469.975Z" fill="#132A4C"/>
<path d="M738.733 469.975C737.679 469.036 738.387 467.294 739.797 467.357L761.596 468.327C762.484 468.366 763.211 467.629 763.16 466.742L761.903 444.956C761.822 443.547 763.554 442.816 764.507 443.857L779.238 459.957C779.838 460.613 780.873 460.606 781.465 459.942L795.979 443.648C796.918 442.594 798.66 443.302 798.598 444.713L797.629 466.511C797.59 467.399 798.327 468.127 799.214 468.076L821 466.819C822.409 466.737 823.14 468.47 822.099 469.423L805.999 484.153C805.344 484.753 805.35 485.789 806.014 486.38L822.308 500.895C823.362 501.833 822.654 503.576 821.244 503.513L799.442 502.545C798.554 502.505 797.827 503.242 797.878 504.13L799.137 525.915C799.219 527.324 797.486 528.056 796.533 527.014L781.803 510.915C781.203 510.259 780.167 510.266 779.576 510.93L765.059 527.224C764.121 528.277 762.378 527.569 762.441 526.159L763.411 504.358C763.451 503.47 762.714 502.743 761.826 502.794L740.041 504.053C738.632 504.134 737.901 502.401 738.942 501.449L755.041 486.718C755.697 486.118 755.69 485.083 755.027 484.492L738.733 469.975Z" fill="black" fill-opacity="0.2"/>
<path d="M803.501 311.629C806.831 315.031 810.069 318.324 813.29 321.632C816.882 325.325 820.475 329.017 824.037 332.737C825.967 334.751 825.929 335.573 823.94 337.57C820.073 341.445 816.198 345.309 812.326 349.179C810.845 350.657 809.527 350.677 808.064 349.196C802.719 343.784 797.397 338.349 792.039 332.949C790.454 331.351 788.776 329.843 786.961 328.123C784.507 331.186 782.066 334.215 779.646 337.26C778.773 338.361 777.929 339.485 777.12 340.633C776.381 341.682 775.517 342.453 774.137 342.244C772.828 342.046 772.134 341.153 771.775 339.964C770.851 336.906 769.932 333.848 769.036 330.782C766.452 321.964 763.846 313.152 761.315 304.319C759.4 297.638 757.582 290.928 755.737 284.227C755.58 283.655 755.448 283.036 755.495 282.457C755.667 280.347 757.378 279.206 759.579 279.823C768.083 282.202 776.591 284.569 785.061 287.058C795.409 290.099 805.723 293.254 816.051 296.368C816.47 296.495 816.902 296.637 817.269 296.867C818.849 297.853 818.777 299.563 817.062 300.929C814.735 302.779 812.363 304.574 810.029 306.414C807.89 308.099 805.77 309.811 803.503 311.624L803.501 311.629Z" fill="#132A4C"/>
<path d="M803.501 311.629C806.831 315.031 810.069 318.324 813.29 321.632C816.882 325.325 820.475 329.017 824.037 332.737C825.967 334.751 825.929 335.573 823.94 337.57C820.073 341.445 816.198 345.309 812.326 349.179C810.845 350.657 809.527 350.677 808.064 349.196C802.719 343.784 797.397 338.349 792.039 332.949C790.454 331.351 788.776 329.843 786.961 328.123C784.507 331.186 782.066 334.215 779.646 337.26C778.773 338.361 777.929 339.485 777.12 340.633C776.381 341.682 775.517 342.453 774.137 342.244C772.828 342.046 772.134 341.153 771.775 339.964C770.851 336.906 769.932 333.848 769.036 330.782C766.452 321.964 763.846 313.152 761.315 304.319C759.4 297.638 757.582 290.928 755.737 284.227C755.58 283.655 755.448 283.036 755.495 282.457C755.667 280.347 757.378 279.206 759.579 279.823C768.083 282.202 776.591 284.569 785.061 287.058C795.409 290.099 805.723 293.254 816.051 296.368C816.47 296.495 816.902 296.637 817.269 296.867C818.849 297.853 818.777 299.563 817.062 300.929C814.735 302.779 812.363 304.574 810.029 306.414C807.89 308.099 805.77 309.811 803.503 311.624L803.501 311.629Z" fill="black" fill-opacity="0.2"/>
<path d="M748.716 270.771C748.734 272.291 748.27 273.212 747.049 273.839C745.998 274.378 744.592 274.204 743.728 273.312C741.269 270.783 738.828 268.242 736.424 265.665C735.243 264.4 735.333 262.572 736.526 261.464C737.627 260.44 739.487 260.515 740.648 261.696C742.954 264.035 745.251 266.382 747.498 268.779C748.02 269.335 748.315 270.102 748.716 270.771Z" fill="#FBFBFB"/>
<path d="M761.037 272.885C759.012 272.918 757.729 271.215 758.301 269.233C758.91 267.123 759.516 265.014 760.166 262.917C760.59 261.549 761.631 260.755 762.872 260.75C764.175 260.745 765.318 261.601 765.678 262.959C765.793 263.393 765.773 263.92 765.645 264.352C764.999 266.534 764.32 268.706 763.603 270.866C763.186 272.126 762.185 272.865 761.037 272.885Z" fill="#FBFBFB"/>
<path d="M736.484 290.426C735.109 288.94 735.521 286.848 737.381 285.952C739.358 284.998 741.335 284.042 743.33 283.126C744.633 282.529 745.916 282.774 746.748 283.695C747.621 284.661 747.746 286.084 746.972 287.26C746.725 287.635 746.321 287.972 745.911 288.166C743.854 289.14 741.784 290.084 739.697 290.99C738.479 291.519 737.261 291.267 736.482 290.426H736.484Z" fill="#FBFBFB"/>
<path d="M1168.15 620.248C1177.55 620.248 1185.16 612.634 1185.16 603.241C1185.16 593.849 1177.55 586.235 1168.15 586.235C1158.76 586.235 1151.15 593.849 1151.15 603.241C1151.15 612.634 1158.76 620.248 1168.15 620.248Z" fill="#FBFBFB"/>
<path d="M1112.09 564.386C1121.48 564.386 1129.1 556.772 1129.1 547.379C1129.1 537.987 1121.48 530.373 1112.09 530.373C1102.7 530.373 1095.08 537.987 1095.08 547.379C1095.08 556.772 1102.7 564.386 1112.09 564.386Z" fill="#FBFBFB"/>
<path d="M1183.86 551.398L1164.14 531.675C1163.55 531.089 1162.6 531.089 1162.02 531.675L1096.59 597.103C1096 597.689 1096 598.639 1096.59 599.224L1116.31 618.947C1116.9 619.533 1117.85 619.533 1118.43 618.947L1183.86 553.519C1184.45 552.933 1184.45 551.983 1183.86 551.398Z" fill="#FBFBFB"/>
<path d="M1274.62 371.551V351.798C1274.62 350.938 1273.92 350.239 1273.06 350.239H1244.66C1244.21 350.239 1243.77 350.442 1243.48 350.791L1215.97 383.46V351.798C1215.97 350.937 1215.27 350.239 1214.42 350.239H1186.8C1185.94 350.239 1185.25 350.937 1185.25 351.798V438.477C1185.25 439.339 1185.94 440.037 1186.8 440.037H1214.42C1215.27 440.037 1215.97 439.339 1215.97 438.477V390.392L1242.64 427.197L1232.61 437.38C1231.64 438.364 1232.34 440.035 1233.72 440.035H1273.06C1273.92 440.035 1274.62 439.337 1274.62 438.476V398.95C1274.62 397.562 1272.95 396.867 1271.97 397.843L1259.72 410.065L1230 386.665L1273.53 373.036C1274.18 372.834 1274.62 372.232 1274.62 371.55L1274.62 371.551Z" fill="#FBFBFB"/>
<path d="M1082.14 446.266C1074.46 438.576 1062 438.576 1054.32 446.266L1050.24 450.352L1046.15 446.266C1038.47 438.576 1026.02 438.576 1018.34 446.266C1010.65 453.955 1010.65 466.42 1018.34 474.107L1022.42 478.194L1034.38 490.162L1046.15 501.95L1049.18 504.975C1049.76 505.561 1050.71 505.561 1051.3 504.975L1054.32 501.95L1070.18 486.073L1078.06 478.196L1082.14 474.109C1089.82 466.42 1089.82 453.955 1082.14 446.268V446.266Z" fill="#132A4C"/>
<path d="M1082.14 446.266C1074.46 438.576 1062 438.576 1054.32 446.266L1050.24 450.352L1046.15 446.266C1038.47 438.576 1026.02 438.576 1018.34 446.266C1010.65 453.955 1010.65 466.42 1018.34 474.107L1022.42 478.194L1034.38 490.162L1046.15 501.95L1049.18 504.975C1049.76 505.561 1050.71 505.561 1051.3 504.975L1054.32 501.95L1070.18 486.073L1078.06 478.196L1082.14 474.109C1089.82 466.42 1089.82 453.955 1082.14 446.268V446.266Z" fill="black" fill-opacity="0.2"/>
<path d="M1033.54 530.437C1033.54 530.437 1033.54 530.436 1033.54 530.436C1030.16 530.436 1026.79 530.441 1023.41 530.433C1022.15 530.431 1022.05 530.408 1022.15 529.13C1022.38 526.187 1021.08 523.917 1019.12 521.927C1016.78 519.548 1014.41 517.197 1012.05 514.83C1008.25 511.005 1005.85 506.484 1005.26 501.072C1005.21 500.605 1005.21 500.13 1005.21 499.661C1005.21 492.469 1005.21 485.274 1005.21 478.081C1005.21 476.391 1005.36 476.296 1007.07 476.553C1009.3 476.89 1011.25 477.777 1012.79 479.444C1014.28 481.059 1014.92 483.047 1014.95 485.204C1014.99 488.586 1014.97 491.969 1014.96 495.352C1014.96 496.942 1015.13 498.51 1015.5 500.053C1015.81 501.321 1016.44 502.435 1017.32 503.406C1020.18 506.584 1023.27 509.547 1026.27 512.603C1026.42 512.755 1026.57 512.91 1026.75 513.027C1027.15 513.294 1027.55 513.277 1027.92 512.945C1028.3 512.605 1028.35 512.206 1028.07 511.797C1027.86 511.482 1027.61 511.18 1027.34 510.908C1025.45 508.983 1023.54 507.078 1021.66 505.146C1020.62 504.075 1019.59 502.986 1018.6 501.865C1016.82 499.866 1017.14 496.381 1019.21 494.713C1019.83 494.219 1020.52 493.929 1021.34 493.927C1023.22 493.919 1024.87 494.496 1026.21 495.841C1031.11 500.747 1036.01 505.648 1040.9 510.571C1042.64 512.323 1043.52 514.545 1044.19 516.872C1044.72 518.694 1044.89 520.569 1044.94 522.449C1045.01 524.674 1044.96 526.901 1044.96 529.127C1044.95 530.418 1044.94 530.433 1043.68 530.438C1040.3 530.446 1036.92 530.441 1033.54 530.438C1033.54 530.438 1033.54 530.437 1033.54 530.437V530.437Z" fill="#FBFBFB"/>
<path d="M1095.08 489.384C1095.08 489.383 1095.08 489.384 1095.08 489.384C1095.08 492.809 1095.06 496.234 1095.08 499.658C1095.11 505.123 1093.09 509.757 1089.36 513.656C1086.7 516.44 1083.93 519.121 1081.22 521.86C1079.82 523.278 1078.67 524.853 1078.24 526.858C1078.07 527.667 1078.13 528.476 1078.11 529.287C1078.09 530.403 1078.08 530.418 1076.94 530.43C1075.78 530.445 1074.63 530.435 1073.47 530.435C1068.04 530.435 1062.6 530.435 1057.17 530.435C1056.83 530.435 1056.49 530.428 1056.15 530.42C1055.72 530.413 1055.54 530.173 1055.53 529.769C1055.52 529.512 1055.52 529.255 1055.52 528.997C1055.52 526.429 1055.46 523.857 1055.53 521.291C1055.64 516.847 1057.08 512.907 1060.25 509.704C1063.38 506.539 1066.47 503.331 1069.71 500.285C1071.46 498.645 1072.93 496.732 1074.84 495.262C1076.05 494.336 1077.42 493.911 1078.88 493.827C1080.55 493.727 1082.18 495 1082.72 496.695C1083.41 498.845 1082.97 500.749 1081.38 502.367C1079.4 504.382 1077.4 506.376 1075.43 508.396C1074.44 509.405 1073.48 510.443 1072.53 511.482C1071.93 512.133 1071.9 512.49 1072.32 512.915C1072.75 513.354 1073.28 513.324 1073.87 512.73C1076.96 509.644 1080.08 506.584 1083.09 503.426C1084.47 501.973 1085.16 500.148 1085.34 498.093C1085.68 494.243 1085.12 490.401 1085.35 486.557C1085.47 484.639 1085.51 482.695 1086.52 480.964C1088.19 478.106 1090.77 476.723 1093.99 476.486C1095.01 476.411 1095.07 476.511 1095.07 477.569C1095.08 481.508 1095.08 485.447 1095.08 489.383C1095.08 489.384 1095.08 489.384 1095.08 489.384V489.384Z" fill="#FBFBFB"/>
<path d="M1297.3 171.027C1309.71 171.027 1319.77 160.967 1319.77 148.558C1319.77 136.149 1309.71 126.09 1297.3 126.09C1284.89 126.09 1274.83 136.149 1274.83 148.558C1274.83 160.967 1284.89 171.027 1297.3 171.027Z" fill="#FBFBFB"/>
<path d="M1319.77 131.929C1332.18 131.929 1342.24 121.869 1342.24 109.46C1342.24 97.0512 1332.18 86.9917 1319.77 86.9917C1307.36 86.9917 1297.3 97.0512 1297.3 109.46C1297.3 121.869 1307.36 131.929 1319.77 131.929Z" fill="#132A4C"/>
<path d="M1319.77 131.929C1332.18 131.929 1342.24 121.869 1342.24 109.46C1342.24 97.0512 1332.18 86.9917 1319.77 86.9917C1307.36 86.9917 1297.3 97.0512 1297.3 109.46C1297.3 121.869 1307.36 131.929 1319.77 131.929Z" fill="black" fill-opacity="0.2"/>
<path d="M1342.24 171.027C1354.65 171.027 1364.71 160.967 1364.71 148.558C1364.71 136.149 1354.65 126.09 1342.24 126.09C1329.83 126.09 1319.77 136.149 1319.77 148.558C1319.77 160.967 1329.83 171.027 1342.24 171.027Z" fill="#D6DCE5"/>
<path d="M1050.14 305.687V349.124C1050.14 349.952 1050.82 350.624 1051.64 350.624H1093.58C1094.41 350.624 1095.08 349.949 1095.06 349.121C1094.26 324.999 1074.46 305.687 1050.14 305.687Z" fill="#FBFBFB"/>
<path d="M1050.14 305.687C1025.83 305.687 1006.02 286.374 1005.23 262.252C1005.2 261.424 1005.88 260.749 1006.71 260.749H1048.64C1049.47 260.749 1050.14 261.421 1050.14 262.249V305.687Z" fill="#FBFBFB"/>
<path d="M690.646 417.531C703.055 417.531 713.115 407.471 713.115 395.062C713.115 382.653 703.055 372.593 690.646 372.593C678.237 372.593 668.177 382.653 668.177 395.062C668.177 407.471 678.237 417.531 690.646 417.531Z" fill="#132A4C"/>
<path d="M690.646 417.531C703.055 417.531 713.115 407.471 713.115 395.062C713.115 382.653 703.055 372.593 690.646 372.593C678.237 372.593 668.177 382.653 668.177 395.062C668.177 407.471 678.237 417.531 690.646 417.531Z" fill="black" fill-opacity="0.2"/>
<path d="M645.709 372.593V417.531C658.119 417.531 668.178 407.472 668.178 395.062C668.178 382.652 658.119 372.593 645.709 372.593Z" fill="#FBFBFB"/>
<path d="M735.584 372.593V417.531C723.174 417.531 713.115 407.472 713.115 395.062C713.115 382.652 723.174 372.593 735.584 372.593Z" fill="#FBFBFB"/>
<path d="M1023.86 620.248C1034.16 620.248 1042.51 611.897 1042.51 601.596C1042.51 591.296 1034.16 582.945 1023.86 582.945C1013.56 582.945 1005.21 591.296 1005.21 601.596C1005.21 611.897 1013.56 620.248 1023.86 620.248Z" fill="#D6DCE5"/>
<path d="M1076.43 567.676C1086.73 567.676 1095.08 559.326 1095.08 549.025C1095.08 538.724 1086.73 530.373 1076.43 530.373C1066.13 530.373 1057.78 538.724 1057.78 549.025C1057.78 559.326 1066.13 567.676 1076.43 567.676Z" fill="#132A4C"/>
<path d="M1076.43 567.676C1086.73 567.676 1095.08 559.326 1095.08 549.025C1095.08 538.724 1086.73 530.373 1076.43 530.373C1066.13 530.373 1057.78 538.724 1057.78 549.025C1057.78 559.326 1066.13 567.676 1076.43 567.676Z" fill="black" fill-opacity="0.2"/>
<path d="M1050.14 593.962C1060.45 593.962 1068.8 585.611 1068.8 575.31C1068.8 565.01 1060.45 556.659 1050.14 556.659C1039.84 556.659 1031.49 565.01 1031.49 575.31C1031.49 585.611 1039.84 593.962 1050.14 593.962Z" fill="#FBFBFB"/>
<path d="M872.397 213.723L829.736 213.723L829.736 172.562C829.736 171.734 830.411 171.06 831.239 171.088C854.104 171.88 872.397 190.666 872.397 213.723Z" fill="#FBFBFB"/>
<path d="M915.059 213.723V254.885C915.059 255.713 914.387 256.385 913.559 256.385H872.397C872.397 232.824 891.498 213.723 915.059 213.723Z" fill="#FBFBFB"/>
<path d="M872.397 213.723C872.397 190.666 890.691 171.88 913.556 171.088C914.384 171.06 915.059 171.734 915.059 172.562L915.059 213.723L872.397 213.723Z" fill="#FBFBFB"/>
<path d="M872.397 256.385C872.397 232.824 853.297 213.723 829.736 213.723V254.885C829.736 255.713 830.408 256.385 831.236 256.385H872.397Z" fill="#FBFBFB"/>
<path d="M1140.22 469.855L1140.22 441.551C1140.22 440.861 1139.66 440.301 1138.97 440.301L1125.99 440.301C1125.3 440.301 1124.74 440.861 1124.74 441.551L1124.74 458.91L1106.62 440.788C1106.38 440.553 1106.06 440.422 1105.73 440.422C1102.68 440.423 1099.62 440.424 1096.56 440.426C1095.87 440.426 1095.31 440.985 1095.31 441.675C1095.31 444.733 1095.31 447.791 1095.31 450.849C1095.31 451.181 1095.44 451.499 1095.67 451.733L1113.79 469.854L1096.43 469.854C1095.74 469.854 1095.18 470.414 1095.18 471.104L1095.18 484.083C1095.18 484.773 1095.74 485.333 1096.43 485.333L1140.22 485.333L1140.22 469.854L1140.22 469.855Z" fill="#132A4C"/>
<path d="M1140.22 469.855L1140.22 441.551C1140.22 440.861 1139.66 440.301 1138.97 440.301L1125.99 440.301C1125.3 440.301 1124.74 440.861 1124.74 441.551L1124.74 458.91L1106.62 440.788C1106.38 440.553 1106.06 440.422 1105.73 440.422C1102.68 440.423 1099.62 440.424 1096.56 440.426C1095.87 440.426 1095.31 440.985 1095.31 441.675C1095.31 444.733 1095.31 447.791 1095.31 450.849C1095.31 451.181 1095.44 451.499 1095.67 451.733L1113.79 469.854L1096.43 469.854C1095.74 469.854 1095.18 470.414 1095.18 471.104L1095.18 484.083C1095.18 484.773 1095.74 485.333 1096.43 485.333L1140.22 485.333L1140.22 469.854L1140.22 469.855Z" fill="black" fill-opacity="0.2"/>
<path d="M1185.25 514.887L1185.25 486.583C1185.25 485.892 1184.69 485.333 1184 485.333L1171.02 485.333C1170.33 485.333 1169.77 485.892 1169.77 486.583L1169.77 503.941L1151.65 485.819C1151.42 485.585 1151.1 485.453 1150.77 485.453C1147.29 485.454 1143.82 485.456 1140.34 485.458C1140.34 488.932 1140.34 492.406 1140.34 495.88C1140.34 496.212 1140.47 496.53 1140.71 496.765L1158.83 514.885L1141.47 514.885C1140.78 514.885 1140.22 515.445 1140.22 516.135L1140.22 529.114C1140.22 529.804 1140.78 530.364 1141.47 530.364L1184 530.364C1184.69 530.364 1185.25 529.804 1185.25 529.114L1185.25 514.885L1185.25 514.887Z" fill="#132A4C"/>
<path d="M1185.25 514.887L1185.25 486.583C1185.25 485.892 1184.69 485.333 1184 485.333L1171.02 485.333C1170.33 485.333 1169.77 485.892 1169.77 486.583L1169.77 503.941L1151.65 485.819C1151.42 485.585 1151.1 485.453 1150.77 485.453C1147.29 485.454 1143.82 485.456 1140.34 485.458C1140.34 488.932 1140.34 492.406 1140.34 495.88C1140.34 496.212 1140.47 496.53 1140.71 496.765L1158.83 514.885L1141.47 514.885C1140.78 514.885 1140.22 515.445 1140.22 516.135L1140.22 529.114C1140.22 529.804 1140.78 530.364 1141.47 530.364L1184 530.364C1184.69 530.364 1185.25 529.804 1185.25 529.114L1185.25 514.885L1185.25 514.887Z" fill="black" fill-opacity="0.2"/>
<path d="M1140.22 395.27L1140.22 350.239L1183.75 350.239C1184.57 350.239 1185.25 350.914 1185.22 351.742C1184.43 375.916 1164.58 395.27 1140.22 395.27Z" fill="#132A4C"/>
<path d="M1140.22 395.27L1140.22 350.239L1183.75 350.239C1184.57 350.239 1185.25 350.914 1185.22 351.742C1184.43 375.916 1164.58 395.27 1140.22 395.27Z" fill="black" fill-opacity="0.2"/>
<path d="M1140.21 395.27C1115.85 395.27 1096 414.625 1095.21 438.799C1095.18 439.627 1095.86 440.302 1096.68 440.302L1138.71 440.302C1139.54 440.302 1140.21 439.63 1140.21 438.802L1140.21 395.27Z" fill="#D6DCE5"/>
<path d="M1096.68 395.27C1095.86 395.27 1095.18 394.599 1095.18 393.77L1095.18 351.739C1095.18 350.911 1095.86 350.239 1096.68 350.239L1140.21 350.239L1140.21 395.27L1096.68 395.27Z" fill="#132A4C"/>
<path d="M1096.68 395.27C1095.86 395.27 1095.18 394.599 1095.18 393.77L1095.18 351.739C1095.18 350.911 1095.86 350.239 1096.68 350.239L1140.21 350.239L1140.21 395.27L1096.68 395.27Z" fill="black" fill-opacity="0.2"/>
<path d="M1140.22 440.301L1140.22 395.27L1183.75 395.27C1184.57 395.27 1185.25 395.942 1185.25 396.77L1185.25 438.801C1185.25 439.63 1184.57 440.301 1183.75 440.301L1140.22 440.301Z" fill="#D6DCE5"/>
<path d="M914.394 530.388C915.222 530.361 915.896 531.035 915.896 531.864L915.896 575.395L870.865 575.395C870.865 551.028 890.22 531.181 914.394 530.388Z" fill="#FBFBFB"/>
<path d="M870.865 575.395C870.865 551.028 851.511 531.181 827.337 530.388C826.509 530.361 825.834 531.035 825.834 531.864V573.895C825.834 574.724 826.506 575.395 827.334 575.395H870.865Z" fill="#FBFBFB"/>
<path d="M870.865 575.395H915.896V618.926C915.896 619.755 915.225 620.426 914.396 620.426H870.865V575.395Z" fill="#FBFBFB"/>
<path d="M825.834 575.395H870.865V620.426H827.334C826.506 620.426 825.834 619.755 825.834 618.926V575.395Z" fill="#FBFBFB"/>
</g>
<defs>
<clipPath id="clip0_19_1539">
<rect width="1442" height="900" fill="white"/>
</clipPath>
</defs>
</svg>
