<svg width="20" height="20" viewBox="0 0 20 20" fill="none" xmlns="http://www.w3.org/2000/svg">
<path d="M6.58988 2.05246C6.77337 1.99129 7.06119 1.91934 7.23029 1.89055C7.43537 1.85817 7.7304 1.84738 8.11177 1.85817C8.5579 1.86897 8.77377 1.89055 9.0652 1.95891C9.27388 2.00928 9.59049 2.10283 9.76678 2.16759C9.94668 2.23595 10.2165 2.36187 10.3748 2.45182C10.5295 2.54177 10.7886 2.71806 10.9469 2.84758C11.1052 2.97711 11.3354 3.19298 11.4542 3.33329C11.5729 3.47361 11.7384 3.68948 11.8212 3.81901C11.9039 3.94853 12.0406 4.18959 12.1198 4.35868C12.2025 4.52778 12.3105 4.79402 12.3572 4.95233C12.404 5.11064 12.4688 5.38767 12.5012 5.56397C12.5299 5.74026 12.5551 6.08206 12.5551 6.31952C12.5551 6.55698 12.5299 6.90237 12.5012 7.08226C12.4724 7.26575 12.404 7.54998 12.3536 7.71189C12.2997 7.87739 12.2025 8.13284 12.1342 8.28035C12.0658 8.42786 11.9219 8.68691 11.8104 8.85601C11.6844 9.05029 11.465 9.30934 11.2095 9.55759C10.9865 9.77706 10.7382 9.99293 10.6555 10.0433C10.5727 10.0937 10.5043 10.1404 10.5043 10.1512C10.5043 10.162 10.6123 10.2088 10.7454 10.2556C10.8821 10.3023 11.1592 10.4175 11.3678 10.5074C11.5765 10.601 11.9147 10.7773 12.1234 10.8996C12.3321 11.0219 12.6343 11.2306 13.0948 11.5904L12.9761 11.6048C12.9149 11.6156 12.7314 11.6371 12.5731 11.6587C12.4148 11.6839 12.1306 11.7523 11.9435 11.817C11.7564 11.8818 11.4794 12.0005 11.3319 12.0869C11.1843 12.1696 10.9325 12.3495 10.7742 12.4826C10.6159 12.6158 10.382 12.864 10.2561 13.0295C10.1302 13.1986 9.94668 13.4972 9.85313 13.6951C9.75599 13.893 9.64446 14.1916 9.60488 14.3607C9.55811 14.5478 9.51853 14.8392 9.50774 15.1163C9.49694 15.3969 9.50414 15.6667 9.53292 15.8358C9.55811 15.9834 9.61567 16.2352 9.66604 16.3935C9.71641 16.5518 9.80636 16.7785 9.86392 16.8972C9.92509 17.0159 10.0582 17.2318 10.1589 17.3793C10.2597 17.5268 10.4792 17.7751 10.6483 17.937C10.8174 18.0989 11.0908 18.3148 11.2599 18.4191C11.429 18.5234 11.6952 18.6566 11.8535 18.7177C12.0118 18.7789 12.2961 18.8616 12.4832 18.9012C12.6703 18.9408 12.8322 18.9768 12.843 18.984C12.8537 18.9912 12.7314 19.0128 12.5731 19.0343C12.4148 19.0559 12.0982 19.0883 11.8715 19.1099C11.6233 19.1315 9.45377 19.1459 6.40279 19.1459C1.95583 19.1459 1.32261 19.1387 1.13193 19.0919C1.0132 19.0595 0.829706 18.984 0.72177 18.9192C0.617432 18.8545 0.466322 18.7321 0.383571 18.6422C0.304419 18.5522 0.189287 18.3759 0.131721 18.2464C0.041775 18.0557 0.01659 17.955 0.00579643 17.7067C-0.00499714 17.5196 0.0129921 17.2606 0.0489707 17.0411C0.0849493 16.8432 0.153309 16.4943 0.203679 16.2676C0.254049 16.0409 0.351191 15.6847 0.41955 15.4761C0.491507 15.2674 0.628226 14.9112 0.725368 14.6845C0.82251 14.4579 0.984414 14.1269 1.08515 13.947C1.18589 13.7671 1.36219 13.4864 1.47372 13.3173C1.58526 13.1482 1.78314 12.882 1.90906 12.7237C2.03499 12.5654 2.28324 12.2884 2.46313 12.1121C2.63943 11.9322 2.91646 11.6839 3.07477 11.5544C3.23307 11.4285 3.5317 11.2126 3.74037 11.0759C3.94905 10.9392 4.29444 10.7377 4.51391 10.6262C4.73338 10.5182 5.07158 10.3671 5.62925 10.162L5.39539 10.0037C5.26586 9.91737 5.04999 9.74108 4.91327 9.61156C4.77655 9.48203 4.57507 9.25537 4.46354 9.10786C4.35201 8.96034 4.18291 8.7013 4.08936 8.5322C3.99942 8.3631 3.87349 8.08966 3.81233 7.92056C3.74757 7.75146 3.66842 7.48522 3.62884 7.32692C3.58566 7.15062 3.54969 6.8448 3.53529 6.53539C3.5173 6.14682 3.5281 5.94534 3.57487 5.65391C3.61085 5.44524 3.6936 5.10704 3.76196 4.89836C3.83392 4.68969 3.96344 4.37667 4.05698 4.20038C4.15053 4.02768 4.32682 3.75065 4.44555 3.58874C4.56788 3.43044 4.78735 3.18218 4.93126 3.04547C5.07877 2.90515 5.31983 2.70727 5.46734 2.61013C5.61486 2.50939 5.85591 2.36547 5.99983 2.29351C6.14014 2.22156 6.40998 2.11362 6.58988 2.05246Z" fill="#AEBBCE"/>
<path d="M16.2177 10.2448C16.2717 10.1872 16.3796 10.1117 16.4588 10.0757C16.538 10.0397 16.6855 10.0073 16.7826 10.0073C16.9025 10.0073 17.0225 10.0361 17.1424 10.0937C17.2827 10.162 17.6101 10.475 18.6031 11.4896C19.7292 12.641 19.8876 12.8172 19.9415 12.9756C19.9775 13.0727 20.0027 13.2526 20.0027 13.3713C20.0027 13.49 19.9775 13.6663 19.9451 13.7671C19.8912 13.929 19.7508 14.0837 18.5671 15.271C17.8116 16.0301 17.1964 16.6166 17.1244 16.6526C17.056 16.6849 16.9409 16.7173 16.8726 16.7281C16.8042 16.7389 16.6747 16.7281 16.5847 16.7029C16.4948 16.6813 16.3653 16.6166 16.2969 16.5626C16.2285 16.505 16.135 16.3899 16.0918 16.3C16.0343 16.192 16.0091 16.0769 16.0091 15.933C16.0091 15.8179 16.0343 15.6703 16.0702 15.5912C16.1062 15.5156 16.3976 15.1882 17.3942 14.1808H15.1528C13.0192 14.1808 12.9077 14.1844 12.7242 14.2528C12.6235 14.2888 12.4652 14.3823 12.3788 14.4579C12.2853 14.5406 12.1809 14.6845 12.1126 14.8284C12.019 15.0191 11.9975 15.1055 12.0011 15.2962C12.0011 15.4689 12.0262 15.584 12.091 15.7279C12.1414 15.8358 12.2457 15.9906 12.3249 16.0661C12.4004 16.1453 12.5551 16.2496 12.6631 16.3C12.8322 16.3755 12.9365 16.3935 13.3467 16.4115C13.7244 16.4295 13.8647 16.4475 13.9727 16.5015C14.0518 16.541 14.1526 16.6238 14.2029 16.6813C14.2533 16.7389 14.3145 16.8432 14.3433 16.9044C14.3684 16.9692 14.39 17.1023 14.39 17.203C14.39 17.3002 14.3648 17.4441 14.3325 17.516C14.3037 17.5916 14.2353 17.6995 14.1814 17.7535C14.1274 17.8111 14.0195 17.8938 13.9403 17.9334C13.8108 18.0054 13.7424 18.0126 13.2387 18.0126C12.8178 18.009 12.6235 17.9946 12.4472 17.9478C12.3177 17.9118 12.0766 17.8147 11.9075 17.7319C11.6916 17.624 11.5225 17.5017 11.3175 17.311C11.1592 17.1635 10.9577 16.9296 10.8677 16.7893C10.7742 16.649 10.6591 16.4331 10.6051 16.3036C10.5547 16.174 10.4864 15.9438 10.454 15.7891C10.4216 15.638 10.3964 15.4077 10.3964 15.2782C10.3964 15.1487 10.418 14.9256 10.4468 14.7817C10.4756 14.6414 10.5331 14.4255 10.5763 14.3068C10.6231 14.188 10.6986 14.0189 10.749 13.929C10.7994 13.839 10.9181 13.6699 11.008 13.5512C11.1016 13.4325 11.2815 13.2526 11.4074 13.1518C11.5333 13.0511 11.7096 12.9252 11.7996 12.8748C11.8895 12.8244 12.091 12.7381 12.5371 12.5798L17.4302 12.5618L16.779 11.9034C16.4192 11.5436 16.099 11.1946 16.0666 11.1299C16.0343 11.0651 16.0091 10.9284 16.0091 10.8168C16.0091 10.7089 16.0343 10.5578 16.0666 10.4822C16.0954 10.4103 16.1638 10.3023 16.2177 10.2448Z" fill="#AEBBCE"/>
</svg>
