<svg width="720" height="819" viewBox="0 0 720 819" fill="none" xmlns="http://www.w3.org/2000/svg">
<path d="M360.208 539.248H533.957C537.271 539.248 539.957 541.934 539.957 545.248V725.624C440.685 725.624 360.208 642.179 360.208 539.248Z" fill="#132A4C"/>
<path d="M360.208 539.248H533.957C537.271 539.248 539.957 541.934 539.957 545.248V725.624C440.685 725.624 360.208 642.179 360.208 539.248Z" fill="black" fill-opacity="0.2"/>
<path d="M539.957 725.624V906C539.957 909.314 537.271 912 533.957 912H360.208C360.208 809.069 440.685 725.624 539.957 725.624Z" fill="#132A4C"/>
<path d="M539.957 725.624V906C539.957 909.314 537.271 912 533.957 912H360.208C360.208 809.069 440.685 725.624 539.957 725.624Z" fill="black" fill-opacity="0.2"/>
<path d="M360.207 539.248C360.207 642.179 279.73 725.624 180.458 725.624V545.248C180.458 541.934 183.144 539.248 186.458 539.248H360.207Z" fill="#132A4C"/>
<path d="M360.207 539.248C360.207 642.179 279.73 725.624 180.458 725.624V545.248C180.458 541.934 183.144 539.248 186.458 539.248H360.207Z" fill="black" fill-opacity="0.2"/>
<path d="M360.208 912C360.208 809.069 279.73 725.624 180.458 725.624V906C180.458 909.314 183.145 912 186.458 912H360.208Z" fill="#132A4C"/>
<path d="M360.208 912C360.208 809.069 279.73 725.624 180.458 725.624V906C180.458 909.314 183.145 912 186.458 912H360.208Z" fill="black" fill-opacity="0.2"/>
<path d="M225.271 404.528H268.708C269.537 404.528 270.208 405.2 270.208 406.028V447.966C270.208 448.794 269.533 449.468 268.705 449.441C244.583 448.648 225.271 428.843 225.271 404.528Z" fill="#132A4C"/>
<path d="M225.271 404.528H268.708C269.537 404.528 270.208 405.2 270.208 406.028V447.966C270.208 448.794 269.533 449.468 268.705 449.441C244.583 448.648 225.271 428.843 225.271 404.528Z" fill="black" fill-opacity="0.2"/>
<path d="M225.396 404.186V447.623C225.396 448.452 224.724 449.123 223.896 449.123H181.958C181.13 449.123 180.456 448.449 180.483 447.621C181.276 423.498 201.081 404.186 225.396 404.186Z" fill="#FBFBFB"/>
<path d="M268.708 359.591C269.537 359.591 270.211 360.266 270.184 361.094C269.391 385.216 249.586 404.528 225.271 404.528V361.091C225.271 360.263 225.943 359.591 226.771 359.591H268.708Z" fill="#FBFBFB"/>
<path d="M180.458 360.999C180.458 360.17 181.133 359.496 181.961 359.523C206.083 360.316 225.395 380.121 225.395 404.436H181.958C181.13 404.436 180.458 403.764 180.458 402.936V360.999Z" fill="#D6DCE5"/>
<path d="M285.312 29.9582C293.584 29.9582 300.291 23.2518 300.291 14.9791C300.291 6.70637 293.584 0 285.312 0C277.039 0 270.333 6.70637 270.333 14.9791C270.333 23.2518 277.039 29.9582 285.312 29.9582Z" fill="#D6DCE5"/>
<path d="M345.228 29.9582C353.5 29.9582 360.207 23.2518 360.207 14.9791C360.207 6.70637 353.5 0 345.228 0C336.955 0 330.249 6.70637 330.249 14.9791C330.249 23.2518 336.955 29.9582 345.228 29.9582Z" fill="#FBFBFB"/>
<path d="M315.27 29.9582C323.543 29.9582 330.249 23.2518 330.249 14.9791C330.249 6.70637 323.543 0 315.27 0C306.997 0 300.291 6.70637 300.291 14.9791C300.291 23.2518 306.997 29.9582 315.27 29.9582Z" fill="#FBFBFB"/>
<path d="M285.312 59.7592C293.585 59.7592 300.291 53.0529 300.291 44.7801C300.291 36.5074 293.585 29.801 285.312 29.801C277.039 29.801 270.333 36.5074 270.333 44.7801C270.333 53.0529 277.039 59.7592 285.312 59.7592Z" fill="#FBFBFB"/>
<path d="M345.228 59.7592C353.501 59.7592 360.207 53.0529 360.207 44.7801C360.207 36.5074 353.501 29.801 345.228 29.801C336.955 29.801 330.249 36.5074 330.249 44.7801C330.249 53.0529 336.955 59.7592 345.228 59.7592Z" fill="#132A4C"/>
<path d="M345.228 59.7592C353.501 59.7592 360.207 53.0529 360.207 44.7801C360.207 36.5074 353.501 29.801 345.228 29.801C336.955 29.801 330.249 36.5074 330.249 44.7801C330.249 53.0529 336.955 59.7592 345.228 59.7592Z" fill="black" fill-opacity="0.2"/>
<path d="M315.27 59.7592C323.543 59.7592 330.249 53.0529 330.249 44.7801C330.249 36.5074 323.543 29.801 315.27 29.801C306.997 29.801 300.291 36.5074 300.291 44.7801C300.291 53.0529 306.997 59.7592 315.27 59.7592Z" fill="#D6DCE5"/>
<path d="M285.312 89.7175C293.585 89.7175 300.291 83.0111 300.291 74.7384C300.291 66.4657 293.585 59.7593 285.312 59.7593C277.039 59.7593 270.333 66.4657 270.333 74.7384C270.333 83.0111 277.039 89.7175 285.312 89.7175Z" fill="#132A4C"/>
<path d="M285.312 89.7175C293.585 89.7175 300.291 83.0111 300.291 74.7384C300.291 66.4657 293.585 59.7593 285.312 59.7593C277.039 59.7593 270.333 66.4657 270.333 74.7384C270.333 83.0111 277.039 89.7175 285.312 89.7175Z" fill="black" fill-opacity="0.2"/>
<path d="M345.228 89.7175C353.5 89.7175 360.207 83.0111 360.207 74.7384C360.207 66.4657 353.5 59.7593 345.228 59.7593C336.955 59.7593 330.249 66.4657 330.249 74.7384C330.249 83.0111 336.955 89.7175 345.228 89.7175Z" fill="#FBFBFB"/>
<path d="M315.27 89.7175C323.543 89.7175 330.249 83.0111 330.249 74.7384C330.249 66.4657 323.543 59.7593 315.27 59.7593C306.997 59.7593 300.291 66.4657 300.291 74.7384C300.291 83.0111 306.997 89.7175 315.27 89.7175Z" fill="#FBFBFB"/>
<path d="M315.27 314.561C339.585 314.561 359.39 333.874 360.183 357.996C360.21 358.824 359.536 359.499 358.707 359.499H271.833C271.004 359.499 270.33 358.824 270.357 357.996C271.15 333.874 290.955 314.561 315.27 314.561Z" fill="#132A4C"/>
<path d="M315.27 314.561C339.585 314.561 359.39 333.874 360.183 357.996C360.21 358.824 359.536 359.499 358.707 359.499H271.833C271.004 359.499 270.33 358.824 270.357 357.996C271.15 333.874 290.955 314.561 315.27 314.561Z" fill="black" fill-opacity="0.2"/>
<path d="M315.27 314.561C339.585 314.561 359.39 295.249 360.183 271.127C360.21 270.299 359.536 269.624 358.707 269.624H271.833C271.004 269.624 270.33 270.299 270.357 271.127C271.15 295.249 290.955 314.561 315.27 314.561Z" fill="#132A4C"/>
<path d="M315.27 314.561C339.585 314.561 359.39 295.249 360.183 271.127C360.21 270.299 359.536 269.624 358.707 269.624H271.833C271.004 269.624 270.33 270.299 270.357 271.127C271.15 295.249 290.955 314.561 315.27 314.561Z" fill="black" fill-opacity="0.2"/>
<path d="M292.801 494.311C305.211 494.311 315.27 484.251 315.27 471.842C315.27 459.433 305.211 449.373 292.801 449.373C280.392 449.373 270.333 459.433 270.333 471.842C270.333 484.251 280.392 494.311 292.801 494.311Z" fill="#132A4C"/>
<path d="M292.801 494.311C305.211 494.311 315.27 484.251 315.27 471.842C315.27 459.433 305.211 449.373 292.801 449.373C280.392 449.373 270.333 459.433 270.333 471.842C270.333 484.251 280.392 494.311 292.801 494.311Z" fill="black" fill-opacity="0.2"/>
<path d="M337.739 494.311C350.148 494.311 360.208 484.251 360.208 471.842C360.208 459.433 350.148 449.373 337.739 449.373C325.33 449.373 315.271 459.433 315.271 471.842C315.271 484.251 325.33 494.311 337.739 494.311Z" fill="#FBFBFB"/>
<path d="M292.801 539.248C305.211 539.248 315.27 529.188 315.27 516.779C315.27 504.37 305.211 494.311 292.801 494.311C280.392 494.311 270.333 504.37 270.333 516.779C270.333 529.188 280.392 539.248 292.801 539.248Z" fill="#FBFBFB"/>
<path d="M337.739 539.248C350.148 539.248 360.208 529.188 360.208 516.779C360.208 504.37 350.148 494.311 337.739 494.311C325.33 494.311 315.271 504.37 315.271 516.779C315.271 529.188 325.33 539.248 337.739 539.248Z" fill="#132A4C"/>
<path d="M337.739 539.248C350.148 539.248 360.208 529.188 360.208 516.779C360.208 504.37 350.148 494.311 337.739 494.311C325.33 494.311 315.271 504.37 315.271 516.779C315.271 529.188 325.33 539.248 337.739 539.248Z" fill="black" fill-opacity="0.2"/>
<path d="M602.542 125.173H594.533V117.164C594.533 102.093 582.315 89.8746 567.244 89.8746C552.172 89.8746 539.957 102.093 539.957 117.162V178.249C539.957 179.078 540.629 179.749 541.457 179.749H602.542C617.614 179.749 629.829 167.531 629.829 152.46C629.829 137.388 617.611 125.17 602.542 125.17V125.173Z" fill="#132A4C"/>
<path d="M602.542 125.173H594.533V117.164C594.533 102.093 582.315 89.8746 567.244 89.8746C552.172 89.8746 539.957 102.093 539.957 117.162V178.249C539.957 179.078 540.629 179.749 541.457 179.749H602.542C617.614 179.749 629.829 167.531 629.829 152.46C629.829 137.388 617.611 125.17 602.542 125.17V125.173Z" fill="black" fill-opacity="0.2"/>
<path d="M93.7327 388.975C92.6788 388.036 93.3871 386.294 94.7972 386.357L116.596 387.327C117.484 387.366 118.211 386.629 118.16 385.742L116.903 363.956C116.822 362.547 118.554 361.816 119.507 362.857L134.238 378.957C134.838 379.613 135.873 379.606 136.465 378.942L150.979 362.648C151.918 361.594 153.66 362.302 153.598 363.713L152.629 385.511C152.59 386.399 153.327 387.127 154.214 387.076L176 385.819C177.409 385.737 178.14 387.47 177.099 388.423L160.999 403.153C160.344 403.753 160.35 404.789 161.014 405.38L177.308 419.895C178.362 420.833 177.654 422.576 176.244 422.513L154.442 421.545C153.554 421.505 152.827 422.242 152.878 423.13L154.137 444.915C154.219 446.324 152.486 447.056 151.533 446.014L136.803 429.915C136.203 429.259 135.167 429.266 134.576 429.93L120.059 446.224C119.121 447.277 117.378 446.569 117.441 445.159L118.411 423.358C118.451 422.47 117.714 421.743 116.826 421.794L95.0411 423.053C93.632 423.134 92.9006 421.401 93.942 420.449L110.041 405.718C110.697 405.118 110.69 404.083 110.027 403.492L93.7327 388.975Z" fill="#132A4C"/>
<path d="M93.7327 388.975C92.6788 388.036 93.3871 386.294 94.7972 386.357L116.596 387.327C117.484 387.366 118.211 386.629 118.16 385.742L116.903 363.956C116.822 362.547 118.554 361.816 119.507 362.857L134.238 378.957C134.838 379.613 135.873 379.606 136.465 378.942L150.979 362.648C151.918 361.594 153.66 362.302 153.598 363.713L152.629 385.511C152.59 386.399 153.327 387.127 154.214 387.076L176 385.819C177.409 385.737 178.14 387.47 177.099 388.423L160.999 403.153C160.344 403.753 160.35 404.789 161.014 405.38L177.308 419.895C178.362 420.833 177.654 422.576 176.244 422.513L154.442 421.545C153.554 421.505 152.827 422.242 152.878 423.13L154.137 444.915C154.219 446.324 152.486 447.056 151.533 446.014L136.803 429.915C136.203 429.259 135.167 429.266 134.576 429.93L120.059 446.224C119.121 447.277 117.378 446.569 117.441 445.159L118.411 423.358C118.451 422.47 117.714 421.743 116.826 421.794L95.0411 423.053C93.632 423.134 92.9006 421.401 93.942 420.449L110.041 405.718C110.697 405.118 110.69 404.083 110.027 403.492L93.7327 388.975Z" fill="black" fill-opacity="0.2"/>
<path d="M158.501 230.629C161.831 234.032 165.069 237.324 168.29 240.632C171.882 244.325 175.475 248.017 179.037 251.737C180.967 253.752 180.929 254.573 178.94 256.57C175.073 260.445 171.198 264.309 167.326 268.179C165.845 269.657 164.527 269.677 163.064 268.196C157.719 262.784 152.397 257.349 147.039 251.949C145.454 250.351 143.776 248.843 141.961 247.123C139.507 250.187 137.066 253.215 134.646 256.261C133.773 257.362 132.929 258.485 132.12 259.633C131.381 260.682 130.517 261.453 129.137 261.244C127.828 261.046 127.134 260.153 126.775 258.964C125.851 255.906 124.932 252.848 124.036 249.782C121.452 240.964 118.846 232.152 116.315 223.319C114.4 216.638 112.582 209.928 110.737 203.227C110.58 202.655 110.448 202.036 110.495 201.457C110.667 199.347 112.378 198.207 114.579 198.823C123.083 201.202 131.591 203.569 140.061 206.058C150.409 209.099 160.723 212.254 171.051 215.368C171.47 215.495 171.902 215.637 172.269 215.867C173.849 216.853 173.777 218.563 172.062 219.929C169.735 221.779 167.363 223.574 165.029 225.414C162.89 227.099 160.77 228.811 158.503 230.624L158.501 230.629Z" fill="#132A4C"/>
<path d="M158.501 230.629C161.831 234.032 165.069 237.324 168.29 240.632C171.882 244.325 175.475 248.017 179.037 251.737C180.967 253.752 180.929 254.573 178.94 256.57C175.073 260.445 171.198 264.309 167.326 268.179C165.845 269.657 164.527 269.677 163.064 268.196C157.719 262.784 152.397 257.349 147.039 251.949C145.454 250.351 143.776 248.843 141.961 247.123C139.507 250.187 137.066 253.215 134.646 256.261C133.773 257.362 132.929 258.485 132.12 259.633C131.381 260.682 130.517 261.453 129.137 261.244C127.828 261.046 127.134 260.153 126.775 258.964C125.851 255.906 124.932 252.848 124.036 249.782C121.452 240.964 118.846 232.152 116.315 223.319C114.4 216.638 112.582 209.928 110.737 203.227C110.58 202.655 110.448 202.036 110.495 201.457C110.667 199.347 112.378 198.207 114.579 198.823C123.083 201.202 131.591 203.569 140.061 206.058C150.409 209.099 160.723 212.254 171.051 215.368C171.47 215.495 171.902 215.637 172.269 215.867C173.849 216.853 173.777 218.563 172.062 219.929C169.735 221.779 167.363 223.574 165.029 225.414C162.89 227.099 160.77 228.811 158.503 230.624L158.501 230.629Z" fill="black" fill-opacity="0.2"/>
<path d="M103.716 189.771C103.734 191.291 103.27 192.212 102.049 192.839C100.998 193.378 99.5922 193.204 98.7284 192.312C96.2693 189.783 93.8278 187.242 91.4236 184.665C90.2428 183.4 90.3326 181.572 91.526 180.464C92.6269 179.44 94.4868 179.515 95.6477 180.696C97.9545 183.035 100.251 185.382 102.498 187.779C103.02 188.335 103.315 189.102 103.716 189.771Z" fill="#FBFBFB"/>
<path d="M116.037 191.885C114.012 191.918 112.729 190.215 113.301 188.233C113.91 186.123 114.516 184.014 115.166 181.917C115.59 180.549 116.631 179.755 117.872 179.75C119.175 179.745 120.318 180.601 120.678 181.959C120.793 182.393 120.773 182.92 120.645 183.352C119.999 185.534 119.32 187.706 118.603 189.866C118.186 191.126 117.185 191.865 116.037 191.885Z" fill="#FBFBFB"/>
<path d="M91.4841 209.426C90.1085 207.94 90.5204 205.848 92.3804 204.952C94.3576 203.998 96.3348 203.042 98.3296 202.126C99.6327 201.529 100.916 201.774 101.747 202.695C102.621 203.661 102.746 205.084 101.972 206.26C101.725 206.635 101.32 206.972 100.911 207.166C98.8538 208.14 96.7842 209.084 94.6971 209.99C93.4788 210.519 92.2605 210.267 91.4816 209.426H91.4841Z" fill="#FBFBFB"/>
<path d="M523.154 539.248C532.546 539.248 540.16 531.634 540.16 522.242C540.16 512.849 532.546 505.235 523.154 505.235C513.761 505.235 506.147 512.849 506.147 522.242C506.147 531.634 513.761 539.248 523.154 539.248Z" fill="#FBFBFB"/>
<path d="M467.089 483.386C476.482 483.386 484.096 475.772 484.096 466.379C484.096 456.987 476.482 449.373 467.089 449.373C457.697 449.373 450.083 456.987 450.083 466.379C450.083 475.772 457.697 483.386 467.089 483.386Z" fill="#FBFBFB"/>
<path d="M538.86 470.398L519.137 450.675C518.552 450.089 517.602 450.089 517.016 450.675L451.588 516.103C451.002 516.689 451.002 517.639 451.588 518.224L471.31 537.947C471.896 538.533 472.846 538.533 473.432 537.947L538.86 472.519C539.446 471.933 539.446 470.983 538.86 470.398Z" fill="#FBFBFB"/>
<path d="M629.617 290.551V270.798C629.617 269.938 628.922 269.239 628.065 269.239H599.662C599.206 269.239 598.771 269.442 598.476 269.791L570.967 302.46V270.798C570.967 269.937 570.272 269.239 569.415 269.239H541.798C540.941 269.239 540.246 269.937 540.246 270.798V357.477C540.246 358.339 540.941 359.037 541.798 359.037H569.416C570.274 359.037 570.969 358.339 570.969 357.477V309.392L597.643 346.197L587.614 356.38C586.642 357.364 587.339 359.035 588.716 359.035H628.065C628.921 359.035 629.616 358.337 629.616 357.476V317.95C629.616 316.562 627.953 315.867 626.973 316.843L614.719 329.065L585.003 305.665L628.532 292.036C629.181 291.834 629.621 291.232 629.621 290.55L629.617 290.551Z" fill="#FBFBFB"/>
<path d="M437.137 365.266C429.455 357.576 417 357.576 409.318 365.266L405.237 369.352L401.155 365.266C393.473 357.576 381.018 357.576 373.336 365.266C365.654 372.955 365.654 385.42 373.336 393.107L377.418 397.194L389.376 409.162L401.155 420.95L404.175 423.975C404.761 424.561 405.712 424.561 406.298 423.975L409.318 420.95L425.184 405.073L433.055 397.196L437.137 393.109C444.819 385.42 444.819 372.955 437.137 365.268V365.266Z" fill="#132A4C"/>
<path d="M437.137 365.266C429.455 357.576 417 357.576 409.318 365.266L405.237 369.352L401.155 365.266C393.473 357.576 381.018 357.576 373.336 365.266C365.654 372.955 365.654 385.42 373.336 393.107L377.418 397.194L389.376 409.162L401.155 420.95L404.175 423.975C404.761 424.561 405.712 424.561 406.298 423.975L409.318 420.95L425.184 405.073L433.055 397.196L437.137 393.109C444.819 385.42 444.819 372.955 437.137 365.268V365.266Z" fill="black" fill-opacity="0.2"/>
<path d="M388.544 449.437C388.544 449.437 388.544 449.436 388.544 449.436C385.165 449.436 381.786 449.441 378.407 449.433C377.146 449.431 377.054 449.408 377.153 448.13C377.378 445.187 376.082 442.917 374.123 440.927C371.781 438.548 369.409 436.197 367.055 433.83C363.253 430.005 360.854 425.484 360.262 420.072C360.212 419.605 360.21 419.13 360.207 418.661C360.207 411.469 360.207 404.274 360.207 397.081C360.207 395.391 360.364 395.296 362.067 395.553C364.301 395.89 366.249 396.777 367.789 398.444C369.282 400.059 369.916 402.047 369.946 404.204C369.993 407.586 369.973 410.969 369.961 414.352C369.956 415.942 370.128 417.51 370.503 419.053C370.812 420.321 371.439 421.435 372.315 422.406C375.184 425.584 378.272 428.547 381.27 431.603C381.42 431.755 381.572 431.91 381.749 432.027C382.154 432.294 382.553 432.277 382.923 431.945C383.3 431.605 383.35 431.206 383.07 430.797C382.855 430.482 382.608 430.18 382.341 429.908C380.451 427.983 378.544 426.078 376.664 424.146C375.621 423.075 374.589 421.986 373.596 420.865C371.823 418.866 372.135 415.381 374.215 413.713C374.832 413.219 375.523 412.929 376.337 412.927C378.219 412.919 379.867 413.496 381.21 414.841C386.108 419.747 391.014 424.648 395.897 429.571C397.637 431.323 398.521 433.545 399.193 435.872C399.719 437.694 399.887 439.569 399.942 441.449C400.009 443.674 399.964 445.901 399.957 448.127C399.952 449.418 399.942 449.433 398.681 449.438C395.302 449.446 391.923 449.441 388.544 449.438C388.543 449.438 388.543 449.437 388.544 449.437V449.437Z" fill="#FBFBFB"/>
<path d="M450.078 408.384C450.079 408.384 450.079 408.384 450.079 408.385C450.079 411.809 450.064 415.234 450.082 418.658C450.112 424.123 448.087 428.757 444.357 432.656C441.696 435.44 438.927 438.121 436.221 440.86C434.821 442.278 433.675 443.853 433.24 445.858C433.066 446.667 433.128 447.476 433.111 448.287C433.088 449.403 433.083 449.418 431.937 449.431C430.781 449.445 429.628 449.436 428.472 449.436C423.04 449.436 417.605 449.436 412.172 449.436C411.83 449.436 411.488 449.428 411.146 449.421C410.722 449.413 410.537 449.173 410.53 448.769C410.525 448.512 410.517 448.255 410.517 447.998C410.517 445.429 410.465 442.857 410.53 440.291C410.644 435.847 412.085 431.907 415.25 428.704C418.379 425.539 421.472 422.331 424.715 419.285C426.46 417.645 427.928 415.733 429.84 414.262C431.046 413.336 432.424 412.911 433.884 412.827C435.55 412.727 437.182 414 437.724 415.695C438.413 417.845 437.974 419.749 436.383 421.367C434.404 423.382 432.404 425.377 430.429 427.396C429.443 428.405 428.485 429.443 427.531 430.482C426.934 431.134 426.897 431.491 427.316 431.915C427.753 432.354 428.277 432.324 428.871 431.73C431.957 428.644 435.075 425.584 438.086 422.426C439.469 420.973 440.161 419.148 440.34 417.093C440.68 413.243 440.123 409.401 440.353 405.557C440.468 403.639 440.505 401.695 441.519 399.965C443.189 397.106 445.765 395.723 448.993 395.486C450.012 395.411 450.069 395.511 450.072 396.569C450.084 400.508 450.077 404.447 450.077 408.383C450.077 408.384 450.078 408.384 450.078 408.384V408.384Z" fill="#FBFBFB"/>
<path d="M652.3 90.027C664.709 90.027 674.768 79.9675 674.768 67.5584C674.768 55.1493 664.709 45.0897 652.3 45.0897C639.891 45.0897 629.831 55.1493 629.831 67.5584C629.831 79.9675 639.891 90.027 652.3 90.027Z" fill="#FBFBFB"/>
<path d="M674.768 50.929C687.178 50.929 697.237 40.8695 697.237 28.4604C697.237 16.0513 687.178 5.9917 674.768 5.9917C662.359 5.9917 652.3 16.0513 652.3 28.4604C652.3 40.8695 662.359 50.929 674.768 50.929Z" fill="#132A4C"/>
<path d="M674.768 50.929C687.178 50.929 697.237 40.8695 697.237 28.4604C697.237 16.0513 687.178 5.9917 674.768 5.9917C662.359 5.9917 652.3 16.0513 652.3 28.4604C652.3 40.8695 662.359 50.929 674.768 50.929Z" fill="black" fill-opacity="0.2"/>
<path d="M697.237 90.027C709.646 90.027 719.706 79.9675 719.706 67.5584C719.706 55.1493 709.646 45.0897 697.237 45.0897C684.828 45.0897 674.769 55.1493 674.769 67.5584C674.769 79.9675 684.828 90.027 697.237 90.027Z" fill="#D6DCE5"/>
<path d="M405.144 224.687V268.124C405.144 268.952 405.816 269.624 406.644 269.624H448.581C449.41 269.624 450.084 268.949 450.057 268.121C449.264 243.999 429.459 224.687 405.144 224.687Z" fill="#FBFBFB"/>
<path d="M405.144 224.687C380.829 224.687 361.024 205.374 360.232 181.252C360.204 180.424 360.879 179.749 361.707 179.749H403.644C404.473 179.749 405.144 180.421 405.144 181.249V224.687Z" fill="#FBFBFB"/>
<path d="M45.6459 336.531C58.055 336.531 68.1146 326.471 68.1146 314.062C68.1146 301.653 58.055 291.593 45.6459 291.593C33.2368 291.593 23.1772 301.653 23.1772 314.062C23.1772 326.471 33.2368 336.531 45.6459 336.531Z" fill="#132A4C"/>
<path d="M45.6459 336.531C58.055 336.531 68.1146 326.471 68.1146 314.062C68.1146 301.653 58.055 291.593 45.6459 291.593C33.2368 291.593 23.1772 301.653 23.1772 314.062C23.1772 326.471 33.2368 336.531 45.6459 336.531Z" fill="black" fill-opacity="0.2"/>
<path d="M0.708984 291.593V336.531C13.1192 336.531 23.1776 326.472 23.1776 314.062C23.1776 301.652 13.1192 291.593 0.708984 291.593Z" fill="#FBFBFB"/>
<path d="M90.5839 291.593V336.531C78.1737 336.531 68.1152 326.472 68.1152 314.062C68.1152 301.652 78.1737 291.593 90.5839 291.593Z" fill="#FBFBFB"/>
<path d="M378.859 539.248C389.159 539.248 397.51 530.897 397.51 520.596C397.51 510.296 389.159 501.945 378.859 501.945C368.558 501.945 360.207 510.296 360.207 520.596C360.207 530.897 368.558 539.248 378.859 539.248Z" fill="#D6DCE5"/>
<path d="M431.43 486.676C441.731 486.676 450.081 478.326 450.081 468.025C450.081 457.724 441.731 449.373 431.43 449.373C421.129 449.373 412.778 457.724 412.778 468.025C412.778 478.326 421.129 486.676 431.43 486.676Z" fill="#132A4C"/>
<path d="M431.43 486.676C441.731 486.676 450.081 478.326 450.081 468.025C450.081 457.724 441.731 449.373 431.43 449.373C421.129 449.373 412.778 457.724 412.778 468.025C412.778 478.326 421.129 486.676 431.43 486.676Z" fill="black" fill-opacity="0.2"/>
<path d="M405.144 512.962C415.445 512.962 423.795 504.611 423.795 494.31C423.795 484.009 415.445 475.659 405.144 475.659C394.843 475.659 386.492 484.009 386.492 494.31C386.492 504.611 394.843 512.962 405.144 512.962Z" fill="#FBFBFB"/>
<path d="M227.397 132.724L184.736 132.724L184.736 91.5624C184.736 90.734 185.411 90.0597 186.239 90.0884C209.104 90.8798 227.397 109.666 227.397 132.724Z" fill="#FBFBFB"/>
<path d="M270.059 132.724V173.885C270.059 174.713 269.387 175.385 268.559 175.385H227.397C227.397 151.824 246.498 132.724 270.059 132.724Z" fill="#FBFBFB"/>
<path d="M227.397 132.724C227.397 109.666 245.691 90.8798 268.556 90.0884C269.384 90.0597 270.058 90.734 270.058 91.5624L270.058 132.724L227.397 132.724Z" fill="#FBFBFB"/>
<path d="M227.397 175.385C227.397 151.824 208.297 132.724 184.736 132.724V173.885C184.736 174.713 185.408 175.385 186.236 175.385H227.397Z" fill="#FBFBFB"/>
<path d="M495.218 388.855L495.218 360.552C495.218 359.861 494.658 359.302 493.968 359.302L480.989 359.302C480.299 359.302 479.739 359.861 479.739 360.552L479.739 377.91L461.617 359.788C461.383 359.553 461.064 359.422 460.733 359.422C457.675 359.423 454.617 359.424 451.559 359.426C450.869 359.426 450.31 359.985 450.31 360.675C450.309 363.733 450.308 366.791 450.306 369.849C450.306 370.181 450.437 370.499 450.672 370.733L468.792 388.854L451.434 388.854C450.744 388.854 450.184 389.414 450.184 390.104L450.184 403.083C450.184 403.773 450.744 404.333 451.434 404.333L495.218 404.333L495.218 388.854L495.218 388.855Z" fill="#132A4C"/>
<path d="M495.218 388.855L495.218 360.552C495.218 359.861 494.658 359.302 493.968 359.302L480.989 359.302C480.299 359.302 479.739 359.861 479.739 360.552L479.739 377.91L461.617 359.788C461.383 359.553 461.064 359.422 460.733 359.422C457.675 359.423 454.617 359.424 451.559 359.426C450.869 359.426 450.31 359.985 450.31 360.675C450.309 363.733 450.308 366.791 450.306 369.849C450.306 370.181 450.437 370.499 450.672 370.733L468.792 388.854L451.434 388.854C450.744 388.854 450.184 389.414 450.184 390.104L450.184 403.083C450.184 403.773 450.744 404.333 451.434 404.333L495.218 404.333L495.218 388.854L495.218 388.855Z" fill="black" fill-opacity="0.2"/>
<path d="M540.251 433.887L540.251 405.583C540.251 404.892 539.692 404.333 539.001 404.333L526.023 404.333C525.332 404.333 524.773 404.892 524.773 405.583L524.773 422.941L506.651 404.819C506.416 404.585 506.098 404.453 505.766 404.453C502.293 404.454 498.818 404.455 495.344 404.458C495.343 407.931 495.342 411.406 495.339 414.88C495.339 415.212 495.471 415.53 495.706 415.765L513.826 433.885L496.468 433.885C495.777 433.885 495.218 434.445 495.218 435.135L495.218 448.114C495.218 448.804 495.777 449.364 496.468 449.364L539.001 449.364C539.692 449.364 540.251 448.804 540.251 448.114L540.251 433.885L540.251 433.887Z" fill="#132A4C"/>
<path d="M540.251 433.887L540.251 405.583C540.251 404.892 539.692 404.333 539.001 404.333L526.023 404.333C525.332 404.333 524.773 404.892 524.773 405.583L524.773 422.941L506.651 404.819C506.416 404.585 506.098 404.453 505.766 404.453C502.293 404.454 498.818 404.455 495.344 404.458C495.343 407.931 495.342 411.406 495.339 414.88C495.339 415.212 495.471 415.53 495.706 415.765L513.826 433.885L496.468 433.885C495.777 433.885 495.218 434.445 495.218 435.135L495.218 448.114C495.218 448.804 495.777 449.364 496.468 449.364L539.001 449.364C539.692 449.364 540.251 448.804 540.251 448.114L540.251 433.885L540.251 433.887Z" fill="black" fill-opacity="0.2"/>
<path d="M495.215 314.27L495.215 269.239L538.747 269.239C539.575 269.239 540.249 269.914 540.222 270.742C539.429 294.916 519.582 314.27 495.215 314.27Z" fill="#132A4C"/>
<path d="M495.215 314.27L495.215 269.239L538.747 269.239C539.575 269.239 540.249 269.914 540.222 270.742C539.429 294.916 519.582 314.27 495.215 314.27Z" fill="black" fill-opacity="0.2"/>
<path d="M495.215 314.27C470.848 314.27 451.001 333.625 450.208 357.799C450.181 358.627 450.855 359.302 451.684 359.302L493.715 359.302C494.543 359.302 495.215 358.63 495.215 357.802L495.215 314.27Z" fill="#D6DCE5"/>
<path d="M451.684 314.27C450.855 314.27 450.184 313.599 450.184 312.77L450.184 270.739C450.184 269.911 450.855 269.239 451.684 269.239L495.215 269.239L495.215 314.27L451.684 314.27Z" fill="#132A4C"/>
<path d="M451.684 314.27C450.855 314.27 450.184 313.599 450.184 312.77L450.184 270.739C450.184 269.911 450.855 269.239 451.684 269.239L495.215 269.239L495.215 314.27L451.684 314.27Z" fill="black" fill-opacity="0.2"/>
<path d="M495.215 359.302L495.215 314.27L538.747 314.27C539.575 314.27 540.247 314.942 540.247 315.77L540.247 357.802C540.247 358.63 539.575 359.302 538.747 359.302L495.215 359.302Z" fill="#D6DCE5"/>
<path d="M269.394 449.388C270.222 449.361 270.897 450.035 270.897 450.864L270.897 494.395L225.866 494.395C225.866 470.028 245.22 450.181 269.394 449.388Z" fill="#FBFBFB"/>
<path d="M225.865 494.395C225.865 470.028 206.511 450.181 182.337 449.388C181.509 449.361 180.834 450.035 180.834 450.864V492.895C180.834 493.724 181.506 494.395 182.334 494.395H225.865Z" fill="#FBFBFB"/>
<path d="M225.865 494.395H270.896V537.926C270.896 538.755 270.225 539.426 269.396 539.426H225.865V494.395Z" fill="#FBFBFB"/>
<path d="M180.834 494.395H225.865V539.426H182.334C181.506 539.426 180.834 538.755 180.834 537.926V494.395Z" fill="#FBFBFB"/>
</svg>
