<svg width="40" height="40" viewBox="0 0 40 40" fill="none" xmlns="http://www.w3.org/2000/svg">
<path d="M1.08609 12.8377C0.722675 12.5139 0.966919 11.9131 1.45316 11.9347L11.7438 12.3928C12.05 12.4064 12.3008 12.1522 12.2831 11.8462L11.6897 1.56182C11.6617 1.07593 12.2592 0.823788 12.5877 1.18286L19.5417 8.78307C19.7486 9.0092 20.1056 9.00682 20.3095 8.77795L27.1613 1.08612C27.4851 0.722683 28.0859 0.966877 28.0643 1.45312L27.6072 11.7438C27.5936 12.05 27.8477 12.3008 28.1537 12.2831L38.4382 11.6897C38.9241 11.6617 39.1762 12.2592 38.8171 12.5877L31.2169 19.5417C30.9908 19.7486 30.9932 20.1056 31.222 20.3095L38.9139 27.1613C39.2773 27.4851 39.0331 28.0859 38.5469 28.0643L28.2551 27.6072C27.9489 27.5936 27.6981 27.8478 27.7158 28.1538L28.3101 38.438C28.3382 38.9239 27.7407 39.1761 27.4121 38.817L20.4583 31.2169C20.2514 30.9908 19.8944 30.9931 19.6905 31.222L12.8377 38.9139C12.5139 39.2773 11.9131 39.0331 11.9347 38.5468L12.3928 28.2552C12.4064 27.949 12.1522 27.6981 11.8462 27.7158L1.56202 28.3101C1.07611 28.3382 0.823924 27.7407 1.18302 27.4121L8.7831 20.4583C9.00922 20.2514 9.00685 19.8944 8.77801 19.6905L1.08609 12.8377Z" fill="#132A4C"/>
<path d="M1.08609 12.8377C0.722675 12.5139 0.966919 11.9131 1.45316 11.9347L11.7438 12.3928C12.05 12.4064 12.3008 12.1522 12.2831 11.8462L11.6897 1.56182C11.6617 1.07593 12.2592 0.823788 12.5877 1.18286L19.5417 8.78307C19.7486 9.0092 20.1056 9.00682 20.3095 8.77795L27.1613 1.08612C27.4851 0.722683 28.0859 0.966877 28.0643 1.45312L27.6072 11.7438C27.5936 12.05 27.8477 12.3008 28.1537 12.2831L38.4382 11.6897C38.9241 11.6617 39.1762 12.2592 38.8171 12.5877L31.2169 19.5417C30.9908 19.7486 30.9932 20.1056 31.222 20.3095L38.9139 27.1613C39.2773 27.4851 39.0331 28.0859 38.5469 28.0643L28.2551 27.6072C27.9489 27.5936 27.6981 27.8478 27.7158 28.1538L28.3101 38.438C28.3382 38.9239 27.7407 39.1761 27.4121 38.817L20.4583 31.2169C20.2514 30.9908 19.8944 30.9931 19.6905 31.222L12.8377 38.9139C12.5139 39.2773 11.9131 39.0331 11.9347 38.5468L12.3928 28.2552C12.4064 27.949 12.1522 27.6981 11.8462 27.7158L1.56202 28.3101C1.07611 28.3382 0.823924 27.7407 1.18302 27.4121L8.7831 20.4583C9.00922 20.2514 9.00685 19.8944 8.77801 19.6905L1.08609 12.8377Z" fill="black" fill-opacity="0.2"/>
</svg>
