<svg width="24" height="24" viewBox="0 0 24 24" fill="none" xmlns="http://www.w3.org/2000/svg">
<path d="M17.4984 0.249832C17.552 0.213039 17.6824 0.146143 17.7828 0.106005C17.9333 0.0457991 18.0202 0.0324199 18.251 0.0424543C18.4785 0.0491439 18.5755 0.0692127 18.736 0.142798C18.8464 0.19297 19.0203 0.316728 19.1207 0.413727C19.2344 0.52076 19.3381 0.664586 19.3949 0.784999C19.4451 0.895377 19.4953 1.07265 19.5087 1.18303C19.5254 1.32686 19.512 1.44392 19.4719 1.60113C19.4384 1.72154 19.3949 1.88544 19.3715 1.96906C19.3448 2.06271 19.3414 2.15302 19.3582 2.20988C19.3749 2.2634 19.4184 2.31692 19.4552 2.33698C19.4953 2.35705 20.084 2.37043 21.0105 2.37043C21.9972 2.37043 22.5257 2.38381 22.5725 2.40723C22.616 2.42729 22.6795 2.48081 22.7163 2.53098C22.7831 2.62114 22.7832 2.6813 22.7999 11.5904L22.7999 11.6355L19.9401 11.6322L20.0037 11.4415C20.0371 11.3378 20.0739 11.107 20.084 10.9331C20.094 10.7391 20.084 10.5284 20.0606 10.3979C20.0371 10.2775 19.9669 10.0702 19.9034 9.93636C19.8331 9.78585 19.716 9.61526 19.5923 9.48482C19.4853 9.37109 19.3147 9.22727 19.2177 9.1704C19.1173 9.1102 18.9233 9.01989 18.7862 8.97306C18.5554 8.89613 18.4985 8.88944 17.6657 8.91286L17.3479 9.06672C17.1004 9.18713 16.98 9.27409 16.8027 9.45137C16.6455 9.60857 16.5351 9.75909 16.4415 9.9464C16.3679 10.0936 16.2876 10.3177 16.2609 10.4481C16.2341 10.5786 16.2107 10.7391 16.2107 10.806C16.2107 10.8763 16.2274 11.0134 16.2475 11.107C16.2709 11.204 16.3211 11.3646 16.4448 11.6355L13.5181 11.6188L13.5014 10.0133C13.4914 8.91954 13.4713 8.38772 13.4479 8.34089C13.4278 8.3041 13.3643 8.23386 13.3041 8.18034C13.2472 8.13017 13.1368 8.07331 13.0566 8.05324C12.9596 8.02648 12.8826 8.02648 12.799 8.05324C12.7355 8.06997 12.5916 8.14021 12.4813 8.2071C12.3709 8.27065 12.2204 8.34424 12.1468 8.36431C12.0732 8.38438 11.9227 8.4011 11.8123 8.4011C11.6919 8.39776 11.5514 8.37434 11.4611 8.33421C11.3775 8.29741 11.2437 8.21045 11.1667 8.13686C11.0865 8.06662 10.9828 7.93952 10.936 7.8559C10.8891 7.77228 10.8289 7.60838 10.8055 7.48797C10.7721 7.31404 10.7721 7.23042 10.8055 7.06987C10.8256 6.95949 10.8925 6.78556 10.9493 6.68522C11.0029 6.58488 11.1266 6.43771 11.2236 6.35743C11.3173 6.2805 11.4577 6.20022 11.5347 6.18016C11.6149 6.16009 11.7688 6.14336 11.8792 6.14336C12.013 6.14336 12.1401 6.17347 12.2638 6.22698C12.3642 6.27047 12.5114 6.3474 12.5883 6.39422C12.6686 6.4444 12.8024 6.49457 12.8893 6.50795C13.0265 6.52467 13.0733 6.51464 13.2071 6.44105C13.3275 6.37415 13.3843 6.31395 13.4345 6.20022C13.4981 6.0564 13.5014 5.97612 13.5014 2.37043H15.234C16.7191 2.37043 16.9733 2.36374 17.0402 2.32026C17.0803 2.2935 17.1205 2.22326 17.1339 2.15971C17.1439 2.08612 17.1238 1.97909 17.0603 1.81854C16.9833 1.62789 16.9666 1.53089 16.9666 1.28337C16.9666 1.02917 16.9767 0.952239 17.0502 0.798378C17.0971 0.698034 17.1941 0.547519 17.2677 0.467243C17.3379 0.386968 17.4449 0.289969 17.4984 0.249832Z" fill="#8FD6C1"/>
<path d="M3.5774 2.62798C3.60416 2.57112 3.66437 2.4875 3.71789 2.44402L3.81154 2.37043H12.8325V4.02611C12.8325 5.58813 12.8291 5.68178 12.7722 5.65837C12.7422 5.64834 12.6119 5.60157 12.4815 5.55477L12.4813 5.55468C12.3441 5.50785 12.1367 5.46437 11.9795 5.45434C11.7956 5.4443 11.635 5.45434 11.4611 5.49447C11.324 5.52458 11.1266 5.58813 11.0263 5.63495C10.9159 5.68847 10.7553 5.80888 10.6215 5.94268C10.4944 6.06978 10.3573 6.25374 10.2971 6.36747C10.2436 6.47784 10.17 6.65846 10.1399 6.76884C10.0931 6.92605 10.083 7.05315 10.0964 7.3709C10.1098 7.68531 10.1299 7.81576 10.1901 7.97297C10.2335 8.08335 10.3372 8.26396 10.4209 8.37434C10.5045 8.48138 10.6483 8.63189 10.742 8.70213C10.8323 8.77237 10.9928 8.87272 11.0932 8.92289C11.1935 8.97306 11.3507 9.03661 11.4444 9.06003C11.5547 9.09013 11.7253 9.09682 11.9461 9.08678C12.217 9.07341 12.3274 9.04999 12.5381 8.96303C12.7288 8.8861 12.8024 8.86937 12.8157 8.89948C12.8258 8.92289 12.8291 9.54502 12.8157 11.6188H11.1433C9.53783 11.6188 9.46759 11.6221 9.35721 11.6857C9.29366 11.7225 9.21339 11.7961 9.17325 11.8462C9.11973 11.9198 9.10301 11.9901 9.10301 12.1473C9.10301 12.3179 9.12642 12.4048 9.2368 12.639C9.35387 12.8932 9.36725 12.95 9.37059 13.1942C9.37059 13.435 9.36056 13.4852 9.25352 13.6892C9.17994 13.833 9.06621 13.9836 8.95249 14.0906C8.80532 14.2277 8.71501 14.2779 8.51767 14.3415C8.31029 14.4084 8.23002 14.4184 8.0494 14.3983C7.92898 14.3883 7.76509 14.3448 7.68147 14.308C7.59785 14.2712 7.46406 14.1843 7.38378 14.1174C7.30351 14.0471 7.20316 13.9334 7.15968 13.8598C7.1162 13.7862 7.0493 13.6357 7.01251 13.5253C6.96568 13.3882 6.94561 13.2577 6.94896 13.1072C6.95565 12.9768 6.98575 12.8162 7.03258 12.7059C7.07272 12.6055 7.12958 12.4617 7.16303 12.3881C7.20316 12.2911 7.21654 12.1974 7.20316 12.0536C7.18978 11.873 7.1764 11.8429 6.94561 11.6355H3.53392V7.18694C3.53392 3.57456 3.54061 2.71829 3.5774 2.62798Z" fill="#8FD6C1"/>
<path d="M17.5988 9.7223C17.7092 9.66878 17.8697 9.61192 17.95 9.59519C18.0336 9.57847 18.1841 9.57178 18.2845 9.58181C18.3882 9.59185 18.5521 9.63533 18.6524 9.68216C18.7561 9.72899 18.8899 9.80926 18.9534 9.85943C19.0203 9.9096 19.1207 10.0267 19.1775 10.1136C19.2344 10.2039 19.308 10.3612 19.3381 10.4615C19.3648 10.5652 19.3883 10.7425 19.3883 10.8562C19.3883 11.0167 19.3615 11.1371 19.2678 11.3746C19.1876 11.5753 19.1441 11.7459 19.1407 11.8563C19.1407 11.9867 19.1575 12.0536 19.2076 12.1239C19.2478 12.1774 19.3314 12.2476 19.3916 12.2844C19.502 12.348 19.5756 12.348 22.7999 12.3346L22.7932 16.8537C22.7832 21.2587 22.7831 21.3189 22.7163 21.4057C22.6795 21.4558 22.616 21.5127 22.5758 21.5328C22.5223 21.5562 21.1242 21.5662 13.5014 21.5662V20.0443C13.5014 19.2081 13.5148 18.5225 13.5282 18.5225C13.5416 18.5225 13.6218 18.5526 13.7021 18.586C13.7857 18.6228 13.973 18.6763 14.1202 18.7098C14.2975 18.7466 14.458 18.7566 14.5885 18.7432C14.6989 18.7298 14.8694 18.6997 14.9664 18.673C15.0634 18.6462 15.2441 18.5693 15.3678 18.499C15.4916 18.4321 15.6755 18.2917 15.7759 18.1913C15.8796 18.0876 16.0167 17.9003 16.0836 17.7699C16.1505 17.6428 16.2408 17.4086 16.2809 17.2514C16.3378 17.0307 16.3478 16.9103 16.3345 16.6995C16.3244 16.5524 16.2843 16.335 16.2441 16.2145C16.204 16.0975 16.1271 15.9169 16.0669 15.8132C16.01 15.7128 15.9097 15.5723 15.8461 15.4988C15.7792 15.4285 15.6454 15.3081 15.5417 15.2345C15.4347 15.1576 15.2407 15.0606 15.0735 15.0037C14.846 14.9268 14.7323 14.9067 14.4881 14.9067C14.3242 14.9067 14.1135 14.9268 14.0199 14.9502C13.9295 14.9703 13.7891 15.0171 13.7121 15.0506C13.6319 15.084 13.5549 15.1108 13.5349 15.1108C13.5148 15.1108 13.5048 14.6358 13.5181 12.3513H15.1972C16.8462 12.3513 16.8763 12.3513 16.97 12.2844C17.0235 12.2443 17.1004 12.1607 17.1439 12.1004C17.2074 12.0034 17.2175 11.9566 17.2008 11.8161C17.1907 11.7258 17.1272 11.5151 17.0603 11.3479C16.9532 11.0937 16.9365 11.01 16.9365 10.796C16.9365 10.5886 16.9532 10.5083 17.0335 10.3277C17.0904 10.2106 17.1941 10.0467 17.2677 9.96647C17.3412 9.88619 17.4884 9.77916 17.5988 9.7223Z" fill="#8FD6C1"/>
<path d="M9.976 12.6289C9.92917 12.4851 9.88904 12.358 9.88904 12.3446C9.88904 12.3312 10.5346 12.3179 11.3206 12.3179C12.1066 12.3179 12.7689 12.3312 12.7923 12.3446C12.8258 12.3647 12.8325 12.7192 12.8325 13.9401C12.8325 15.2245 12.8425 15.5322 12.8793 15.6058C12.906 15.656 12.9629 15.7296 13.0064 15.7697C13.0499 15.8098 13.1368 15.8667 13.2004 15.9001C13.284 15.9403 13.3609 15.9503 13.468 15.9369C13.5549 15.9269 13.6988 15.87 13.8024 15.8031C13.9061 15.7396 14.0633 15.666 14.1537 15.6392C14.2473 15.6125 14.4045 15.5958 14.5049 15.6024C14.6085 15.6058 14.7791 15.6426 14.8895 15.6861C15.0266 15.7362 15.1404 15.8098 15.2407 15.9135C15.3243 15.9971 15.4414 16.1644 15.5016 16.2848C15.5685 16.4219 15.6153 16.5758 15.6287 16.6995C15.6421 16.8367 15.632 16.9671 15.5953 17.1009C15.5652 17.2113 15.5049 17.3685 15.4581 17.4454C15.4146 17.5224 15.3109 17.6495 15.234 17.723C15.1537 17.7966 15.0099 17.897 14.9062 17.9438C14.7624 18.014 14.6721 18.0308 14.4714 18.0341C14.2674 18.0341 14.1871 18.0174 14.0366 17.9471C13.9362 17.897 13.7857 17.82 13.7021 17.7699C13.585 17.703 13.5181 17.6863 13.3843 17.6929C13.2606 17.703 13.1803 17.7297 13.09 17.7966C13.0231 17.8468 12.9328 17.9538 12.8157 18.1713L12.8325 21.5662L11.1199 21.5696C9.80876 21.5696 9.38397 21.5796 9.32042 21.6097C9.27025 21.6365 9.22677 21.6967 9.2067 21.7703C9.18328 21.8639 9.19332 21.9375 9.28363 22.1783C9.36056 22.389 9.38731 22.5295 9.38731 22.68C9.38731 22.7938 9.3639 22.9643 9.3338 23.0547C9.30704 23.1483 9.22677 23.3055 9.15652 23.4059C9.08294 23.5196 8.95249 23.6467 8.83542 23.727C8.69829 23.8206 8.56115 23.8808 8.39391 23.921C8.25343 23.9511 8.09622 23.9678 8.02598 23.9578C7.95574 23.9444 7.81861 23.9076 7.71492 23.8708C7.61457 23.8373 7.47409 23.7671 7.40051 23.7169C7.33027 23.6668 7.22658 23.5731 7.16972 23.5062C7.1162 23.4426 7.02589 23.2988 6.97572 23.1884C6.92555 23.0781 6.87537 22.9008 6.86199 22.7871C6.84862 22.6265 6.86199 22.5295 6.93224 22.2854C6.98241 22.1215 7.02923 21.9408 7.03927 21.884C7.04596 21.8305 7.03258 21.7502 7.00916 21.71C6.98241 21.6666 6.91217 21.6164 6.84527 21.5997C6.78172 21.5829 6.07597 21.5696 3.76806 21.5662L3.67775 21.4759C3.62758 21.4224 3.57406 21.3287 3.56068 21.2652C3.54396 21.2016 3.53392 20.4992 3.53392 18.2549L3.44361 18.188C3.39344 18.1512 3.32989 18.1211 3.29979 18.1211C3.27303 18.1211 3.11582 18.1679 2.94858 18.2248C2.69772 18.3151 2.61076 18.3285 2.41342 18.3184C2.23949 18.3084 2.12576 18.2783 1.96187 18.198C1.82808 18.1345 1.68425 18.0308 1.58725 17.9237C1.50029 17.8301 1.38322 17.6595 1.32636 17.5458C1.26281 17.412 1.21932 17.2581 1.20594 17.1176C1.19256 16.9872 1.2026 16.83 1.22601 16.7163C1.24943 16.6159 1.31632 16.4453 1.37318 16.3383C1.43005 16.2279 1.54711 16.0741 1.62739 15.9938C1.71101 15.9135 1.86152 15.8065 1.96187 15.7597C2.0689 15.7095 2.23949 15.6627 2.36324 15.6526C2.50038 15.6392 2.64421 15.6459 2.74789 15.6727C2.84155 15.6961 2.98538 15.7396 3.06565 15.7663C3.1593 15.7998 3.25965 15.8098 3.3232 15.7964C3.38006 15.7864 3.45365 15.7429 3.48375 15.7028C3.53058 15.6392 3.53392 15.4386 3.53392 12.3346H4.97218C5.7649 12.3346 6.41045 12.3413 6.41045 12.3446C6.41045 12.348 6.38034 12.4516 6.34355 12.5687C6.30007 12.7059 6.26997 12.9099 6.25993 13.1206C6.25324 13.3046 6.26328 13.532 6.28334 13.6223C6.30007 13.716 6.37365 13.9033 6.44055 14.0404C6.52417 14.2144 6.6312 14.3615 6.77837 14.512C6.91551 14.6492 7.08275 14.7763 7.22992 14.8499C7.36037 14.9168 7.54768 14.997 7.64802 15.0305C7.77512 15.0706 7.93567 15.0907 8.14974 15.0907C8.34708 15.0907 8.55112 15.0673 8.68491 15.0305C8.80532 15.0004 9.00266 14.9201 9.11973 14.8532C9.24014 14.7863 9.42745 14.6391 9.53449 14.5288C9.66493 14.395 9.77531 14.2344 9.85893 14.0572C9.93252 13.91 10.0161 13.6926 10.0429 13.5722C10.0797 13.4283 10.0931 13.2812 10.083 13.1206C10.073 12.9935 10.0262 12.7727 9.976 12.6289Z" fill="#8FD6C1"/>
</svg>
