<svg width="20" height="20" viewBox="0 0 20 20" fill="none" xmlns="http://www.w3.org/2000/svg">
<path d="M10.0001 18.7265C8.04905 17.3685 5.83905 15.7215 3.98005 13.7335C1.60405 11.1935 0.400051 8.69549 0.400051 6.30949C0.400051 4.94049 0.931051 3.65449 1.89405 2.68649C2.85705 1.71949 4.13805 1.18649 5.50005 1.18649C6.31605 1.18649 7.12905 1.38649 7.85205 1.76449C8.57505 2.14249 9.20505 2.69749 9.67205 3.36849L10.0001 3.83949L10.3281 3.36849C10.7961 2.69749 11.4251 2.14249 12.1481 1.76449C12.8711 1.38649 13.6841 1.18649 14.4991 1.18649C15.1731 1.18649 15.8291 1.31749 16.4511 1.57649C17.0731 1.83549 17.6301 2.20849 18.1061 2.68649C18.5821 3.16449 18.9541 3.72449 19.2121 4.34849C19.4701 4.97349 19.6001 5.63349 19.6001 6.30949C19.6001 8.69549 18.3961 11.1935 16.0201 13.7335C14.1611 15.7215 11.9511 17.3685 10.0001 18.7265Z" fill="#AEBBCE"/>
<path d="M14.5 1.5865C15.12 1.5865 15.725 1.7075 16.298 1.9455C16.871 2.1835 17.384 2.5285 17.823 2.9685C18.262 3.4095 18.605 3.9245 18.843 4.5005C19.081 5.0765 19.201 5.6855 19.201 6.3095C19.201 8.5915 18.033 10.9975 15.729 13.4605C13.967 15.3445 11.877 16.9245 10.001 18.2385C8.125 16.9235 6.035 15.3445 4.273 13.4605C1.968 10.9965 0.8 8.5905 0.8 6.3095C0.8 5.0475 1.289 3.8605 2.178 2.9685C3.066 2.0775 4.245 1.5865 5.501 1.5865C6.252 1.5865 7.001 1.7705 7.666 2.1185C8.332 2.4675 8.912 2.9785 9.343 3.5975L10 4.5405L10.657 3.5975C11.088 2.9785 11.668 2.4675 12.334 2.1185C13 1.7705 13.75 1.5865 14.5 1.5865ZM14.499 0.786499C13.616 0.786499 12.746 1.0005 11.963 1.4105C11.18 1.8205 10.506 2.4135 10 3.1405C9.494 2.4135 8.82 1.8205 8.037 1.4105C7.254 1.0005 6.384 0.786499 5.501 0.786499C4.042 0.786499 2.643 1.3685 1.612 2.4045C0.579 3.4395 0 4.8445 0 6.3095C0 12.0525 6.5 16.7905 10 19.2135C13.5 16.7915 20 12.0525 20 6.3095C20 5.5845 19.858 4.8655 19.581 4.1955C19.305 3.5255 18.899 2.9165 18.389 2.4035C17.879 1.8905 17.272 1.4835 16.605 1.2065C15.938 0.928499 15.222 0.786499 14.499 0.786499Z" fill="#AEBBCE"/>
</svg>
